<svg xmlns="http://www.w3.org/2000/svg" xmlns:xlink="http://www.w3.org/1999/xlink" width="203.8" height="201.92" viewBox="0 0 203.8 201.92">
  <defs>
    <style>
      .cls-1 {
        fill: none;
      }

      .cls-2 {
        fill: url(#linear-gradient);
      }

      .cls-3 {
        clip-path: url(#clip-path);
      }

      .cls-4 {
        fill: url(#linear-gradient-2);
      }

      .cls-5 {
        fill: url(#linear-gradient-3);
      }

      .cls-20, .cls-6, .cls-8 {
        fill: #fff;
      }

      .cls-7 {
        fill: url(#linear-gradient-4);
      }

      .cls-8 {
        opacity: 0.41;
      }

      .cls-9 {
        fill: url(#linear-gradient-5);
      }

      .cls-10 {
        fill: url(#linear-gradient-6);
      }

      .cls-11 {
        fill: url(#linear-gradient-7);
      }

      .cls-12 {
        fill: url(#linear-gradient-8);
      }

      .cls-13 {
        clip-path: url(#clip-path-2);
      }

      .cls-14 {
        fill: url(#linear-gradient-9);
      }

      .cls-15 {
        fill: url(#linear-gradient-10);
      }

      .cls-16 {
        fill: url(#linear-gradient-11);
      }

      .cls-17 {
        fill: url(#linear-gradient-12);
      }

      .cls-18 {
        fill: url(#linear-gradient-13);
      }

      .cls-19 {
        fill: url(#linear-gradient-14);
      }

      .cls-20 {
        fill-rule: evenodd;
      }

      .cls-21 {
        fill: #3a0ca3;
      }
    </style>
    <linearGradient id="linear-gradient" x1="100.96" y1="201.92" x2="100.96" gradientUnits="userSpaceOnUse">
      <stop offset="0" stop-color="#f72585"/>
      <stop offset="1" stop-color="#b5179e"/>
    </linearGradient>
    <clipPath id="clip-path">
      <circle class="cls-1" cx="100.96" cy="100.96" r="100.96"/>
    </clipPath>
    <linearGradient id="linear-gradient-2" x1="-3097.19" y1="38.38" x2="-3056.77" y2="-82.86" gradientTransform="matrix(-1, 0.09, 0.09, 1, -2965.1, 400.62)" gradientUnits="userSpaceOnUse">
      <stop offset="0" stop-color="#2b3582"/>
      <stop offset="1" stop-color="#150e42"/>
    </linearGradient>
    <linearGradient id="linear-gradient-3" x1="423.88" y1="-60.56" x2="371.94" y2="100.15" gradientTransform="translate(-303.19 158.78) rotate(-5.19)" gradientUnits="userSpaceOnUse">
      <stop offset="0" stop-color="#fdf53f"/>
      <stop offset="0.66" stop-color="#e57a58"/>
      <stop offset="1" stop-color="#d93c65"/>
    </linearGradient>
    <linearGradient id="linear-gradient-4" x1="-3007.54" y1="32.01" x2="-3178.98" y2="73.72" gradientTransform="matrix(1, 0, 0, -1, 3187.92, 221.25)" xlink:href="#linear-gradient-2"/>
    <linearGradient id="linear-gradient-5" x1="327.04" y1="36.85" x2="361.73" y2="-9.68" gradientTransform="translate(-303.19 158.78) rotate(-5.19)" xlink:href="#linear-gradient-2"/>
    <linearGradient id="linear-gradient-6" x1="385.46" y1="-75.68" x2="448.6" y2="36.78" gradientTransform="translate(-303.19 158.78) rotate(-5.19)" gradientUnits="userSpaceOnUse">
      <stop offset="0" stop-color="#cb236d"/>
      <stop offset="1" stop-color="#4c246d"/>
    </linearGradient>
    <linearGradient id="linear-gradient-7" x1="504.6" y1="-61.29" x2="440.3" y2="-34.5" gradientTransform="translate(-308.55 118.17)" gradientUnits="userSpaceOnUse">
      <stop offset="0" stop-color="#a737d5"/>
      <stop offset="1" stop-color="#ef497a"/>
    </linearGradient>
    <linearGradient id="linear-gradient-8" x1="439.81" y1="-37.98" x2="465.33" y2="-40.3" gradientTransform="translate(-303.19 158.78) rotate(-5.19)" xlink:href="#linear-gradient-7"/>
    <clipPath id="clip-path-2">
      <path class="cls-1" d="M146.72,123.49c-.95-.81-3.16-4.06-5.59-12.76a180.44,180.44,0,0,1-5.28-31,180.46,180.46,0,0,1-.4-31.46c.82-9,2.41-12.6,3.21-13.56,1,.8,3.16,4,5.59,12.76,2.36,8.41,15.79,18.38,16.85,30s-10.37,23.82-11.17,32.52C149.11,118.93,147.52,122.52,146.72,123.49Z"/>
    </clipPath>
    <linearGradient id="linear-gradient-9" x1="472" y1="-40.6" x2="403.19" y2="-36.65" gradientTransform="translate(-303.19 158.78) rotate(-5.19)" xlink:href="#linear-gradient-2"/>
    <linearGradient id="linear-gradient-10" x1="341.65" y1="-16.15" x2="339.11" y2="-80.03" gradientTransform="translate(-303.19 158.78) rotate(-5.19)" xlink:href="#linear-gradient-2"/>
    <linearGradient id="linear-gradient-11" x1="121.29" y1="-425.36" x2="795.32" y2="290.86" gradientTransform="translate(27.24 -385.37) rotate(75.69)" xlink:href="#linear-gradient-7"/>
    <linearGradient id="linear-gradient-12" x1="149.17" y1="-348.36" x2="871.78" y2="419.5" gradientTransform="translate(75.67 -349.57) rotate(75.59)" gradientUnits="userSpaceOnUse">
      <stop offset="0" stop-color="#53d8ff"/>
      <stop offset="1" stop-color="#3840f7"/>
    </linearGradient>
    <linearGradient id="linear-gradient-13" x1="485.02" y1="-106.26" x2="467.7" y2="-50.09" gradientTransform="translate(-33.52 -408.56) rotate(75.59)" gradientUnits="userSpaceOnUse">
      <stop offset="0" stop-color="#b37cff"/>
      <stop offset="1" stop-color="#f895e7"/>
    </linearGradient>
    <linearGradient id="linear-gradient-14" x1="469.67" y1="-26.53" x2="441.8" y2="52.52" gradientTransform="translate(-303.19 158.78) rotate(-5.19)" xlink:href="#linear-gradient-13"/>
  </defs>
  <g id="Capa_2" data-name="Capa 2">
    <g id="Capa_1-2" data-name="Capa 1">
      <g>
        <circle class="cls-2" cx="100.96" cy="100.96" r="100.96"/>
        <g class="cls-3">
          <g>
            <g>
              <path class="cls-4" d="M19.33,172.43a3.17,3.17,0,0,0,3.44,2.86l170.41-15.48a3.18,3.18,0,0,0,2.87-3.44l-7.48-98.06A5.52,5.52,0,0,0,182.35,54L15.41,64.8A8,8,0,0,0,8,73.66Z"/>
              <path class="cls-5" d="M22.16,169.13a3,3,0,0,0,3.26,2.71L188.78,157a3,3,0,0,0,2.71-3.25l-6.74-89a7.36,7.36,0,0,0-8.34-6.46L16.4,68.48a5.6,5.6,0,0,0-5.21,6.23Z"/>
              <g>
                <path class="cls-6" d="M185.89,111.67h0a.44.44,0,0,1-.47-.41l-.55-7.22a.44.44,0,0,1,.4-.47h0a.44.44,0,0,1,.47.41l.55,7.22A.44.44,0,0,1,185.89,111.67Z"/>
                <path class="cls-6" d="M184.54,94h0a.44.44,0,0,1-.47-.41L182,65.92a5.19,5.19,0,0,0-1.83-3.75,7.36,7.36,0,0,0-5-1.21L124,64.23a.45.45,0,0,1-.47-.41.43.43,0,0,1,.41-.47l51.11-3.26a8,8,0,0,1,5.62,1.4,6,6,0,0,1,2.16,4.36l2.1,27.66A.45.45,0,0,1,184.54,94Z"/>
              </g>
              <rect class="cls-7" x="10.52" y="167.15" width="193.65" height="8.64" rx="4.24" transform="translate(229.77 332.52) rotate(174.81)"/>
              <rect class="cls-8" x="27.37" y="126.1" width="74.96" height="39.32" rx="16" transform="translate(-12.92 6.47) rotate(-5.19)"/>
              <rect class="cls-8" x="103.12" y="69.81" width="73.61" height="27.1" rx="13.29" transform="translate(-6.97 13) rotate(-5.19)"/>
              <rect class="cls-8" x="106.86" y="100.12" width="73.61" height="27.1" rx="13.29" transform="translate(-9.7 13.47) rotate(-5.19)"/>
              <rect class="cls-8" x="110.7" y="130.22" width="73.61" height="27.1" rx="13.29" transform="translate(-12.4 13.94) rotate(-5.19)"/>
              <path class="cls-8" d="M96.57,117.11l-66.85,6.07a3.92,3.92,0,0,1-4.26-3.55L20.35,81.4a4.6,4.6,0,0,1,4.29-5.2l67.84-4.1a3.91,3.91,0,0,1,4.25,3.54l3.38,37.21A3.92,3.92,0,0,1,96.57,117.11Z"/>
            </g>
            <g>
              <path class="cls-9" d="M23.91,108.37s19.6,40.26,25.38,48.48c6.71,9.54,23.06,1.58,21.45-6.77S46.19,108.7,46.19,108.7Z"/>
              <polygon class="cls-10" points="42.51 76.06 137.68 33.06 145.02 125.35 43.08 112.13 42.51 76.06"/>
              <ellipse class="cls-11" cx="141.98" cy="79.42" rx="9.69" ry="47.57" transform="translate(-6.6 13.17) rotate(-5.19)"/>
              <path class="cls-12" d="M146.72,123.49c-.95-.81-3.16-4.06-5.59-12.76a180.44,180.44,0,0,1-5.28-31,180.46,180.46,0,0,1-.4-31.46c.82-9,2.41-12.6,3.21-13.56,1,.8,3.16,4,5.59,12.76a181.22,181.22,0,0,1,5.29,31,181.47,181.47,0,0,1,.39,31.47C149.11,118.93,147.52,122.52,146.72,123.49Z"/>
              <g class="cls-13">
                <path class="cls-14" d="M155,77.61c.73,8-3,15-11.59,15.75s-16.14-5.12-16.87-13.17,5.63-15.21,14.22-16S154.3,69.55,155,77.61Z"/>
              </g>
              <path class="cls-15" d="M26.48,75.51A55.48,55.48,0,0,1,45,74.75c-1.24,12.55.29,25.37,4.23,38.44L29,115a6.57,6.57,0,0,1-7-4.93c-1.59-6.29-3.79-16.9-3.26-25.64A9.73,9.73,0,0,1,26.48,75.51Z"/>
              <path class="cls-6" d="M39.47,83.86,23.73,85.29a1.45,1.45,0,0,1-1.41-2.11.41.41,0,1,1,.72.38.63.63,0,0,0,.61.92L39.4,83.05a.63.63,0,0,0,.57-.69l-.1-1.12a.64.64,0,0,0-.69-.57L23.32,82.12a.41.41,0,0,1-.44-.37.4.4,0,0,1,.37-.44l15.86-1.45a1.45,1.45,0,0,1,1.57,1.31l.1,1.12A1.45,1.45,0,0,1,39.47,83.86Z"/>
              <path class="cls-6" d="M38.7,91,23,92.39a1.44,1.44,0,0,1-1.33-.63,1.45,1.45,0,0,1-.07-1.48.42.42,0,0,1,.55-.17.41.41,0,0,1,.17.55.63.63,0,0,0,.61.92l15.75-1.43a.63.63,0,0,0,.57-.68l-.1-1.12a.63.63,0,0,0-.69-.57L22.55,89.22a.41.41,0,0,1-.08-.81L38.34,87a1.45,1.45,0,0,1,1.57,1.3l.1,1.12A1.44,1.44,0,0,1,38.7,91Z"/>
              <path class="cls-6" d="M56.56,72.26a.4.4,0,0,1-.41-.24.41.41,0,0,1,.22-.54L128.64,41a.41.41,0,0,1,.31.75L56.68,72.23A.24.24,0,0,1,56.56,72.26Z"/>
              <path class="cls-6" d="M46.87,77.29a.38.38,0,0,1-.39-.22.39.39,0,0,1,.17-.54l3.69-1.92a.42.42,0,0,1,.55.18.4.4,0,0,1-.18.54L47,77.25A.37.37,0,0,1,46.87,77.29Z"/>
              <path class="cls-6" d="M40.85,99,25.1,100.43a1.44,1.44,0,0,1-1.41-2.11.42.42,0,0,1,.55-.17.4.4,0,0,1,.17.55.64.64,0,0,0,.62.92l15.75-1.43a.63.63,0,0,0,.57-.68l-.11-1.12a.62.62,0,0,0-.68-.57L24.7,97.26a.41.41,0,1,1-.08-.81L40.49,95a1.44,1.44,0,0,1,1.56,1.3l.11,1.12A1.45,1.45,0,0,1,40.85,99Z"/>
              <path class="cls-6" d="M43.15,107.93,27.4,109.36a1.44,1.44,0,0,1-1.41-2.1.41.41,0,0,1,.72.38.62.62,0,0,0,0,.64.6.6,0,0,0,.58.27l15.74-1.43a.61.61,0,0,0,.57-.68l-.1-1.12a.63.63,0,0,0-.68-.57L27,106.19a.4.4,0,0,1-.44-.37.41.41,0,0,1,.37-.44l15.87-1.44a1.44,1.44,0,0,1,1.56,1.31l.1,1.12A1.43,1.43,0,0,1,43.15,107.93Z"/>
              <path class="cls-6" d="M61.69,156a9.64,9.64,0,0,1-2.21,0,10.17,10.17,0,0,1-7.68-5.14L36.68,124a.41.41,0,0,1,.15-.55.42.42,0,0,1,.56.15l15.12,26.81a9.38,9.38,0,0,0,7.07,4.74,9.18,9.18,0,0,0,7.86-2.79l.33-.35a.4.4,0,0,1,.6.54l-.34.37A10,10,0,0,1,61.69,156Z"/>
              <path class="cls-6" d="M34.84,120.2a.41.41,0,0,1-.4-.2l-1.68-3a.42.42,0,0,1,.15-.56.41.41,0,0,1,.56.16l1.68,3a.41.41,0,0,1-.15.55A.33.33,0,0,1,34.84,120.2Z"/>
              <path class="cls-6" d="M152.69,77.39a.39.39,0,0,1-.43-.34c-.64-3.91-2.28-6.73-4.86-8.37-4.47-2.83-10.34-1.18-10.39-1.16a.42.42,0,0,1-.51-.28.4.4,0,0,1,.28-.5c.25-.08,6.28-1.77,11.05,1.26,2.79,1.76,4.55,4.77,5.23,8.92a.42.42,0,0,1-.34.47Z"/>
            </g>
            <g>
              <g>
                <circle class="cls-16" cx="181.23" cy="80.54" r="15.06" transform="translate(73 246.72) rotate(-80.89)"/>
                <g>
                  <rect class="cls-6" x="173.7" y="75.36" width="3.87" height="12.63" rx="0.7" transform="translate(-6.67 16.23) rotate(-5.19)"/>
                  <path class="cls-6" d="M185.68,74.42l-2.53.23-.28-3a1.43,1.43,0,0,0-1.63-1.48h-.06a1.71,1.71,0,0,0-1.6,1.85L179,75.09c-.39,0-1,.37-.93.75l1,11.49c0,.38,1,.8,1.37.77l.54,0,5.84-.53a2.78,2.78,0,0,0,2.34-3.06l-.69-7.62A2.64,2.64,0,0,0,185.68,74.42Z"/>
                </g>
              </g>
              <g>
                <circle class="cls-17" cx="184.96" cy="127.24" r="13.1" transform="translate(29.75 289.44) rotate(-80.79)"/>
                <path class="cls-6" d="M190.23,123.1c-1.54-1.26-3.71-.65-5.12.77a.59.59,0,0,1-.75.07c-1.65-1.11-3.89-1.29-5.16.26a3.92,3.92,0,0,0,.55,5.51l5.6,4.58a.59.59,0,0,0,.84-.08l4.59-5.6A3.92,3.92,0,0,0,190.23,123.1Z"/>
              </g>
              <g>
                <circle class="cls-18" cx="165.04" cy="33.58" r="13.81" transform="translate(105.47 191.12) rotate(-80.79)"/>
                <g>
                  <path class="cls-6" d="M168.51,28.74c.19,2.13-1.33,4.58-3.45,4.77s-4.06-1.94-4.26-4.07a3.88,3.88,0,0,1,7.71-.7Z"/>
                  <path class="cls-6" d="M161,42.14l9.4-.86a2.29,2.29,0,0,0,2-1.77l.36-1.63a2.29,2.29,0,0,0-1.63-2.71,17.61,17.61,0,0,0-11.83,1.21,2.27,2.27,0,0,0-1.2,2.88l.52,1.4A2.29,2.29,0,0,0,161,42.14Z"/>
                </g>
              </g>
              <g>
                <circle class="cls-19" cx="157.28" cy="109.04" r="12.15"/>
                <g>
                  <path class="cls-6" d="M158,116.63a7.62,7.62,0,1,1,6.9-8.28A7.63,7.63,0,0,1,158,116.63Zm-1.26-13.9a6.34,6.34,0,1,0,6.89,5.74A6.34,6.34,0,0,0,156.71,102.73Z"/>
                  <path class="cls-20" d="M155.17,112.18l-.49-5.46a.75.75,0,0,1,1.07-.75l4.85,2.31a.76.76,0,0,1,.12,1.3l-4.35,3.14A.76.76,0,0,1,155.17,112.18Z"/>
                </g>
              </g>
            </g>
          </g>
        </g>
        <path class="cls-21" d="M101,10a91,91,0,1,1-91,91,91.06,91.06,0,0,1,91-91m0-10a101,101,0,1,0,101,101A101,101,0,0,0,101,0Z"/>
      </g>
    </g>
  </g>
</svg>
