<svg xmlns="http://www.w3.org/2000/svg" xmlns:xlink="http://www.w3.org/1999/xlink" width="201.92" height="222.28" viewBox="0 0 201.92 222.28">
  <defs>
    <style>
      .cls-1 {
        fill: none;
      }

      .cls-2 {
        isolation: isolate;
      }

      .cls-3 {
        fill: url(#linear-gradient);
      }

      .cls-4 {
        clip-path: url(#clip-path);
      }

      .cls-30, .cls-5, .cls-6 {
        opacity: 0.5;
      }

      .cls-118, .cls-124, .cls-125, .cls-129, .cls-130, .cls-20, .cls-28, .cls-47, .cls-48, .cls-49, .cls-5, .cls-56, .cls-6, .cls-69, .cls-81, .cls-82 {
        mix-blend-mode: color-dodge;
      }

      .cls-5 {
        fill: url(#radial-gradient);
      }

      .cls-6 {
        fill: url(#New_Gradient_Swatch_copy_2);
      }

      .cls-7 {
        opacity: 0.2;
      }

      .cls-8, .cls-84 {
        opacity: 0;
      }

      .cls-85, .cls-9 {
        opacity: 0.09;
      }

      .cls-10, .cls-86 {
        opacity: 0.18;
      }

      .cls-11, .cls-87 {
        opacity: 0.27;
      }

      .cls-12, .cls-88 {
        opacity: 0.36;
      }

      .cls-13, .cls-89 {
        opacity: 0.45;
      }

      .cls-14, .cls-90 {
        opacity: 0.55;
      }

      .cls-15, .cls-91 {
        opacity: 0.64;
      }

      .cls-16, .cls-92 {
        opacity: 0.73;
      }

      .cls-17, .cls-93 {
        opacity: 0.82;
      }

      .cls-18, .cls-94 {
        opacity: 0.91;
      }

      .cls-19 {
        fill: url(#linear-gradient-2);
      }

      .cls-20 {
        fill: url(#radial-gradient-2);
      }

      .cls-21 {
        opacity: 0.6;
        fill: url(#radial-gradient-3);
      }

      .cls-117, .cls-21, .cls-32, .cls-43, .cls-50, .cls-51, .cls-52, .cls-53, .cls-54, .cls-55, .cls-58, .cls-59, .cls-70, .cls-71, .cls-72, .cls-73, .cls-74, .cls-75, .cls-76, .cls-77, .cls-78, .cls-79, .cls-80 {
        mix-blend-mode: screen;
      }

      .cls-22 {
        fill: #32084f;
      }

      .cls-23 {
        fill: url(#linear-gradient-3);
      }

      .cls-24 {
        fill: url(#linear-gradient-4);
      }

      .cls-25 {
        fill: url(#linear-gradient-5);
      }

      .cls-26 {
        fill: url(#linear-gradient-6);
      }

      .cls-27 {
        fill: url(#linear-gradient-7);
      }

      .cls-28 {
        fill: url(#radial-gradient-4);
      }

      .cls-29 {
        fill: #fff;
      }

      .cls-30, .cls-31 {
        fill: #9f19ab;
      }

      .cls-32, .cls-43 {
        fill: #b086cc;
      }

      .cls-33 {
        fill: url(#linear-gradient-8);
      }

      .cls-34 {
        fill: url(#New_Gradient_Swatch_copy_8);
      }

      .cls-35 {
        fill: url(#linear-gradient-9);
      }

      .cls-36 {
        fill: url(#linear-gradient-10);
      }

      .cls-37 {
        fill: url(#linear-gradient-11);
      }

      .cls-38 {
        fill: url(#New_Gradient_Swatch_copy_8-2);
      }

      .cls-39 {
        fill: url(#linear-gradient-12);
      }

      .cls-40 {
        fill: url(#linear-gradient-13);
      }

      .cls-41, .cls-42 {
        fill: #45108a;
      }

      .cls-41, .cls-54, .cls-74, .cls-80, .cls-81, .cls-83 {
        opacity: 0.3;
      }

      .cls-111, .cls-112, .cls-113, .cls-121, .cls-126, .cls-41, .cls-83 {
        mix-blend-mode: multiply;
      }

      .cls-43 {
        opacity: 0.7;
      }

      .cls-44 {
        fill: url(#New_Gradient_Swatch_copy_8-3);
      }

      .cls-45 {
        fill: url(#linear-gradient-14);
      }

      .cls-46 {
        fill: url(#New_Gradient_Swatch_copy_9);
      }

      .cls-47 {
        fill: url(#radial-gradient-5);
      }

      .cls-48 {
        fill: url(#radial-gradient-6);
      }

      .cls-49 {
        fill: url(#radial-gradient-7);
      }

      .cls-50 {
        fill: url(#radial-gradient-8);
      }

      .cls-51, .cls-71, .cls-77 {
        opacity: 0.83;
      }

      .cls-51 {
        fill: url(#radial-gradient-9);
      }

      .cls-52, .cls-72, .cls-78 {
        opacity: 0.65;
      }

      .cls-52 {
        fill: url(#radial-gradient-10);
      }

      .cls-53, .cls-73, .cls-79 {
        opacity: 0.48;
      }

      .cls-53 {
        fill: url(#radial-gradient-11);
      }

      .cls-54 {
        fill: url(#radial-gradient-12);
      }

      .cls-55 {
        fill: url(#radial-gradient-13);
      }

      .cls-57, .cls-69 {
        fill: #6b24d6;
      }

      .cls-58 {
        fill: url(#radial-gradient-14);
      }

      .cls-59 {
        fill: url(#radial-gradient-15);
      }

      .cls-60, .cls-61 {
        opacity: 0.8;
      }

      .cls-60 {
        fill: url(#New_Gradient_Swatch_copy_26);
      }

      .cls-61 {
        fill: url(#Radial_Gradient_1);
      }

      .cls-62 {
        fill: url(#New_Gradient_Swatch_copy_7);
      }

      .cls-63 {
        fill: #e6e7e8;
      }

      .cls-64 {
        fill: #f1f2f2;
      }

      .cls-65 {
        fill: url(#New_Gradient_Swatch_copy_13);
      }

      .cls-66 {
        fill: url(#New_Gradient_Swatch_copy_8-4);
      }

      .cls-67 {
        fill: url(#linear-gradient-15);
      }

      .cls-68 {
        fill: url(#New_Gradient_Swatch_copy_13-2);
      }

      .cls-70 {
        fill: url(#radial-gradient-16);
      }

      .cls-71 {
        fill: url(#radial-gradient-17);
      }

      .cls-72 {
        fill: url(#radial-gradient-18);
      }

      .cls-73 {
        fill: url(#radial-gradient-19);
      }

      .cls-74 {
        fill: url(#radial-gradient-20);
      }

      .cls-75 {
        fill: url(#radial-gradient-21);
      }

      .cls-76 {
        fill: url(#radial-gradient-22);
      }

      .cls-77 {
        fill: url(#radial-gradient-23);
      }

      .cls-78 {
        fill: url(#radial-gradient-24);
      }

      .cls-79 {
        fill: url(#radial-gradient-25);
      }

      .cls-80 {
        fill: url(#radial-gradient-26);
      }

      .cls-82 {
        fill: url(#radial-gradient-27);
      }

      .cls-84 {
        fill: url(#linear-gradient-16);
      }

      .cls-85 {
        fill: url(#linear-gradient-17);
      }

      .cls-86 {
        fill: url(#linear-gradient-18);
      }

      .cls-87 {
        fill: url(#linear-gradient-19);
      }

      .cls-88 {
        fill: url(#linear-gradient-20);
      }

      .cls-89 {
        fill: url(#linear-gradient-21);
      }

      .cls-90 {
        fill: url(#linear-gradient-22);
      }

      .cls-91 {
        fill: url(#linear-gradient-23);
      }

      .cls-92 {
        fill: url(#linear-gradient-24);
      }

      .cls-93 {
        fill: url(#linear-gradient-25);
      }

      .cls-94 {
        fill: url(#linear-gradient-26);
      }

      .cls-95 {
        fill: url(#linear-gradient-27);
      }

      .cls-96 {
        fill: url(#linear-gradient-28);
      }

      .cls-97 {
        fill: url(#linear-gradient-29);
      }

      .cls-98 {
        fill: url(#linear-gradient-30);
      }

      .cls-99 {
        fill: url(#linear-gradient-31);
      }

      .cls-100 {
        fill: url(#linear-gradient-32);
      }

      .cls-101, .cls-111 {
        fill: #c7bcd6;
      }

      .cls-102 {
        fill: url(#linear-gradient-33);
      }

      .cls-103 {
        fill: url(#linear-gradient-34);
      }

      .cls-104 {
        fill: url(#linear-gradient-35);
      }

      .cls-105 {
        fill: url(#linear-gradient-36);
      }

      .cls-106 {
        fill: url(#linear-gradient-37);
      }

      .cls-107 {
        fill: url(#linear-gradient-38);
      }

      .cls-108 {
        fill: url(#linear-gradient-39);
      }

      .cls-109 {
        fill: url(#linear-gradient-40);
      }

      .cls-110 {
        fill: url(#New_Gradient_Swatch_copy_8-5);
      }

      .cls-112 {
        fill: url(#radial-gradient-28);
      }

      .cls-114 {
        fill: url(#linear-gradient-41);
      }

      .cls-115 {
        fill: url(#linear-gradient-42);
      }

      .cls-116 {
        fill: url(#linear-gradient-43);
      }

      .cls-117 {
        fill: url(#White_Black_Radial);
      }

      .cls-118 {
        fill: url(#radial-gradient-29);
      }

      .cls-119 {
        fill: url(#linear-gradient-44);
      }

      .cls-120 {
        fill: url(#linear-gradient-45);
      }

      .cls-121 {
        fill: url(#radial-gradient-30);
      }

      .cls-122 {
        fill: url(#linear-gradient-46);
      }

      .cls-123 {
        fill: url(#linear-gradient-47);
      }

      .cls-124 {
        fill: url(#radial-gradient-31);
      }

      .cls-125 {
        fill: url(#radial-gradient-32);
      }

      .cls-126 {
        fill: url(#radial-gradient-33);
      }

      .cls-127 {
        fill: url(#linear-gradient-48);
      }

      .cls-128 {
        fill: url(#linear-gradient-49);
      }

      .cls-129 {
        fill: url(#radial-gradient-34);
      }

      .cls-130 {
        fill: url(#radial-gradient-35);
      }

      .cls-131 {
        fill: #3a0ca3;
      }
    </style>
    <linearGradient id="linear-gradient" x1="100.96" y1="212.1" x2="100.96" y2="10.18" gradientUnits="userSpaceOnUse">
      <stop offset="0" stop-color="#f72585"/>
      <stop offset="1" stop-color="#b5179e"/>
    </linearGradient>
    <clipPath id="clip-path" transform="translate(0 10.18)">
      <circle class="cls-1" cx="100.96" cy="100.96" r="100.96"/>
    </clipPath>
    <radialGradient id="radial-gradient" cx="4811.34" cy="-2887.18" r="32.45" gradientTransform="matrix(-1.34, 0, 0, 0.46, 6578.42, 1533)" gradientUnits="userSpaceOnUse">
      <stop offset="0" stop-color="#972a74"/>
      <stop offset="0.04" stop-color="#8a266a"/>
      <stop offset="0.19" stop-color="#601b4a"/>
      <stop offset="0.35" stop-color="#3d112f"/>
      <stop offset="0.51" stop-color="#230a1b"/>
      <stop offset="0.67" stop-color="#0f040c"/>
      <stop offset="0.83" stop-color="#040103"/>
      <stop offset="1"/>
    </radialGradient>
    <radialGradient id="New_Gradient_Swatch_copy_2" data-name="New Gradient Swatch copy 2" cx="124.47" cy="646.53" r="70.71" gradientTransform="translate(-21.26 -837.12) scale(0.93 1.45)" gradientUnits="userSpaceOnUse">
      <stop offset="0" stop-color="#dc3daa"/>
      <stop offset="0.11" stop-color="#b5328c"/>
      <stop offset="0.28" stop-color="#7f2362"/>
      <stop offset="0.45" stop-color="#51173f"/>
      <stop offset="0.61" stop-color="#2e0d23"/>
      <stop offset="0.76" stop-color="#150610"/>
      <stop offset="0.89" stop-color="#050104"/>
      <stop offset="1"/>
    </radialGradient>
    <linearGradient id="linear-gradient-2" x1="66.69" y1="21.41" x2="127.58" y2="126.88" gradientUnits="userSpaceOnUse">
      <stop offset="0.06" stop-color="#200041"/>
      <stop offset="0.26" stop-color="#210243"/>
      <stop offset="0.36" stop-color="#25084b"/>
      <stop offset="0.43" stop-color="#2c1358"/>
      <stop offset="0.47" stop-color="#311b61"/>
      <stop offset="0.48" stop-color="#351f65"/>
      <stop offset="0.5" stop-color="#422c73"/>
      <stop offset="0.51" stop-color="#584188"/>
      <stop offset="0.52" stop-color="#765fa7"/>
      <stop offset="0.53" stop-color="#8770b8"/>
      <stop offset="0.54" stop-color="#7e67ae"/>
      <stop offset="0.56" stop-color="#5c468d"/>
      <stop offset="0.59" stop-color="#442e75"/>
      <stop offset="0.61" stop-color="#362066"/>
      <stop offset="0.63" stop-color="#311b61"/>
      <stop offset="0.67" stop-color="#2a1155"/>
      <stop offset="0.75" stop-color="#230446"/>
      <stop offset="0.81" stop-color="#200041"/>
      <stop offset="1" stop-color="#200041"/>
    </linearGradient>
    <radialGradient id="radial-gradient-2" cx="161.32" cy="64.26" r="114.27" gradientUnits="userSpaceOnUse">
      <stop offset="0" stop-color="#711f56"/>
      <stop offset="0.16" stop-color="#6c1e52"/>
      <stop offset="0.36" stop-color="#5c1946"/>
      <stop offset="0.58" stop-color="#431233"/>
      <stop offset="0.82" stop-color="#200918"/>
      <stop offset="1"/>
    </radialGradient>
    <radialGradient id="radial-gradient-3" cx="142.2" cy="56.1" r="67.32" gradientUnits="userSpaceOnUse">
      <stop offset="0" stop-color="#af8afc"/>
      <stop offset="1" stop-color="#10054d"/>
    </radialGradient>
    <linearGradient id="linear-gradient-3" x1="150.06" y1="190.71" x2="55.54" y2="-9" gradientUnits="userSpaceOnUse">
      <stop offset="0" stop-color="#311b61"/>
      <stop offset="0.2" stop-color="#290f52"/>
      <stop offset="0.49" stop-color="#200041"/>
      <stop offset="1" stop-color="#0f001f"/>
    </linearGradient>
    <linearGradient id="linear-gradient-4" x1="80.78" y1="107.04" x2="140.14" y2="107.04" xlink:href="#linear-gradient-3"/>
    <linearGradient id="linear-gradient-5" x1="74.08" y1="37.66" x2="164.38" y2="209.86" gradientUnits="userSpaceOnUse">
      <stop offset="0.01" stop-color="#9f19ab"/>
      <stop offset="0.43" stop-color="#5f27bd"/>
      <stop offset="0.9" stop-color="#3d065f"/>
    </linearGradient>
    <linearGradient id="linear-gradient-6" x1="-433.54" y1="10140.29" x2="-422.92" y2="10140.29" gradientTransform="matrix(-0.5, 1.44, -0.87, 0.5, 8713.38, -4364.43)" xlink:href="#linear-gradient-3"/>
    <linearGradient id="linear-gradient-7" x1="148.73" y1="87.73" x2="141.41" y2="87.42" gradientUnits="userSpaceOnUse">
      <stop offset="0" stop-color="#3d065f"/>
      <stop offset="1" stop-color="#5f27bd"/>
    </linearGradient>
    <radialGradient id="radial-gradient-4" cx="145.05" cy="84.61" r="4.3" xlink:href="#radial-gradient-2"/>
    <linearGradient id="linear-gradient-8" x1="-296.21" y1="2101.5" x2="-290.15" y2="2101.5" gradientTransform="matrix(0.87, 0.5, 0, 1.15, 344.23, -2219.84)" gradientUnits="userSpaceOnUse">
      <stop offset="0.04" stop-color="#602213"/>
      <stop offset="0.57" stop-color="#6d310e"/>
      <stop offset="1" stop-color="#7a4108"/>
    </linearGradient>
    <linearGradient id="New_Gradient_Swatch_copy_8" data-name="New Gradient Swatch copy 8" x1="-296.01" y1="2101.78" x2="-290.24" y2="2101.78" gradientTransform="matrix(0.87, 0.5, 0, 1.15, 344.23, -2219.84)" gradientUnits="userSpaceOnUse">
      <stop offset="0.04" stop-color="#ffa98c"/>
      <stop offset="0.32" stop-color="#ffb892"/>
      <stop offset="0.86" stop-color="#fee1a3"/>
      <stop offset="1" stop-color="#feeca8"/>
    </linearGradient>
    <linearGradient id="linear-gradient-9" x1="-294.3" y1="2100.08" x2="-295.13" y2="2098.74" xlink:href="#linear-gradient-8"/>
    <linearGradient id="linear-gradient-10" x1="-293.66" y1="2100.4" x2="-290.51" y2="2100.4" xlink:href="#linear-gradient-8"/>
    <linearGradient id="linear-gradient-11" x1="-296.21" y1="2137.88" x2="-290.15" y2="2137.88" xlink:href="#linear-gradient-8"/>
    <linearGradient id="New_Gradient_Swatch_copy_8-2" x1="-296.01" y1="2138.16" x2="-290.24" y2="2138.16" xlink:href="#New_Gradient_Swatch_copy_8"/>
    <linearGradient id="linear-gradient-12" x1="-294.3" y1="2136.46" x2="-295.13" y2="2135.12" xlink:href="#linear-gradient-8"/>
    <linearGradient id="linear-gradient-13" x1="-293.66" y1="2136.78" x2="-290.51" y2="2136.78" xlink:href="#linear-gradient-8"/>
    <linearGradient id="New_Gradient_Swatch_copy_8-3" x1="-476.92" y1="2148.74" x2="-470.55" y2="2148.74" gradientTransform="matrix(0.87, 0.5, 0, 1.15, 540.57, -2146.09)" xlink:href="#New_Gradient_Swatch_copy_8"/>
    <linearGradient id="linear-gradient-14" x1="-476.57" y1="2146.52" x2="-470.9" y2="2146.52" gradientTransform="matrix(0.87, 0.5, 0, 1.15, 540.57, -2146.09)" xlink:href="#linear-gradient-8"/>
    <linearGradient id="New_Gradient_Swatch_copy_9" data-name="New Gradient Swatch copy 9" x1="122.13" y1="63.81" x2="103.57" y2="41.68" gradientUnits="userSpaceOnUse">
      <stop offset="0.04" stop-color="#9f19ab"/>
      <stop offset="0.24" stop-color="#ae25b1"/>
      <stop offset="0.65" stop-color="#d744bf"/>
      <stop offset="1" stop-color="#ff63ce"/>
    </linearGradient>
    <radialGradient id="radial-gradient-5" cx="509.51" cy="550.64" r="8.66" gradientTransform="matrix(-0.71, 0.71, 0.71, 0.71, 59.96, -717.88)" gradientUnits="userSpaceOnUse">
      <stop offset="0.09" stop-color="#fff"/>
      <stop offset="0.1" stop-color="#e2dee7"/>
      <stop offset="0.12" stop-color="#b0a5bf"/>
      <stop offset="0.14" stop-color="#86749c"/>
      <stop offset="0.16" stop-color="#634c80"/>
      <stop offset="0.17" stop-color="#482d69"/>
      <stop offset="0.19" stop-color="#35175a"/>
      <stop offset="0.21" stop-color="#290a50"/>
      <stop offset="0.23" stop-color="#25054d"/>
      <stop offset="0.27" stop-color="#1d043c"/>
      <stop offset="0.34" stop-color="#120226"/>
      <stop offset="0.42" stop-color="#0a0115"/>
      <stop offset="0.51" stop-color="#040109"/>
      <stop offset="0.65" stop-color="#010002"/>
      <stop offset="1"/>
    </radialGradient>
    <radialGradient id="radial-gradient-6" cx="503.52" cy="546.89" r="6.56" gradientTransform="matrix(0.47, 0.88, 0.88, -0.47, -639.15, -156.87)" xlink:href="#radial-gradient-5"/>
    <radialGradient id="radial-gradient-7" cx="498.66" cy="543.95" r="4.92" gradientTransform="matrix(0.47, 0.88, 0.88, -0.47, -639.15, -156.87)" xlink:href="#radial-gradient-5"/>
    <radialGradient id="radial-gradient-8" cx="2024.05" cy="14045.16" r="5.85" gradientTransform="matrix(0.71, -0.71, -0.71, -0.71, 8534.89, 11462.01)" gradientUnits="userSpaceOnUse">
      <stop offset="0.09" stop-color="#fff"/>
      <stop offset="0.11" stop-color="#b37ce0"/>
      <stop offset="0.13" stop-color="#7c1dc9"/>
      <stop offset="0.13" stop-color="#7b1dc8"/>
      <stop offset="0.17" stop-color="#62179e"/>
      <stop offset="0.22" stop-color="#4b1179"/>
      <stop offset="0.27" stop-color="#360d58"/>
      <stop offset="0.32" stop-color="#25093d"/>
      <stop offset="0.39" stop-color="#180626"/>
      <stop offset="0.46" stop-color="#0d0315"/>
      <stop offset="0.55" stop-color="#050109"/>
      <stop offset="0.68" stop-color="#010002"/>
      <stop offset="1"/>
    </radialGradient>
    <radialGradient id="radial-gradient-9" cx="2027.73" cy="14047.32" r="5.12" gradientTransform="matrix(0.51, -0.86, -0.86, -0.51, 11145.83, 8939.49)" xlink:href="#radial-gradient-8"/>
    <radialGradient id="radial-gradient-10" cx="2031.21" cy="14049.36" r="4.39" gradientTransform="matrix(0.51, -0.86, -0.86, -0.51, 11145.83, 8939.49)" xlink:href="#radial-gradient-8"/>
    <radialGradient id="radial-gradient-11" cx="2034.32" cy="14051.19" r="3.66" gradientTransform="matrix(0.51, -0.86, -0.86, -0.51, 11145.83, 8939.49)" xlink:href="#radial-gradient-8"/>
    <radialGradient id="radial-gradient-12" cx="2037.21" cy="14052.89" r="2.93" gradientTransform="matrix(0.51, -0.86, -0.86, -0.51, 11145.83, 8939.49)" xlink:href="#radial-gradient-8"/>
    <radialGradient id="radial-gradient-13" cx="7084.64" cy="10929.21" r="5.86" gradientTransform="matrix(-0.36, -0.93, -0.93, 0.36, 12819.91, 2775.56)" xlink:href="#radial-gradient-8"/>
    <radialGradient id="radial-gradient-14" cx="7016.95" cy="10904.64" r="5.86" gradientTransform="matrix(-0.51, -0.86, -0.86, 0.51, 13097.13, 560.01)" xlink:href="#radial-gradient-8"/>
    <radialGradient id="radial-gradient-15" cx="7002.32" cy="10885.19" r="5.86" gradientTransform="matrix(-0.51, -0.86, -0.86, 0.51, 13097.13, 560.01)" xlink:href="#radial-gradient-8"/>
    <linearGradient id="New_Gradient_Swatch_copy_26" data-name="New Gradient Swatch copy 26" x1="148.53" y1="174.11" x2="110.13" y2="108.31" gradientUnits="userSpaceOnUse">
      <stop offset="0.03" stop-color="#7c1dc9"/>
      <stop offset="0.21" stop-color="#6e41d2"/>
      <stop offset="0.62" stop-color="#4c9be8"/>
      <stop offset="1" stop-color="#2af6ff"/>
    </linearGradient>
    <radialGradient id="Radial_Gradient_1" data-name="Radial Gradient 1" cx="143.14" cy="123.41" r="32.05" gradientUnits="userSpaceOnUse">
      <stop offset="0" stop-color="#fff"/>
      <stop offset="1"/>
    </radialGradient>
    <linearGradient id="New_Gradient_Swatch_copy_7" data-name="New Gradient Swatch copy 7" x1="-489.69" y1="2194.74" x2="-458.16" y2="2194.74" gradientTransform="matrix(0.87, 0.5, 0, 1.15, 540.57, -2146.09)" gradientUnits="userSpaceOnUse">
      <stop offset="0.04" stop-color="#138bbd"/>
      <stop offset="0.23" stop-color="#169ac7"/>
      <stop offset="0.59" stop-color="#1fc3df"/>
      <stop offset="1" stop-color="#2af6ff"/>
    </linearGradient>
    <linearGradient id="New_Gradient_Swatch_copy_13" data-name="New Gradient Swatch copy 13" x1="4107.58" y1="5758.31" x2="4110.67" y2="5758.31" gradientTransform="matrix(-0.87, -0.5, 0, -1.15, 3681.14, 8851.51)" gradientUnits="userSpaceOnUse">
      <stop offset="0.04" stop-color="#6b24d6"/>
      <stop offset="0.29" stop-color="#7733dc"/>
      <stop offset="0.79" stop-color="#975ced"/>
      <stop offset="1" stop-color="#a56ef4"/>
    </linearGradient>
    <linearGradient id="New_Gradient_Swatch_copy_8-4" x1="-483.98" y1="2178.43" x2="-463.88" y2="2178.43" gradientTransform="matrix(0.87, 0.5, 0, 1.15, 540.57, -2146.09)" xlink:href="#New_Gradient_Swatch_copy_8"/>
    <linearGradient id="linear-gradient-15" x1="-482.85" y1="2171.44" x2="-464.99" y2="2171.44" gradientTransform="matrix(0.87, 0.5, 0, 1.15, 540.57, -2146.09)" xlink:href="#linear-gradient-8"/>
    <linearGradient id="New_Gradient_Swatch_copy_13-2" x1="-483.44" y1="2195.56" x2="-481.75" y2="2195.56" gradientTransform="matrix(0.87, 0.5, 0, 1.15, 540.57, -2146.09)" xlink:href="#New_Gradient_Swatch_copy_13"/>
    <radialGradient id="radial-gradient-16" cx="6946.46" cy="10961.71" r="5.86" gradientTransform="matrix(-0.51, -0.86, -0.86, 0.51, 13097.13, 560.01)" xlink:href="#radial-gradient-8"/>
    <radialGradient id="radial-gradient-17" cx="6946.46" cy="10966.69" r="5.12" gradientTransform="matrix(-0.51, -0.86, -0.86, 0.51, 13097.13, 560.01)" xlink:href="#radial-gradient-8"/>
    <radialGradient id="radial-gradient-18" cx="6946.46" cy="10971.17" r="4.39" gradientTransform="matrix(-0.51, -0.86, -0.86, 0.51, 13097.13, 560.01)" xlink:href="#radial-gradient-8"/>
    <radialGradient id="radial-gradient-19" cx="6946.46" cy="10974.83" r="3.66" gradientTransform="matrix(-0.51, -0.86, -0.86, 0.51, 13097.13, 570.19)" xlink:href="#radial-gradient-8"/>
    <radialGradient id="radial-gradient-20" cx="6946.46" cy="10977.98" r="2.93" gradientTransform="matrix(-0.51, -0.86, -0.86, 0.51, 13097.13, 560.01)" xlink:href="#radial-gradient-8"/>
    <radialGradient id="radial-gradient-21" cx="4480.73" cy="6812.39" r="5.86" gradientTransform="matrix(0.51, -0.86, 0.86, 0.51, -8084.12, 560.01)" xlink:href="#radial-gradient-8"/>
    <radialGradient id="radial-gradient-22" cx="4497.96" cy="6803.95" r="5.86" gradientTransform="matrix(0.51, -0.86, 0.86, 0.51, -8084.12, 560.01)" xlink:href="#radial-gradient-8"/>
    <radialGradient id="radial-gradient-23" cx="4480.73" cy="6817.37" r="5.12" gradientTransform="matrix(0.71, -0.71, 0.71, 0.71, -7919.89, -1475.45)" xlink:href="#radial-gradient-8"/>
    <radialGradient id="radial-gradient-24" cx="4480.73" cy="6821.85" r="4.39" gradientTransform="matrix(0.51, -0.86, 0.86, 0.51, -8084.12, 560.01)" xlink:href="#radial-gradient-8"/>
    <radialGradient id="radial-gradient-25" cx="4480.73" cy="6825.5" r="3.66" gradientTransform="matrix(0.51, -0.86, 0.86, 0.51, -8084.12, 560.01)" xlink:href="#radial-gradient-8"/>
    <radialGradient id="radial-gradient-26" cx="4480.73" cy="6828.65" r="2.93" gradientTransform="matrix(0.51, -0.86, 0.86, 0.51, -8084.12, 560.01)" xlink:href="#radial-gradient-8"/>
    <radialGradient id="radial-gradient-27" cx="4754.44" cy="27.04" r="29.27" gradientTransform="matrix(-1, 0, 0, 1, 4832.96, 10.18)" gradientUnits="userSpaceOnUse">
      <stop offset="0" stop-color="#dc3daa"/>
      <stop offset="0.07" stop-color="#bd3492"/>
      <stop offset="0.2" stop-color="#8b276b"/>
      <stop offset="0.33" stop-color="#601b4a"/>
      <stop offset="0.46" stop-color="#3e1130"/>
      <stop offset="0.59" stop-color="#230a1b"/>
      <stop offset="0.72" stop-color="#0f040c"/>
      <stop offset="0.86" stop-color="#040103"/>
      <stop offset="1"/>
    </radialGradient>
    <linearGradient id="linear-gradient-16" x1="44.51" y1="99.55" x2="73.6" y2="155.02" gradientTransform="translate(16.42)" xlink:href="#linear-gradient-5"/>
    <linearGradient id="linear-gradient-17" x1="44.3" y1="99.7" x2="73.32" y2="155.03" gradientTransform="translate(16.42)" xlink:href="#linear-gradient-5"/>
    <linearGradient id="linear-gradient-18" x1="44.09" y1="99.85" x2="73.03" y2="155.04" gradientTransform="translate(16.42)" xlink:href="#linear-gradient-5"/>
    <linearGradient id="linear-gradient-19" x1="43.89" y1="100" x2="72.75" y2="155.04" gradientTransform="translate(16.42)" xlink:href="#linear-gradient-5"/>
    <linearGradient id="linear-gradient-20" x1="43.68" y1="100.15" x2="72.47" y2="155.05" gradientTransform="translate(16.42)" xlink:href="#linear-gradient-5"/>
    <linearGradient id="linear-gradient-21" x1="43.47" y1="100.3" x2="72.19" y2="155.05" gradientTransform="translate(16.42)" xlink:href="#linear-gradient-5"/>
    <linearGradient id="linear-gradient-22" x1="43.27" y1="100.45" x2="71.91" y2="155.06" gradientTransform="translate(16.42)" xlink:href="#linear-gradient-5"/>
    <linearGradient id="linear-gradient-23" x1="43.06" y1="100.6" x2="71.63" y2="155.07" gradientTransform="translate(16.42)" xlink:href="#linear-gradient-5"/>
    <linearGradient id="linear-gradient-24" x1="42.86" y1="100.74" x2="71.35" y2="155.07" gradientTransform="translate(16.42)" xlink:href="#linear-gradient-5"/>
    <linearGradient id="linear-gradient-25" x1="42.66" y1="100.89" x2="71.07" y2="155.08" gradientTransform="translate(16.42)" xlink:href="#linear-gradient-5"/>
    <linearGradient id="linear-gradient-26" x1="42.45" y1="101.04" x2="70.8" y2="155.08" gradientTransform="translate(16.42)" xlink:href="#linear-gradient-5"/>
    <linearGradient id="linear-gradient-27" x1="42.25" y1="101.18" x2="70.52" y2="155.09" gradientTransform="translate(16.42)" xlink:href="#linear-gradient-5"/>
    <linearGradient id="linear-gradient-28" x1="61.89" y1="163.59" x2="91.92" y2="127.39" gradientUnits="userSpaceOnUse">
      <stop offset="0" stop-color="#5c0c77"/>
      <stop offset="0.26" stop-color="#711282"/>
      <stop offset="0.8" stop-color="#a5239f"/>
      <stop offset="1" stop-color="#bb2aab"/>
    </linearGradient>
    <linearGradient id="linear-gradient-29" x1="66.19" y1="113.96" x2="72.65" y2="113.96" xlink:href="#linear-gradient-28"/>
    <linearGradient id="linear-gradient-30" x1="76.45" y1="119.79" x2="78.5" y2="119.79" xlink:href="#linear-gradient-3"/>
    <linearGradient id="linear-gradient-31" x1="66.19" y1="113.97" x2="68.19" y2="113.97" gradientUnits="userSpaceOnUse">
      <stop offset="0.09" stop-color="#25054d"/>
      <stop offset="0.47" stop-color="#330a68"/>
      <stop offset="0.89" stop-color="#45108a"/>
    </linearGradient>
    <linearGradient id="linear-gradient-32" x1="76.45" y1="119.79" x2="78.45" y2="119.79" xlink:href="#linear-gradient-31"/>
    <linearGradient id="linear-gradient-33" x1="47.31" y1="139.83" x2="76.48" y2="139.83" xlink:href="#linear-gradient-28"/>
    <linearGradient id="linear-gradient-34" x1="75.24" y1="174.68" x2="88.49" y2="189.49" xlink:href="#linear-gradient-28"/>
    <linearGradient id="linear-gradient-35" x1="79.41" y1="156.99" x2="95.23" y2="156.99" xlink:href="#linear-gradient-28"/>
    <linearGradient id="linear-gradient-36" x1="23.04" y1="168.39" x2="88.66" y2="144.27" xlink:href="#linear-gradient-28"/>
    <linearGradient id="linear-gradient-37" x1="63.02" y1="117.97" x2="75.45" y2="106.38" xlink:href="#linear-gradient-31"/>
    <linearGradient id="linear-gradient-38" x1="70.69" y1="126.2" x2="83.12" y2="114.61" xlink:href="#linear-gradient-31"/>
    <linearGradient id="linear-gradient-39" x1="61.93" y1="118.04" x2="63.93" y2="118.04" xlink:href="#linear-gradient-31"/>
    <linearGradient id="linear-gradient-40" x1="72.18" y1="123.86" x2="74.18" y2="123.86" xlink:href="#linear-gradient-31"/>
    <linearGradient id="New_Gradient_Swatch_copy_8-5" x1="76.2" y1="157.73" x2="54.32" y2="131.65" gradientTransform="matrix(1, 0, 0, 1, 0, 0)" xlink:href="#New_Gradient_Swatch_copy_8"/>
    <radialGradient id="radial-gradient-28" cx="829.4" cy="-4206.14" r="4.96" gradientTransform="translate(-935.18 2249.48) scale(1.18 0.49)" gradientUnits="userSpaceOnUse">
      <stop offset="0.19" stop-color="#5f5c5d"/>
      <stop offset="1" stop-color="#fff"/>
    </radialGradient>
    <linearGradient id="linear-gradient-41" x1="38.8" y1="171.47" x2="38.8" y2="171.47" gradientUnits="userSpaceOnUse">
      <stop offset="0" stop-color="#ffbb96"/>
      <stop offset="0.23" stop-color="#fffbc9"/>
      <stop offset="0.54" stop-color="#f9b673"/>
      <stop offset="0.64" stop-color="#f9b876"/>
      <stop offset="0.72" stop-color="#fabe81"/>
      <stop offset="0.81" stop-color="#fcc993"/>
      <stop offset="0.86" stop-color="#fed2a3"/>
      <stop offset="0.97" stop-color="#ffc28c"/>
    </linearGradient>
    <linearGradient id="linear-gradient-42" x1="47.59" y1="171.47" x2="47.59" y2="171.47" xlink:href="#linear-gradient-41"/>
    <linearGradient id="linear-gradient-43" x1="38.84" y1="172.23" x2="47.49" y2="172.23" gradientUnits="userSpaceOnUse">
      <stop offset="0" stop-color="#e3e3d8"/>
      <stop offset="0.23" stop-color="#fff"/>
      <stop offset="0.54" stop-color="#d4d1c5"/>
      <stop offset="0.7" stop-color="#d7d4c8"/>
      <stop offset="0.83" stop-color="#e0ded3"/>
      <stop offset="0.87" stop-color="#e3e2d7"/>
      <stop offset="1" stop-color="#cccaba"/>
      <stop offset="1" stop-color="#cbc9b9"/>
    </linearGradient>
    <radialGradient id="White_Black_Radial" data-name="White, Black Radial" cx="41.31" cy="171.86" r="5.52" xlink:href="#Radial_Gradient_1"/>
    <radialGradient id="radial-gradient-29" cx="14444.39" cy="-9103.21" r="6.24" gradientTransform="matrix(0.05, -0.14, 0.29, 0.1, 1952.1, 3111.92)" gradientUnits="userSpaceOnUse">
      <stop offset="0" stop-color="#f49587"/>
      <stop offset="0.12" stop-color="#bd7368"/>
      <stop offset="0.24" stop-color="#8b554d"/>
      <stop offset="0.36" stop-color="#603b35"/>
      <stop offset="0.48" stop-color="#3e2622"/>
      <stop offset="0.61" stop-color="#231513"/>
      <stop offset="0.74" stop-color="#0f0908"/>
      <stop offset="0.86" stop-color="#040202"/>
      <stop offset="1"/>
    </radialGradient>
    <linearGradient id="linear-gradient-44" x1="51.31" y1="161.81" x2="42.72" y2="170.46" gradientUnits="userSpaceOnUse">
      <stop offset="0.04" stop-color="#d4d1d8"/>
      <stop offset="0.42" stop-color="#e2e0e5"/>
      <stop offset="1" stop-color="#fff"/>
    </linearGradient>
    <linearGradient id="linear-gradient-45" x1="39.63" y1="170.13" x2="46.41" y2="170.13" xlink:href="#linear-gradient-43"/>
    <radialGradient id="radial-gradient-30" cx="2011.92" cy="-5426.4" r="4.96" gradientTransform="matrix(1.21, -0.44, 0.16, 0.44, -1524.45, 3453.29)" xlink:href="#radial-gradient-28"/>
    <linearGradient id="linear-gradient-46" x1="32.36" y1="163.76" x2="34.37" y2="167.25" gradientUnits="userSpaceOnUse">
      <stop offset="0" stop-color="#c211a1"/>
      <stop offset="0.05" stop-color="#c718a5"/>
      <stop offset="0.11" stop-color="#d72db0"/>
      <stop offset="0.2" stop-color="#ef4ec2"/>
      <stop offset="0.24" stop-color="#ff63ce"/>
      <stop offset="0.32" stop-color="#eb48bf"/>
      <stop offset="0.45" stop-color="#c211a1"/>
      <stop offset="0.54" stop-color="#a919ab"/>
      <stop offset="0.64" stop-color="#ac1bab"/>
      <stop offset="0.73" stop-color="#b723ab"/>
      <stop offset="0.82" stop-color="#c92faa"/>
      <stop offset="0.88" stop-color="#dc3daa"/>
      <stop offset="0.95" stop-color="#cd24a5"/>
      <stop offset="1" stop-color="#c211a1"/>
    </linearGradient>
    <linearGradient id="linear-gradient-47" x1="27.88" y1="166.73" x2="29.91" y2="170.26" gradientUnits="userSpaceOnUse">
      <stop offset="0" stop-color="#dbc8e8"/>
      <stop offset="0.18" stop-color="#fff"/>
      <stop offset="0.54" stop-color="#b086cc"/>
      <stop offset="0.65" stop-color="#b289cd"/>
      <stop offset="0.74" stop-color="#b994d2"/>
      <stop offset="0.83" stop-color="#c4a6d9"/>
      <stop offset="0.86" stop-color="#c9addc"/>
      <stop offset="1" stop-color="#b086cc"/>
    </linearGradient>
    <radialGradient id="radial-gradient-31" cx="41368.28" cy="1209.2" r="9.09" gradientTransform="matrix(-0.04, -0.08, 0.26, -0.15, 1512.34, 3526.91)" xlink:href="#radial-gradient-29"/>
    <radialGradient id="radial-gradient-32" cx="26.33" cy="178.78" r="1.57" gradientTransform="matrix(1, 0, 0, 1, 0, 0)" xlink:href="#radial-gradient-29"/>
    <radialGradient id="radial-gradient-33" cx="-525.31" cy="-1278.05" r="4.96" gradientTransform="matrix(1.02, 0.6, -0.25, 0.42, 261.23, 1020.39)" xlink:href="#radial-gradient-28"/>
    <linearGradient id="linear-gradient-48" x1="3768.9" y1="159.63" x2="3770.91" y2="163.13" gradientTransform="matrix(-1, 0, 0, 1, 3811.95, 0)" xlink:href="#linear-gradient-47"/>
    <linearGradient id="linear-gradient-49" x1="3764.42" y1="162.6" x2="3766.46" y2="166.13" gradientTransform="matrix(-1, 0, 0, 1, 3811.95, 0)" xlink:href="#linear-gradient-46"/>
    <radialGradient id="radial-gradient-34" cx="20597.9" cy="11956.66" r="9.09" gradientTransform="matrix(0.04, -0.08, -0.26, -0.15, 2299.62, 3526.91)" xlink:href="#radial-gradient-29"/>
    <radialGradient id="radial-gradient-35" cx="3762.87" cy="164.47" r="1.57" gradientTransform="matrix(-1, 0, 0, 1, 3811.95, 10.18)" xlink:href="#radial-gradient-29"/>
  </defs>
  <g class="cls-2">
    <g id="Capa_2" data-name="Capa 2">
      <g id="Capa_1-2" data-name="Capa 1">
        <g>
          <circle class="cls-3" cx="100.96" cy="111.14" r="100.96"/>
          <g class="cls-4">
            <g>
              <ellipse class="cls-5" cx="126.73" cy="191.59" rx="43.51" ry="15.07" transform="translate(-57.72 64.86) rotate(-19.93)"/>
              <ellipse class="cls-6" cx="94.51" cy="102.8" rx="65.77" ry="102.8"/>
              <g class="cls-7">
                <path class="cls-8" d="M142.28,202.32a9.88,9.88,0,0,1-4.91-1.18l-29.8-17-29.81-17A5.19,5.19,0,0,1,75,162.73a6,6,0,0,1,3.39-5.09l19.5-11a12.05,12.05,0,0,1,6-1.52,9.88,9.88,0,0,1,4.91,1.18l29.8,17,29.81,17a5.17,5.17,0,0,1,2.81,4.48,6,6,0,0,1-3.39,5.09l-19.5,11A12,12,0,0,1,142.28,202.32Z" transform="translate(0 10.18)"/>
                <path class="cls-9" d="M78.87,158.06l5.29-2.95c.21-.12,10.14-5.54,10.32-5.43L97.89,148a12.22,12.22,0,0,1,5.76-1.19,10,10,0,0,1,4.73,1.24l23.89,13.6,5.06,2.89,29,16.49a6.26,6.26,0,0,1,2.24,2.18,4.59,4.59,0,0,1,.6,2.1c.06,1.92-1.12,3.73-3.24,5l-5.29,2.95c-.21.13-10.14,5.54-10.32,5.43l-3.41,1.68a12.22,12.22,0,0,1-5.76,1.18,10.07,10.07,0,0,1-4.73-1.23l-23.89-13.61-5.07-2.89L78.47,167.29a6.23,6.23,0,0,1-2.24-2.17,4.63,4.63,0,0,1-.6-2.11C75.57,161.1,76.75,159.28,78.87,158.06Z" transform="translate(0 10.18)"/>
                <path class="cls-10" d="M79.39,158.48l5.15-2.84c.43-.25,9.72-5.14,10.1-4.93l3.3-1.36c1.39-.8,3.79-.85,5.55-.85a10.51,10.51,0,0,1,4.57,1.28L131.24,163l4.92,2.8,28.11,16a6.79,6.79,0,0,1,2.21,2.07,4.54,4.54,0,0,1,.65,2c.11,1.84-1,3.61-3.08,4.81l-5.15,2.85c-.43.25-9.72,5.13-10.1,4.92l-3.3,1.37c-1.39.8-3.79.85-5.55.85a10.51,10.51,0,0,1-4.57-1.29L112.2,186.19l-4.92-2.8-28.11-16A6.69,6.69,0,0,1,77,165.29a4.54,4.54,0,0,1-.65-2C76.2,161.45,77.31,159.68,79.39,158.48Z" transform="translate(0 10.18)"/>
                <path class="cls-11" d="M79.92,158.9l5-2.74c.64-.37,9.3-4.73,9.86-4.41l3.2-1.06c1.23-.71,3.78-.52,5.34-.52a10.81,10.81,0,0,1,4.4,1.34l22.49,12.83,4.76,2.72,27.27,15.56a7.38,7.38,0,0,1,2.17,2,4.45,4.45,0,0,1,.71,1.91c.17,1.75-.89,3.48-2.93,4.66l-5,2.74c-.64.37-9.3,4.73-9.86,4.41l-3.2,1.07c-1.23.71-3.78.51-5.34.51a11,11,0,0,1-4.4-1.33L111.9,185.71,107.14,183,79.87,167.43a7.38,7.38,0,0,1-2.17-2,4.46,4.46,0,0,1-.71-1.9C76.82,161.81,77.88,160.08,79.92,158.9Z" transform="translate(0 10.18)"/>
                <path class="cls-12" d="M80.45,159.32l4.86-2.63c.86-.5,8.89-4.33,9.63-3.9L98,152c1.08-.63,3.77-.19,5.14-.19a11.72,11.72,0,0,1,4.23,1.39l21.78,12.45,4.61,2.63,26.42,15.1a8.16,8.16,0,0,1,2.15,1.86,4.38,4.38,0,0,1,.76,1.8c.22,1.68-.77,3.36-2.78,4.52l-4.86,2.63c-.86.5-8.89,4.34-9.63,3.9l-3.1.76c-1.08.63-3.77.19-5.14.19a11.72,11.72,0,0,1-4.23-1.39l-21.78-12.45L107,182.6,80.58,167.5a8.16,8.16,0,0,1-2.15-1.86,4.38,4.38,0,0,1-.76-1.8C77.45,162.16,78.44,160.48,80.45,159.32Z" transform="translate(0 10.18)"/>
                <path class="cls-13" d="M81,159.74l4.72-2.53c1.07-.62,8.46-3.93,9.4-3.39l3-.45c.92-.54,3.76.14,4.93.14a12.64,12.64,0,0,1,4.06,1.44L128.16,167l4.46,2.55L158.2,184.2a9.7,9.7,0,0,1,2.12,1.75,4.36,4.36,0,0,1,.81,1.7c.28,1.6-.66,3.24-2.63,4.38l-4.72,2.53c-1.07.62-8.46,3.93-9.4,3.39l-3,.45c-.92.54-3.76-.14-4.93-.14a12.64,12.64,0,0,1-4.06-1.44l-21.08-12.06-4.46-2.55L81.28,167.57a9.41,9.41,0,0,1-2.11-1.75,4.38,4.38,0,0,1-.82-1.7C78.07,162.52,79,160.88,81,159.74Z" transform="translate(0 10.18)"/>
                <path class="cls-14" d="M81.51,160.16l4.57-2.42c1.3-.75,8-3.53,9.17-2.88l2.89-.15c.77-.45,3.75.47,4.73.47a14.11,14.11,0,0,1,3.89,1.5l20.38,11.67,4.3,2.47L156.18,185a11.07,11.07,0,0,1,2.08,1.64,4.36,4.36,0,0,1,.87,1.6c.34,1.53-.54,3.12-2.47,4.24l-4.58,2.42c-1.29.75-8.05,3.53-9.17,2.88l-2.89.15c-.77.45-3.75-.47-4.73-.47a13.92,13.92,0,0,1-3.88-1.5L111,184.28l-4.3-2.47L82,167.64A11.67,11.67,0,0,1,79.9,166a4.44,4.44,0,0,1-.87-1.6C78.69,162.87,79.57,161.27,81.51,160.16Z" transform="translate(0 10.18)"/>
                <path class="cls-15" d="M82,160.58l4.44-2.32c1.51-.87,7.63-3.12,8.93-2.37l2.79.15c.61-.35,3.74.81,4.52.81a16.39,16.39,0,0,1,3.72,1.55l19.68,11.29,4.15,2.38,23.89,13.7a15.78,15.78,0,0,1,2.06,1.54,4.65,4.65,0,0,1,.92,1.5c.39,1.45-.43,3-2.32,4.1l-4.44,2.31c-1.51.87-7.63,3.13-8.93,2.37l-2.79-.15c-.61.36-3.74-.81-4.52-.81a16.36,16.36,0,0,1-3.72-1.54L110.73,183.8l-4.15-2.38L82.69,167.71a14.17,14.17,0,0,1-2.06-1.54,4.51,4.51,0,0,1-.92-1.49C79.32,163.23,80.14,161.67,82,160.58Z" transform="translate(0 10.18)"/>
                <path class="cls-16" d="M82.56,161l4.29-2.21c1.73-1,7.21-2.72,8.71-1.86l2.68.45c.46-.26,3.73,1.15,4.32,1.15a19.89,19.89,0,0,1,3.54,1.59l19,10.91,4,2.3,23,13.23a12.82,12.82,0,0,1,2,1.44,3.1,3.1,0,0,1,1,1.39c.44,1.37-.32,2.89-2.18,4l-4.29,2.21c-1.73,1-7.21,2.72-8.71,1.86l-2.68-.46c-.46.27-3.73-1.14-4.32-1.14a19.92,19.92,0,0,1-3.54-1.6l-19-10.9-4-2.3-23-13.24a13.25,13.25,0,0,1-2-1.43,3,3,0,0,1-1-1.4C79.94,163.58,80.71,162.07,82.56,161Z" transform="translate(0 10.18)"/>
                <path class="cls-17" d="M83.09,161.42l4.15-2.1C89.18,158.2,94,157,95.71,158l2.58.76c.31-.17,3.72,1.48,4.11,1.48a28.56,28.56,0,0,1,3.38,1.65l18.28,10.51,3.85,2.22,22.19,12.77a18.27,18.27,0,0,1,2,1.33,3,3,0,0,1,1,1.29c.5,1.3-.21,2.77-2,3.82l-4.15,2.1c-1.94,1.12-6.79,2.32-8.47,1.35l-2.58-.76c-.3.18-3.72-1.47-4.11-1.47a28.56,28.56,0,0,1-3.38-1.65l-18.28-10.52-3.84-2.21L84.1,167.86a19.83,19.83,0,0,1-2-1.33,3,3,0,0,1-1-1.3C80.56,163.94,81.27,162.47,83.09,161.42Z" transform="translate(0 10.18)"/>
                <path class="cls-18" d="M83.62,161.84l4-2c2.15-1.24,6.37-1.92,8.23-.84l2.48,1.06c.15-.08,3.71,1.81,3.91,1.81s3.08,1.63,3.2,1.7L123,173.7l3.7,2.13,21.35,12.31c.09.05,1.92,1.14,2,1.22a3,3,0,0,1,1.1,1.19c.56,1.22-.09,2.65-1.88,3.68l-4,2c-2.16,1.25-6.38,1.92-8.24.84L134.55,196c-.16.09-3.72-1.81-3.91-1.81s-3.09-1.63-3.21-1.7l-17.58-10.13-3.7-2.13L84.8,167.93c-.09-.06-1.92-1.14-2-1.23a2.84,2.84,0,0,1-1.09-1.19C81.18,164.3,81.84,162.87,83.62,161.84Z" transform="translate(0 10.18)"/>
                <path d="M135.54,196.89l-26-15-26-15c-2-1.18-1.79-3.25.58-4.62L88,160.37c2.37-1.37,6-1.52,8-.33l26,15,26,15c2,1.19,1.8,3.26-.57,4.63l-3.87,1.88C141.18,197.92,137.6,198.07,135.54,196.89Z" transform="translate(0 10.18)"/>
              </g>
              <g>
                <path class="cls-19" d="M138.22,193.17,91.6,166.25c-5.26-3-9.52-11.18-9.52-18.19V23.91c0-3.57-2.93-4.36-1.15-5.64.06-.05,4.16-1.91,4.24-1.94a6.88,6.88,0,0,1,6.43.38l46.62,26.91c5.26,3,9.52,11.19,9.52,18.2V186c0,3.72-1.2,6.38-3.12,7.59-.11.08-5,2.42-5.17,2.46C137.75,196.59,140.52,194.49,138.22,193.17Z" transform="translate(0 10.18)"/>
                <path class="cls-20" d="M137.79,43.77,91.17,16.85c-2.48-1.43,44,27.78,44,27.78,5.26,3,9.53,11.18,9.53,18.19,0,0,2.57,127,2.57,123.29V62C147.31,55,143.05,46.8,137.79,43.77Z" transform="translate(0 10.18)"/>
                <path class="cls-21" d="M134.6,194.82,88,167.91c-5.26-3-9.52-11.18-9.52-18.2V25.56c0-7,4.26-10.23,9.52-7.19L134.6,45.28c5.26,3,9.52,11.18,9.52,18.19V187.62C144.12,194.63,139.86,197.86,134.6,194.82Z" transform="translate(0 10.18)"/>
                <path class="cls-22" d="M133.77,195.27,87.15,168.35c-5.26-3-9.52-11.18-9.52-18.19V26c0-7,4.26-10.23,9.52-7.2l46.62,26.92c5.26,3,9.52,11.18,9.52,18.19V188.07C143.29,195.08,139,198.31,133.77,195.27Z" transform="translate(0 10.18)"/>
                <path class="cls-23" d="M78.93,151V26.68c0-6.14,3.74-9,8.35-6.31l46.37,26.78c4.61,2.66,8.34,9.8,8.34,16V187.4c0,6.14-3.73,9-8.34,6.31L87.28,166.94C82.67,164.27,78.93,157.13,78.93,151Z" transform="translate(0 10.18)"/>
                <path class="cls-24" d="M80.78,151.74V28.07c0-5.14,3.13-7.51,7-5.28L133.15,49c3.86,2.23,7,8.2,7,13.35V186c0,5.15-3.13,7.51-7,5.28l-45.38-26.2C83.91,162.87,80.78,156.89,80.78,151.74Z" transform="translate(0 10.18)"/>
                <path class="cls-25" d="M88.3,24.16c-3.64-2.1-6.59-.42-6.59,3.75V153a14.5,14.5,0,0,0,6.59,11.36l44.33,25.6c3.63,2.1,6.58.42,6.58-3.76V61.11a14.53,14.53,0,0,0-6.58-11.36Z" transform="translate(0 10.18)"/>
                <path class="cls-26" d="M144.54,92.65V84.27A3.48,3.48,0,0,1,146,81.49h0c.8-.47,1.45,0,1.45,1.1V91A3.5,3.5,0,0,1,146,93.75h0C145.2,94.21,144.54,93.72,144.54,92.65Z" transform="translate(0 10.18)"/>
                <path class="cls-27" d="M145.42,93.61c-.41,0-.56-.52-.56-1V84.27a3.16,3.16,0,0,1,1.3-2.51.82.82,0,0,1,.42-.13c.41,0,.56.51.56,1V91a3.16,3.16,0,0,1-1.3,2.5A.84.84,0,0,1,145.42,93.61Z" transform="translate(0 10.18)"/>
                <path class="cls-28" d="M145.29,92.86V84.48a3.19,3.19,0,0,1,1.3-2.51,1,1,0,0,1,.37-.12.45.45,0,0,0-.38-.22.82.82,0,0,0-.42.13,3.16,3.16,0,0,0-1.3,2.51v8.38c0,.44.15,1,.56,1h.05A1.38,1.38,0,0,1,145.29,92.86Z" transform="translate(0 10.18)"/>
              </g>
              <g>
                <path class="cls-29" d="M129.1,55.7,134.86,59c.22.13.39,0,.39-.22a.87.87,0,0,0-.39-.69l-5.76-3.32c-.22-.13-.4,0-.4.22A.88.88,0,0,0,129.1,55.7Zm5.76,4.46-5.76-3.32c-.22-.13-.4,0-.4.22a.88.88,0,0,0,.4.69l5.76,3.32c.22.13.39,0,.39-.22A.87.87,0,0,0,134.86,60.16Zm0,2.05-5.76-3.32c-.22-.13-.4,0-.4.22a.88.88,0,0,0,.4.69l5.76,3.32c.22.13.39,0,.39-.22A.88.88,0,0,0,134.86,62.21Z" transform="translate(0 10.18)"/>
                <g>
                  <path class="cls-29" d="M93.83,35.82c0,.6-.43.85-1,.54a2.09,2.09,0,0,1-1-1.65c0-.61.43-.85,1-.55A2.13,2.13,0,0,1,93.83,35.82Z" transform="translate(0 10.18)"/>
                  <path class="cls-29" d="M90.94,34.14c0,.6-.43.85-1,.54A2.09,2.09,0,0,1,89,33c0-.61.43-.85,1-.55A2.13,2.13,0,0,1,90.94,34.14Z" transform="translate(0 10.18)"/>
                  <path class="cls-29" d="M88,32.46c0,.6-.42.85-1,.54a2.09,2.09,0,0,1-1-1.65c0-.61.43-.85,1-.55A2.12,2.12,0,0,1,88,32.46Z" transform="translate(0 10.18)"/>
                </g>
                <path class="cls-30" d="M128.12,86.79l-27.52-16A7.36,7.36,0,0,1,97.52,65V63.49c0-2.27,1.38-3.31,3.08-2.33l27.52,16A7.36,7.36,0,0,1,131.2,83v1.47C131.2,86.73,129.82,87.77,128.12,86.79Z" transform="translate(0 10.18)"/>
                <path class="cls-31" d="M95.68,63.33c0,3.31-2.34,4.65-5.23,3a11.51,11.51,0,0,1-5.22-9c0-3.31,2.34-4.65,5.22-3A11.5,11.5,0,0,1,95.68,63.33Z" transform="translate(0 10.18)"/>
                <path class="cls-32" d="M111.5,73.08l-2.88-1.67v1.24l2.88,1.67Zm-5.93-2.18,2.16,1.24V70.9l-2.16-1.24Zm12.3,5.86-5.49-3.17v1.24L117.87,78Zm-13.19-7.62-2.08-1.2v1.24l2.08,1.2Zm15.9,6.32L116,72.81v1.24l4.6,2.65ZM106,67.05l-3.41-2v1.24l3.41,2Zm9.09,5.25-1.33-.77v1.24l1.33.77Zm-8.2-3.5,6,3.46V71l-6-3.46Z" transform="translate(0 10.18)"/>
                <g>
                  <path class="cls-33" d="M93,63.12c0,3.11-5.25.08-5.25-3s1.18-4.52,2.62-3.68S93,60,93,63.12Z" transform="translate(0 10.18)"/>
                  <path class="cls-34" d="M92.6,61.08a1.62,1.62,0,0,0-.06-.47c-.22-2.33-1-3.42-2.17-4.09s-2-.44-2.19,1.75c0,.07,0,.15,0,.25-.2,0-.33.14-.26.57a1.63,1.63,0,0,0,.45.95,6.78,6.78,0,0,0,.85,2c.07.27,0,.51-.13.6a1.07,1.07,0,0,1-.31.13c.9,1.59,2.35,2.43,3.25,1.88-.11-.15-.2-.3-.3-.46a1,1,0,0,1-.14-.81,1.46,1.46,0,0,0,.76-.86.64.64,0,0,0,.08-.14c.24.07.42-.1.46-.42A.93.93,0,0,0,92.6,61.08Z" transform="translate(0 10.18)"/>
                  <path class="cls-35" d="M90.08,57.3a1.36,1.36,0,0,1-1.45,2c-.49-1-1.2-.13-.45-2.14,1-2.61,2.32-.64,2.32-.64Z" transform="translate(0 10.18)"/>
                  <path class="cls-36" d="M89.94,57.3c.15,1.46,1.33,1.73,1.76,3a3.83,3.83,0,0,1,.12,2.26s1.43-1.26.53-3.82S89.73,55.23,89.94,57.3Z" transform="translate(0 10.18)"/>
                </g>
                <path class="cls-30" d="M128.12,134.07,100.6,118.12a7.38,7.38,0,0,1-3.08-5.88V105.5c0-2.27,1.38-3.31,3.08-2.33l27.52,16A7.39,7.39,0,0,1,131.2,125v6.75C131.2,134,129.82,135.05,128.12,134.07Z" transform="translate(0 10.18)"/>
                <path class="cls-31" d="M95.68,105.34c0,3.31-2.34,4.65-5.23,3a11.53,11.53,0,0,1-5.22-9c0-3.31,2.34-4.65,5.22-3A11.5,11.5,0,0,1,95.68,105.34Z" transform="translate(0 10.18)"/>
                <path class="cls-30" d="M128.12,145.58l-27.52-16a7.36,7.36,0,0,1-3.08-5.88v-1.47c0-2.27,1.38-3.31,3.08-2.33l27.52,16a7.36,7.36,0,0,1,3.08,5.88v1.47C131.2,145.52,129.82,146.56,128.12,145.58Z" transform="translate(0 10.18)"/>
                <path class="cls-32" d="M111.5,131.86l-2.88-1.66v1.24l2.88,1.66Zm-5.93-2.18,2.16,1.25v-1.24l-2.16-1.25Zm12.3,5.86-5.49-3.17v1.24l5.49,3.17Zm-13.19-7.61-2.08-1.21V128l2.08,1.21Zm15.9,6.32-4.6-2.66v1.24l4.6,2.66ZM106,125.83l-3.41-2v1.24l3.41,2Zm9.09,5.25-1.33-.77v1.24l1.33.77Zm-8.2-3.49,6,3.45V129.8l-6-3.45Z" transform="translate(0 10.18)"/>
                <g>
                  <path class="cls-37" d="M93,105.13c0,3.11-5.25.08-5.25-3s1.18-4.51,2.62-3.67S93,102,93,105.13Z" transform="translate(0 10.18)"/>
                  <path class="cls-38" d="M92.6,103.09a1.62,1.62,0,0,0-.06-.47c-.22-2.33-1-3.42-2.17-4.09s-2-.45-2.19,1.75c0,.07,0,.15,0,.25-.2,0-.33.14-.26.56a1.63,1.63,0,0,0,.45,1,6.9,6.9,0,0,0,.85,2c.07.27,0,.51-.13.6a1.07,1.07,0,0,1-.31.13c.9,1.59,2.35,2.43,3.25,1.88-.11-.15-.2-.3-.3-.46a1,1,0,0,1-.14-.81,1.46,1.46,0,0,0,.76-.86.64.64,0,0,0,.08-.14c.24.07.42-.11.46-.43A.92.92,0,0,0,92.6,103.09Z" transform="translate(0 10.18)"/>
                  <path class="cls-39" d="M90.08,99.31a1.36,1.36,0,0,1-1.45,2c-.49-1-1.2-.13-.45-2.15,1-2.6,2.32-.63,2.32-.63Z" transform="translate(0 10.18)"/>
                  <path class="cls-40" d="M89.94,99.31c.15,1.46,1.33,1.73,1.76,3a3.83,3.83,0,0,1,.12,2.26s1.43-1.26.53-3.83S89.73,97.24,89.94,99.31Z" transform="translate(0 10.18)"/>
                </g>
                <path class="cls-41" d="M120.89,95.86,92.07,79.3A7.39,7.39,0,0,1,89,73.42v-.31c0-2.26,1.38-3.3,3.08-2.32l28.82,16.57A7.36,7.36,0,0,1,124,93.24v.3C124,95.8,122.59,96.84,120.89,95.86Z" transform="translate(0 10.18)"/>
                <path class="cls-41" d="M120.89,110.13,92.07,93.57A7.38,7.38,0,0,1,89,87.69v-4.4C89,81,90.37,80,92.07,81l28.82,16.57a7.36,7.36,0,0,1,3.08,5.88v4.4C124,110.07,122.59,111.11,120.89,110.13Z" transform="translate(0 10.18)"/>
                <ellipse class="cls-42" cx="130.46" cy="97.88" rx="4.25" ry="7.37" transform="translate(-31.57 89.4) rotate(-30.31)"/>
                <path class="cls-32" d="M105.36,91.43l-2.88-1.67V91l2.88,1.66ZM96.42,87.5l5.17,3V89.25l-5.17-3Zm15.31,7.6-5.48-3.16v1.24l5.48,3.16Zm-16.2-9.35-2.08-1.2v1.24L95.53,87Zm4.35-7L93.45,75v1.24L99.88,80ZM109,84l-1.33-.76v1.24l1.33.76Zm-8.2-3.49,6,3.45V82.7l-6-3.45Zm4.6,16.57-2.88-1.66v1.24l2.88,1.66Zm-8.94-3.92,5.17,3V94.89l-5.17-3Zm15.31,7.6-5.48-3.17v1.24l5.48,3.17Zm-16.2-9.35-2.08-1.21v1.24l2.08,1.21ZM99.88,91l-6.43-3.71v1.24l6.43,3.71ZM115,99.56l-7.4-4v1.24l7.4,4Zm-14.27-6.77,6,3.45V95l-6-3.45Z" transform="translate(0 10.18)"/>
                <path class="cls-41" d="M120.89,158.73,92.07,142.16A7.36,7.36,0,0,1,89,136.28v-4.4c0-2.26,1.38-3.3,3.08-2.32l28.82,16.56A7.39,7.39,0,0,1,124,152v4.4C124,158.67,122.59,159.71,120.89,158.73Z" transform="translate(0 10.18)"/>
                <path class="cls-43" d="M105.36,140l-2.88-1.66v1.24l2.88,1.66Zm-8.94-3.92,5.17,3v-1.24l-5.17-3Zm15.31,7.6-5.48-3.17v1.24l5.48,3.17Zm-16.2-9.35-2.08-1.2v1.23l2.08,1.21Zm9.83,11.31L102.48,144v1.24l2.88,1.67Zm-8.94-3.92,5.17,3v-1.24l-5.17-3Zm15.31,7.59-5.48-3.16v1.24l5.48,3.16ZM95.53,140l-2.08-1.2V140l2.08,1.2Zm4.35-.35-6.43-3.71v1.24l6.43,3.71ZM115,148.16l-7.4-4v1.24l7.4,4.05Zm-14.27-6.78,6,3.46V143.6l-6-3.46Z" transform="translate(0 10.18)"/>
                <path class="cls-41" d="M120.89,177.9,92.07,161.33A7.36,7.36,0,0,1,89,155.46V146.3C89,144,90.37,143,92.07,144l28.82,16.56a7.38,7.38,0,0,1,3.08,5.88v9.16C124,177.84,122.59,178.88,120.89,177.9Z" transform="translate(0 10.18)"/>
                <path class="cls-43" d="M105.36,154.44l-2.88-1.66V154l2.88,1.66Zm-8.94-3.92,5.17,3v-1.24l-5.17-3Zm15.31,7.6L106.25,155v1.24l5.48,3.17Zm-16.2-9.35-2.08-1.21v1.24L95.53,150Zm9.83,11.3-2.88-1.66v1.24l2.88,1.66Zm-8.94-3.92,5.17,3V157.9l-5.17-3Zm15.31,7.6-5.48-3.16v1.24l5.48,3.16Zm-16.2-9.35-2.08-1.2v1.24l2.08,1.2Zm9.83,11.24L102.48,164v1.24l2.88,1.67Zm-8.94-3.92,5.17,3v-1.24l-5.17-3Zm15.31,7.59-5.48-3.16v1.24l5.48,3.16ZM95.53,160l-2.08-1.2V160l2.08,1.2Zm4.35-5.91-6.43-3.71v1.24l6.43,3.71ZM115,162.58l-7.4-4.05v1.23l7.4,4.06Zm-14.27-6.78,6,3.45V158l-6-3.45Zm-.88,4-6.43-3.71v1.24l6.43,3.71ZM115,168.36l-7.4-4.05v1.24l7.4,4Zm-14.27-6.78,6,3.45V163.8l-6-3.46Z" transform="translate(0 10.18)"/>
                <path class="cls-32" d="M114.44,113.89l-2.88-1.66v1.24l2.88,1.66ZM105.5,110l5.17,3v-1.24l-5.17-3Zm15.31,7.6-5.49-3.16v1.23l5.49,3.17Zm-16.2-9.35-2.09-1.2v1.24l2.09,1.2ZM109,119.28l-6.43-3.71v1.24l6.43,3.71Zm9.09,5.25-1.33-.77V125l1.33.77Zm-8.2-3.49,6,3.45v-1.24l-6-3.45Zm4.6-1.51-2.88-1.66v1.24l2.88,1.66Zm-8.94-3.92,5.17,3v-1.24l-5.17-3Zm15.31,7.6L115.32,120v1.24l5.49,3.17Zm-16.2-9.35-2.09-1.21v1.24l2.09,1.21Zm4.34-.36-6.43-3.71V111l6.43,3.71ZM124.1,122l-7.39-4v1.24l7.39,4Zm-14.26-6.78,6,3.46v-1.24l-6-3.46Z" transform="translate(0 10.18)"/>
                <g>
                  <path class="cls-44" d="M132.11,102.33c-.11-.16-.22-.32-.32-.49-.25-.42-.26-.89,0-1a1.92,1.92,0,0,0,.79-.87c.27.08.46-.1.51-.44a1,1,0,0,0-.3-.94,4.83,4.83,0,0,0-2.45-4.3c-1.84-1.07-2.39,0-2.45,1.47-.22,0-.37.14-.3.6a1.72,1.72,0,0,0,.51,1,8.63,8.63,0,0,0,.79,1.79c.24.42.25.87,0,1a1.4,1.4,0,0,1-.34.13h0c1,1.71,2.59,2.64,3.58,2.07Z" transform="translate(0 10.18)"/>
                  <path class="cls-45" d="M127.87,95.72a1.28,1.28,0,0,1,.44.76s0-.49,0-.85.14-1.72,1.18-.61,1.26,1.65,1.9,1.89.92.45.92.91v.77s.24-.19.44,0V97a4,4,0,0,0-3-3.46C127.76,93.11,127.87,93.54,127.87,95.72Z" transform="translate(0 10.18)"/>
                </g>
                <path class="cls-46" d="M118.55,48.83a24.94,24.94,0,0,1-7.61-7.1l0,0c-2.23.5-4.89-.08-7.62-1.68l-.1-.06.15,2c.51,6.88,3.2,12.54,7.53,19.23l.1.06c4.33-1.7,7-4.25,7.54-10.54l.14-1.79Zm-2.31,1.86c-.36,4.41-2.25,6.19-5.28,7.38l-.08,0c-3-4.69-4.91-8.65-5.27-13.48l-.11-1.38.08,0a7.5,7.5,0,0,0,5.33,1.18h0a17.43,17.43,0,0,0,5.34,5l.07,0Z" transform="translate(0 10.18)"/>
                <path class="cls-29" d="M111.78,54.48v-2.3l2,1.16c.13.07.23,0,.23-.14V51.65a.49.49,0,0,0-.23-.4l-2-1.16V47.78a.54.54,0,0,0-.24-.41l-1.35-.78c-.13-.07-.24,0-.24.14V49l-1.89-1.09c-.13-.08-.24,0-.24.13v1.55a.52.52,0,0,0,.24.41l1.89,1.1v2.3a.54.54,0,0,0,.24.41l1.35.78C111.67,54.69,111.78,54.63,111.78,54.48Z" transform="translate(0 10.18)"/>
              </g>
              <g>
                <circle class="cls-47" cx="86.92" cy="31.82" r="8.66" transform="translate(31.56 116.18) rotate(-73.37)"/>
                <path class="cls-48" d="M83.88,34.09A6.55,6.55,0,1,0,75,31.41,6.56,6.56,0,0,0,83.88,34.09Z" transform="translate(0 10.18)"/>
                <path class="cls-49" d="M78.22,29.76a4.92,4.92,0,1,0-6.66-2A4.93,4.93,0,0,0,78.22,29.76Z" transform="translate(0 10.18)"/>
              </g>
              <g>
                <circle class="cls-50" cx="61.47" cy="79.08" r="5.85" transform="translate(-18.05 28.37) rotate(-14.7)"/>
                <path class="cls-51" d="M64.07,70.39a5.12,5.12,0,1,0,1.82,7A5.11,5.11,0,0,0,64.07,70.39Z" transform="translate(0 10.18)"/>
                <path class="cls-52" d="M63.7,67a4.39,4.39,0,1,0,1.56,6A4.39,4.39,0,0,0,63.7,67Z" transform="translate(0 10.18)"/>
                <path class="cls-53" d="M63.33,64a3.66,3.66,0,1,0,1.3,5A3.66,3.66,0,0,0,63.33,64Z" transform="translate(0 10.18)"/>
                <path class="cls-54" d="M63,61.29a2.93,2.93,0,1,0,1,4A2.93,2.93,0,0,0,63,61.29Z" transform="translate(0 10.18)"/>
              </g>
              <circle class="cls-55" cx="82.51" cy="56.68" r="5.85" transform="matrix(0.99, -0.17, 0.17, 0.99, -8.47, 25.11)"/>
              <g class="cls-56">
                <path class="cls-57" d="M82.11,56.78a.23.23,0,0,1-.14,0l-.51-.29a.29.29,0,0,1,.29-.51l.51.29a.29.29,0,0,1,.11.4A.3.3,0,0,1,82.11,56.78Z" transform="translate(0 10.18)"/>
                <path class="cls-57" d="M80.57,55.9a.28.28,0,0,1-.15,0l-1-.59a.29.29,0,0,1,.29-.51l1,.59a.29.29,0,0,1,.11.4A.27.27,0,0,1,80.57,55.9ZM78.5,54.71l-.15,0-1-.6a.29.29,0,0,1-.11-.4.29.29,0,0,1,.4-.1l1,.59a.29.29,0,0,1,.11.4A.29.29,0,0,1,78.5,54.71Zm-2.07-1.18a.28.28,0,0,1-.15,0l-1-.59a.29.29,0,1,1,.29-.51l1,.59a.29.29,0,0,1,.11.4A.27.27,0,0,1,76.43,53.53Zm-2.07-1.18a.42.42,0,0,1-.15,0l-1-.59a.29.29,0,1,1,.29-.51l1,.59a.29.29,0,0,1-.14.55Zm-2.07-1.19a.28.28,0,0,1-.15,0l-1-.59A.29.29,0,1,1,71.4,50l1,.6a.29.29,0,0,1,.11.4A.29.29,0,0,1,72.29,51.16ZM70.22,50a.28.28,0,0,1-.15,0l-1-.59a.29.29,0,1,1,.29-.51l1,.59a.29.29,0,0,1,.11.4A.27.27,0,0,1,70.22,50Zm-2.07-1.19a.4.4,0,0,1-.15,0l-1-.6a.29.29,0,0,1-.11-.4.28.28,0,0,1,.4-.1l1,.59a.29.29,0,0,1,.11.4A.29.29,0,0,1,68.15,48.79Zm-2.07-1.18a.28.28,0,0,1-.15,0l-1-.59a.29.29,0,0,1-.1-.4.29.29,0,0,1,.39-.11l1,.59a.29.29,0,0,1,.11.4A.27.27,0,0,1,66.08,47.61ZM64,46.43a.37.37,0,0,1-.14,0l-1-.59a.29.29,0,0,1,.29-.51l1,.59a.29.29,0,0,1,.11.4A.31.31,0,0,1,64,46.43Z" transform="translate(0 10.18)"/>
                <path class="cls-57" d="M61.43,45.54a.29.29,0,0,1-.3-.3V44.16l.95.54a.29.29,0,1,1-.29.5l-.07,0v.08A.29.29,0,0,1,61.43,45.54Z" transform="translate(0 10.18)"/>
                <path class="cls-57" d="M61.43,77.54a.29.29,0,0,1-.3-.29V76.11a.3.3,0,0,1,.59,0v1.14A.29.29,0,0,1,61.43,77.54Zm0-2.28a.29.29,0,0,1-.3-.3V73.82a.3.3,0,0,1,.59,0V75A.29.29,0,0,1,61.43,75.26Zm0-2.29a.29.29,0,0,1-.3-.29V71.54a.3.3,0,1,1,.59,0v1.14A.29.29,0,0,1,61.43,73Zm0-2.28a.3.3,0,0,1-.3-.3V69.25a.3.3,0,0,1,.59,0v1.14A.3.3,0,0,1,61.43,70.69Zm0-2.29a.29.29,0,0,1-.3-.29V67a.3.3,0,0,1,.59,0v1.15A.29.29,0,0,1,61.43,68.4Zm0-2.29a.29.29,0,0,1-.3-.29V64.68a.3.3,0,1,1,.59,0v1.14A.29.29,0,0,1,61.43,66.11Zm0-2.28a.29.29,0,0,1-.3-.3V62.39a.3.3,0,0,1,.59,0v1.14A.29.29,0,0,1,61.43,63.83Zm0-2.29a.29.29,0,0,1-.3-.29V60.1a.3.3,0,0,1,.59,0v1.15A.29.29,0,0,1,61.43,61.54Zm0-2.29a.29.29,0,0,1-.3-.29V57.82a.3.3,0,0,1,.59,0V59A.29.29,0,0,1,61.43,59.25Zm0-2.28a.29.29,0,0,1-.3-.29V55.53a.3.3,0,0,1,.59,0v1.15A.29.29,0,0,1,61.43,57Zm0-2.29a.29.29,0,0,1-.3-.29V53.25a.3.3,0,1,1,.59,0v1.14A.29.29,0,0,1,61.43,54.68Zm0-2.28a.3.3,0,0,1-.3-.3V51a.3.3,0,0,1,.59,0V52.1A.3.3,0,0,1,61.43,52.4Zm0-2.29a.29.29,0,0,1-.3-.29V48.67a.3.3,0,0,1,.59,0v1.15A.29.29,0,0,1,61.43,50.11Zm0-2.29a.29.29,0,0,1-.3-.29V46.39a.3.3,0,1,1,.59,0v1.14A.29.29,0,0,1,61.43,47.82Z" transform="translate(0 10.18)"/>
              </g>
              <path class="cls-58" d="M135.24,97.27a5.86,5.86,0,1,0,8,2A5.86,5.86,0,0,0,135.24,97.27Z" transform="translate(0 10.18)"/>
              <path class="cls-59" d="M159.44,99.91a5.85,5.85,0,1,0,8,2A5.84,5.84,0,0,0,159.44,99.91Z" transform="translate(0 10.18)"/>
              <g class="cls-56">
                <path class="cls-57" d="M162.41,116.07a.32.32,0,0,1-.14,0l-.51-.3a.28.28,0,0,1-.11-.39.29.29,0,0,1,.4-.11l.51.29a.29.29,0,0,1,.11.4A.31.31,0,0,1,162.41,116.07Z" transform="translate(0 10.18)"/>
                <path class="cls-57" d="M160.87,115.19a.28.28,0,0,1-.15,0l-1-.59a.29.29,0,0,1,.29-.51l1,.59a.29.29,0,0,1,.11.4A.27.27,0,0,1,160.87,115.19ZM158.8,114a.42.42,0,0,1-.15,0l-1-.59a.29.29,0,0,1,.29-.51l1,.59a.29.29,0,0,1-.14.55Zm-2.07-1.19a.28.28,0,0,1-.15,0l-1-.59a.29.29,0,0,1-.1-.4.3.3,0,0,1,.4-.11l1,.6a.29.29,0,0,1,.11.4A.29.29,0,0,1,156.73,112.82Zm-2.07-1.18a.28.28,0,0,1-.15,0l-1-.59a.29.29,0,0,1-.1-.4.29.29,0,0,1,.39-.11l1,.59a.29.29,0,0,1,.11.4A.27.27,0,0,1,154.66,111.64Zm-2.08-1.18a.33.33,0,0,1-.14,0l-1-.6a.27.27,0,0,1-.1-.39.28.28,0,0,1,.39-.11l1,.59a.29.29,0,0,1,.11.4A.31.31,0,0,1,152.58,110.46Zm-2.07-1.19a.23.23,0,0,1-.14,0l-1-.59a.29.29,0,0,1,.29-.51l1,.59a.29.29,0,0,1,.11.4A.29.29,0,0,1,150.51,109.27Zm-2.07-1.18a.33.33,0,0,1-.14,0l-1-.59a.29.29,0,1,1,.29-.51l1,.59a.29.29,0,0,1,.11.4A.32.32,0,0,1,148.44,108.09Zm-2.07-1.19a.23.23,0,0,1-.14,0l-1-.59a.29.29,0,1,1,.29-.51l1,.6a.29.29,0,0,1,.11.4A.31.31,0,0,1,146.37,106.9Zm-2.07-1.18a.23.23,0,0,1-.14,0l-1-.59a.29.29,0,0,1,.29-.51l1,.59a.29.29,0,0,1,.11.4A.3.3,0,0,1,144.3,105.72Zm-2.25-1.16a.25.25,0,0,1-.14,0l-1-.59a.29.29,0,0,1,.29-.51l1,.59a.3.3,0,0,1,.11.4A.29.29,0,0,1,142.05,104.56ZM140,103.38a.33.33,0,0,1-.14,0l-1-.59a.29.29,0,0,1,.29-.51l1,.59a.29.29,0,0,1,.11.4A.31.31,0,0,1,140,103.38Z" transform="translate(0 10.18)"/>
                <path class="cls-57" d="M162.41,116a.29.29,0,0,1-.29-.29v-1.14a.3.3,0,0,1,.59,0v1.14A.29.29,0,0,1,162.41,116Zm0-2.28a.29.29,0,0,1-.29-.29v-1.15a.3.3,0,0,1,.59,0v1.15A.29.29,0,0,1,162.41,113.68Zm0-2.29a.29.29,0,0,1-.29-.29V110a.3.3,0,1,1,.59,0v1.14A.29.29,0,0,1,162.41,111.39Zm0-2.28a.3.3,0,0,1-.29-.3v-1.14a.3.3,0,0,1,.59,0v1.14A.3.3,0,0,1,162.41,109.11Zm0-2.29a.29.29,0,0,1-.29-.29v-1.15a.3.3,0,0,1,.59,0v1.15A.29.29,0,0,1,162.41,106.82Z" transform="translate(0 10.18)"/>
              </g>
              <g>
                <path class="cls-60" d="M130.24,110.8c-14.29-8.25-25.88-1.65-25.88,14.75,0,15.66,10.58,34.57,24,43.43v14.59l11.21-10c9.68,1.3,16.56-5.49,16.56-18.11C156.11,139,144.53,119.05,130.24,110.8Z" transform="translate(0 10.18)"/>
                <g class="cls-56">
                  <path class="cls-61" d="M130.24,110.8c-8.45-4.88-16-4.56-20.67-.1,4.74-3.83,11.91-3.88,19.92.75,14.29,8.25,25.87,28.23,25.87,44.63,0,6.67-1.92,11.71-5.16,14.79,3.69-3,5.91-8.27,5.91-15.44C156.11,139,144.53,119.05,130.24,110.8Z" transform="translate(0 10.18)"/>
                </g>
                <g>
                  <path class="cls-62" d="M139.56,149.57a23,23,0,0,1-3.75-4.15h0c-3.13,1.78-8.18-1.14-11.3-6.52h0a7,7,0,0,1-3.76-.2c-2.44-.73-4.25.74-4.25,3.74v8.13a3.51,3.51,0,0,0,1.59,2.75l24.13,13.92c.88.51,1.59.11,1.59-.9V158.2A12.35,12.35,0,0,0,139.56,149.57Z" transform="translate(0 10.18)"/>
                  <path class="cls-63" d="M143.81,166.34V158.2a12.35,12.35,0,0,0-4.25-8.63,22.47,22.47,0,0,1-3.71-4.1l-5.69,13.07-5.69-19.64a7,7,0,0,1-3.72-.2c-2.44-.73-4.25.74-4.25,3.74v8.13a3.51,3.51,0,0,0,1.59,2.75l24.13,13.92C143.1,167.75,143.81,167.35,143.81,166.34Z" transform="translate(0 10.18)"/>
                  <polygon class="cls-64" points="130.16 170.15 138.98 158.91 135.84 155.32 135.46 156.24 130.16 168.69 124.86 150.12 124.47 148.75 121.33 148.72 130.16 170.15"/>
                  <path class="cls-65" d="M121.3,147.06c0-.85.6-1.19,1.34-.77A3,3,0,0,1,124,148.6c0,.85-.6,1.2-1.34.77A3,3,0,0,1,121.3,147.06Z" transform="translate(0 10.18)"/>
                  <path class="cls-57" d="M138.85,155.26H138V150a7.69,7.69,0,0,0-3.47-6l-8.39-4.84a2.18,2.18,0,0,0-2.17-.26,2.16,2.16,0,0,0-.86,2v6.92h-.88v-6.92a3,3,0,0,1,1.3-2.75,3,3,0,0,1,3,.26l8.39,4.84a8.67,8.67,0,0,1,3.91,6.75Z" transform="translate(0 10.18)"/>
                  <path class="cls-66" d="M135.81,145.42c-.36-.5-.7-1-1-1.55-.8-1.33-.83-2.82,0-3.27a6.14,6.14,0,0,0,2.48-2.75c.84.23,1.46-.33,1.59-1.4a3.08,3.08,0,0,0-.92-2.95c-.21-5-1.93-10.22-7.73-13.57s-7.53-.16-7.74,4.65c-.69-.16-1.14.43-.92,1.87a5.52,5.52,0,0,0,1.59,3.24,27.55,27.55,0,0,0,2.48,5.62c.77,1.33.81,2.75,0,3.17a5,5,0,0,1-1.08.42h0c3.12,5.38,8.17,8.3,11.3,6.52Z" transform="translate(0 10.18)"/>
                  <path class="cls-67" d="M122.42,124.58a4.09,4.09,0,0,1,1.42,2.38s0-1.54,0-2.66.45-5.42,3.71-1.94,4,5.21,6,6c1.67.63,2.91,1.41,2.91,2.86s0,2.4,0,2.4a1.19,1.19,0,0,1,1.38-.1v-4.92c0-2.74-2.9-9.58-9.42-10.92S122.42,117.7,122.42,124.58Z" transform="translate(0 10.18)"/>
                  <g>
                    <path class="cls-57" d="M141,164.25h-.88v-5.33a4.39,4.39,0,0,0-2-3.38,1.14,1.14,0,0,0-1.11-.15,1.12,1.12,0,0,0-.41,1v5.33h-.88V156.4a1.92,1.92,0,0,1,.85-1.77,2,2,0,0,1,2,.15,5.23,5.23,0,0,1,2.4,4.14Z" transform="translate(0 10.18)"/>
                    <path class="cls-57" d="M136.23,162.61a.88.88,0,0,1-.88-.88v-.36a.88.88,0,1,1,1.76,0v.36A.87.87,0,0,1,136.23,162.61Z" transform="translate(0 10.18)"/>
                    <path class="cls-57" d="M140.59,165.13a.88.88,0,0,1-.88-.88v-.36a.88.88,0,0,1,1.76,0v.36A.89.89,0,0,1,140.59,165.13Z" transform="translate(0 10.18)"/>
                  </g>
                  <path class="cls-68" d="M123.37,148.25c0,.47-.32.65-.73.42a1.62,1.62,0,0,1-.73-1.26c0-.46.33-.65.73-.42A1.59,1.59,0,0,1,123.37,148.25Z" transform="translate(0 10.18)"/>
                </g>
              </g>
              <path class="cls-69" d="M94.24,210.15a.42.42,0,0,1-.15,0l-1-.59a.29.29,0,0,1-.11-.4.31.31,0,0,1,.41-.11l1,.59a.28.28,0,0,1,.1.4A.27.27,0,0,1,94.24,210.15Zm-2-1.18a.28.28,0,0,1-.15,0l-1-.59a.29.29,0,0,1-.11-.4.29.29,0,0,1,.4-.1l1,.59a.29.29,0,0,1,.11.4A.3.3,0,0,1,92.22,209Zm-2-1.17a.42.42,0,0,1-.15,0l-1-.59a.29.29,0,0,1,.29-.51l1,.59a.29.29,0,0,1,.1.4A.29.29,0,0,1,90.19,207.8Zm-2-1.18a.23.23,0,0,1-.14,0L87,206a.29.29,0,0,1,.3-.5l1,.58a.31.31,0,0,1,.11.41A.3.3,0,0,1,88.16,206.62Zm-2-1.17a.42.42,0,0,1-.15,0l-1-.59a.29.29,0,1,1,.29-.51l1,.59a.29.29,0,0,1,.1.4A.29.29,0,0,1,86.14,205.45Zm-2-1.18a.23.23,0,0,1-.14,0l-1-.59a.29.29,0,0,1-.1-.4.28.28,0,0,1,.4-.1l1,.58a.29.29,0,0,1,.11.4A.3.3,0,0,1,84.11,204.27Zm-2-1.18a.4.4,0,0,1-.15,0l-1-.59a.29.29,0,1,1,.29-.51l1,.59a.29.29,0,0,1,.11.4A.29.29,0,0,1,82.09,203.09Zm-2-1.17a.23.23,0,0,1-.14,0l-1-.59a.29.29,0,1,1,.3-.5l1,.58a.29.29,0,0,1,.11.4A.3.3,0,0,1,80.06,201.92Zm-2-1.18a.28.28,0,0,1-.15,0l-1-.58a.29.29,0,1,1,.29-.51l1,.59a.29.29,0,0,1,.11.4A.29.29,0,0,1,78,200.74Zm-2-1.17a.28.28,0,0,1-.15,0l-1-.59a.29.29,0,0,1-.11-.4.3.3,0,0,1,.4-.11l1,.59a.29.29,0,0,1,.1.4A.27.27,0,0,1,76,199.57Zm-2-1.18a.24.24,0,0,1-.15,0l-1-.58a.31.31,0,0,1-.11-.41.29.29,0,0,1,.4-.1l1,.59a.29.29,0,0,1,.11.4A.3.3,0,0,1,74,198.39Zm-2-1.17a.42.42,0,0,1-.15,0l-1-.59a.29.29,0,1,1,.29-.51l1,.59a.29.29,0,0,1,.1.4A.29.29,0,0,1,72,197.22Zm-2-1.18a.23.23,0,0,1-.14,0l-1-.59a.29.29,0,0,1,.3-.5l1,.59a.29.29,0,0,1,.11.4A.31.31,0,0,1,69.93,196Zm-2-1.17a.42.42,0,0,1-.15,0l-1-.59a.29.29,0,1,1,.29-.51l1,.59a.29.29,0,0,1,.1.4A.29.29,0,0,1,67.91,194.87Zm-2-1.18a.23.23,0,0,1-.14,0l-1-.59a.29.29,0,0,1,.3-.5l1,.58a.3.3,0,0,1,.11.4A.3.3,0,0,1,65.88,193.69Zm-2-1.18a.4.4,0,0,1-.15,0l-1-.59a.29.29,0,0,1,.29-.51l1,.59a.29.29,0,0,1,.11.4A.29.29,0,0,1,63.86,192.51Zm-2-1.17a.28.28,0,0,1-.15,0l-1-.59a.29.29,0,0,1,.3-.5l1,.58a.29.29,0,0,1,.11.4A.3.3,0,0,1,61.83,191.34Zm-2-1.18a.28.28,0,0,1-.15,0l-1-.58a.29.29,0,1,1,.29-.51l1,.59a.29.29,0,0,1,.11.4A.3.3,0,0,1,59.81,190.16Zm-2-1.17a.28.28,0,0,1-.15,0l-1-.59a.29.29,0,0,1-.11-.4.3.3,0,0,1,.4-.11l1,.59a.28.28,0,0,1,.1.4A.27.27,0,0,1,57.78,189Zm-2-1.18a.24.24,0,0,1-.15,0l-1-.58a.29.29,0,1,1,.29-.51l1,.59a.29.29,0,0,1,.11.4A.3.3,0,0,1,55.76,187.81Zm-2-1.17a.42.42,0,0,1-.15,0l-1-.59a.29.29,0,0,1,.29-.51l1,.59a.29.29,0,0,1,.1.4A.29.29,0,0,1,53.73,186.64Zm-2-1.18a.23.23,0,0,1-.14,0l-1-.59a.29.29,0,1,1,.3-.5l1,.59a.29.29,0,0,1,.11.4A.31.31,0,0,1,51.7,185.46Zm-2-1.17a.42.42,0,0,1-.15,0l-1-.59a.29.29,0,0,1,.29-.51l1,.59a.29.29,0,0,1,.1.4A.29.29,0,0,1,49.68,184.29Zm-2-1.18a.23.23,0,0,1-.14,0l-1-.59a.29.29,0,1,1,.3-.5l1,.58a.31.31,0,0,1,.11.41A.31.31,0,0,1,47.65,183.11Zm-2-1.25a.3.3,0,0,1-.26-.15.29.29,0,0,1,.11-.4l1-.58a.29.29,0,0,1,.29.51l-1,.58A.23.23,0,0,1,45.61,181.86Zm2-1.17a.3.3,0,0,1-.26-.15.29.29,0,0,1,.11-.4l1-.58a.29.29,0,0,1,.29.51l-1,.58A.23.23,0,0,1,47.64,180.69Zm2-1.17a.3.3,0,0,1-.26-.15.3.3,0,0,1,.11-.4l1-.58a.29.29,0,0,1,.4.11.28.28,0,0,1-.1.4l-1,.58A.23.23,0,0,1,49.67,179.52Zm2-1.17a.29.29,0,0,1-.26-.15.3.3,0,0,1,.11-.4l1-.58a.29.29,0,0,1,.4.11.29.29,0,0,1-.1.4l-1,.58A.23.23,0,0,1,51.7,178.35Zm2-1.17a.3.3,0,0,1-.25-.14.29.29,0,0,1,.11-.4l1-.59a.29.29,0,0,1,.4.11.29.29,0,0,1-.1.4l-1,.58A.28.28,0,0,1,53.72,177.18Zm68,17.26a.3.3,0,0,1-.26-.14.29.29,0,0,1,.11-.4l1-.59a.29.29,0,0,1,.4.11.29.29,0,0,1-.1.4l-1,.58A.25.25,0,0,1,121.67,194.44Zm2-1.17a.29.29,0,0,1-.25-.14.29.29,0,0,1,.11-.4l1-.59a.29.29,0,0,1,.4.11.29.29,0,0,1-.1.4l-1,.58A.28.28,0,0,1,123.69,193.27Zm-68-17.35a.29.29,0,0,1-.14-.54l1-.59a.29.29,0,0,1,.29.51l-1,.58A.28.28,0,0,1,55.73,175.92Zm2-1.17a.29.29,0,0,1-.25-.14.29.29,0,0,1,.1-.4l1-.59a.29.29,0,0,1,.29.51l-1,.58A.28.28,0,0,1,57.76,174.75Zm2-1.17a.29.29,0,0,1-.15-.54l1-.59A.29.29,0,0,1,61,173l-1,.58A.28.28,0,0,1,59.79,173.58Zm2-1.17a.31.31,0,0,1-.26-.14.29.29,0,0,1,.11-.4l1-.59a.29.29,0,1,1,.29.51l-1,.58A.23.23,0,0,1,61.82,172.41Zm33.44,37.25a.29.29,0,0,1-.25-.14.29.29,0,0,1,.1-.4l1-.59a.29.29,0,0,1,.29.51l-1,.58A.28.28,0,0,1,95.26,209.66Zm2-1.17a.29.29,0,0,1-.25-.14.29.29,0,0,1,.1-.4l1-.59a.29.29,0,0,1,.29.51l-1,.58A.28.28,0,0,1,97.29,208.49Zm2-1.17a.29.29,0,0,1-.15-.54l1-.59a.29.29,0,0,1,.29.51l-1,.58A.28.28,0,0,1,99.32,207.32Zm2-1.17a.31.31,0,0,1-.26-.14.29.29,0,0,1,.11-.4l1-.59a.29.29,0,0,1,.29.51l-1,.59A.32.32,0,0,1,101.35,206.15Zm2-1.17a.31.31,0,0,1-.26-.14.29.29,0,0,1,.11-.4l1-.59a.29.29,0,0,1,.29.51l-1,.59A.32.32,0,0,1,103.38,205Zm2-1.16a.32.32,0,0,1-.26-.15.29.29,0,0,1,.11-.4l1-.59a.29.29,0,0,1,.4.11.28.28,0,0,1-.1.4l-1,.59A.33.33,0,0,1,105.41,203.82Zm2-1.17a.31.31,0,0,1-.26-.15.29.29,0,0,1,.11-.4l1-.59a.29.29,0,0,1,.4.11.29.29,0,0,1-.1.4l-1,.59A.33.33,0,0,1,107.44,202.65Zm2-1.17a.29.29,0,0,1-.14-.55l1-.58a.28.28,0,0,1,.4.1.29.29,0,0,1-.1.4l-1,.59A.42.42,0,0,1,109.46,201.48Zm2-1.17a.29.29,0,0,1-.14-.55l1-.58a.28.28,0,0,1,.4.1.29.29,0,0,1-.11.4l-1,.59A.42.42,0,0,1,111.49,200.31Zm2-1.17a.29.29,0,0,1-.14-.55l1-.58a.29.29,0,0,1,.4.1.29.29,0,0,1-.11.4l-1,.59A.42.42,0,0,1,113.52,199.14Zm2-1.17a.27.27,0,0,1-.25-.15.29.29,0,0,1,.1-.4l1-.58a.29.29,0,0,1,.4.1.29.29,0,0,1-.11.4l-1,.59A.28.28,0,0,1,115.55,198Zm2-1.17a.27.27,0,0,1-.25-.15.29.29,0,0,1,.1-.4l1-.58a.29.29,0,0,1,.4.1.29.29,0,0,1-.11.4l-1,.59A.28.28,0,0,1,117.58,196.8Zm2-1.17a.27.27,0,0,1-.25-.15.29.29,0,0,1,.1-.4l1-.58a.29.29,0,0,1,.4.11.28.28,0,0,1-.11.39l-1,.59A.28.28,0,0,1,119.61,195.63Z" transform="translate(0 10.18)"/>
              <g>
                <path class="cls-70" d="M122.21,187a5.86,5.86,0,1,0,8,2A5.86,5.86,0,0,0,122.21,187Z" transform="translate(0 10.18)"/>
                <path class="cls-71" d="M118.3,190.21a5.12,5.12,0,1,0,7,1.78A5.12,5.12,0,0,0,118.3,190.21Z" transform="translate(0 10.18)"/>
                <path class="cls-72" d="M114.83,193.13a4.39,4.39,0,1,0,6,1.53A4.38,4.38,0,0,0,114.83,193.13Z" transform="translate(0 10.18)"/>
                <circle class="cls-73" cx="113.93" cy="208.95" r="3.66"/>
                <path class="cls-74" d="M109.73,197.86a2.93,2.93,0,1,0,4,1A2.92,2.92,0,0,0,109.73,197.86Z" transform="translate(0 10.18)"/>
              </g>
              <g>
                <path class="cls-75" d="M64.22,185.61a5.85,5.85,0,1,1-8,2A5.84,5.84,0,0,1,64.22,185.61Z" transform="translate(0 10.18)"/>
                <path class="cls-76" d="M65.78,166.49a5.85,5.85,0,1,1-8,2A5.85,5.85,0,0,1,65.78,166.49Z" transform="translate(0 10.18)"/>
                <circle class="cls-77" cx="65.51" cy="193.19" r="5.12" transform="translate(-45.93 32.5) rotate(-14.38)"/>
                <path class="cls-78" d="M71.61,191.7a4.39,4.39,0,1,1-6,1.53A4.4,4.4,0,0,1,71.61,191.7Z" transform="translate(0 10.18)"/>
                <path class="cls-79" d="M74.37,194.2a3.66,3.66,0,1,1-5,1.27A3.66,3.66,0,0,1,74.37,194.2Z" transform="translate(0 10.18)"/>
                <path class="cls-80" d="M76.71,196.44a2.93,2.93,0,1,1-4,1A2.93,2.93,0,0,1,76.71,196.44Z" transform="translate(0 10.18)"/>
              </g>
              <g class="cls-81">
                <path class="cls-31" d="M48.4,85.13a2.11,2.11,0,0,1-.75-.29,3.27,3.27,0,0,1-1.26-1.27A3.53,3.53,0,0,1,46,81.79V77.48c0-.66.14-1.08.44-1.27s.71-.13,1.26.19a3.3,3.3,0,0,1,1.27,1.27,3.64,3.64,0,0,1,.44,1.78v4.31A1.72,1.72,0,0,1,49,84.93a.6.6,0,0,0,.16.24,1.6,1.6,0,0,0,.26.19l.17.1v1.17l-.29-.17A1.88,1.88,0,0,1,48.4,85.13Zm-.16-1.93V78.72a1.23,1.23,0,0,0-.59-1.15c-.39-.22-.58-.07-.58.47v4.48a1.22,1.22,0,0,0,.58,1.15C48,83.89,48.24,83.73,48.24,83.2Z" transform="translate(0 10.18)"/>
                <path class="cls-31" d="M50.5,86a3.68,3.68,0,0,1-.43-1.77V77.91l1.13.65v6.36a1.41,1.41,0,0,0,.15.69,1.11,1.11,0,0,0,.42.44c.18.1.33.12.42,0s.15-.24.15-.52V79.22l1.09.63v6.26c0,.66-.15,1.09-.43,1.28s-.71.13-1.25-.18A3.36,3.36,0,0,1,50.5,86Z" transform="translate(0 10.18)"/>
                <path class="cls-31" d="M54.22,80.31l3.07,1.77v1.17l-1.94-1.12V84.3l1.54.89v1.17l-1.54-.89V88l1.94,1.12v1.18l-3.07-1.77Z" transform="translate(0 10.18)"/>
                <path class="cls-31" d="M58.18,90.38a3.62,3.62,0,0,1-.42-1.77v-.47l1.06.62v.56a1.21,1.21,0,0,0,.58,1.13c.19.11.34.13.44.06S60,90.26,60,90a2.67,2.67,0,0,0-.21-1A9.2,9.2,0,0,0,59,87.56a11.4,11.4,0,0,1-1-1.83,4.17,4.17,0,0,1-.27-1.45c0-.64.14-1.06.43-1.25s.7-.13,1.24.18a3.18,3.18,0,0,1,1.23,1.24,3.79,3.79,0,0,1,.41,1.77v.34L60,86v-.43a1.41,1.41,0,0,0-.15-.69,1,1,0,0,0-.42-.44c-.37-.22-.56-.06-.56.46a2.53,2.53,0,0,0,.21,1,11.24,11.24,0,0,0,.76,1.37,9.86,9.86,0,0,1,1,1.84,4.32,4.32,0,0,1,.27,1.5c0,.68-.15,1.11-.43,1.3s-.71.13-1.27-.19A3.14,3.14,0,0,1,58.18,90.38Z" transform="translate(0 10.18)"/>
                <path class="cls-31" d="M62.63,86.34l-1.17-.68V84.49l3.47,2v1.17L63.76,87v7l-1.13-.65Z" transform="translate(0 10.18)"/>
                <path class="cls-31" d="M65.47,86.8l1.13.65v8.21L65.47,95Z" transform="translate(0 10.18)"/>
                <path class="cls-31" d="M67.79,95.93a3.64,3.64,0,0,1-.44-1.78V89.84c0-.66.15-1.08.44-1.27s.72-.13,1.27.19A3.37,3.37,0,0,1,70.33,90a3.64,3.64,0,0,1,.44,1.78v4.31c0,.66-.15,1.08-.44,1.27s-.72.13-1.27-.19A3.37,3.37,0,0,1,67.79,95.93Zm1.85-.38V91.08a1.21,1.21,0,0,0-.58-1.15c-.39-.22-.58-.07-.58.47v4.48A1.22,1.22,0,0,0,69.06,96C69.45,96.25,69.64,96.09,69.64,95.55Z" transform="translate(0 10.18)"/>
                <path class="cls-31" d="M71.52,90.3l1.41.81L74,96.65l0,0V91.75l1,.58v8.21l-1.16-.67L72.54,93.1h0v6l-1-.58Z" transform="translate(0 10.18)"/>
              </g>
              <g class="cls-81">
                <path class="cls-31" d="M152.31,87.8l1.52.88L155,97.56l-1.12-.65-.21-1.75v0l-1.27-.73-.21,1.49-1-.61ZM153.53,94l-.5-4.34h0l-.49,3.77Z" transform="translate(0 10.18)"/>
                <path class="cls-31" d="M155.53,89.66l1.41.82L158,96h0V91.12l1,.58v8.21l-1.16-.67-1.34-6.77h0v6l-1-.58Z" transform="translate(0 10.18)"/>
                <path class="cls-31" d="M160.12,100.1a3.62,3.62,0,0,1-.42-1.77v-.47l1.07.62V99a1.19,1.19,0,0,0,.58,1.13c.19.11.33.13.43.06s.15-.25.15-.54a2.86,2.86,0,0,0-.2-1,9.45,9.45,0,0,0-.76-1.38,11.21,11.21,0,0,1-1-1.83,4.19,4.19,0,0,1-.28-1.45,1.45,1.45,0,0,1,.43-1.25c.29-.19.7-.13,1.25.18a3.16,3.16,0,0,1,1.22,1.24,3.64,3.64,0,0,1,.41,1.77v.34L162,95.67v-.43a1.54,1.54,0,0,0-.14-.69,1.11,1.11,0,0,0-.42-.44c-.38-.22-.56-.06-.56.46a2.44,2.44,0,0,0,.21,1,9.45,9.45,0,0,0,.76,1.38,10.5,10.5,0,0,1,1,1.84,4.31,4.31,0,0,1,.26,1.5c0,.67-.14,1.11-.43,1.3s-.71.13-1.26-.19A3.11,3.11,0,0,1,160.12,100.1Z" transform="translate(0 10.18)"/>
                <path class="cls-31" d="M163.43,94.22l1.09.63.5,6.6h0l.53-6,1.22.7.54,6.62h0l.5-6,1,.56-.73,7.79-1.4-.81-.51-5.83h0l-.51,5.24-1.49-.86Z" transform="translate(0 10.18)"/>
                <path class="cls-31" d="M169.39,97.66l3.07,1.77v1.17l-2-1.12v2.17l1.55.89v1.18l-1.55-.89v2.52l2,1.12v1.17l-3.07-1.77Z" transform="translate(0 10.18)"/>
                <path class="cls-31" d="M173.1,99.8l1.66,1A3.27,3.27,0,0,1,176,102a3.2,3.2,0,0,1,.4,1.65v.51c0,.85-.25,1.25-.74,1.19v0a2,2,0,0,1,.58.9,4.32,4.32,0,0,1,.17,1.26v1.44c0,.24,0,.43,0,.58a2.25,2.25,0,0,0,.1.49l-1.14-.66a2.76,2.76,0,0,1-.08-.42,5.29,5.29,0,0,1,0-.65v-1.5a2,2,0,0,0-.16-.87,1.36,1.36,0,0,0-.55-.54l-.39-.23v3.52L173.1,108Zm1.53,4.41q.35.2.51.09c.11-.07.17-.26.17-.57v-.64a1.68,1.68,0,0,0-.14-.72,1,1,0,0,0-.44-.45l-.51-.29V104Z" transform="translate(0 10.18)"/>
              </g>
              <circle class="cls-82" cx="78.52" cy="37.22" r="29.27"/>
              <g class="cls-81">
                <path class="cls-31" d="M62.54,177.68l1.51.87c.5.29.75.59.73.89s-.28.61-.81.91l-.64.37a3.24,3.24,0,0,1-1.57.47,2.89,2.89,0,0,1-1.55-.43l-.48-.28L57.09,182l-1-.59Zm-1.41,2.55a1,1,0,0,0,.52.14,1.51,1.51,0,0,0,.6-.2l.76-.45c.23-.12.34-.24.35-.34s-.07-.2-.24-.3l-.48-.28-2,1.15Z" transform="translate(0 10.18)"/>
                <path class="cls-31" d="M66.13,179.75l1.52.88c.52.3.79.59.78.87s-.25.57-.76.86l-.39.23a2.55,2.55,0,0,1-2,.35h0a.41.41,0,0,1,.07.57,2.14,2.14,0,0,1-.76.61l-1.13.66-.43.27a.85.85,0,0,0-.25.25l-1-.6a1.14,1.14,0,0,1,.22-.22l.48-.3,1.19-.68c.29-.17.45-.32.47-.44s-.09-.25-.32-.39l-.36-.2-2.77,1.6-1-.59Zm-1.38,2.41a1.21,1.21,0,0,0,.62.17,1.4,1.4,0,0,0,.68-.21l.5-.29c.23-.14.36-.26.38-.37s-.06-.21-.24-.32l-.46-.26-1.85,1.06Z" transform="translate(0 10.18)"/>
                <path class="cls-31" d="M69.88,181.92l2.79,1.61-.92.53L70,183l-1.71,1,1.4.81-.92.53-1.41-.81-2,1.15,1.76,1-.92.53-2.79-1.61Z" transform="translate(0 10.18)"/>
                <path class="cls-31" d="M67.34,187.54c0-.31.3-.61.82-.92l.37-.21,1,.56-.45.26c-.41.24-.45.46-.09.66a1,1,0,0,0,.54.14,1.25,1.25,0,0,0,.63-.2,1.2,1.2,0,0,0,.53-.52,1.62,1.62,0,0,0,.06-.83,2,2,0,0,1,.12-1.09,1.79,1.79,0,0,1,.76-.73,3.2,3.2,0,0,1,1.58-.46,3,3,0,0,1,1.55.41c.49.28.72.58.7.89s-.31.61-.83.91l-.27.16-1-.56.33-.2c.23-.12.34-.24.36-.35s-.06-.21-.23-.31a1.06,1.06,0,0,0-1.13.06,1,1,0,0,0-.47.49,1.78,1.78,0,0,0,0,.83,1.92,1.92,0,0,1-.13,1.09,2,2,0,0,1-.82.76,3.38,3.38,0,0,1-1.61.47,3,3,0,0,1-1.58-.42C67.54,188.15,67.31,187.85,67.34,187.54Z" transform="translate(0 10.18)"/>
                <path class="cls-31" d="M70.91,189.61c0-.31.28-.61.79-.9l3.47-2a3.25,3.25,0,0,1,1.56-.45,2.84,2.84,0,0,1,1.54.4c.49.29.72.58.71.89s-.29.61-.79.9l-.69.4-1-.56.74-.43c.4-.24.43-.45.09-.65a1.06,1.06,0,0,0-1.11.05l-3.61,2.09c-.4.23-.43.44-.08.64a1,1,0,0,0,1.1,0l1-.57,1,.56-.92.53a3.19,3.19,0,0,1-1.56.45,3,3,0,0,1-1.54-.4C71.12,190.21,70.89,189.92,70.91,189.61Z" transform="translate(0 10.18)"/>
                <path class="cls-31" d="M80.3,187.93l1.52.88c.52.3.79.59.78.87s-.25.57-.76.86l-.39.23a2.55,2.55,0,0,1-2,.35h0a.41.41,0,0,1,.07.57,2.23,2.23,0,0,1-.76.61l-1.13.66-.43.27a.85.85,0,0,0-.25.25l-1-.6a1.14,1.14,0,0,1,.22-.22l.48-.3,1.18-.68c.3-.17.46-.32.48-.44s-.09-.25-.32-.39l-.36-.2-2.77,1.6-1-.59Zm-1.38,2.41a1.21,1.21,0,0,0,.62.17,1.4,1.4,0,0,0,.68-.21l.5-.29c.23-.14.36-.26.38-.37s-.06-.21-.24-.32l-.46-.26-1.85,1.06Z" transform="translate(0 10.18)"/>
                <path class="cls-31" d="M84.05,190.1l1,.59-6.47,3.73-1-.59Z" transform="translate(0 10.18)"/>
                <path class="cls-31" d="M85.83,191.13l1.51.87c.51.29.76.59.74.89s-.29.61-.81.91l-.64.37a3.27,3.27,0,0,1-1.57.47,2.92,2.92,0,0,1-1.56-.43l-.48-.28-2.63,1.52-1-.59Zm-1.4,2.55a1,1,0,0,0,.51.14,1.46,1.46,0,0,0,.6-.2l.77-.45c.22-.12.34-.24.34-.34s-.07-.2-.23-.3l-.49-.28-2,1.15Z" transform="translate(0 10.18)"/>
                <path class="cls-31" d="M89.32,194.21l-1.07-.62.92-.53,3.17,1.82-.93.54-1.07-.62L84.8,198l-1-.59Z" transform="translate(0 10.18)"/>
                <path class="cls-31" d="M92.83,195.17l1,.59-6.47,3.73-1-.59Z" transform="translate(0 10.18)"/>
                <path class="cls-31" d="M88.8,199.93c0-.32.29-.63.8-.93L93,197a3.27,3.27,0,0,1,1.6-.46,3,3,0,0,1,1.58.42c.5.29.74.59.73.91s-.29.63-.81.92l-3.4,2a3.27,3.27,0,0,1-1.6.46,3,3,0,0,1-1.58-.42C89,200.55,88.79,200.25,88.8,199.93Zm2.82.32,3.54-2c.42-.25.46-.47.1-.68a1.11,1.11,0,0,0-1.16.06l-3.54,2c-.42.25-.46.47-.1.68A1.11,1.11,0,0,0,91.62,200.25Z" transform="translate(0 10.18)"/>
                <path class="cls-31" d="M98.34,198.35l1.28.74-2.88,2.81h0l3.88-2.24.91.53-6.47,3.74L94,203.33l3.5-3.44h0l-4.72,2.73-.91-.53Z" transform="translate(0 10.18)"/>
              </g>
              <g>
                <g class="cls-83">
                  <path class="cls-84" d="M81,115.87c-2.49-1.44-4.51-.29-4.51,2.56V161A9.92,9.92,0,0,0,81,168.78l5.41,2.85c2.48,1.43,5.49.12,5.49-2.73V126.32c0-2.85-3-6.17-5.49-7.61Z" transform="translate(0 10.18)"/>
                  <path class="cls-85" d="M80.8,116c-2.49-1.44-4.5-.29-4.5,2.57V161a9.93,9.93,0,0,0,4.5,7.77l5.41,2.85c2.49,1.43,5.41.14,5.41-2.71V126.44c0-2.85-2.92-6.18-5.41-7.62Z" transform="translate(0 10.18)"/>
                  <path class="cls-86" d="M80.56,116.07c-2.49-1.43-4.5-.28-4.5,2.57v42.27a9.9,9.9,0,0,0,4.5,7.76L86,171.53c2.49,1.44,5.32.16,5.32-2.69V126.57c0-2.86-2.83-6.2-5.32-7.64Z" transform="translate(0 10.18)"/>
                  <path class="cls-87" d="M80.32,116.17c-2.49-1.43-4.5-.28-4.5,2.57v42.12a9.9,9.9,0,0,0,4.5,7.76l5.43,2.87c2.49,1.43,5.23.17,5.23-2.69V126.69c0-2.85-2.74-6.22-5.23-7.65Z" transform="translate(0 10.18)"/>
                  <path class="cls-88" d="M80.08,116.28c-2.49-1.44-4.5-.29-4.5,2.56v42a9.91,9.91,0,0,0,4.5,7.77l5.44,2.87c2.49,1.44,5.14.19,5.14-2.67v-42c0-2.85-2.65-6.23-5.14-7.66Z" transform="translate(0 10.18)"/>
                  <path class="cls-89" d="M79.84,116.38c-2.49-1.44-4.5-.29-4.5,2.57v41.8a9.93,9.93,0,0,0,4.5,7.77l5.45,2.87c2.48,1.44,5,.2,5-2.65v-41.8c0-2.86-2.56-6.25-5-7.69Z" transform="translate(0 10.18)"/>
                  <path class="cls-90" d="M79.6,116.48c-2.48-1.44-4.5-.29-4.5,2.57V160.7a10,10,0,0,0,4.5,7.77l5.45,2.88c2.49,1.43,5,.21,5-2.64V127.06c0-2.86-2.47-6.26-5-7.7Z" transform="translate(0 10.18)"/>
                  <path class="cls-91" d="M79.37,116.58c-2.49-1.43-4.51-.28-4.51,2.57v41.49a9.94,9.94,0,0,0,4.51,7.78l5.45,2.88c2.49,1.44,4.87.23,4.87-2.63V127.18c0-2.85-2.38-6.27-4.87-7.71Z" transform="translate(0 10.18)"/>
                  <path class="cls-92" d="M79.13,116.69c-2.49-1.44-4.51-.29-4.51,2.56v41.34a9.91,9.91,0,0,0,4.51,7.77l5.46,2.89c2.49,1.44,4.78.25,4.78-2.61V127.31c0-2.86-2.29-6.3-4.78-7.73Z" transform="translate(0 10.18)"/>
                  <path class="cls-93" d="M78.89,116.79c-2.49-1.44-4.51-.29-4.51,2.57v41.18a9.94,9.94,0,0,0,4.51,7.77l5.47,2.9c2.49,1.43,4.69.26,4.69-2.6V127.43a10.08,10.08,0,0,0-4.69-7.75Z" transform="translate(0 10.18)"/>
                  <path class="cls-94" d="M78.65,116.89c-2.49-1.44-4.51-.29-4.51,2.57v41a9.94,9.94,0,0,0,4.51,7.77l5.48,2.9c2.49,1.44,4.59.27,4.59-2.58v-41a10,10,0,0,0-4.59-7.76Z" transform="translate(0 10.18)"/>
                  <path class="cls-95" d="M78.41,117c-2.49-1.44-4.51-.28-4.51,2.57v40.87a9.94,9.94,0,0,0,4.51,7.78l5.49,2.91c2.49,1.43,4.5.28,4.5-2.57V127.67a9.93,9.93,0,0,0-4.5-7.77Z" transform="translate(0 10.18)"/>
                </g>
                <g class="cls-7">
                  <path class="cls-8" d="M82,179.58a5.19,5.19,0,0,1-2.56-.62l-14.28-8.07L50.9,162.82a2.72,2.72,0,0,1-1.47-2.34,3.17,3.17,0,0,1,1.77-2.66l10.17-5.72a6.33,6.33,0,0,1,3.11-.79,5.06,5.06,0,0,1,2.56.62L81.32,160l14.28,8.07a2.72,2.72,0,0,1,1.47,2.34,3.17,3.17,0,0,1-1.77,2.66l-10.17,5.72A6.3,6.3,0,0,1,82,179.58Z" transform="translate(0 10.18)"/>
                  <path class="cls-9" d="M51.38,157.91l5.31-3c.11-.07,4.6-2.51,4.7-2.45a6.49,6.49,0,0,1,3-.61,5.31,5.31,0,0,1,2.49.66l12.39,7,1.57.9,14,7.91a3,3,0,0,1,1.36,1.54,2.29,2.29,0,0,1,.14.69,2.92,2.92,0,0,1-1.67,2.6l-5.31,3c-.12.07-4.6,2.5-4.7,2.45a6.48,6.48,0,0,1-3,.6,5.31,5.31,0,0,1-2.49-.65l-12.39-7-1.58-.9-14-7.91a3.11,3.11,0,0,1-1.37-1.54,2.82,2.82,0,0,1-.14-.69A2.94,2.94,0,0,1,51.38,157.91Z" transform="translate(0 10.18)"/>
                  <path class="cls-10" d="M51.56,158l5.2-2.91a43.35,43.35,0,0,1,4.64-2.22,6.72,6.72,0,0,1,2.94-.42,5.57,5.57,0,0,1,2.41.69L78.87,160l1.54.87,13.67,7.75a3.49,3.49,0,0,1,1.37,1.47,2.57,2.57,0,0,1,.17.66A2.72,2.72,0,0,1,94,173.29l-5.21,2.92a41.4,41.4,0,0,1-4.64,2.21,6.67,6.67,0,0,1-2.93.43,5.61,5.61,0,0,1-2.42-.69l-12.11-6.87-1.55-.88-13.67-7.75a3.35,3.35,0,0,1-1.36-1.47,2.16,2.16,0,0,1-.18-.66A2.73,2.73,0,0,1,51.56,158Z" transform="translate(0 10.18)"/>
                  <path class="cls-11" d="M51.74,158.07l5.09-2.84c.33-.2,4.3-2.16,4.59-2a7.17,7.17,0,0,1,2.85-.24,5.85,5.85,0,0,1,2.34.73l11.84,6.72,1.5.86,13.37,7.59a3.82,3.82,0,0,1,1.37,1.4,2.67,2.67,0,0,1,.21.62,2.54,2.54,0,0,1-1.5,2.49l-5.09,2.84c-.34.2-4.3,2.16-4.59,2a7.17,7.17,0,0,1-2.85.24,5.85,5.85,0,0,1-2.34-.73L66.69,171l-1.5-.86-13.37-7.59a3.79,3.79,0,0,1-1.37-1.39,2.46,2.46,0,0,1-.21-.63A2.52,2.52,0,0,1,51.74,158.07Z" transform="translate(0 10.18)"/>
                  <path class="cls-12" d="M51.91,158.15l5-2.77c.45-.26,4.16-2,4.55-1.76.56-.33,2-.06,2.75-.06a6.29,6.29,0,0,1,2.27.77L78,160.91l1.47.83,13.06,7.43a4.4,4.4,0,0,1,1.38,1.33,2.88,2.88,0,0,1,.23.59,2.33,2.33,0,0,1-1.4,2.43l-5,2.78c-.45.26-4.15,2-4.54,1.76-.56.33-2,.05-2.76.05a6.41,6.41,0,0,1-2.27-.76l-11.56-6.58-1.47-.83L52.12,162.5a4.34,4.34,0,0,1-1.37-1.32,2.93,2.93,0,0,1-.24-.59A2.37,2.37,0,0,1,51.91,158.15Z" transform="translate(0 10.18)"/>
                  <path class="cls-13" d="M52.09,158.24,57,155.53c.56-.32,4-1.82,4.49-1.53.48-.28,2.06.13,2.67.13a7.12,7.12,0,0,1,2.2.8l11.29,6.43,1.43.82,12.76,7.27a5.08,5.08,0,0,1,1.38,1.25,2.87,2.87,0,0,1,.27.56,2.18,2.18,0,0,1-1.31,2.38l-4.87,2.7c-.56.33-4,1.82-4.49,1.54-.48.28-2.06-.13-2.67-.13a7,7,0,0,1-2.2-.8l-11.29-6.44-1.43-.81-12.76-7.27a5.08,5.08,0,0,1-1.38-1.25,2.94,2.94,0,0,1-.27-.57A2.17,2.17,0,0,1,52.09,158.24Z" transform="translate(0 10.18)"/>
                  <path class="cls-14" d="M52.27,158.32,57,155.68c.67-.39,3.85-1.64,4.44-1.31.4-.23,2.07.32,2.58.32a8,8,0,0,1,2.13.84l11,6.29,1.4.79L91,169.72c.31.19,1.29.89,1.38,1.18a1.93,1.93,0,0,1,.31.53c.28.82-.16,1.71-1.22,2.32l-4.77,2.64c-.67.39-3.85,1.65-4.43,1.31-.4.23-2.08-.32-2.59-.32a8.21,8.21,0,0,1-2.12-.83l-11-6.29-1.39-.8-12.46-7.11c-.31-.18-1.29-.88-1.38-1.18a1.57,1.57,0,0,1-.3-.53C50.77,159.83,51.2,158.93,52.27,158.32Z" transform="translate(0 10.18)"/>
                  <path class="cls-15" d="M52.45,158.4l4.65-2.57c.78-.45,3.7-1.47,4.38-1.08.32-.18,2.09.5,2.5.5a9.39,9.39,0,0,1,2.05.88l10.74,6.14,1.36.78L90.28,170a6,6,0,0,1,1.39,1.1,1.59,1.59,0,0,1,.33.51c.33.77-.07,1.65-1.13,2.26l-4.65,2.57c-.78.45-3.7,1.47-4.38,1.08-.32.18-2.09-.5-2.5-.5a9.39,9.39,0,0,1-2-.88L66.55,170l-1.36-.78L53,162.27a5.77,5.77,0,0,1-1.39-1.1,1.67,1.67,0,0,1-.33-.5C51,159.89,51.39,159,52.45,158.4Z" transform="translate(0 10.18)"/>
                  <path class="cls-16" d="M52.62,158.49l4.55-2.5c.89-.52,3.55-1.31,4.33-.86.24-.14,2.1.69,2.41.69a12.28,12.28,0,0,1,2,.91l10.46,6,1.32.75,11.85,6.8a6.78,6.78,0,0,1,1.39,1,1.63,1.63,0,0,1,.37.47c.37.73,0,1.6-1,2.2l-4.54,2.5c-.9.52-3.55,1.31-4.33.86-.24.14-2.11-.69-2.41-.69a11.89,11.89,0,0,1-2-.91l-10.47-6L65.19,169l-11.84-6.79a7.57,7.57,0,0,1-1.4-1,1.44,1.44,0,0,1-.36-.47C51.21,160,51.58,159.09,52.62,158.49Z" transform="translate(0 10.18)"/>
                  <path class="cls-17" d="M52.8,158.57l4.43-2.43c1-.59,3.41-1.14,4.28-.63.16-.09,2.12.87,2.33.87a16,16,0,0,1,1.9,1l10.19,5.85,1.29.74,11.54,6.63a10.44,10.44,0,0,1,1.4,1,1.46,1.46,0,0,1,.39.44c.43.7.09,1.55-.94,2.15l-4.43,2.43c-1,.58-3.41,1.13-4.28.62-.16.1-2.12-.87-2.33-.87a18.63,18.63,0,0,1-1.9-.94l-10.19-5.86-1.29-.74-11.54-6.63a12.24,12.24,0,0,1-1.4-1,1.74,1.74,0,0,1-.39-.44C51.43,160,51.77,159.17,52.8,158.57Z" transform="translate(0 10.18)"/>
                  <path class="cls-18" d="M53,158.65l4.32-2.36c1.12-.65,3.26-1,4.23-.4.08,0,2.13,1.05,2.23,1.05s1.78.95,1.84,1l9.91,5.71,1.25.72L88,170.83c.06,0,1.38.82,1.4.88a1.54,1.54,0,0,1,.43.41c.48.66.17,1.5-.85,2.09l-4.33,2.36c-1.12.65-3.25,1-4.22.4-.08.05-2.14-1.05-2.24-1.05s-1.77-.95-1.83-1l-9.92-5.71-1.25-.72L54,162c-.07,0-1.39-.82-1.41-.88a1.62,1.62,0,0,1-.42-.4C51.65,160.08,52,159.24,53,158.65Z" transform="translate(0 10.18)"/>
                  <path d="M80,176.79,66.41,169l-13.55-7.83c-1.07-.61-.94-1.69.3-2.41l4.21-2.29a4.63,4.63,0,0,1,4.17-.17l13.56,7.82,13.55,7.82c1.07.62.93,1.7-.3,2.42l-4.22,2.29A4.63,4.63,0,0,1,80,176.79Z" transform="translate(0 10.18)"/>
                </g>
                <polygon class="cls-96" points="89.48 183.5 61.22 167.18 58.78 114.17 87.03 130.49 89.48 183.5"/>
                <path class="cls-97" d="M68.24,114.56c0,.65-.46.91-1,.58a2.26,2.26,0,0,1-1-1.77c0-.65.46-.91,1-.58A2.26,2.26,0,0,1,68.24,114.56Z" transform="translate(0 10.18)"/>
                <path class="cls-98" d="M78.5,120.38c0,.65-.46.91-1,.58a2.24,2.24,0,0,1-1-1.77c0-.65.45-.91,1-.58A2.26,2.26,0,0,1,78.5,120.38Z" transform="translate(0 10.18)"/>
                <path class="cls-99" d="M67.69,114.73a2.23,2.23,0,0,1-1-1.76,1.07,1.07,0,0,1,0-.32c-.31,0-.52.28-.52.72a2.26,2.26,0,0,0,1,1.77c.46.27.85.14,1-.27A.85.85,0,0,1,67.69,114.73Z" transform="translate(0 10.18)"/>
                <path class="cls-100" d="M77.94,120.56a2.26,2.26,0,0,1-1-1.77,1,1,0,0,1,0-.31c-.3,0-.51.28-.51.71a2.24,2.24,0,0,0,1,1.77c.46.27.85.14,1-.27A.88.88,0,0,1,77.94,120.56Z" transform="translate(0 10.18)"/>
                <g>
                  <path class="cls-101" d="M66.72,115.89v-2a.5.5,0,0,1,.5-.5.5.5,0,0,1,.5.5v2.58Z" transform="translate(0 10.18)"/>
                  <path class="cls-101" d="M76.87,121.64v-2a.5.5,0,0,1,1,0v2.61Z" transform="translate(0 10.18)"/>
                </g>
                <polygon class="cls-102" points="53.52 116.52 56.92 116.47 58.8 114.17 62.87 165.49 53.22 155.77 53.52 116.52"/>
                <polygon class="cls-103" points="80.55 174.93 80.7 187.88 89.47 183.5 80.55 174.93"/>
                <polygon class="cls-104" points="81.76 132.83 83.17 130.68 87.03 130.49 89.48 183.5 80.67 175.12 81.76 132.83"/>
                <polygon class="cls-105" points="80.7 187.88 52.45 171.56 53.5 116.52 81.76 132.83 80.7 187.88"/>
                <path class="cls-106" d="M64,118.62c0,.65-.46.92-1,.59a2.28,2.28,0,0,1-1-1.77c0-.65.46-.91,1-.58A2.23,2.23,0,0,1,64,118.62Z" transform="translate(0 10.18)"/>
                <path class="cls-107" d="M74.23,124.45c0,.65-.46.91-1,.58a2.26,2.26,0,0,1-1-1.77c0-.65.46-.91,1-.58A2.28,2.28,0,0,1,74.23,124.45Z" transform="translate(0 10.18)"/>
                <path class="cls-108" d="M63.42,118.8a2.24,2.24,0,0,1-1-1.77,1.46,1.46,0,0,1,0-.31c-.3,0-.51.28-.51.72a2.28,2.28,0,0,0,1,1.77c.47.27.85.14,1-.27A.9.9,0,0,1,63.42,118.8Z" transform="translate(0 10.18)"/>
                <path class="cls-109" d="M73.67,124.63a2.28,2.28,0,0,1-1-1.77,1,1,0,0,1,0-.31c-.31,0-.52.28-.52.71a2.26,2.26,0,0,0,1,1.77c.46.27.84.14,1-.27A1,1,0,0,1,73.67,124.63Z" transform="translate(0 10.18)"/>
                <path class="cls-110" d="M75.62,144.43a29.68,29.68,0,0,1-9-8.37l0,0c-2.63.59-5.77-.11-9-2l-.12-.07.17,2.31c.61,8.11,3.77,14.78,8.87,22.67l.13.07c5.1-2,8.27-5,8.87-12.42l.18-2.11Zm-2.72,2.18c-.43,5.2-2.65,7.3-6.22,8.71l-.09,0c-3.57-5.53-5.79-10.2-6.22-15.89l-.12-1.62.09.05a8.84,8.84,0,0,0,6.28,1.39h0a20.48,20.48,0,0,0,6.29,5.87l.08,0Z" transform="translate(0 10.18)"/>
                <path class="cls-29" d="M67.64,151.09v-2.72L70,149.74c.16.09.28,0,.28-.16v-1.83a.6.6,0,0,0-.28-.48l-2.37-1.37v-2.71a.61.61,0,0,0-.28-.49l-1.59-.91c-.15-.09-.28,0-.28.15v2.72l-2.23-1.29c-.15-.09-.28,0-.28.16v1.83a.64.64,0,0,0,.28.48l2.23,1.29v2.72a.64.64,0,0,0,.28.48l1.59.92C67.52,151.33,67.64,151.26,67.64,151.09Z" transform="translate(0 10.18)"/>
                <path class="cls-111" d="M69.37,136.2a4.4,4.4,0,0,1-2.4-.72,9.5,9.5,0,0,1-4.33-8v-8a.5.5,0,0,1,.5-.5.5.5,0,0,1,.5.5v8a8.51,8.51,0,0,0,3.87,7.14,3.41,3.41,0,0,0,5.28-2.86v-6.62a.5.5,0,0,1,.5-.5.5.5,0,0,1,.5.5v6.62a4.36,4.36,0,0,1-2.31,3.88A4.45,4.45,0,0,1,69.37,136.2Z" transform="translate(0 10.18)"/>
                <path class="cls-101" d="M69.18,134.7a4.4,4.4,0,0,1-2.4-.72,9.49,9.49,0,0,1-4.32-8v-8a.5.5,0,0,1,.5-.5.5.5,0,0,1,.5.5v8a8.48,8.48,0,0,0,3.87,7.14,3.42,3.42,0,0,0,5.28-2.86v-6.62a.5.5,0,1,1,1,0v6.62a4.34,4.34,0,0,1-2.31,3.88A4.45,4.45,0,0,1,69.18,134.7Z" transform="translate(0 10.18)"/>
              </g>
              <g>
                <ellipse class="cls-112" cx="44.35" cy="182.58" rx="5.85" ry="2.44"/>
                <g class="cls-113">
                  <path class="cls-114" d="M38.8,171.32v0Z" transform="translate(0 10.18)"/>
                  <path class="cls-115" d="M47.59,171.63v-.31h0Z" transform="translate(0 10.18)"/>
                </g>
                <path class="cls-116" d="M47.59,170.1H38.8v1.66h0v0c0,1.41,2,2.55,4.39,2.55s4.4-1.14,4.4-2.55v0h0Z" transform="translate(0 10.18)"/>
                <path class="cls-117" d="M43.19,172.47c-2.37,0-4.3-1.1-4.38-2.47,0,0,0,.06,0,.09,0,1.41,2,2.56,4.39,2.56s4.4-1.15,4.4-2.56c0,0,0-.06,0-.09C47.5,171.37,45.57,172.47,43.19,172.47Z" transform="translate(0 10.18)"/>
                <path class="cls-118" d="M41.08,171.45c1,.34,1.66,1,1.49,1.5s-1.1.61-2.09.27-1.65-1-1.49-1.49S40.1,171.12,41.08,171.45Z" transform="translate(0 10.18)"/>
                <path class="cls-119" d="M43.19,167.42a6.16,6.16,0,0,0-3.16.79.31.31,0,0,1-.09.18.67.67,0,0,1-.34.12,2,2,0,0,0-.8,1.47c0,1.41,2,2.56,4.39,2.56s4.4-1.15,4.4-2.56S45.62,167.42,43.19,167.42Z" transform="translate(0 10.18)"/>
                <path class="cls-120" d="M40,168.13l6.36,3.58a.16.16,0,0,1,.07.2h0a.37.37,0,0,1-.44.21l-.11-.05-6.32-3.56a.67.67,0,0,0,.34-.12A.39.39,0,0,0,40,168.13Z" transform="translate(0 10.18)"/>
              </g>
              <g>
                <path class="cls-121" d="M37.61,166c.44,1.21-1.88,3.17-5.19,4.38s-6.34,1.2-6.79,0,1.89-3.17,5.19-4.37S37.17,164.77,37.61,166Z" transform="translate(0 10.18)"/>
                <path class="cls-122" d="M36.7,165.05a2.18,2.18,0,0,0-2.18-2.18,2.06,2.06,0,0,0-1,.26s-3.61,2.08-3.62,2.08c-.27.16.18.17.18.66a3.43,3.43,0,0,0,1.55,2.68c.43.25.25.6.53.44l3.54-2.1A2.18,2.18,0,0,0,36.7,165.05Z" transform="translate(0 10.18)"/>
                <path class="cls-123" d="M30.9,165.36a1.11,1.11,0,0,0-1.08-.12s-3.59,2.11-3.57,2.15a2.17,2.17,0,0,0,1.29,3.92,2.22,2.22,0,0,0,1-.22S32,169,32,169a1.09,1.09,0,0,0,.44-1A3.44,3.44,0,0,0,30.9,165.36Z" transform="translate(0 10.18)"/>
                <path class="cls-124" d="M31.17,164.82c1.32-.75,2.57-1,2.79-.66s-.68,1.31-2,2.06-2.58,1-2.8.65S29.84,165.56,31.17,164.82Z" transform="translate(0 10.18)"/>
                <circle class="cls-125" cx="26.81" cy="179.04" r="1.28"/>
              </g>
              <g>
                <path class="cls-126" d="M51.06,167.2c-.69,1.16-3.5.77-6.28-.88s-4.49-3.91-3.81-5.07,3.5-.76,6.28.88S51.74,166,51.06,167.2Z" transform="translate(0 10.18)"/>
                <path class="cls-127" d="M38.71,160.92a2.19,2.19,0,0,1,2.18-2.18,2.06,2.06,0,0,1,1,.26c.05,0,3.61,2.08,3.62,2.08.28.17-.17.17-.17.66a3.44,3.44,0,0,1-1.56,2.68c-.43.25-.25.6-.53.45,0,0-3.5-2.08-3.53-2.11A2.15,2.15,0,0,1,38.71,160.92Z" transform="translate(0 10.18)"/>
                <path class="cls-128" d="M44.51,161.23a1.13,1.13,0,0,1,1.09-.12s3.58,2.11,3.57,2.15a2.18,2.18,0,0,1-1.29,3.93,2.1,2.1,0,0,1-1-.23s-3.51-2.05-3.52-2.06a1.09,1.09,0,0,1-.44-1A3.44,3.44,0,0,1,44.51,161.23Z" transform="translate(0 10.18)"/>
                <path class="cls-129" d="M44.25,160.69c-1.33-.75-2.58-1-2.8-.66s.68,1.31,2,2.06,2.57,1,2.79.65S45.57,161.44,44.25,160.69Z" transform="translate(0 10.18)"/>
                <circle class="cls-130" cx="48.6" cy="174.91" r="1.28"/>
              </g>
            </g>
          </g>
          <path class="cls-131" d="M101,10a91,91,0,1,1-91,91,91.06,91.06,0,0,1,91-91m0-10a101,101,0,1,0,101,101A101,101,0,0,0,101,0Z" transform="translate(0 10.18)"/>
        </g>
      </g>
    </g>
  </g>
</svg>
