<svg xmlns="http://www.w3.org/2000/svg" xmlns:xlink="http://www.w3.org/1999/xlink" width="214.31" height="201.92" viewBox="0 0 214.31 201.92">
  <defs>
    <style>
      .cls-1 {
        fill: none;
      }

      .cls-2 {
        isolation: isolate;
      }

      .cls-3 {
        fill: url(#linear-gradient);
      }

      .cls-4 {
        clip-path: url(#clip-path);
      }

      .cls-5 {
        fill: url(#linear-gradient-2);
      }

      .cls-36, .cls-37, .cls-6, .cls-7 {
        opacity: 0.3;
      }

      .cls-36, .cls-6, .cls-7 {
        mix-blend-mode: multiply;
      }

      .cls-6 {
        fill: url(#linear-gradient-3);
      }

      .cls-7 {
        fill: url(#linear-gradient-4);
      }

      .cls-8 {
        fill: url(#linear-gradient-5);
      }

      .cls-9 {
        fill: url(#linear-gradient-6);
      }

      .cls-10 {
        fill: url(#linear-gradient-7);
      }

      .cls-11 {
        fill: url(#linear-gradient-8);
      }

      .cls-12 {
        fill: url(#linear-gradient-9);
      }

      .cls-13 {
        fill: url(#linear-gradient-10);
      }

      .cls-14 {
        fill: url(#linear-gradient-11);
      }

      .cls-15 {
        fill: url(#linear-gradient-12);
      }

      .cls-16 {
        fill: url(#linear-gradient-13);
      }

      .cls-17 {
        fill: url(#linear-gradient-14);
      }

      .cls-18 {
        fill: url(#linear-gradient-15);
      }

      .cls-19 {
        fill: url(#linear-gradient-16);
      }

      .cls-20 {
        fill: url(#linear-gradient-17);
      }

      .cls-21 {
        fill: url(#linear-gradient-18);
      }

      .cls-22 {
        fill: url(#linear-gradient-19);
      }

      .cls-23 {
        fill: url(#linear-gradient-20);
      }

      .cls-24 {
        fill: url(#linear-gradient-21);
      }

      .cls-25 {
        fill: url(#linear-gradient-22);
      }

      .cls-26 {
        fill: url(#linear-gradient-23);
      }

      .cls-27 {
        fill: url(#linear-gradient-24);
      }

      .cls-28 {
        fill: url(#linear-gradient-25);
      }

      .cls-29 {
        fill: url(#linear-gradient-26);
      }

      .cls-30 {
        fill: url(#linear-gradient-27);
      }

      .cls-31 {
        fill: url(#linear-gradient-28);
      }

      .cls-32 {
        fill: url(#linear-gradient-29);
      }

      .cls-33 {
        fill: url(#linear-gradient-30);
      }

      .cls-34 {
        fill: url(#linear-gradient-31);
      }

      .cls-35 {
        fill: url(#linear-gradient-32);
      }

      .cls-36 {
        fill: url(#linear-gradient-33);
      }

      .cls-37 {
        mix-blend-mode: soft-light;
        fill: url(#linear-gradient-34);
      }

      .cls-38 {
        fill: #3a0ca3;
      }
    </style>
    <linearGradient id="linear-gradient" x1="100.96" y1="201.92" x2="100.96" gradientUnits="userSpaceOnUse">
      <stop offset="0" stop-color="#f72585"/>
      <stop offset="1" stop-color="#b5179e"/>
    </linearGradient>
    <clipPath id="clip-path">
      <circle class="cls-1" cx="100.96" cy="100.96" r="100.96"/>
    </clipPath>
    <linearGradient id="linear-gradient-2" x1="950.91" y1="-293.82" x2="1030.28" y2="-146.42" gradientTransform="translate(-769.82 633.86) rotate(-17.63)" gradientUnits="userSpaceOnUse">
      <stop offset="0" stop-color="#444b8c"/>
      <stop offset="1" stop-color="#26264f"/>
    </linearGradient>
    <linearGradient id="linear-gradient-3" x1="975.07" y1="-269.5" x2="1032.21" y2="-269.5" gradientTransform="translate(-769.82 633.86) rotate(-17.63)" gradientUnits="userSpaceOnUse">
      <stop offset="0" stop-color="#40447e"/>
      <stop offset="1" stop-color="#3c3b6b"/>
    </linearGradient>
    <linearGradient id="linear-gradient-4" x1="1040.36" y1="-218.96" x2="1079.49" y2="-259.2" xlink:href="#linear-gradient-2"/>
    <linearGradient id="linear-gradient-5" x1="956.93" y1="-236.85" x2="924.32" y2="-289.91" xlink:href="#linear-gradient-2"/>
    <linearGradient id="linear-gradient-6" x1="956.31" y1="-228.08" x2="993.84" y2="-228.08" xlink:href="#linear-gradient-2"/>
    <linearGradient id="linear-gradient-7" x1="971.77" y1="-259.43" x2="973.85" y2="-240.16" xlink:href="#linear-gradient-2"/>
    <linearGradient id="linear-gradient-8" x1="977.62" y1="-236.15" x2="974.1" y2="-203.67" xlink:href="#linear-gradient-2"/>
    <linearGradient id="linear-gradient-9" x1="976.92" y1="-240.08" x2="976.6" y2="-212.24" xlink:href="#linear-gradient-2"/>
    <linearGradient id="linear-gradient-10" x1="1014.29" y1="-230.42" x2="1049.1" y2="-230.42" xlink:href="#linear-gradient-2"/>
    <linearGradient id="linear-gradient-11" x1="1027.98" y1="-265.48" x2="1030.06" y2="-246.21" xlink:href="#linear-gradient-2"/>
    <linearGradient id="linear-gradient-12" x1="1034.9" y1="-238.49" x2="1031.38" y2="-206.01" xlink:href="#linear-gradient-2"/>
    <linearGradient id="linear-gradient-13" x1="1034.21" y1="-242.42" x2="1033.89" y2="-214.58" xlink:href="#linear-gradient-2"/>
    <linearGradient id="linear-gradient-14" x1="963.3" y1="-289.97" x2="970.42" y2="-269.29" gradientTransform="translate(-769.82 633.86) rotate(-17.63)" gradientUnits="userSpaceOnUse">
      <stop offset="0" stop-color="#aa80f9"/>
      <stop offset="1" stop-color="#6165d7"/>
    </linearGradient>
    <linearGradient id="linear-gradient-15" x1="1026.3" y1="-311.64" x2="1033.42" y2="-290.97" xlink:href="#linear-gradient-14"/>
    <linearGradient id="linear-gradient-16" x1="967.73" y1="-246.53" x2="962.02" y2="-252.01" xlink:href="#linear-gradient-14"/>
    <linearGradient id="linear-gradient-17" x1="956.87" y1="-235.22" x2="951.16" y2="-240.71" xlink:href="#linear-gradient-14"/>
    <linearGradient id="linear-gradient-18" x1="956.84" y1="-235.2" x2="951.14" y2="-240.68" xlink:href="#linear-gradient-14"/>
    <linearGradient id="linear-gradient-19" x1="967.68" y1="-246.47" x2="961.97" y2="-251.96" xlink:href="#linear-gradient-14"/>
    <linearGradient id="linear-gradient-20" x1="947.67" y1="-264.11" x2="959.68" y2="-238.61" xlink:href="#linear-gradient-14"/>
    <linearGradient id="linear-gradient-21" x1="938.86" y1="-259.96" x2="950.87" y2="-234.46" xlink:href="#linear-gradient-14"/>
    <linearGradient id="linear-gradient-22" x1="934.57" y1="-257.94" x2="946.58" y2="-232.44" xlink:href="#linear-gradient-14"/>
    <linearGradient id="linear-gradient-23" x1="951.84" y1="-266.07" x2="963.85" y2="-240.57" xlink:href="#linear-gradient-14"/>
    <linearGradient id="linear-gradient-24" x1="1072.67" y1="-240.5" x2="1037.99" y2="-297.13" xlink:href="#linear-gradient-2"/>
    <linearGradient id="linear-gradient-25" x1="1088.6" y1="-246.33" x2="1080.81" y2="-254.12" xlink:href="#linear-gradient-14"/>
    <linearGradient id="linear-gradient-26" x1="1075" y1="-232.73" x2="1067.21" y2="-240.52" xlink:href="#linear-gradient-14"/>
    <linearGradient id="linear-gradient-27" x1="1075.2" y1="-232.93" x2="1067.41" y2="-240.71" xlink:href="#linear-gradient-14"/>
    <linearGradient id="linear-gradient-28" x1="1088.29" y1="-246.03" x2="1080.51" y2="-253.81" xlink:href="#linear-gradient-14"/>
    <linearGradient id="linear-gradient-29" x1="1063.54" y1="-267.38" x2="1077.55" y2="-219.36" xlink:href="#linear-gradient-14"/>
    <linearGradient id="linear-gradient-30" x1="1056.23" y1="-265.25" x2="1070.24" y2="-217.23" xlink:href="#linear-gradient-14"/>
    <linearGradient id="linear-gradient-31" x1="1047.88" y1="-262.82" x2="1061.89" y2="-214.79" xlink:href="#linear-gradient-14"/>
    <linearGradient id="linear-gradient-32" x1="1071.7" y1="-269.76" x2="1085.71" y2="-221.74" xlink:href="#linear-gradient-14"/>
    <linearGradient id="linear-gradient-33" x1="898.47" y1="-265.59" x2="977.84" y2="-118.18" xlink:href="#linear-gradient-2"/>
    <linearGradient id="linear-gradient-34" x1="975.07" y1="-267.41" x2="1032.21" y2="-267.41" xlink:href="#linear-gradient-14"/>
  </defs>
  <g class="cls-2">
    <g id="Capa_2" data-name="Capa 2">
      <g id="Capa_1-2" data-name="Capa 1">
        <g>
          <circle class="cls-3" cx="100.96" cy="100.96" r="100.96"/>
          <g class="cls-4">
            <g>
              <path class="cls-5" d="M211.14,108,177,47c-6.79-12.12-21.72-16.16-32.88-8.69l-5,3.37a23.6,23.6,0,0,1-5.85,2.83l-12.39,4-51,16.32L56.4,69.07a27.09,27.09,0,0,1-7.09,1.27l-6.8.29a27.41,27.41,0,0,0-26.13,29.51l6.79,79.35a24.12,24.12,0,0,0,25.09,22.42h0c14.65-.49,26.5-13.51,25.91-28.17L73.26,151a11,11,0,0,1,7.11-10.73l73.41-27.11a8.9,8.9,0,0,1,10.65,3.72l11.15,17.47c7.1,11.13,21.4,13.07,30.9,4.35h0C214.77,131.08,216.73,118,211.14,108Z"/>
              <path class="cls-6" d="M131.31,83,90.19,97.37c-3.66,1.27-7.76-1.18-9.13-5.49L72.21,64l54.41-17.44,8.5,26.76C136.44,77.5,134.74,81.83,131.31,83Z"/>
              <path class="cls-7" d="M183.06,128c-1.68-4.84-.16-8.08-3-15.38-1.34-3.4-5.14-13.09-13.28-16.07C159,93.68,151,98.35,140.57,104.4c-13.38,7.78-11.73,11-21.39,15.66-14.09,6.71-21.49,1.61-31.13,8.49a29.25,29.25,0,0,0-9.73,12.73,10.93,10.93,0,0,1,2.05-1l73.41-27.11a8.9,8.9,0,0,1,10.65,3.72l11.15,17.47c5.76,9,16.26,12,25.09,8.16C189,138.06,184.66,132.59,183.06,128Z"/>
              <path class="cls-8" d="M73.61,94.05a24.07,24.07,0,0,1-15.09,29.72,23,23,0,0,1-29.83-14.49A24.05,24.05,0,0,1,44.4,79.35,23,23,0,0,1,73.61,94.05Z"/>
              <g>
                <g>
                  <path class="cls-9" d="M108,114.82A19.67,19.67,0,0,1,96.26,139,18,18,0,0,1,72.7,127.52a19.65,19.65,0,0,1,12.18-24.33A18,18,0,0,1,108,114.82Z"/>
                  <path class="cls-10" d="M104.67,116a15.84,15.84,0,0,1-9.52,19.5,14.46,14.46,0,0,1-18.94-9.27A15.8,15.8,0,0,1,86,106.68,14.46,14.46,0,0,1,104.67,116Z"/>
                </g>
                <g>
                  <path class="cls-11" d="M101.9,117.09a11.05,11.05,0,0,1-6.63,13.6A10.09,10.09,0,0,1,82,124.23a11,11,0,0,1,6.84-13.68A10.1,10.1,0,0,1,101.9,117.09Z"/>
                  <path class="cls-12" d="M100,117.77a8.9,8.9,0,0,1-5.36,11A8.13,8.13,0,0,1,84,123.52a8.89,8.89,0,0,1,5.5-11A8.14,8.14,0,0,1,100,117.77Z"/>
                </g>
                <g>
                  <path class="cls-13" d="M160,95.9c3,9.42-1.76,19.74-10.73,23.07s-19-1.66-22-11.29,2-20,11.09-23.2S157,86.47,160,95.9Z"/>
                  <path class="cls-14" d="M156.89,97c2.42,7.61-1.44,15.93-8.68,18.6s-15.27-1.37-17.73-9.11,1.55-16.11,8.9-18.68S154.47,89.41,156.89,97Z"/>
                </g>
                <g>
                  <path class="cls-15" d="M155.78,97.51a11.05,11.05,0,0,1-6.62,13.6,10.09,10.09,0,0,1-13.25-6.46A11.05,11.05,0,0,1,142.76,91,10.09,10.09,0,0,1,155.78,97.51Z"/>
                  <path class="cls-16" d="M153.89,98.19a8.91,8.91,0,0,1-5.35,11,8.14,8.14,0,0,1-10.66-5.21,8.9,8.9,0,0,1,5.5-11A8.14,8.14,0,0,1,153.89,98.19Z"/>
                </g>
              </g>
              <path class="cls-17" d="M69.41,80.81h0A2.84,2.84,0,0,1,65.79,79l-1.54-4.84a2.9,2.9,0,0,1,1.88-3.64h0a2.87,2.87,0,0,1,3.62,1.85l1.53,4.83A2.91,2.91,0,0,1,69.41,80.81Z"/>
              <path class="cls-18" d="M136.11,58.73h0a2.66,2.66,0,0,1-3.34-1.81l-1.47-4.61A2.71,2.71,0,0,1,133,48.87h0a2.67,2.67,0,0,1,3.33,1.81l1.47,4.6A2.74,2.74,0,0,1,136.11,58.73Z"/>
              <g>
                <path class="cls-19" d="M48.72,84.72,44,86.27a2.67,2.67,0,0,0-1.73,3.32L44,95a2.56,2.56,0,0,0,.86,1.23L48,98.68a2.57,2.57,0,0,0,2.44.4l.47-.15a2.75,2.75,0,0,0,1.74-1.82l1.11-3.87a2.56,2.56,0,0,0,0-1.5L52,86.37A2.58,2.58,0,0,0,48.72,84.72Z"/>
                <path class="cls-20" d="M58.91,116.81l-4.7,1.64a2.54,2.54,0,0,1-3.3-1.61l-1.72-5.4a2.62,2.62,0,0,1,0-1.52L50.3,106A2.71,2.71,0,0,1,52,104.2l.47-.16a2.57,2.57,0,0,1,2.43.39l3.12,2.44a2.49,2.49,0,0,1,.85,1.22l1.71,5.37A2.72,2.72,0,0,1,58.91,116.81Z"/>
                <path class="cls-21" d="M34.3,104.77l1.5,4.71a2.6,2.6,0,0,0,3.35,1.63l5.51-1.89a2.78,2.78,0,0,0,1.27-.89l2.55-3.21a2.68,2.68,0,0,0,.47-2.45l-.15-.46A2.54,2.54,0,0,0,47,100.52l-3.89-1a2.66,2.66,0,0,0-1.53.06l-5.53,1.85A2.72,2.72,0,0,0,34.3,104.77Z"/>
                <path class="cls-22" d="M66.81,93.8l1.47,4.62a2.67,2.67,0,0,1-1.68,3.3l-5.37,1.83a2.56,2.56,0,0,1-1.5.06l-3.84-1a2.53,2.53,0,0,1-1.78-1.68l-.14-.47A2.63,2.63,0,0,1,54.43,98l2.51-3.16A2.76,2.76,0,0,1,58.19,94l5.38-1.8A2.53,2.53,0,0,1,66.81,93.8Z"/>
              </g>
              <g>
                <path class="cls-23" d="M49.85,84.61l-4.73,1.56a2.65,2.65,0,0,0-1.74,3.31l1.72,5.41A2.48,2.48,0,0,0,46,96.12l3.14,2.46a2.62,2.62,0,0,0,2.45.4l.47-.16A2.68,2.68,0,0,0,53.75,97l1.12-3.87a2.68,2.68,0,0,0,0-1.51l-1.71-5.36A2.59,2.59,0,0,0,49.85,84.61Z"/>
                <path class="cls-24" d="M60.05,116.71l-4.7,1.64A2.55,2.55,0,0,1,52,116.74l-1.71-5.4a2.62,2.62,0,0,1,0-1.52l1.12-3.9a2.77,2.77,0,0,1,1.74-1.83l.47-.16a2.63,2.63,0,0,1,2.44.4l3.12,2.44a2.56,2.56,0,0,1,.85,1.22l1.7,5.37A2.71,2.71,0,0,1,60.05,116.71Z"/>
                <path class="cls-25" d="M35.44,104.66l1.5,4.72A2.59,2.59,0,0,0,40.28,111l5.52-1.89a2.75,2.75,0,0,0,1.26-.89L49.61,105a2.66,2.66,0,0,0,.47-2.45l-.15-.47a2.54,2.54,0,0,0-1.78-1.69l-3.9-1a2.66,2.66,0,0,0-1.53.06L37.2,101.3A2.71,2.71,0,0,0,35.44,104.66Z"/>
                <path class="cls-26" d="M68,93.7l1.46,4.62a2.66,2.66,0,0,1-1.68,3.3l-5.36,1.83a2.59,2.59,0,0,1-1.51.06l-3.84-1a2.52,2.52,0,0,1-1.77-1.68l-.15-.47a2.66,2.66,0,0,1,.46-2.44l2.52-3.16a2.68,2.68,0,0,1,1.24-.88l5.38-1.8A2.54,2.54,0,0,1,68,93.7Z"/>
              </g>
              <g>
                <path class="cls-27" d="M142.16,70.68c3.67,11.54,15.45,17.78,26.19,14,10.58-3.74,16.15-15.86,12.58-27.12s-15-17.61-25.7-14.15S138.49,59.14,142.16,70.68Z"/>
                <g>
                  <path class="cls-28" d="M162.6,49.44a5.44,5.44,0,0,1-3.26,6.88,5.29,5.29,0,0,1-6.64-3.62,5.44,5.44,0,0,1,3.3-6.89A5.3,5.3,0,0,1,162.6,49.44Z"/>
                  <path class="cls-29" d="M170.82,75.28a5.57,5.57,0,0,1-3.24,7A5.2,5.2,0,0,1,161,78.71a5.55,5.55,0,0,1,3.27-7A5.21,5.21,0,0,1,170.82,75.28Z"/>
                  <path class="cls-30" d="M147.83,62.89a5.32,5.32,0,0,1,6.69,3.6,5.56,5.56,0,0,1-3.32,7,5.3,5.3,0,0,1-6.71-3.6A5.55,5.55,0,0,1,147.83,62.89Z"/>
                  <path class="cls-31" d="M172.21,54.72a5.19,5.19,0,0,1,6.5,3.57,5.44,5.44,0,0,1-3.19,6.86A5.19,5.19,0,0,1,169,61.59,5.43,5.43,0,0,1,172.21,54.72Z"/>
                </g>
                <g>
                  <path class="cls-32" d="M163.74,49.34a5.44,5.44,0,0,1-3.27,6.88,5.3,5.3,0,0,1-6.63-3.62,5.43,5.43,0,0,1,3.29-6.89A5.3,5.3,0,0,1,163.74,49.34Z"/>
                  <path class="cls-33" d="M172,75.18a5.55,5.55,0,0,1-3.24,7,5.19,5.19,0,0,1-6.61-3.53,5.56,5.56,0,0,1,3.27-7A5.19,5.19,0,0,1,172,75.18Z"/>
                  <path class="cls-34" d="M149,62.79a5.3,5.3,0,0,1,6.68,3.6,5.55,5.55,0,0,1-3.31,7,5.3,5.3,0,0,1-6.72-3.59A5.56,5.56,0,0,1,149,62.79Z"/>
                  <path class="cls-35" d="M173.34,54.62a5.19,5.19,0,0,1,6.5,3.57,5.44,5.44,0,0,1-3.18,6.86,5.19,5.19,0,0,1-6.53-3.56A5.43,5.43,0,0,1,173.34,54.62Z"/>
                </g>
              </g>
              <path class="cls-36" d="M52.08,191.54c-1.28-5.5,5.69-8.59,5-15.82-.93-9.91-14.65-10.73-16.72-21.05-2-10.09,9.33-18.14,5.61-23.48-1.85-2.65-5-1.16-10.78-3.8-8.12-3.72-12.12-11.34-13.17-13.55-6.53-13.76,1.57-28.21,3-30.83a38.89,38.89,0,0,1,8.59-10.48,27.33,27.33,0,0,0-17.27,27.61l6.79,79.35a24.12,24.12,0,0,0,25.09,22.42h0a25.75,25.75,0,0,0,11.62-3.23C54.5,196.37,52.6,193.79,52.08,191.54Z"/>
              <path class="cls-37" d="M119.51,76.32c-7.06-1.4-9.37,3.69-14.69,2.06-6.2-1.89-5.12-9.44-11.47-11.7-5.35-1.91-8.44,2.61-15.44,2.14a16.13,16.13,0,0,1-4.48-1l7.63,24c1.37,4.31,5.47,6.76,9.13,5.49L131.31,83a5.71,5.71,0,0,0,2.25-1.45,18.55,18.55,0,0,1-3.38-.44C125,79.93,124.27,77.27,119.51,76.32Z"/>
            </g>
          </g>
          <path class="cls-38" d="M101,10a91,91,0,1,1-91,91,91.06,91.06,0,0,1,91-91m0-10a101,101,0,1,0,101,101A101,101,0,0,0,101,0Z"/>
        </g>
      </g>
    </g>
  </g>
</svg>
