<svg xmlns="http://www.w3.org/2000/svg" xmlns:xlink="http://www.w3.org/1999/xlink" width="201.92" height="201.92" viewBox="0 0 201.92 201.92">
  <defs>
    <style>
      .cls-1 {
        fill: none;
      }

      .cls-2 {
        isolation: isolate;
      }

      .cls-3 {
        fill: url(#linear-gradient);
      }

      .cls-4 {
        clip-path: url(#clip-path);
      }

      .cls-5 {
        fill: url(#linear-gradient-2);
      }

      .cls-104, .cls-110, .cls-111, .cls-14, .cls-33, .cls-34, .cls-35, .cls-42, .cls-55, .cls-56, .cls-6 {
        mix-blend-mode: color-dodge;
      }

      .cls-6 {
        fill: url(#radial-gradient);
      }

      .cls-7 {
        opacity: 0.6;
        fill: url(#radial-gradient-2);
      }

      .cls-103, .cls-18, .cls-29, .cls-36, .cls-37, .cls-38, .cls-39, .cls-40, .cls-41, .cls-44, .cls-45, .cls-7 {
        mix-blend-mode: screen;
      }

      .cls-8 {
        fill: #32084f;
      }

      .cls-9 {
        fill: url(#linear-gradient-3);
      }

      .cls-10 {
        fill: url(#linear-gradient-4);
      }

      .cls-11 {
        fill: url(#linear-gradient-5);
      }

      .cls-12 {
        fill: url(#linear-gradient-6);
      }

      .cls-13 {
        fill: url(#linear-gradient-7);
      }

      .cls-14 {
        fill: url(#radial-gradient-3);
      }

      .cls-15 {
        fill: #fff;
      }

      .cls-16, .cls-17 {
        fill: #9f19ab;
      }

      .cls-16 {
        opacity: 0.5;
      }

      .cls-18, .cls-29 {
        fill: #b086cc;
      }

      .cls-19 {
        fill: url(#linear-gradient-8);
      }

      .cls-20 {
        fill: url(#New_Gradient_Swatch_copy_8);
      }

      .cls-21 {
        fill: url(#linear-gradient-9);
      }

      .cls-22 {
        fill: url(#linear-gradient-10);
      }

      .cls-23 {
        fill: url(#linear-gradient-11);
      }

      .cls-24 {
        fill: url(#New_Gradient_Swatch_copy_8-2);
      }

      .cls-25 {
        fill: url(#linear-gradient-12);
      }

      .cls-26 {
        fill: url(#linear-gradient-13);
      }

      .cls-27, .cls-28 {
        fill: #45108a;
      }

      .cls-27, .cls-40, .cls-55, .cls-57 {
        opacity: 0.3;
      }

      .cls-107, .cls-27, .cls-57, .cls-97, .cls-98, .cls-99 {
        mix-blend-mode: multiply;
      }

      .cls-29 {
        opacity: 0.7;
      }

      .cls-30 {
        fill: url(#New_Gradient_Swatch_copy_8-3);
      }

      .cls-31 {
        fill: url(#linear-gradient-14);
      }

      .cls-32 {
        fill: url(#New_Gradient_Swatch_copy_9);
      }

      .cls-33 {
        fill: url(#Degradado_sin_nombre_7);
      }

      .cls-34 {
        fill: url(#Degradado_sin_nombre_7-2);
      }

      .cls-35 {
        fill: url(#Degradado_sin_nombre_7-3);
      }

      .cls-36 {
        fill: url(#Degradado_sin_nombre_6);
      }

      .cls-37 {
        opacity: 0.83;
        fill: url(#Degradado_sin_nombre_6-2);
      }

      .cls-38 {
        opacity: 0.65;
        fill: url(#Degradado_sin_nombre_6-3);
      }

      .cls-39 {
        opacity: 0.48;
        fill: url(#Degradado_sin_nombre_6-4);
      }

      .cls-40 {
        fill: url(#Degradado_sin_nombre_6-5);
      }

      .cls-41 {
        fill: url(#Degradado_sin_nombre_6-6);
      }

      .cls-43 {
        fill: #6b24d6;
      }

      .cls-44 {
        fill: url(#radial-gradient-4);
      }

      .cls-45 {
        fill: url(#Degradado_sin_nombre_6-7);
      }

      .cls-46, .cls-47 {
        opacity: 0.8;
      }

      .cls-46 {
        fill: url(#New_Gradient_Swatch_copy_26);
      }

      .cls-47 {
        fill: url(#Radial_Gradient_1);
      }

      .cls-48 {
        fill: url(#New_Gradient_Swatch_copy_7);
      }

      .cls-49 {
        fill: #e6e7e8;
      }

      .cls-50 {
        fill: #f1f2f2;
      }

      .cls-51 {
        fill: url(#New_Gradient_Swatch_copy_13);
      }

      .cls-52 {
        fill: url(#New_Gradient_Swatch_copy_8-4);
      }

      .cls-53 {
        fill: url(#linear-gradient-15);
      }

      .cls-54 {
        fill: url(#New_Gradient_Swatch_copy_13-2);
      }

      .cls-56 {
        fill: url(#Degradado_sin_nombre_4);
      }

      .cls-58, .cls-71 {
        opacity: 0;
      }

      .cls-58 {
        fill: url(#linear-gradient-16);
      }

      .cls-59, .cls-72 {
        opacity: 0.09;
      }

      .cls-59 {
        fill: url(#linear-gradient-17);
      }

      .cls-60, .cls-73 {
        opacity: 0.18;
      }

      .cls-60 {
        fill: url(#linear-gradient-18);
      }

      .cls-61, .cls-74 {
        opacity: 0.27;
      }

      .cls-61 {
        fill: url(#linear-gradient-19);
      }

      .cls-62, .cls-75 {
        opacity: 0.36;
      }

      .cls-62 {
        fill: url(#linear-gradient-20);
      }

      .cls-63, .cls-76 {
        opacity: 0.45;
      }

      .cls-63 {
        fill: url(#linear-gradient-21);
      }

      .cls-64, .cls-77 {
        opacity: 0.55;
      }

      .cls-64 {
        fill: url(#linear-gradient-22);
      }

      .cls-65, .cls-78 {
        opacity: 0.64;
      }

      .cls-65 {
        fill: url(#linear-gradient-23);
      }

      .cls-66, .cls-79 {
        opacity: 0.73;
      }

      .cls-66 {
        fill: url(#linear-gradient-24);
      }

      .cls-67, .cls-80 {
        opacity: 0.82;
      }

      .cls-67 {
        fill: url(#linear-gradient-25);
      }

      .cls-68, .cls-81 {
        opacity: 0.91;
      }

      .cls-68 {
        fill: url(#linear-gradient-26);
      }

      .cls-69 {
        fill: url(#linear-gradient-27);
      }

      .cls-70 {
        opacity: 0.2;
      }

      .cls-82 {
        fill: url(#linear-gradient-28);
      }

      .cls-83 {
        fill: url(#linear-gradient-29);
      }

      .cls-84 {
        fill: url(#linear-gradient-30);
      }

      .cls-85 {
        fill: url(#linear-gradient-31);
      }

      .cls-86 {
        fill: url(#linear-gradient-32);
      }

      .cls-87, .cls-97 {
        fill: #c7bcd6;
      }

      .cls-88 {
        fill: url(#linear-gradient-33);
      }

      .cls-89 {
        fill: url(#linear-gradient-34);
      }

      .cls-90 {
        fill: url(#linear-gradient-35);
      }

      .cls-91 {
        fill: url(#linear-gradient-36);
      }

      .cls-92 {
        fill: url(#linear-gradient-37);
      }

      .cls-93 {
        fill: url(#linear-gradient-38);
      }

      .cls-94 {
        fill: url(#linear-gradient-39);
      }

      .cls-95 {
        fill: url(#linear-gradient-40);
      }

      .cls-96 {
        fill: url(#New_Gradient_Swatch_copy_8-5);
      }

      .cls-98 {
        fill: url(#radial-gradient-5);
      }

      .cls-100 {
        fill: url(#linear-gradient-41);
      }

      .cls-101 {
        fill: url(#linear-gradient-42);
      }

      .cls-102 {
        fill: url(#linear-gradient-43);
      }

      .cls-103 {
        fill: url(#White_Black_Radial);
      }

      .cls-104 {
        fill: url(#radial-gradient-6);
      }

      .cls-105 {
        fill: url(#linear-gradient-44);
      }

      .cls-106 {
        fill: url(#linear-gradient-45);
      }

      .cls-107 {
        fill: url(#radial-gradient-7);
      }

      .cls-108 {
        fill: url(#linear-gradient-46);
      }

      .cls-109 {
        fill: url(#linear-gradient-47);
      }

      .cls-110 {
        fill: url(#radial-gradient-8);
      }

      .cls-111 {
        fill: url(#radial-gradient-9);
      }

      .cls-112 {
        fill: #3a0ca3;
      }
    </style>
    <linearGradient id="linear-gradient" x1="100.96" y1="201.92" x2="100.96" gradientUnits="userSpaceOnUse">
      <stop offset="0" stop-color="#f72585"/>
      <stop offset="1" stop-color="#b5179e"/>
    </linearGradient>
    <clipPath id="clip-path">
      <circle class="cls-1" cx="100.96" cy="100.96" r="100.96"/>
    </clipPath>
    <linearGradient id="linear-gradient-2" x1="66" y1="21.79" x2="125.72" y2="125.22" gradientUnits="userSpaceOnUse">
      <stop offset="0.06" stop-color="#200041"/>
      <stop offset="0.26" stop-color="#210243"/>
      <stop offset="0.36" stop-color="#25084b"/>
      <stop offset="0.43" stop-color="#2c1358"/>
      <stop offset="0.47" stop-color="#311b61"/>
      <stop offset="0.48" stop-color="#351f65"/>
      <stop offset="0.5" stop-color="#422c73"/>
      <stop offset="0.51" stop-color="#584188"/>
      <stop offset="0.52" stop-color="#765fa7"/>
      <stop offset="0.53" stop-color="#8770b8"/>
      <stop offset="0.54" stop-color="#7e67ae"/>
      <stop offset="0.56" stop-color="#5c468d"/>
      <stop offset="0.59" stop-color="#442e75"/>
      <stop offset="0.61" stop-color="#362066"/>
      <stop offset="0.63" stop-color="#311b61"/>
      <stop offset="0.67" stop-color="#2a1155"/>
      <stop offset="0.75" stop-color="#230446"/>
      <stop offset="0.81" stop-color="#200041"/>
      <stop offset="1" stop-color="#200041"/>
    </linearGradient>
    <radialGradient id="radial-gradient" cx="161.32" cy="64.26" r="114.27" gradientTransform="translate(3.4 0.22) scale(0.96 0.99)" gradientUnits="userSpaceOnUse">
      <stop offset="0" stop-color="#711f56"/>
      <stop offset="0.16" stop-color="#6c1e52"/>
      <stop offset="0.36" stop-color="#5c1946"/>
      <stop offset="0.58" stop-color="#431233"/>
      <stop offset="0.82" stop-color="#200918"/>
      <stop offset="1"/>
    </radialGradient>
    <radialGradient id="radial-gradient-2" cx="142.2" cy="56.1" r="67.32" gradientTransform="translate(3.4 0.22) scale(0.96 0.99)" gradientUnits="userSpaceOnUse">
      <stop offset="0" stop-color="#af8afc"/>
      <stop offset="1" stop-color="#10054d"/>
    </radialGradient>
    <linearGradient id="linear-gradient-3" x1="147.9" y1="187.9" x2="55.1" y2="-8.19" gradientUnits="userSpaceOnUse">
      <stop offset="0" stop-color="#311b61"/>
      <stop offset="0.2" stop-color="#290f52"/>
      <stop offset="0.49" stop-color="#200041"/>
      <stop offset="1" stop-color="#0f001f"/>
    </linearGradient>
    <linearGradient id="linear-gradient-4" x1="80.65" y1="105.75" x2="137.4" y2="105.75" xlink:href="#linear-gradient-3"/>
    <linearGradient id="linear-gradient-5" x1="73.31" y1="37.65" x2="161.95" y2="206.67" gradientUnits="userSpaceOnUse">
      <stop offset="0.01" stop-color="#9f19ab"/>
      <stop offset="0.43" stop-color="#5f27bd"/>
      <stop offset="0.9" stop-color="#3d065f"/>
    </linearGradient>
    <linearGradient id="linear-gradient-6" x1="-391.37" y1="10541.52" x2="-380.9" y2="10541.52" gradientTransform="matrix(-0.5, 1.44, -0.87, 0.5, 9078.9, -4626.82)" xlink:href="#linear-gradient-3"/>
    <linearGradient id="linear-gradient-7" x1="145.63" y1="86.71" x2="138.6" y2="86.41" gradientUnits="userSpaceOnUse">
      <stop offset="0" stop-color="#3d065f"/>
      <stop offset="1" stop-color="#5f27bd"/>
    </linearGradient>
    <radialGradient id="radial-gradient-3" cx="145.05" cy="84.61" r="4.3" xlink:href="#radial-gradient"/>
    <linearGradient id="linear-gradient-8" x1="-327.93" y1="2212.98" x2="-321.87" y2="2212.98" gradientTransform="matrix(0.87, 0.5, 0, 1.15, 371.7, -2332.7)" gradientUnits="userSpaceOnUse">
      <stop offset="0.04" stop-color="#602213"/>
      <stop offset="0.57" stop-color="#6d310e"/>
      <stop offset="1" stop-color="#7a4108"/>
    </linearGradient>
    <linearGradient id="New_Gradient_Swatch_copy_8" data-name="New Gradient Swatch copy 8" x1="-327.74" y1="2213.25" x2="-321.96" y2="2213.25" gradientTransform="matrix(0.87, 0.5, 0, 1.15, 371.7, -2332.7)" gradientUnits="userSpaceOnUse">
      <stop offset="0.04" stop-color="#ffa98c"/>
      <stop offset="0.32" stop-color="#ffb892"/>
      <stop offset="0.86" stop-color="#fee1a3"/>
      <stop offset="1" stop-color="#feeca8"/>
    </linearGradient>
    <linearGradient id="linear-gradient-9" x1="-326.02" y1="2211.56" x2="-326.85" y2="2210.22" xlink:href="#linear-gradient-8"/>
    <linearGradient id="linear-gradient-10" x1="-325.38" y1="2211.88" x2="-322.23" y2="2211.88" xlink:href="#linear-gradient-8"/>
    <linearGradient id="linear-gradient-11" x1="-327.93" y1="2249.36" x2="-321.87" y2="2249.36" xlink:href="#linear-gradient-8"/>
    <linearGradient id="New_Gradient_Swatch_copy_8-2" x1="-327.74" y1="2249.64" x2="-321.96" y2="2249.64" xlink:href="#New_Gradient_Swatch_copy_8"/>
    <linearGradient id="linear-gradient-12" x1="-326.02" y1="2247.94" x2="-326.85" y2="2246.6" xlink:href="#linear-gradient-8"/>
    <linearGradient id="linear-gradient-13" x1="-325.38" y1="2248.26" x2="-322.23" y2="2248.26" xlink:href="#linear-gradient-8"/>
    <linearGradient id="New_Gradient_Swatch_copy_8-3" x1="-508.64" y1="2260.22" x2="-502.27" y2="2260.22" gradientTransform="matrix(0.87, 0.5, 0, 1.15, 568.04, -2258.95)" xlink:href="#New_Gradient_Swatch_copy_8"/>
    <linearGradient id="linear-gradient-14" x1="-508.29" y1="2258" x2="-502.62" y2="2258" gradientTransform="matrix(0.87, 0.5, 0, 1.15, 568.04, -2258.95)" xlink:href="#linear-gradient-8"/>
    <linearGradient id="New_Gradient_Swatch_copy_9" data-name="New Gradient Swatch copy 9" x1="122.13" y1="63.81" x2="103.57" y2="41.68" gradientUnits="userSpaceOnUse">
      <stop offset="0.04" stop-color="#9f19ab"/>
      <stop offset="0.24" stop-color="#ae25b1"/>
      <stop offset="0.65" stop-color="#d744bf"/>
      <stop offset="1" stop-color="#ff63ce"/>
    </linearGradient>
    <radialGradient id="Degradado_sin_nombre_7" data-name="Degradado sin nombre 7" cx="558.55" cy="468.66" r="8.66" gradientTransform="matrix(-0.71, 0.71, 0.71, 0.71, 152.54, -694.33)" gradientUnits="userSpaceOnUse">
      <stop offset="0.09" stop-color="#fff"/>
      <stop offset="0.1" stop-color="#e2dee7"/>
      <stop offset="0.12" stop-color="#b0a5bf"/>
      <stop offset="0.14" stop-color="#86749c"/>
      <stop offset="0.16" stop-color="#634c80"/>
      <stop offset="0.17" stop-color="#482d69"/>
      <stop offset="0.19" stop-color="#35175a"/>
      <stop offset="0.21" stop-color="#290a50"/>
      <stop offset="0.23" stop-color="#25054d"/>
      <stop offset="0.27" stop-color="#1d043c" stop-opacity="0.78"/>
      <stop offset="0.34" stop-color="#120226" stop-opacity="0.5"/>
      <stop offset="0.42" stop-color="#0a0115" stop-opacity="0.27"/>
      <stop offset="0.51" stop-color="#040109" stop-opacity="0.12"/>
      <stop offset="0.65" stop-color="#010002" stop-opacity="0.03"/>
      <stop offset="1" stop-opacity="0"/>
    </radialGradient>
    <radialGradient id="Degradado_sin_nombre_7-2" cx="552.57" cy="464.91" r="6.56" gradientTransform="matrix(0.47, 0.88, 0.88, -0.47, -590.1, -238.85)" xlink:href="#Degradado_sin_nombre_7"/>
    <radialGradient id="Degradado_sin_nombre_7-3" cx="547.71" cy="461.97" r="4.92" gradientTransform="matrix(0.47, 0.88, 0.88, -0.47, -590.1, -238.85)" xlink:href="#Degradado_sin_nombre_7"/>
    <radialGradient id="Degradado_sin_nombre_6" data-name="Degradado sin nombre 6" cx="2182.96" cy="14322.84" r="5.85" gradientTransform="matrix(0.71, -0.71, -0.71, -0.71, 8618.14, 11770.93)" gradientUnits="userSpaceOnUse">
      <stop offset="0.09" stop-color="#fff"/>
      <stop offset="0.11" stop-color="#b37ce0"/>
      <stop offset="0.13" stop-color="#7c1dc9"/>
      <stop offset="0.13" stop-color="#7b1dc8" stop-opacity="0.99"/>
      <stop offset="0.17" stop-color="#62179e" stop-opacity="0.79"/>
      <stop offset="0.22" stop-color="#4b1179" stop-opacity="0.6"/>
      <stop offset="0.27" stop-color="#360d58" stop-opacity="0.44"/>
      <stop offset="0.32" stop-color="#25093d" stop-opacity="0.3"/>
      <stop offset="0.39" stop-color="#180626" stop-opacity="0.19"/>
      <stop offset="0.46" stop-color="#0d0315" stop-opacity="0.1"/>
      <stop offset="0.55" stop-color="#050109" stop-opacity="0.04"/>
      <stop offset="0.68" stop-color="#010002" stop-opacity="0.01"/>
      <stop offset="1" stop-opacity="0"/>
    </radialGradient>
    <radialGradient id="Degradado_sin_nombre_6-2" cx="2186.65" cy="14325.01" r="5.12" gradientTransform="matrix(0.51, -0.86, -0.86, -0.51, 11304.74, 9217.18)" xlink:href="#Degradado_sin_nombre_6"/>
    <radialGradient id="Degradado_sin_nombre_6-3" cx="2190.12" cy="14327.05" r="4.39" gradientTransform="matrix(0.51, -0.86, -0.86, -0.51, 11304.74, 9217.18)" xlink:href="#Degradado_sin_nombre_6"/>
    <radialGradient id="Degradado_sin_nombre_6-4" cx="2193.23" cy="14328.88" r="3.66" gradientTransform="matrix(0.51, -0.86, -0.86, -0.51, 11304.74, 9217.18)" xlink:href="#Degradado_sin_nombre_6"/>
    <radialGradient id="Degradado_sin_nombre_6-5" cx="2196.12" cy="14330.58" r="2.93" gradientTransform="matrix(0.51, -0.86, -0.86, -0.51, 11304.74, 9217.18)" xlink:href="#Degradado_sin_nombre_6"/>
    <radialGradient id="Degradado_sin_nombre_6-6" cx="7452.01" cy="11138.17" r="5.86" gradientTransform="matrix(-0.36, -0.93, -0.93, 0.36, 13146.18, 3044.19)" xlink:href="#Degradado_sin_nombre_6"/>
    <radialGradient id="radial-gradient-4" cx="7384.32" cy="11113.59" r="5.86" gradientTransform="matrix(-0.51, -0.86, -0.86, 0.51, 13464.49, 768.97)" gradientUnits="userSpaceOnUse">
      <stop offset="0.09" stop-color="#fff"/>
      <stop offset="0.11" stop-color="#b37ce0"/>
      <stop offset="0.13" stop-color="#7c1dc9"/>
      <stop offset="0.13" stop-color="#7b1dc8"/>
      <stop offset="0.17" stop-color="#62179e"/>
      <stop offset="0.22" stop-color="#4b1179"/>
      <stop offset="0.27" stop-color="#360d58"/>
      <stop offset="0.32" stop-color="#25093d"/>
      <stop offset="0.39" stop-color="#180626"/>
      <stop offset="0.46" stop-color="#0d0315"/>
      <stop offset="0.55" stop-color="#050109"/>
      <stop offset="0.68" stop-color="#010002"/>
      <stop offset="1"/>
    </radialGradient>
    <radialGradient id="Degradado_sin_nombre_6-7" cx="7369.68" cy="11094.14" r="5.86" gradientTransform="matrix(-0.51, -0.86, -0.86, 0.51, 13464.49, 768.97)" xlink:href="#Degradado_sin_nombre_6"/>
    <linearGradient id="New_Gradient_Swatch_copy_26" data-name="New Gradient Swatch copy 26" x1="148.53" y1="174.11" x2="110.13" y2="108.31" gradientUnits="userSpaceOnUse">
      <stop offset="0.03" stop-color="#7c1dc9"/>
      <stop offset="0.21" stop-color="#6e41d2"/>
      <stop offset="0.62" stop-color="#4c9be8"/>
      <stop offset="1" stop-color="#2af6ff"/>
    </linearGradient>
    <radialGradient id="Radial_Gradient_1" data-name="Radial Gradient 1" cx="143.14" cy="123.41" r="32.05" gradientUnits="userSpaceOnUse">
      <stop offset="0" stop-color="#fff"/>
      <stop offset="1"/>
    </radialGradient>
    <linearGradient id="New_Gradient_Swatch_copy_7" data-name="New Gradient Swatch copy 7" x1="-521.41" y1="2306.22" x2="-489.88" y2="2306.22" gradientTransform="matrix(0.87, 0.5, 0, 1.15, 568.04, -2258.95)" gradientUnits="userSpaceOnUse">
      <stop offset="0.04" stop-color="#138bbd"/>
      <stop offset="0.23" stop-color="#169ac7"/>
      <stop offset="0.59" stop-color="#1fc3df"/>
      <stop offset="1" stop-color="#2af6ff"/>
    </linearGradient>
    <linearGradient id="New_Gradient_Swatch_copy_13" data-name="New Gradient Swatch copy 13" x1="4549.3" y1="5780.83" x2="4552.39" y2="5780.83" gradientTransform="matrix(-0.87, -0.5, 0, -1.15, 4063.67, 9098.38)" gradientUnits="userSpaceOnUse">
      <stop offset="0.04" stop-color="#6b24d6"/>
      <stop offset="0.29" stop-color="#7733dc"/>
      <stop offset="0.79" stop-color="#975ced"/>
      <stop offset="1" stop-color="#a56ef4"/>
    </linearGradient>
    <linearGradient id="New_Gradient_Swatch_copy_8-4" x1="-515.7" y1="2289.91" x2="-495.6" y2="2289.91" gradientTransform="matrix(0.87, 0.5, 0, 1.15, 568.04, -2258.95)" xlink:href="#New_Gradient_Swatch_copy_8"/>
    <linearGradient id="linear-gradient-15" x1="-514.57" y1="2282.91" x2="-496.71" y2="2282.91" gradientTransform="matrix(0.87, 0.5, 0, 1.15, 568.04, -2258.95)" xlink:href="#linear-gradient-8"/>
    <linearGradient id="New_Gradient_Swatch_copy_13-2" x1="-515.16" y1="2307.04" x2="-513.47" y2="2307.04" gradientTransform="matrix(0.87, 0.5, 0, 1.15, 568.04, -2258.95)" xlink:href="#New_Gradient_Swatch_copy_13"/>
    <radialGradient id="Degradado_sin_nombre_4" data-name="Degradado sin nombre 4" cx="5164.44" cy="27.04" r="29.27" gradientTransform="matrix(-1, 0, 0, 0.84, 5242.96, 8.74)" gradientUnits="userSpaceOnUse">
      <stop offset="0" stop-color="#dc3daa"/>
      <stop offset="0.07" stop-color="#bd3492" stop-opacity="0.86"/>
      <stop offset="0.2" stop-color="#8b276b" stop-opacity="0.63"/>
      <stop offset="0.33" stop-color="#601b4a" stop-opacity="0.44"/>
      <stop offset="0.46" stop-color="#3e1130" stop-opacity="0.28"/>
      <stop offset="0.59" stop-color="#230a1b" stop-opacity="0.16"/>
      <stop offset="0.72" stop-color="#0f040c" stop-opacity="0.07"/>
      <stop offset="0.86" stop-color="#040103" stop-opacity="0.02"/>
      <stop offset="1" stop-opacity="0"/>
    </radialGradient>
    <linearGradient id="linear-gradient-16" x1="44.51" y1="99.55" x2="73.6" y2="155.02" gradientTransform="translate(16.42)" xlink:href="#linear-gradient-5"/>
    <linearGradient id="linear-gradient-17" x1="44.3" y1="99.7" x2="73.32" y2="155.03" gradientTransform="translate(16.42)" xlink:href="#linear-gradient-5"/>
    <linearGradient id="linear-gradient-18" x1="44.09" y1="99.85" x2="73.03" y2="155.04" gradientTransform="translate(16.42)" xlink:href="#linear-gradient-5"/>
    <linearGradient id="linear-gradient-19" x1="43.89" y1="100" x2="72.75" y2="155.04" gradientTransform="translate(16.42)" xlink:href="#linear-gradient-5"/>
    <linearGradient id="linear-gradient-20" x1="43.68" y1="100.15" x2="72.47" y2="155.05" gradientTransform="translate(16.42)" xlink:href="#linear-gradient-5"/>
    <linearGradient id="linear-gradient-21" x1="43.47" y1="100.3" x2="72.19" y2="155.05" gradientTransform="translate(16.42)" xlink:href="#linear-gradient-5"/>
    <linearGradient id="linear-gradient-22" x1="43.27" y1="100.45" x2="71.91" y2="155.06" gradientTransform="translate(16.42)" xlink:href="#linear-gradient-5"/>
    <linearGradient id="linear-gradient-23" x1="43.06" y1="100.6" x2="71.63" y2="155.07" gradientTransform="translate(16.42)" xlink:href="#linear-gradient-5"/>
    <linearGradient id="linear-gradient-24" x1="42.86" y1="100.74" x2="71.35" y2="155.07" gradientTransform="translate(16.42)" xlink:href="#linear-gradient-5"/>
    <linearGradient id="linear-gradient-25" x1="42.66" y1="100.89" x2="71.07" y2="155.08" gradientTransform="translate(16.42)" xlink:href="#linear-gradient-5"/>
    <linearGradient id="linear-gradient-26" x1="42.45" y1="101.04" x2="70.8" y2="155.08" gradientTransform="translate(16.42)" xlink:href="#linear-gradient-5"/>
    <linearGradient id="linear-gradient-27" x1="42.25" y1="101.18" x2="70.52" y2="155.09" gradientTransform="translate(16.42)" xlink:href="#linear-gradient-5"/>
    <linearGradient id="linear-gradient-28" x1="61.89" y1="153.4" x2="91.92" y2="117.21" gradientUnits="userSpaceOnUse">
      <stop offset="0" stop-color="#5c0c77"/>
      <stop offset="0.26" stop-color="#711282"/>
      <stop offset="0.8" stop-color="#a5239f"/>
      <stop offset="1" stop-color="#bb2aab"/>
    </linearGradient>
    <linearGradient id="linear-gradient-29" x1="66.19" y1="113.96" x2="72.65" y2="113.96" xlink:href="#linear-gradient-28"/>
    <linearGradient id="linear-gradient-30" x1="76.45" y1="119.79" x2="78.5" y2="119.79" xlink:href="#linear-gradient-3"/>
    <linearGradient id="linear-gradient-31" x1="66.19" y1="113.97" x2="68.19" y2="113.97" gradientUnits="userSpaceOnUse">
      <stop offset="0.09" stop-color="#25054d"/>
      <stop offset="0.47" stop-color="#330a68"/>
      <stop offset="0.89" stop-color="#45108a"/>
    </linearGradient>
    <linearGradient id="linear-gradient-32" x1="76.45" y1="119.79" x2="78.45" y2="119.79" xlink:href="#linear-gradient-31"/>
    <linearGradient id="linear-gradient-33" x1="47.31" y1="129.65" x2="76.48" y2="129.65" xlink:href="#linear-gradient-28"/>
    <linearGradient id="linear-gradient-34" x1="75.24" y1="164.5" x2="88.49" y2="179.31" xlink:href="#linear-gradient-28"/>
    <linearGradient id="linear-gradient-35" x1="79.41" y1="146.81" x2="95.23" y2="146.81" xlink:href="#linear-gradient-28"/>
    <linearGradient id="linear-gradient-36" x1="23.04" y1="158.21" x2="88.66" y2="134.09" xlink:href="#linear-gradient-28"/>
    <linearGradient id="linear-gradient-37" x1="63.02" y1="117.97" x2="75.45" y2="106.38" xlink:href="#linear-gradient-31"/>
    <linearGradient id="linear-gradient-38" x1="70.69" y1="126.2" x2="83.12" y2="114.61" xlink:href="#linear-gradient-31"/>
    <linearGradient id="linear-gradient-39" x1="61.93" y1="118.04" x2="63.93" y2="118.04" xlink:href="#linear-gradient-31"/>
    <linearGradient id="linear-gradient-40" x1="72.18" y1="123.86" x2="74.18" y2="123.86" xlink:href="#linear-gradient-31"/>
    <linearGradient id="New_Gradient_Swatch_copy_8-5" x1="76.2" y1="157.73" x2="54.32" y2="131.65" gradientTransform="matrix(1, 0, 0, 1, 0, 0)" xlink:href="#New_Gradient_Swatch_copy_8"/>
    <radialGradient id="radial-gradient-5" cx="860.82" cy="-4275.49" r="4.96" gradientTransform="translate(-972.28 2273.37) scale(1.18 0.49)" gradientUnits="userSpaceOnUse">
      <stop offset="0.19" stop-color="#5f5c5d"/>
      <stop offset="1" stop-color="#fff"/>
    </radialGradient>
    <linearGradient id="linear-gradient-41" x1="38.8" y1="171.47" x2="38.8" y2="171.47" gradientUnits="userSpaceOnUse">
      <stop offset="0" stop-color="#ffbb96"/>
      <stop offset="0.23" stop-color="#fffbc9"/>
      <stop offset="0.54" stop-color="#f9b673"/>
      <stop offset="0.64" stop-color="#f9b876"/>
      <stop offset="0.72" stop-color="#fabe81"/>
      <stop offset="0.81" stop-color="#fcc993"/>
      <stop offset="0.86" stop-color="#fed2a3"/>
      <stop offset="0.97" stop-color="#ffc28c"/>
    </linearGradient>
    <linearGradient id="linear-gradient-42" x1="47.59" y1="171.47" x2="47.59" y2="171.47" xlink:href="#linear-gradient-41"/>
    <linearGradient id="linear-gradient-43" x1="38.84" y1="172.23" x2="47.49" y2="172.23" gradientUnits="userSpaceOnUse">
      <stop offset="0" stop-color="#e3e3d8"/>
      <stop offset="0.23" stop-color="#fff"/>
      <stop offset="0.54" stop-color="#d4d1c5"/>
      <stop offset="0.7" stop-color="#d7d4c8"/>
      <stop offset="0.83" stop-color="#e0ded3"/>
      <stop offset="0.87" stop-color="#e3e2d7"/>
      <stop offset="1" stop-color="#cccaba"/>
      <stop offset="1" stop-color="#cbc9b9"/>
    </linearGradient>
    <radialGradient id="White_Black_Radial" data-name="White, Black Radial" cx="41.31" cy="171.86" r="5.52" xlink:href="#Radial_Gradient_1"/>
    <radialGradient id="radial-gradient-6" cx="14631.65" cy="-9748.5" r="6.24" gradientTransform="matrix(0.05, -0.14, 0.29, 0.1, 2127.99, 3201.49)" gradientUnits="userSpaceOnUse">
      <stop offset="0" stop-color="#f49587"/>
      <stop offset="0.12" stop-color="#bd7368"/>
      <stop offset="0.24" stop-color="#8b554d"/>
      <stop offset="0.36" stop-color="#603b35"/>
      <stop offset="0.48" stop-color="#3e2622"/>
      <stop offset="0.61" stop-color="#231513"/>
      <stop offset="0.74" stop-color="#0f0908"/>
      <stop offset="0.86" stop-color="#040202"/>
      <stop offset="1"/>
    </radialGradient>
    <linearGradient id="linear-gradient-44" x1="51.31" y1="161.81" x2="42.72" y2="170.46" gradientUnits="userSpaceOnUse">
      <stop offset="0.04" stop-color="#d4d1d8"/>
      <stop offset="0.42" stop-color="#e2e0e5"/>
      <stop offset="1" stop-color="#fff"/>
    </linearGradient>
    <linearGradient id="linear-gradient-45" x1="39.63" y1="170.13" x2="46.41" y2="170.13" xlink:href="#linear-gradient-43"/>
    <radialGradient id="radial-gradient-7" cx="-498.62" cy="-1116.47" r="4.96" gradientTransform="matrix(1.02, 0.6, -0.25, 0.42, 274.43, 935.99)" xlink:href="#radial-gradient-5"/>
    <linearGradient id="linear-gradient-46" x1="4178.9" y1="159.63" x2="4180.91" y2="163.13" gradientTransform="matrix(-1, 0, 0, 1, 4221.95, 0)" gradientUnits="userSpaceOnUse">
      <stop offset="0" stop-color="#dbc8e8"/>
      <stop offset="0.18" stop-color="#fff"/>
      <stop offset="0.54" stop-color="#b086cc"/>
      <stop offset="0.65" stop-color="#b289cd"/>
      <stop offset="0.74" stop-color="#b994d2"/>
      <stop offset="0.83" stop-color="#c4a6d9"/>
      <stop offset="0.86" stop-color="#c9addc"/>
      <stop offset="1" stop-color="#b086cc"/>
    </linearGradient>
    <linearGradient id="linear-gradient-47" x1="4174.42" y1="162.6" x2="4176.46" y2="166.13" gradientTransform="matrix(-1, 0, 0, 1, 4221.95, 0)" gradientUnits="userSpaceOnUse">
      <stop offset="0" stop-color="#c211a1"/>
      <stop offset="0.05" stop-color="#c718a5"/>
      <stop offset="0.11" stop-color="#d72db0"/>
      <stop offset="0.2" stop-color="#ef4ec2"/>
      <stop offset="0.24" stop-color="#ff63ce"/>
      <stop offset="0.32" stop-color="#eb48bf"/>
      <stop offset="0.45" stop-color="#c211a1"/>
      <stop offset="0.54" stop-color="#a919ab"/>
      <stop offset="0.64" stop-color="#ac1bab"/>
      <stop offset="0.73" stop-color="#b723ab"/>
      <stop offset="0.82" stop-color="#c92faa"/>
      <stop offset="0.88" stop-color="#dc3daa"/>
      <stop offset="0.95" stop-color="#cd24a5"/>
      <stop offset="1" stop-color="#c211a1"/>
    </linearGradient>
    <radialGradient id="radial-gradient-8" cx="20321.31" cy="12721.88" r="9.09" gradientTransform="matrix(0.04, -0.08, -0.26, -0.15, 2513.36, 3619.65)" xlink:href="#radial-gradient-6"/>
    <radialGradient id="radial-gradient-9" cx="4172.87" cy="164.47" r="1.57" gradientTransform="matrix(-1, 0, 0, 1, 4221.95, 0)" xlink:href="#radial-gradient-6"/>
  </defs>
  <g class="cls-2">
    <g id="Capa_2" data-name="Capa 2">
      <g id="Capa_1-2" data-name="Capa 1">
        <g>
          <circle class="cls-3" cx="100.96" cy="100.96" r="100.96"/>
          <g class="cls-4">
            <g>
              <g>
                <path class="cls-5" d="M135.57,190.65,91,164.12c-5-3-9.1-11-9.1-17.94V23.79c0-3.51-2.81-4.29-1.11-5.55.07,0,4-1.89,4.06-1.91A6.35,6.35,0,0,1,91,16.7l44.58,26.53c5,3,9.11,11,9.11,17.93V183.55c0,3.68-1.16,6.29-3,7.49-.11.07-4.82,2.39-4.95,2.43C135.12,194,137.77,192,135.57,190.65Z"/>
                <path class="cls-6" d="M135.16,43.37,90.58,16.84c-2.37-1.42,42.12,27.38,42.12,27.38,5,3,9.1,11,9.1,17.93,0,0,2.46,125.22,2.46,121.54V61.3C144.26,54.39,140.19,46.36,135.16,43.37Z"/>
                <path class="cls-7" d="M132.11,192.28,87.53,165.75c-5-3-9.11-11-9.11-17.94V25.42c0-6.91,4.08-10.09,9.11-7.09l44.58,26.53c5,3,9.1,11,9.1,17.94V185.19C141.21,192.1,137.14,195.27,132.11,192.28Z"/>
                <path class="cls-8" d="M131.31,192.72,86.74,166.19c-5-3-9.11-11-9.11-17.93V25.87c0-6.92,4.08-10.09,9.11-7.1L131.31,45.3c5,3,9.11,11,9.11,17.94V185.63C140.42,192.54,136.34,195.72,131.31,192.72Z"/>
                <path class="cls-9" d="M78.87,149.07V26.53c0-6.06,3.58-8.85,8-6.22L131.2,46.7c4.4,2.63,8,9.66,8,15.72V185c0,6.06-3.58,8.85-8,6.22L86.85,164.79C82.45,162.17,78.87,155.13,78.87,149.07Z"/>
                <path class="cls-10" d="M80.65,149.82V27.9c0-5.08,3-7.41,6.68-5.21l43.39,25.83c3.69,2.19,6.68,8.09,6.68,13.16V183.6c0,5.07-3,7.4-6.68,5.2L87.33,163C83.64,160.78,80.65,154.89,80.65,149.82Z"/>
                <path class="cls-11" d="M87.83,24c-3.48-2.07-6.3-.42-6.3,3.7V151a14.4,14.4,0,0,0,6.3,11.2l42.39,25.23c3.48,2.07,6.3.41,6.3-3.7V60.46a14.38,14.38,0,0,0-6.3-11.19Z"/>
                <path class="cls-12" d="M141.62,91.56V83.29A3.47,3.47,0,0,1,143,80.55h0c.77-.45,1.39,0,1.39,1.09V89.9A3.46,3.46,0,0,1,143,92.64h0C142.24,93.1,141.62,92.61,141.62,91.56Z"/>
                <path class="cls-13" d="M142.46,92.5c-.4,0-.54-.51-.54-.94V83.29a3.18,3.18,0,0,1,1.24-2.47.85.85,0,0,1,.4-.13c.4,0,.54.51.54,1V89.9a3.18,3.18,0,0,1-1.24,2.47A.78.78,0,0,1,142.46,92.5Z"/>
                <path class="cls-14" d="M142.33,91.77V83.51A3.2,3.2,0,0,1,143.57,81a1,1,0,0,1,.36-.12.45.45,0,0,0-.37-.22.85.85,0,0,0-.4.13,3.18,3.18,0,0,0-1.24,2.47v8.27c0,.43.14.94.54.94h0A1.37,1.37,0,0,1,142.33,91.77Z"/>
              </g>
              <g>
                <path class="cls-15" d="M129.1,55.7,134.86,59c.22.13.39,0,.39-.22a.87.87,0,0,0-.39-.69l-5.76-3.32c-.22-.13-.4,0-.4.22A.88.88,0,0,0,129.1,55.7Zm5.76,4.46-5.76-3.32c-.22-.13-.4,0-.4.22a.88.88,0,0,0,.4.69l5.76,3.32c.22.13.39,0,.39-.22A.87.87,0,0,0,134.86,60.16Zm0,2.05-5.76-3.32c-.22-.13-.4,0-.4.22a.88.88,0,0,0,.4.69l5.76,3.32c.22.13.39,0,.39-.22A.88.88,0,0,0,134.86,62.21Z"/>
                <g>
                  <path class="cls-15" d="M93.83,35.82c0,.6-.43.85-1,.54a2.09,2.09,0,0,1-1-1.65c0-.61.43-.85,1-.55A2.13,2.13,0,0,1,93.83,35.82Z"/>
                  <path class="cls-15" d="M90.94,34.14c0,.6-.43.85-1,.54A2.09,2.09,0,0,1,89,33c0-.61.43-.85,1-.55A2.13,2.13,0,0,1,90.94,34.14Z"/>
                  <path class="cls-15" d="M88,32.46c0,.6-.42.85-1,.54a2.09,2.09,0,0,1-1-1.65c0-.61.43-.85,1-.55A2.12,2.12,0,0,1,88,32.46Z"/>
                </g>
                <path class="cls-16" d="M128.12,86.79l-27.52-16A7.36,7.36,0,0,1,97.52,65V63.49c0-2.27,1.38-3.31,3.08-2.33l27.52,16A7.36,7.36,0,0,1,131.2,83v1.47C131.2,86.73,129.82,87.77,128.12,86.79Z"/>
                <path class="cls-17" d="M95.68,63.33c0,3.31-2.34,4.65-5.23,3a11.51,11.51,0,0,1-5.22-9c0-3.31,2.34-4.65,5.22-3A11.5,11.5,0,0,1,95.68,63.33Z"/>
                <path class="cls-18" d="M111.5,73.08l-2.88-1.67v1.24l2.88,1.67Zm-5.93-2.18,2.16,1.24V70.9l-2.16-1.24Zm12.3,5.86-5.49-3.17v1.24L117.87,78Zm-13.19-7.62-2.08-1.2v1.24l2.08,1.2Zm15.9,6.32L116,72.81v1.24l4.6,2.65ZM106,67.05l-3.41-2v1.24l3.41,2Zm9.09,5.25-1.33-.77v1.24l1.33.77Zm-8.2-3.5,6,3.46V71l-6-3.46Z"/>
                <g>
                  <path class="cls-19" d="M93,63.12c0,3.11-5.25.08-5.25-3s1.18-4.52,2.62-3.68S93,60,93,63.12Z"/>
                  <path class="cls-20" d="M92.6,61.08a1.62,1.62,0,0,0-.06-.47c-.22-2.33-1-3.42-2.17-4.09s-2-.44-2.19,1.75c0,.07,0,.15,0,.25-.2,0-.33.14-.26.57a1.63,1.63,0,0,0,.45.95,6.78,6.78,0,0,0,.85,2c.07.27,0,.51-.13.6a1.07,1.07,0,0,1-.31.13c.9,1.59,2.35,2.43,3.25,1.88-.11-.15-.2-.3-.3-.46a1,1,0,0,1-.14-.81,1.46,1.46,0,0,0,.76-.86.64.64,0,0,0,.08-.14c.24.07.42-.1.46-.42A.93.93,0,0,0,92.6,61.08Z"/>
                  <path class="cls-21" d="M90.08,57.3a1.36,1.36,0,0,1-1.45,2c-.49-1-1.2-.13-.45-2.14,1-2.61,2.32-.64,2.32-.64Z"/>
                  <path class="cls-22" d="M89.94,57.3c.15,1.46,1.33,1.73,1.76,3a3.83,3.83,0,0,1,.12,2.26s1.43-1.26.53-3.82S89.73,55.23,89.94,57.3Z"/>
                </g>
                <path class="cls-16" d="M128.12,134.07,100.6,118.12a7.38,7.38,0,0,1-3.08-5.88V105.5c0-2.27,1.38-3.31,3.08-2.33l27.52,16A7.39,7.39,0,0,1,131.2,125v6.75C131.2,134,129.82,135.05,128.12,134.07Z"/>
                <path class="cls-17" d="M95.68,105.34c0,3.31-2.34,4.65-5.23,3a11.53,11.53,0,0,1-5.22-9c0-3.31,2.34-4.65,5.22-3A11.5,11.5,0,0,1,95.68,105.34Z"/>
                <path class="cls-16" d="M128.12,145.58l-27.52-16a7.36,7.36,0,0,1-3.08-5.88v-1.47c0-2.27,1.38-3.31,3.08-2.33l27.52,16a7.36,7.36,0,0,1,3.08,5.88v1.47C131.2,145.52,129.82,146.56,128.12,145.58Z"/>
                <path class="cls-18" d="M111.5,131.86l-2.88-1.66v1.24l2.88,1.66Zm-5.93-2.18,2.16,1.25v-1.24l-2.16-1.25Zm12.3,5.86-5.49-3.17v1.24l5.49,3.17Zm-13.19-7.61-2.08-1.21V128l2.08,1.21Zm15.9,6.32-4.6-2.66v1.24l4.6,2.66ZM106,125.83l-3.41-2v1.24l3.41,2Zm9.09,5.25-1.33-.77v1.24l1.33.77Zm-8.2-3.49,6,3.45V129.8l-6-3.45Z"/>
                <g>
                  <path class="cls-23" d="M93,105.13c0,3.11-5.25.08-5.25-3s1.18-4.51,2.62-3.67S93,102,93,105.13Z"/>
                  <path class="cls-24" d="M92.6,103.09a1.62,1.62,0,0,0-.06-.47c-.22-2.33-1-3.42-2.17-4.09s-2-.45-2.19,1.75c0,.07,0,.15,0,.25-.2,0-.33.14-.26.56a1.63,1.63,0,0,0,.45,1,6.9,6.9,0,0,0,.85,2c.07.27,0,.51-.13.6a1.07,1.07,0,0,1-.31.13c.9,1.59,2.35,2.43,3.25,1.88-.11-.15-.2-.3-.3-.46a1,1,0,0,1-.14-.81,1.46,1.46,0,0,0,.76-.86.64.64,0,0,0,.08-.14c.24.07.42-.11.46-.43A.92.92,0,0,0,92.6,103.09Z"/>
                  <path class="cls-25" d="M90.08,99.31a1.36,1.36,0,0,1-1.45,2c-.49-1-1.2-.13-.45-2.15,1-2.6,2.32-.63,2.32-.63Z"/>
                  <path class="cls-26" d="M89.94,99.31c.15,1.46,1.33,1.73,1.76,3a3.83,3.83,0,0,1,.12,2.26s1.43-1.26.53-3.83S89.73,97.24,89.94,99.31Z"/>
                </g>
                <path class="cls-27" d="M120.89,95.86,92.07,79.3A7.39,7.39,0,0,1,89,73.42v-.31c0-2.26,1.38-3.3,3.08-2.32l28.82,16.57A7.36,7.36,0,0,1,124,93.24v.3C124,95.8,122.59,96.84,120.89,95.86Z"/>
                <path class="cls-27" d="M120.89,110.13,92.07,93.57A7.38,7.38,0,0,1,89,87.69v-4.4C89,81,90.37,80,92.07,81l28.82,16.57a7.36,7.36,0,0,1,3.08,5.88v4.4C124,110.07,122.59,111.11,120.89,110.13Z"/>
                <ellipse class="cls-28" cx="130.46" cy="97.88" rx="4.25" ry="7.37" transform="translate(-31.57 79.22) rotate(-30.31)"/>
                <path class="cls-18" d="M105.36,91.43l-2.88-1.67V91l2.88,1.66ZM96.42,87.5l5.17,3V89.25l-5.17-3Zm15.31,7.6-5.48-3.16v1.24l5.48,3.16Zm-16.2-9.35-2.08-1.2v1.24L95.53,87Zm4.35-7L93.45,75v1.24L99.88,80ZM109,84l-1.33-.76v1.24l1.33.76Zm-8.2-3.49,6,3.45V82.7l-6-3.45Zm4.6,16.57-2.88-1.66v1.24l2.88,1.66Zm-8.94-3.92,5.17,3V94.89l-5.17-3Zm15.31,7.6-5.48-3.17v1.24l5.48,3.17Zm-16.2-9.35-2.08-1.21v1.24l2.08,1.21ZM99.88,91l-6.43-3.71v1.24l6.43,3.71ZM115,99.56l-7.4-4v1.24l7.4,4Zm-14.27-6.77,6,3.45V95l-6-3.45Z"/>
                <path class="cls-27" d="M120.89,158.73,92.07,142.16A7.36,7.36,0,0,1,89,136.28v-4.4c0-2.26,1.38-3.3,3.08-2.32l28.82,16.56A7.39,7.39,0,0,1,124,152v4.4C124,158.67,122.59,159.71,120.89,158.73Z"/>
                <path class="cls-29" d="M105.36,140l-2.88-1.66v1.24l2.88,1.66Zm-8.94-3.92,5.17,3v-1.24l-5.17-3Zm15.31,7.6-5.48-3.17v1.24l5.48,3.17Zm-16.2-9.35-2.08-1.2v1.23l2.08,1.21Zm9.83,11.31L102.48,144v1.24l2.88,1.67Zm-8.94-3.92,5.17,3v-1.24l-5.17-3Zm15.31,7.59-5.48-3.16v1.24l5.48,3.16ZM95.53,140l-2.08-1.2V140l2.08,1.2Zm4.35-.35-6.43-3.71v1.24l6.43,3.71ZM115,148.16l-7.4-4v1.24l7.4,4.05Zm-14.27-6.78,6,3.46V143.6l-6-3.46Z"/>
                <path class="cls-27" d="M120.89,177.9,92.07,161.33A7.36,7.36,0,0,1,89,155.46V146.3C89,144,90.37,143,92.07,144l28.82,16.56a7.38,7.38,0,0,1,3.08,5.88v9.16C124,177.84,122.59,178.88,120.89,177.9Z"/>
                <path class="cls-29" d="M105.36,154.44l-2.88-1.66V154l2.88,1.66Zm-8.94-3.92,5.17,3v-1.24l-5.17-3Zm15.31,7.6L106.25,155v1.24l5.48,3.17Zm-16.2-9.35-2.08-1.21v1.24L95.53,150Zm9.83,11.3-2.88-1.66v1.24l2.88,1.66Zm-8.94-3.92,5.17,3V157.9l-5.17-3Zm15.31,7.6-5.48-3.16v1.24l5.48,3.16Zm-16.2-9.35-2.08-1.2v1.24l2.08,1.2Zm9.83,11.24L102.48,164v1.24l2.88,1.67Zm-8.94-3.92,5.17,3v-1.24l-5.17-3Zm15.31,7.59-5.48-3.16v1.24l5.48,3.16ZM95.53,160l-2.08-1.2V160l2.08,1.2Zm4.35-5.91-6.43-3.71v1.24l6.43,3.71ZM115,162.58l-7.4-4.05v1.23l7.4,4.06Zm-14.27-6.78,6,3.45V158l-6-3.45Zm-.88,4-6.43-3.71v1.24l6.43,3.71ZM115,168.36l-7.4-4.05v1.24l7.4,4Zm-14.27-6.78,6,3.45V163.8l-6-3.46Z"/>
                <path class="cls-18" d="M114.44,113.89l-2.88-1.66v1.24l2.88,1.66ZM105.5,110l5.17,3v-1.24l-5.17-3Zm15.31,7.6-5.49-3.16v1.23l5.49,3.17Zm-16.2-9.35-2.09-1.2v1.24l2.09,1.2ZM109,119.28l-6.43-3.71v1.24l6.43,3.71Zm9.09,5.25-1.33-.77V125l1.33.77Zm-8.2-3.49,6,3.45v-1.24l-6-3.45Zm4.6-1.51-2.88-1.66v1.24l2.88,1.66Zm-8.94-3.92,5.17,3v-1.24l-5.17-3Zm15.31,7.6L115.32,120v1.24l5.49,3.17Zm-16.2-9.35-2.09-1.21v1.24l2.09,1.21Zm4.34-.36-6.43-3.71V111l6.43,3.71ZM124.1,122l-7.39-4v1.24l7.39,4Zm-14.26-6.78,6,3.46v-1.24l-6-3.46Z"/>
                <g>
                  <path class="cls-30" d="M132.11,102.33c-.11-.16-.22-.32-.32-.49-.25-.42-.26-.89,0-1a1.92,1.92,0,0,0,.79-.87c.27.08.46-.1.51-.44a1,1,0,0,0-.3-.94,4.83,4.83,0,0,0-2.45-4.3c-1.84-1.07-2.39,0-2.45,1.47-.22,0-.37.14-.3.6a1.72,1.72,0,0,0,.51,1,8.63,8.63,0,0,0,.79,1.79c.24.42.25.87,0,1a1.4,1.4,0,0,1-.34.13h0c1,1.71,2.59,2.64,3.58,2.07Z"/>
                  <path class="cls-31" d="M127.87,95.72a1.28,1.28,0,0,1,.44.76s0-.49,0-.85.14-1.72,1.18-.61,1.26,1.65,1.9,1.89.92.45.92.91v.77s.24-.19.44,0V97a4,4,0,0,0-3-3.46C127.76,93.11,127.87,93.54,127.87,95.72Z"/>
                </g>
                <path class="cls-32" d="M118.55,48.83a24.94,24.94,0,0,1-7.61-7.1l0,0c-2.23.5-4.89-.08-7.62-1.68l-.1-.06.15,2c.51,6.88,3.2,12.54,7.53,19.23l.1.06c4.33-1.7,7-4.25,7.54-10.54l.14-1.79Zm-2.31,1.86c-.36,4.41-2.25,6.19-5.28,7.38l-.08,0c-3-4.69-4.91-8.65-5.27-13.48l-.11-1.38.08,0a7.5,7.5,0,0,0,5.33,1.18h0a17.43,17.43,0,0,0,5.34,5l.07,0Z"/>
                <path class="cls-15" d="M111.78,54.48v-2.3l2,1.16c.13.07.23,0,.23-.14V51.65a.49.49,0,0,0-.23-.4l-2-1.16V47.78a.54.54,0,0,0-.24-.41l-1.35-.78c-.13-.07-.24,0-.24.14V49l-1.89-1.09c-.13-.08-.24,0-.24.13v1.55a.52.52,0,0,0,.24.41l1.89,1.1v2.3a.54.54,0,0,0,.24.41l1.35.78C111.67,54.69,111.78,54.63,111.78,54.48Z"/>
              </g>
              <g>
                <circle class="cls-33" cx="86.92" cy="31.82" r="8.66" transform="translate(31.56 105.99) rotate(-73.37)"/>
                <path class="cls-34" d="M83.88,34.09A6.55,6.55,0,1,0,75,31.41,6.56,6.56,0,0,0,83.88,34.09Z"/>
                <path class="cls-35" d="M78.22,29.76a4.92,4.92,0,1,0-6.66-2A4.93,4.93,0,0,0,78.22,29.76Z"/>
              </g>
              <g>
                <circle class="cls-36" cx="61.47" cy="79.08" r="5.85" transform="translate(-18.05 18.19) rotate(-14.7)"/>
                <path class="cls-37" d="M64.07,70.39a5.12,5.12,0,1,0,1.82,7A5.11,5.11,0,0,0,64.07,70.39Z"/>
                <path class="cls-38" d="M63.7,67a4.39,4.39,0,1,0,1.56,6A4.39,4.39,0,0,0,63.7,67Z"/>
                <path class="cls-39" d="M63.33,64a3.66,3.66,0,1,0,1.3,5A3.66,3.66,0,0,0,63.33,64Z"/>
                <path class="cls-40" d="M63,61.29a2.93,2.93,0,1,0,1,4A2.93,2.93,0,0,0,63,61.29Z"/>
              </g>
              <circle class="cls-41" cx="82.51" cy="56.68" r="5.85" transform="translate(-8.47 14.93) rotate(-9.83)"/>
              <g class="cls-42">
                <path class="cls-43" d="M82.11,56.78a.23.23,0,0,1-.14,0l-.51-.29a.29.29,0,0,1,.29-.51l.51.29a.29.29,0,0,1,.11.4A.3.3,0,0,1,82.11,56.78Z"/>
                <path class="cls-43" d="M80.57,55.9a.28.28,0,0,1-.15,0l-1-.59a.29.29,0,0,1,.29-.51l1,.59a.29.29,0,0,1,.11.4A.27.27,0,0,1,80.57,55.9ZM78.5,54.71l-.15,0-1-.6a.29.29,0,0,1-.11-.4.29.29,0,0,1,.4-.1l1,.59a.29.29,0,0,1,.11.4A.29.29,0,0,1,78.5,54.71Zm-2.07-1.18a.28.28,0,0,1-.15,0l-1-.59a.29.29,0,1,1,.29-.51l1,.59a.29.29,0,0,1,.11.4A.27.27,0,0,1,76.43,53.53Zm-2.07-1.18a.42.42,0,0,1-.15,0l-1-.59a.29.29,0,1,1,.29-.51l1,.59a.29.29,0,0,1-.14.55Zm-2.07-1.19a.28.28,0,0,1-.15,0l-1-.59A.29.29,0,1,1,71.4,50l1,.6a.29.29,0,0,1,.11.4A.29.29,0,0,1,72.29,51.16ZM70.22,50a.28.28,0,0,1-.15,0l-1-.59a.29.29,0,1,1,.29-.51l1,.59a.29.29,0,0,1,.11.4A.27.27,0,0,1,70.22,50Zm-2.07-1.19a.4.4,0,0,1-.15,0l-1-.6a.29.29,0,0,1-.11-.4.28.28,0,0,1,.4-.1l1,.59a.29.29,0,0,1,.11.4A.29.29,0,0,1,68.15,48.79Zm-2.07-1.18a.28.28,0,0,1-.15,0l-1-.59a.29.29,0,0,1-.1-.4.29.29,0,0,1,.39-.11l1,.59a.29.29,0,0,1,.11.4A.27.27,0,0,1,66.08,47.61ZM64,46.43a.37.37,0,0,1-.14,0l-1-.59a.29.29,0,0,1,.29-.51l1,.59a.29.29,0,0,1,.11.4A.31.31,0,0,1,64,46.43Z"/>
                <path class="cls-43" d="M61.43,45.54a.29.29,0,0,1-.3-.3V44.16l.95.54a.29.29,0,1,1-.29.5l-.07,0v.08A.29.29,0,0,1,61.43,45.54Z"/>
                <path class="cls-43" d="M61.43,77.54a.29.29,0,0,1-.3-.29V76.11a.3.3,0,0,1,.59,0v1.14A.29.29,0,0,1,61.43,77.54Zm0-2.28a.29.29,0,0,1-.3-.3V73.82a.3.3,0,0,1,.59,0V75A.29.29,0,0,1,61.43,75.26Zm0-2.29a.29.29,0,0,1-.3-.29V71.54a.3.3,0,1,1,.59,0v1.14A.29.29,0,0,1,61.43,73Zm0-2.28a.3.3,0,0,1-.3-.3V69.25a.3.3,0,0,1,.59,0v1.14A.3.3,0,0,1,61.43,70.69Zm0-2.29a.29.29,0,0,1-.3-.29V67a.3.3,0,0,1,.59,0v1.15A.29.29,0,0,1,61.43,68.4Zm0-2.29a.29.29,0,0,1-.3-.29V64.68a.3.3,0,1,1,.59,0v1.14A.29.29,0,0,1,61.43,66.11Zm0-2.28a.29.29,0,0,1-.3-.3V62.39a.3.3,0,0,1,.59,0v1.14A.29.29,0,0,1,61.43,63.83Zm0-2.29a.29.29,0,0,1-.3-.29V60.1a.3.3,0,0,1,.59,0v1.15A.29.29,0,0,1,61.43,61.54Zm0-2.29a.29.29,0,0,1-.3-.29V57.82a.3.3,0,0,1,.59,0V59A.29.29,0,0,1,61.43,59.25Zm0-2.28a.29.29,0,0,1-.3-.29V55.53a.3.3,0,0,1,.59,0v1.15A.29.29,0,0,1,61.43,57Zm0-2.29a.29.29,0,0,1-.3-.29V53.25a.3.3,0,1,1,.59,0v1.14A.29.29,0,0,1,61.43,54.68Zm0-2.28a.3.3,0,0,1-.3-.3V51a.3.3,0,0,1,.59,0V52.1A.3.3,0,0,1,61.43,52.4Zm0-2.29a.29.29,0,0,1-.3-.29V48.67a.3.3,0,0,1,.59,0v1.15A.29.29,0,0,1,61.43,50.11Zm0-2.29a.29.29,0,0,1-.3-.29V46.39a.3.3,0,1,1,.59,0v1.14A.29.29,0,0,1,61.43,47.82Z"/>
              </g>
              <path class="cls-44" d="M135.24,97.27a5.86,5.86,0,1,0,8,2A5.86,5.86,0,0,0,135.24,97.27Z"/>
              <path class="cls-45" d="M159.44,99.91a5.85,5.85,0,1,0,8,2A5.84,5.84,0,0,0,159.44,99.91Z"/>
              <g class="cls-42">
                <path class="cls-43" d="M162.41,116.07a.32.32,0,0,1-.14,0l-.51-.3a.28.28,0,0,1-.11-.39.29.29,0,0,1,.4-.11l.51.29a.29.29,0,0,1,.11.4A.31.31,0,0,1,162.41,116.07Z"/>
                <path class="cls-43" d="M160.87,115.19a.28.28,0,0,1-.15,0l-1-.59a.29.29,0,0,1,.29-.51l1,.59a.29.29,0,0,1,.11.4A.27.27,0,0,1,160.87,115.19ZM158.8,114a.42.42,0,0,1-.15,0l-1-.59a.29.29,0,0,1,.29-.51l1,.59a.29.29,0,0,1-.14.55Zm-2.07-1.19a.28.28,0,0,1-.15,0l-1-.59a.29.29,0,0,1-.1-.4.3.3,0,0,1,.4-.11l1,.6a.29.29,0,0,1,.11.4A.29.29,0,0,1,156.73,112.82Zm-2.07-1.18a.28.28,0,0,1-.15,0l-1-.59a.29.29,0,0,1-.1-.4.29.29,0,0,1,.39-.11l1,.59a.29.29,0,0,1,.11.4A.27.27,0,0,1,154.66,111.64Zm-2.08-1.18a.33.33,0,0,1-.14,0l-1-.6a.27.27,0,0,1-.1-.39.28.28,0,0,1,.39-.11l1,.59a.29.29,0,0,1,.11.4A.31.31,0,0,1,152.58,110.46Zm-2.07-1.19a.23.23,0,0,1-.14,0l-1-.59a.29.29,0,0,1,.29-.51l1,.59a.29.29,0,0,1,.11.4A.29.29,0,0,1,150.51,109.27Zm-2.07-1.18a.33.33,0,0,1-.14,0l-1-.59a.29.29,0,1,1,.29-.51l1,.59a.29.29,0,0,1,.11.4A.32.32,0,0,1,148.44,108.09Zm-2.07-1.19a.23.23,0,0,1-.14,0l-1-.59a.29.29,0,1,1,.29-.51l1,.6a.29.29,0,0,1,.11.4A.31.31,0,0,1,146.37,106.9Zm-2.07-1.18a.23.23,0,0,1-.14,0l-1-.59a.29.29,0,0,1,.29-.51l1,.59a.29.29,0,0,1,.11.4A.3.3,0,0,1,144.3,105.72Zm-2.25-1.16a.25.25,0,0,1-.14,0l-1-.59a.29.29,0,0,1,.29-.51l1,.59a.3.3,0,0,1,.11.4A.29.29,0,0,1,142.05,104.56ZM140,103.38a.33.33,0,0,1-.14,0l-1-.59a.29.29,0,0,1,.29-.51l1,.59a.29.29,0,0,1,.11.4A.31.31,0,0,1,140,103.38Z"/>
                <path class="cls-43" d="M162.41,116a.29.29,0,0,1-.29-.29v-1.14a.3.3,0,0,1,.59,0v1.14A.29.29,0,0,1,162.41,116Zm0-2.28a.29.29,0,0,1-.29-.29v-1.15a.3.3,0,0,1,.59,0v1.15A.29.29,0,0,1,162.41,113.68Zm0-2.29a.29.29,0,0,1-.29-.29V110a.3.3,0,1,1,.59,0v1.14A.29.29,0,0,1,162.41,111.39Zm0-2.28a.3.3,0,0,1-.29-.3v-1.14a.3.3,0,0,1,.59,0v1.14A.3.3,0,0,1,162.41,109.11Zm0-2.29a.29.29,0,0,1-.29-.29v-1.15a.3.3,0,0,1,.59,0v1.15A.29.29,0,0,1,162.41,106.82Z"/>
              </g>
              <g>
                <path class="cls-46" d="M130.24,110.8c-14.29-8.25-25.88-1.65-25.88,14.75,0,15.66,10.58,34.57,24,43.43v14.59l11.21-10c9.68,1.3,16.56-5.49,16.56-18.11C156.11,139,144.53,119.05,130.24,110.8Z"/>
                <g class="cls-42">
                  <path class="cls-47" d="M130.24,110.8c-8.45-4.88-16-4.56-20.67-.1,4.74-3.83,11.91-3.88,19.92.75,14.29,8.25,25.87,28.23,25.87,44.63,0,6.67-1.92,11.71-5.16,14.79,3.69-3,5.91-8.27,5.91-15.44C156.11,139,144.53,119.05,130.24,110.8Z"/>
                </g>
                <g>
                  <path class="cls-48" d="M139.56,149.57a23,23,0,0,1-3.75-4.15h0c-3.13,1.78-8.18-1.14-11.3-6.52h0a7,7,0,0,1-3.76-.2c-2.44-.73-4.25.74-4.25,3.74v8.13a3.51,3.51,0,0,0,1.59,2.75l24.13,13.92c.88.51,1.59.11,1.59-.9V158.2A12.35,12.35,0,0,0,139.56,149.57Z"/>
                  <path class="cls-49" d="M143.81,166.34V158.2a12.35,12.35,0,0,0-4.25-8.63,22.47,22.47,0,0,1-3.71-4.1l-5.69,13.07-5.69-19.64a7,7,0,0,1-3.72-.2c-2.44-.73-4.25.74-4.25,3.74v8.13a3.51,3.51,0,0,0,1.59,2.75l24.13,13.92C143.1,167.75,143.81,167.35,143.81,166.34Z"/>
                  <polygon class="cls-50" points="130.16 159.97 138.98 148.73 135.84 145.14 135.46 146.06 130.16 158.5 124.86 139.94 124.47 138.57 121.33 138.54 130.16 159.97"/>
                  <path class="cls-51" d="M121.3,147.06c0-.85.6-1.19,1.34-.77A3,3,0,0,1,124,148.6c0,.85-.6,1.2-1.34.77A3,3,0,0,1,121.3,147.06Z"/>
                  <path class="cls-43" d="M138.85,155.26H138V150a7.69,7.69,0,0,0-3.47-6l-8.39-4.84a2.18,2.18,0,0,0-2.17-.26,2.16,2.16,0,0,0-.86,2v6.92h-.88v-6.92a3,3,0,0,1,1.3-2.75,3,3,0,0,1,3,.26l8.39,4.84a8.67,8.67,0,0,1,3.91,6.75Z"/>
                  <path class="cls-52" d="M135.81,145.42c-.36-.5-.7-1-1-1.55-.8-1.33-.83-2.82,0-3.27a6.14,6.14,0,0,0,2.48-2.75c.84.23,1.46-.33,1.59-1.4a3.08,3.08,0,0,0-.92-2.95c-.21-5-1.93-10.22-7.73-13.57s-7.53-.16-7.74,4.65c-.69-.16-1.14.43-.92,1.87a5.52,5.52,0,0,0,1.59,3.24,27.55,27.55,0,0,0,2.48,5.62c.77,1.33.81,2.75,0,3.17a5,5,0,0,1-1.08.42h0c3.12,5.38,8.17,8.3,11.3,6.52Z"/>
                  <path class="cls-53" d="M122.42,124.58a4.09,4.09,0,0,1,1.42,2.38s0-1.54,0-2.66.45-5.42,3.71-1.94,4,5.21,6,6c1.67.63,2.91,1.41,2.91,2.86s0,2.4,0,2.4a1.19,1.19,0,0,1,1.38-.1v-4.92c0-2.74-2.9-9.58-9.42-10.92S122.42,117.7,122.42,124.58Z"/>
                  <g>
                    <path class="cls-43" d="M141,164.25h-.88v-5.33a4.39,4.39,0,0,0-2-3.38,1.14,1.14,0,0,0-1.11-.15,1.12,1.12,0,0,0-.41,1v5.33h-.88V156.4a1.92,1.92,0,0,1,.85-1.77,2,2,0,0,1,2,.15,5.23,5.23,0,0,1,2.4,4.14Z"/>
                    <path class="cls-43" d="M136.23,162.61a.88.88,0,0,1-.88-.88v-.36a.88.88,0,1,1,1.76,0v.36A.87.87,0,0,1,136.23,162.61Z"/>
                    <path class="cls-43" d="M140.59,165.13a.88.88,0,0,1-.88-.88v-.36a.88.88,0,0,1,1.76,0v.36A.89.89,0,0,1,140.59,165.13Z"/>
                  </g>
                  <path class="cls-54" d="M123.37,148.25c0,.47-.32.65-.73.42a1.62,1.62,0,0,1-.73-1.26c0-.46.33-.65.73-.42A1.59,1.59,0,0,1,123.37,148.25Z"/>
                </g>
              </g>
              <g class="cls-55">
                <path class="cls-17" d="M48.4,85.13a2.11,2.11,0,0,1-.75-.29,3.27,3.27,0,0,1-1.26-1.27A3.53,3.53,0,0,1,46,81.79V77.48c0-.66.14-1.08.44-1.27s.71-.13,1.26.19a3.3,3.3,0,0,1,1.27,1.27,3.64,3.64,0,0,1,.44,1.78v4.31A1.72,1.72,0,0,1,49,84.93a.6.6,0,0,0,.16.24,1.6,1.6,0,0,0,.26.19l.17.1v1.17l-.29-.17A1.88,1.88,0,0,1,48.4,85.13Zm-.16-1.93V78.72a1.23,1.23,0,0,0-.59-1.15c-.39-.22-.58-.07-.58.47v4.48a1.22,1.22,0,0,0,.58,1.15C48,83.89,48.24,83.73,48.24,83.2Z"/>
                <path class="cls-17" d="M50.5,86a3.68,3.68,0,0,1-.43-1.77V77.91l1.13.65v6.36a1.41,1.41,0,0,0,.15.69,1.11,1.11,0,0,0,.42.44c.18.1.33.12.42,0s.15-.24.15-.52V79.22l1.09.63v6.26c0,.66-.15,1.09-.43,1.28s-.71.13-1.25-.18A3.36,3.36,0,0,1,50.5,86Z"/>
                <path class="cls-17" d="M54.22,80.31l3.07,1.77v1.17l-1.94-1.12V84.3l1.54.89v1.17l-1.54-.89V88l1.94,1.12v1.18l-3.07-1.77Z"/>
                <path class="cls-17" d="M58.18,90.38a3.62,3.62,0,0,1-.42-1.77v-.47l1.06.62v.56a1.21,1.21,0,0,0,.58,1.13c.19.11.34.13.44.06S60,90.26,60,90a2.67,2.67,0,0,0-.21-1A9.2,9.2,0,0,0,59,87.56a11.4,11.4,0,0,1-1-1.83,4.17,4.17,0,0,1-.27-1.45c0-.64.14-1.06.43-1.25s.7-.13,1.24.18a3.18,3.18,0,0,1,1.23,1.24,3.79,3.79,0,0,1,.41,1.77v.34L60,86v-.43a1.41,1.41,0,0,0-.15-.69,1,1,0,0,0-.42-.44c-.37-.22-.56-.06-.56.46a2.53,2.53,0,0,0,.21,1,11.24,11.24,0,0,0,.76,1.37,9.86,9.86,0,0,1,1,1.84,4.32,4.32,0,0,1,.27,1.5c0,.68-.15,1.11-.43,1.3s-.71.13-1.27-.19A3.14,3.14,0,0,1,58.18,90.38Z"/>
                <path class="cls-17" d="M62.63,86.34l-1.17-.68V84.49l3.47,2v1.17L63.76,87v7l-1.13-.65Z"/>
                <path class="cls-17" d="M65.47,86.8l1.13.65v8.21L65.47,95Z"/>
                <path class="cls-17" d="M67.79,95.93a3.64,3.64,0,0,1-.44-1.78V89.84c0-.66.15-1.08.44-1.27s.72-.13,1.27.19A3.37,3.37,0,0,1,70.33,90a3.64,3.64,0,0,1,.44,1.78v4.31c0,.66-.15,1.08-.44,1.27s-.72.13-1.27-.19A3.37,3.37,0,0,1,67.79,95.93Zm1.85-.38V91.08a1.21,1.21,0,0,0-.58-1.15c-.39-.22-.58-.07-.58.47v4.48A1.22,1.22,0,0,0,69.06,96C69.45,96.25,69.64,96.09,69.64,95.55Z"/>
                <path class="cls-17" d="M71.52,90.3l1.41.81L74,96.65l0,0V91.75l1,.58v8.21l-1.16-.67L72.54,93.1h0v6l-1-.58Z"/>
              </g>
              <g class="cls-55">
                <path class="cls-17" d="M152.31,87.8l1.52.88L155,97.56l-1.12-.65-.21-1.75v0l-1.27-.73-.21,1.49-1-.61ZM153.53,94l-.5-4.34h0l-.49,3.77Z"/>
                <path class="cls-17" d="M155.53,89.66l1.41.82L158,96h0V91.12l1,.58v8.21l-1.16-.67-1.34-6.77h0v6l-1-.58Z"/>
                <path class="cls-17" d="M160.12,100.1a3.62,3.62,0,0,1-.42-1.77v-.47l1.07.62V99a1.19,1.19,0,0,0,.58,1.13c.19.11.33.13.43.06s.15-.25.15-.54a2.86,2.86,0,0,0-.2-1,9.45,9.45,0,0,0-.76-1.38,11.21,11.21,0,0,1-1-1.83,4.19,4.19,0,0,1-.28-1.45,1.45,1.45,0,0,1,.43-1.25c.29-.19.7-.13,1.25.18a3.16,3.16,0,0,1,1.22,1.24,3.64,3.64,0,0,1,.41,1.77v.34L162,95.67v-.43a1.54,1.54,0,0,0-.14-.69,1.11,1.11,0,0,0-.42-.44c-.38-.22-.56-.06-.56.46a2.44,2.44,0,0,0,.21,1,9.45,9.45,0,0,0,.76,1.38,10.5,10.5,0,0,1,1,1.84,4.31,4.31,0,0,1,.26,1.5c0,.67-.14,1.11-.43,1.3s-.71.13-1.26-.19A3.11,3.11,0,0,1,160.12,100.1Z"/>
                <path class="cls-17" d="M163.43,94.22l1.09.63.5,6.6h0l.53-6,1.22.7.54,6.62h0l.5-6,1,.56-.73,7.79-1.4-.81-.51-5.83h0l-.51,5.24-1.49-.86Z"/>
                <path class="cls-17" d="M169.39,97.66l3.07,1.77v1.17l-2-1.12v2.17l1.55.89v1.18l-1.55-.89v2.52l2,1.12v1.17l-3.07-1.77Z"/>
                <path class="cls-17" d="M173.1,99.8l1.66,1A3.27,3.27,0,0,1,176,102a3.2,3.2,0,0,1,.4,1.65v.51c0,.85-.25,1.25-.74,1.19v0a2,2,0,0,1,.58.9,4.32,4.32,0,0,1,.17,1.26v1.44c0,.24,0,.43,0,.58a2.25,2.25,0,0,0,.1.49l-1.14-.66a2.76,2.76,0,0,1-.08-.42,5.29,5.29,0,0,1,0-.65v-1.5a2,2,0,0,0-.16-.87,1.36,1.36,0,0,0-.55-.54l-.39-.23v3.52L173.1,108Zm1.53,4.41q.35.2.51.09c.11-.07.17-.26.17-.57v-.64a1.68,1.68,0,0,0-.14-.72,1,1,0,0,0-.44-.45l-.51-.29V104Z"/>
              </g>
              <ellipse class="cls-56" cx="78.52" cy="31.58" rx="29.27" ry="24.73"/>
              <g>
                <g class="cls-57">
                  <path class="cls-58" d="M81,115.87c-2.49-1.44-4.51-.29-4.51,2.56V161A9.92,9.92,0,0,0,81,168.78l5.41,2.85c2.48,1.43,5.49.12,5.49-2.73V126.32c0-2.85-3-6.17-5.49-7.61Z"/>
                  <path class="cls-59" d="M80.8,116c-2.49-1.44-4.5-.29-4.5,2.57V161a9.93,9.93,0,0,0,4.5,7.77l5.41,2.85c2.49,1.43,5.41.14,5.41-2.71V126.44c0-2.85-2.92-6.18-5.41-7.62Z"/>
                  <path class="cls-60" d="M80.56,116.07c-2.49-1.43-4.5-.28-4.5,2.57v42.27a9.9,9.9,0,0,0,4.5,7.76L86,171.53c2.49,1.44,5.32.16,5.32-2.69V126.57c0-2.86-2.83-6.2-5.32-7.64Z"/>
                  <path class="cls-61" d="M80.32,116.17c-2.49-1.43-4.5-.28-4.5,2.57v42.12a9.9,9.9,0,0,0,4.5,7.76l5.43,2.87c2.49,1.43,5.23.17,5.23-2.69V126.69c0-2.85-2.74-6.22-5.23-7.65Z"/>
                  <path class="cls-62" d="M80.08,116.28c-2.49-1.44-4.5-.29-4.5,2.56v42a9.91,9.91,0,0,0,4.5,7.77l5.44,2.87c2.49,1.44,5.14.19,5.14-2.67v-42c0-2.85-2.65-6.23-5.14-7.66Z"/>
                  <path class="cls-63" d="M79.84,116.38c-2.49-1.44-4.5-.29-4.5,2.57v41.8a9.93,9.93,0,0,0,4.5,7.77l5.45,2.87c2.48,1.44,5,.2,5-2.65v-41.8c0-2.86-2.56-6.25-5-7.69Z"/>
                  <path class="cls-64" d="M79.6,116.48c-2.48-1.44-4.5-.29-4.5,2.57V160.7a10,10,0,0,0,4.5,7.77l5.45,2.88c2.49,1.43,5,.21,5-2.64V127.06c0-2.86-2.47-6.26-5-7.7Z"/>
                  <path class="cls-65" d="M79.37,116.58c-2.49-1.43-4.51-.28-4.51,2.57v41.49a9.94,9.94,0,0,0,4.51,7.78l5.45,2.88c2.49,1.44,4.87.23,4.87-2.63V127.18c0-2.85-2.38-6.27-4.87-7.71Z"/>
                  <path class="cls-66" d="M79.13,116.69c-2.49-1.44-4.51-.29-4.51,2.56v41.34a9.91,9.91,0,0,0,4.51,7.77l5.46,2.89c2.49,1.44,4.78.25,4.78-2.61V127.31c0-2.86-2.29-6.3-4.78-7.73Z"/>
                  <path class="cls-67" d="M78.89,116.79c-2.49-1.44-4.51-.29-4.51,2.57v41.18a9.94,9.94,0,0,0,4.51,7.77l5.47,2.9c2.49,1.43,4.69.26,4.69-2.6V127.43a10.08,10.08,0,0,0-4.69-7.75Z"/>
                  <path class="cls-68" d="M78.65,116.89c-2.49-1.44-4.51-.29-4.51,2.57v41a9.94,9.94,0,0,0,4.51,7.77l5.48,2.9c2.49,1.44,4.59.27,4.59-2.58v-41a10,10,0,0,0-4.59-7.76Z"/>
                  <path class="cls-69" d="M78.41,117c-2.49-1.44-4.51-.28-4.51,2.57v40.87a9.94,9.94,0,0,0,4.51,7.78l5.49,2.91c2.49,1.43,4.5.28,4.5-2.57V127.67a9.93,9.93,0,0,0-4.5-7.77Z"/>
                </g>
                <g class="cls-70">
                  <path class="cls-71" d="M82,179.58a5.19,5.19,0,0,1-2.56-.62l-14.28-8.07L50.9,162.82a2.72,2.72,0,0,1-1.47-2.34,3.17,3.17,0,0,1,1.77-2.66l10.17-5.72a6.33,6.33,0,0,1,3.11-.79,5.06,5.06,0,0,1,2.56.62L81.32,160l14.28,8.07a2.72,2.72,0,0,1,1.47,2.34,3.17,3.17,0,0,1-1.77,2.66l-10.17,5.72A6.3,6.3,0,0,1,82,179.58Z"/>
                  <path class="cls-72" d="M51.38,157.91l5.31-3c.11-.07,4.6-2.51,4.7-2.45a6.49,6.49,0,0,1,3-.61,5.31,5.31,0,0,1,2.49.66l12.39,7,1.57.9,14,7.91a3,3,0,0,1,1.36,1.54,2.29,2.29,0,0,1,.14.69,2.92,2.92,0,0,1-1.67,2.6l-5.31,3c-.12.07-4.6,2.5-4.7,2.45a6.48,6.48,0,0,1-3,.6,5.31,5.31,0,0,1-2.49-.65l-12.39-7-1.58-.9-14-7.91a3.11,3.11,0,0,1-1.37-1.54,2.82,2.82,0,0,1-.14-.69A2.94,2.94,0,0,1,51.38,157.91Z"/>
                  <path class="cls-73" d="M51.56,158l5.2-2.91a43.35,43.35,0,0,1,4.64-2.22,6.72,6.72,0,0,1,2.94-.42,5.57,5.57,0,0,1,2.41.69L78.87,160l1.54.87,13.67,7.75a3.49,3.49,0,0,1,1.37,1.47,2.57,2.57,0,0,1,.17.66A2.72,2.72,0,0,1,94,173.29l-5.21,2.92a41.4,41.4,0,0,1-4.64,2.21,6.67,6.67,0,0,1-2.93.43,5.61,5.61,0,0,1-2.42-.69l-12.11-6.87-1.55-.88-13.67-7.75a3.35,3.35,0,0,1-1.36-1.47,2.16,2.16,0,0,1-.18-.66A2.73,2.73,0,0,1,51.56,158Z"/>
                  <path class="cls-74" d="M51.74,158.07l5.09-2.84c.33-.2,4.3-2.16,4.59-2a7.17,7.17,0,0,1,2.85-.24,5.85,5.85,0,0,1,2.34.73l11.84,6.72,1.5.86,13.37,7.59a3.82,3.82,0,0,1,1.37,1.4,2.67,2.67,0,0,1,.21.62,2.54,2.54,0,0,1-1.5,2.49l-5.09,2.84c-.34.2-4.3,2.16-4.59,2a7.17,7.17,0,0,1-2.85.24,5.85,5.85,0,0,1-2.34-.73L66.69,171l-1.5-.86-13.37-7.59a3.79,3.79,0,0,1-1.37-1.39,2.46,2.46,0,0,1-.21-.63A2.52,2.52,0,0,1,51.74,158.07Z"/>
                  <path class="cls-75" d="M51.91,158.15l5-2.77c.45-.26,4.16-2,4.55-1.76.56-.33,2-.06,2.75-.06a6.29,6.29,0,0,1,2.27.77L78,160.91l1.47.83,13.06,7.43a4.4,4.4,0,0,1,1.38,1.33,2.88,2.88,0,0,1,.23.59,2.33,2.33,0,0,1-1.4,2.43l-5,2.78c-.45.26-4.15,2-4.54,1.76-.56.33-2,.05-2.76.05a6.41,6.41,0,0,1-2.27-.76l-11.56-6.58-1.47-.83L52.12,162.5a4.34,4.34,0,0,1-1.37-1.32,2.93,2.93,0,0,1-.24-.59A2.37,2.37,0,0,1,51.91,158.15Z"/>
                  <path class="cls-76" d="M52.09,158.24,57,155.53c.56-.32,4-1.82,4.49-1.53.48-.28,2.06.13,2.67.13a7.12,7.12,0,0,1,2.2.8l11.29,6.43,1.43.82,12.76,7.27a5.08,5.08,0,0,1,1.38,1.25,2.87,2.87,0,0,1,.27.56,2.18,2.18,0,0,1-1.31,2.38l-4.87,2.7c-.56.33-4,1.82-4.49,1.54-.48.28-2.06-.13-2.67-.13a7,7,0,0,1-2.2-.8l-11.29-6.44-1.43-.81-12.76-7.27a5.08,5.08,0,0,1-1.38-1.25,2.94,2.94,0,0,1-.27-.57A2.17,2.17,0,0,1,52.09,158.24Z"/>
                  <path class="cls-77" d="M52.27,158.32,57,155.68c.67-.39,3.85-1.64,4.44-1.31.4-.23,2.07.32,2.58.32a8,8,0,0,1,2.13.84l11,6.29,1.4.79L91,169.72c.31.19,1.29.89,1.38,1.18a1.93,1.93,0,0,1,.31.53c.28.82-.16,1.71-1.22,2.32l-4.77,2.64c-.67.39-3.85,1.65-4.43,1.31-.4.23-2.08-.32-2.59-.32a8.21,8.21,0,0,1-2.12-.83l-11-6.29-1.39-.8-12.46-7.11c-.31-.18-1.29-.88-1.38-1.18a1.57,1.57,0,0,1-.3-.53C50.77,159.83,51.2,158.93,52.27,158.32Z"/>
                  <path class="cls-78" d="M52.45,158.4l4.65-2.57c.78-.45,3.7-1.47,4.38-1.08.32-.18,2.09.5,2.5.5a9.39,9.39,0,0,1,2.05.88l10.74,6.14,1.36.78L90.28,170a5.8,5.8,0,0,1,1.39,1.11,1.45,1.45,0,0,1,.33.5c.33.77-.07,1.65-1.13,2.26l-4.65,2.57c-.78.45-3.7,1.47-4.38,1.08-.32.18-2.09-.5-2.5-.5a9.39,9.39,0,0,1-2-.88L66.55,170l-1.36-.78L53,162.27a5.77,5.77,0,0,1-1.39-1.1,1.67,1.67,0,0,1-.33-.5C51,159.89,51.39,159,52.45,158.4Z"/>
                  <path class="cls-79" d="M52.62,158.49l4.55-2.5c.89-.52,3.55-1.31,4.33-.86.24-.14,2.1.69,2.41.69a12.28,12.28,0,0,1,2,.91l10.46,6,1.32.75,11.85,6.8a6.78,6.78,0,0,1,1.39,1,1.63,1.63,0,0,1,.37.47c.37.73,0,1.6-1,2.2l-4.54,2.5c-.9.52-3.55,1.31-4.33.86-.24.14-2.11-.69-2.41-.69a11.89,11.89,0,0,1-2-.91l-10.47-6L65.19,169l-11.84-6.79a7.57,7.57,0,0,1-1.4-1,1.44,1.44,0,0,1-.36-.47C51.21,160,51.58,159.09,52.62,158.49Z"/>
                  <path class="cls-80" d="M52.8,158.57l4.43-2.43c1-.59,3.41-1.14,4.28-.63.16-.09,2.12.87,2.33.87a16,16,0,0,1,1.9,1l10.19,5.85,1.29.74,11.54,6.63a10.44,10.44,0,0,1,1.4,1,1.46,1.46,0,0,1,.39.44c.43.7.09,1.55-.94,2.15l-4.43,2.43c-1,.58-3.41,1.13-4.28.62-.16.1-2.12-.87-2.33-.87a18.63,18.63,0,0,1-1.9-.94l-10.19-5.86-1.29-.74-11.54-6.63a12.24,12.24,0,0,1-1.4-1,1.74,1.74,0,0,1-.39-.44C51.43,160,51.77,159.17,52.8,158.57Z"/>
                  <path class="cls-81" d="M53,158.65l4.32-2.36c1.12-.65,3.26-1,4.23-.4.08,0,2.13,1.05,2.23,1.05s1.78.95,1.84,1l9.91,5.71,1.25.72L88,170.83c.06,0,1.38.82,1.4.88a1.54,1.54,0,0,1,.43.41c.48.66.17,1.5-.85,2.09l-4.33,2.36c-1.12.65-3.25,1-4.22.4-.08.05-2.14-1.05-2.24-1.05s-1.77-.95-1.83-1l-9.92-5.71-1.25-.72L54,162c-.07,0-1.39-.82-1.41-.88a1.62,1.62,0,0,1-.42-.4C51.65,160.08,52,159.24,53,158.65Z"/>
                  <path d="M80,176.79,66.41,169l-13.55-7.83c-1.07-.61-.94-1.69.3-2.41l4.21-2.29a4.63,4.63,0,0,1,4.17-.17l13.56,7.82,13.55,7.82c1.07.62.93,1.7-.3,2.42l-4.22,2.29A4.63,4.63,0,0,1,80,176.79Z"/>
                </g>
                <polygon class="cls-82" points="89.48 173.32 61.22 157 58.78 104 87.03 120.31 89.48 173.32"/>
                <path class="cls-83" d="M68.24,114.56c0,.65-.46.91-1,.58a2.26,2.26,0,0,1-1-1.77c0-.65.46-.91,1-.58A2.26,2.26,0,0,1,68.24,114.56Z"/>
                <path class="cls-84" d="M78.5,120.38c0,.65-.46.91-1,.58a2.24,2.24,0,0,1-1-1.77c0-.65.45-.91,1-.58A2.26,2.26,0,0,1,78.5,120.38Z"/>
                <path class="cls-85" d="M67.69,114.73a2.23,2.23,0,0,1-1-1.76,1.07,1.07,0,0,1,0-.32c-.31,0-.52.29-.52.72a2.26,2.26,0,0,0,1,1.77c.46.27.85.14,1-.27A.85.85,0,0,1,67.69,114.73Z"/>
                <path class="cls-86" d="M77.94,120.56a2.26,2.26,0,0,1-1-1.77,1,1,0,0,1,0-.31c-.3,0-.51.28-.51.71a2.24,2.24,0,0,0,1,1.77c.46.27.85.14,1-.27A.88.88,0,0,1,77.94,120.56Z"/>
                <g>
                  <path class="cls-87" d="M66.72,115.89v-2a.5.5,0,0,1,.5-.5.5.5,0,0,1,.5.5v2.58Z"/>
                  <path class="cls-87" d="M76.87,121.64v-2a.5.5,0,0,1,1,0v2.61Z"/>
                </g>
                <polygon class="cls-88" points="53.52 106.34 56.92 106.29 58.8 104 62.87 155.31 53.22 145.59 53.52 106.34"/>
                <polygon class="cls-89" points="80.55 164.75 80.7 177.7 89.47 173.31 80.55 164.75"/>
                <polygon class="cls-90" points="81.76 122.65 83.17 120.5 87.03 120.31 89.48 173.32 80.67 164.94 81.76 122.65"/>
                <polygon class="cls-91" points="80.7 177.7 52.45 161.38 53.5 106.34 81.76 122.65 80.7 177.7"/>
                <path class="cls-92" d="M64,118.62c0,.65-.46.92-1,.59a2.28,2.28,0,0,1-1-1.77c0-.65.46-.91,1-.58A2.23,2.23,0,0,1,64,118.62Z"/>
                <path class="cls-93" d="M74.23,124.45c0,.65-.46.91-1,.58a2.26,2.26,0,0,1-1-1.77c0-.65.46-.91,1-.58A2.28,2.28,0,0,1,74.23,124.45Z"/>
                <path class="cls-94" d="M63.42,118.8a2.24,2.24,0,0,1-1-1.77,1.46,1.46,0,0,1,0-.31c-.3,0-.51.28-.51.72a2.28,2.28,0,0,0,1,1.77c.47.27.85.14,1-.27A.9.9,0,0,1,63.42,118.8Z"/>
                <path class="cls-95" d="M73.67,124.63a2.28,2.28,0,0,1-1-1.77,1,1,0,0,1,0-.31c-.31,0-.52.28-.52.71a2.25,2.25,0,0,0,1,1.77c.46.27.84.14,1-.27A1,1,0,0,1,73.67,124.63Z"/>
                <path class="cls-96" d="M75.62,144.43a29.68,29.68,0,0,1-9-8.37l0,0c-2.63.59-5.77-.11-9-2l-.12-.07.17,2.31c.61,8.11,3.77,14.78,8.87,22.67l.13.07c5.1-2,8.27-5,8.87-12.42l.18-2.11Zm-2.72,2.18c-.43,5.2-2.65,7.3-6.22,8.71l-.09,0c-3.57-5.53-5.79-10.2-6.22-15.89l-.12-1.62.09.05a8.84,8.84,0,0,0,6.28,1.39h0a20.48,20.48,0,0,0,6.29,5.87l.08,0Z"/>
                <path class="cls-15" d="M67.64,151.09v-2.72L70,149.74c.16.09.28,0,.28-.16v-1.83a.6.6,0,0,0-.28-.48l-2.37-1.37v-2.71a.61.61,0,0,0-.28-.49l-1.59-.91c-.15-.09-.28,0-.28.15v2.72l-2.23-1.29c-.15-.09-.28,0-.28.16v1.83a.64.64,0,0,0,.28.48l2.23,1.29v2.72a.64.64,0,0,0,.28.48l1.59.92C67.52,151.33,67.64,151.26,67.64,151.09Z"/>
                <path class="cls-97" d="M69.37,136.2a4.4,4.4,0,0,1-2.4-.72,9.5,9.5,0,0,1-4.33-8v-8a.5.5,0,0,1,.5-.5.5.5,0,0,1,.5.5v8a8.51,8.51,0,0,0,3.87,7.14,3.41,3.41,0,0,0,5.28-2.86v-6.62a.5.5,0,0,1,.5-.5.5.5,0,0,1,.5.5v6.62a4.36,4.36,0,0,1-2.31,3.88A4.45,4.45,0,0,1,69.37,136.2Z"/>
                <path class="cls-87" d="M69.18,134.7a4.4,4.4,0,0,1-2.4-.72,9.49,9.49,0,0,1-4.32-8v-8a.5.5,0,0,1,.5-.5.5.5,0,0,1,.5.5v8a8.48,8.48,0,0,0,3.87,7.14,3.42,3.42,0,0,0,5.28-2.86v-6.62a.5.5,0,1,1,1,0v6.62a4.34,4.34,0,0,1-2.31,3.88A4.45,4.45,0,0,1,69.18,134.7Z"/>
              </g>
              <g>
                <ellipse class="cls-98" cx="44.35" cy="172.4" rx="5.85" ry="2.44"/>
                <g class="cls-99">
                  <path class="cls-100" d="M38.8,171.32v0Z"/>
                  <path class="cls-101" d="M47.59,171.63v-.31h0Z"/>
                </g>
                <path class="cls-102" d="M47.59,170.1H38.8v1.66h0v0c0,1.41,2,2.55,4.39,2.55s4.4-1.14,4.4-2.55v0h0Z"/>
                <path class="cls-103" d="M43.19,172.47c-2.37,0-4.3-1.1-4.38-2.47,0,0,0,.06,0,.09,0,1.41,2,2.56,4.39,2.56s4.4-1.15,4.4-2.56c0,0,0-.06,0-.09C47.5,171.37,45.57,172.47,43.19,172.47Z"/>
                <path class="cls-104" d="M41.08,171.45c1,.34,1.66,1,1.49,1.5s-1.1.61-2.09.27-1.65-1-1.49-1.49S40.1,171.12,41.08,171.45Z"/>
                <path class="cls-105" d="M43.19,167.42a6.16,6.16,0,0,0-3.16.79.31.31,0,0,1-.09.18.67.67,0,0,1-.34.12,2,2,0,0,0-.8,1.47c0,1.41,2,2.56,4.39,2.56s4.4-1.15,4.4-2.56S45.62,167.42,43.19,167.42Z"/>
                <path class="cls-106" d="M40,168.13l6.36,3.58a.16.16,0,0,1,.07.2h0a.37.37,0,0,1-.44.21l-.11-.05-6.32-3.56a.67.67,0,0,0,.34-.12A.39.39,0,0,0,40,168.13Z"/>
              </g>
              <g>
                <path class="cls-107" d="M51.06,167.2c-.69,1.16-3.5.77-6.28-.88s-4.49-3.91-3.81-5.07,3.5-.76,6.28.88S51.74,166,51.06,167.2Z"/>
                <path class="cls-108" d="M38.71,160.92a2.19,2.19,0,0,1,2.18-2.18,2.06,2.06,0,0,1,1,.26c.05,0,3.61,2.08,3.62,2.08.28.17-.17.17-.17.66a3.44,3.44,0,0,1-1.56,2.68c-.43.25-.25.6-.53.45,0,0-3.5-2.08-3.53-2.11A2.15,2.15,0,0,1,38.71,160.92Z"/>
                <path class="cls-109" d="M44.51,161.23a1.13,1.13,0,0,1,1.09-.12s3.58,2.11,3.57,2.15a2.18,2.18,0,0,1-1.29,3.93,2.1,2.1,0,0,1-1-.23s-3.51-2.05-3.52-2.06a1.09,1.09,0,0,1-.44-1A3.44,3.44,0,0,1,44.51,161.23Z"/>
                <path class="cls-110" d="M44.25,160.69c-1.33-.75-2.58-1-2.8-.66s.68,1.31,2,2.06,2.57,1,2.79.65S45.57,161.44,44.25,160.69Z"/>
                <circle class="cls-111" cx="48.6" cy="164.73" r="1.28"/>
              </g>
            </g>
          </g>
          <path class="cls-112" d="M101,10a91,91,0,1,1-91,91,91.06,91.06,0,0,1,91-91m0-10a101,101,0,1,0,101,101A101,101,0,0,0,101,0Z"/>
        </g>
      </g>
    </g>
  </g>
</svg>
