<svg xmlns="http://www.w3.org/2000/svg" xmlns:xlink="http://www.w3.org/1999/xlink" width="201.92" height="201.92" viewBox="0 0 201.92 201.92">
  <defs>
    <style>
      .cls-1 {
        fill: none;
      }

      .cls-2 {
        fill: #6237ac;
      }

      .cls-3 {
        fill: #6b686b;
      }

      .cls-4 {
        fill: #f9521e;
      }

      .cls-5 {
        fill: #e5451a;
      }

      .cls-6 {
        fill: #282328;
      }

      .cls-7 {
        fill: url(#linear-gradient);
      }

      .cls-8 {
        clip-path: url(#clip-path);
      }

      .cls-9 {
        fill: #ddd5ec;
      }

      .cls-10 {
        fill: #3aaa35;
      }

      .cls-11 {
        fill: #a187cd;
      }

      .cls-12 {
        fill: #f2c370;
      }

      .cls-13 {
        fill: #63adea;
      }

      .cls-14 {
        clip-path: url(#clip-path-2);
      }

      .cls-15 {
        isolation: isolate;
      }

      .cls-16 {
        clip-path: url(#clip-path-3);
      }

      .cls-17 {
        clip-path: url(#clip-path-4);
      }

      .cls-18 {
        fill: #869cad;
      }

      .cls-19 {
        fill: #ede9ed;
      }

      .cls-20 {
        fill: #007c37;
      }

      .cls-21 {
        fill: #008d33;
      }

      .cls-22 {
        fill: #91c254;
      }

      .cls-23 {
        fill: #4c474b;
      }

      .cls-24 {
        fill: #59351d;
      }

      .cls-25 {
        fill: #04af38;
      }

      .cls-26 {
        fill: #fbe6cb;
      }

      .cls-27 {
        fill: #e6ccbb;
      }

      .cls-28 {
        fill: #fef0d8;
      }

      .cls-29 {
        fill: #352254;
      }

      .cls-30 {
        fill: #825fbd;
      }

      .cls-31 {
        fill: #d1b4a6;
      }

      .cls-32 {
        fill: #d3f2e7;
      }

      .cls-33 {
        fill: #fff;
      }

      .cls-34 {
        fill: #eae6e4;
      }

      .cls-35 {
        fill: #3b373a;
      }

      .cls-36 {
        fill: #535053;
      }

      .cls-37 {
        fill: #9b5f29;
      }

      .cls-38 {
        fill: #d3854a;
      }

      .cls-39 {
        fill: #eda87a;
      }

      .cls-40 {
        clip-path: url(#clip-path-5);
      }

      .cls-41 {
        clip-path: url(#clip-path-6);
      }

      .cls-42 {
        fill: #eae8ce;
      }

      .cls-43 {
        fill: #d6d2ae;
      }

      .cls-44 {
        fill: #d5cc7b;
      }

      .cls-45 {
        fill: #f7ed8f;
      }

      .cls-46 {
        fill: #cca933;
      }

      .cls-47 {
        fill: #f2e144;
      }

      .cls-48 {
        clip-path: url(#clip-path-7);
      }

      .cls-49 {
        clip-path: url(#clip-path-8);
      }

      .cls-50 {
        clip-path: url(#clip-path-9);
      }

      .cls-51 {
        clip-path: url(#clip-path-10);
      }

      .cls-52 {
        clip-path: url(#clip-path-11);
      }

      .cls-53 {
        clip-path: url(#clip-path-12);
      }

      .cls-54 {
        fill: #fff9ef;
      }

      .cls-55 {
        clip-path: url(#clip-path-13);
      }

      .cls-56 {
        clip-path: url(#clip-path-14);
      }

      .cls-57 {
        clip-path: url(#clip-path-15);
      }

      .cls-58 {
        clip-path: url(#clip-path-16);
      }

      .cls-59 {
        fill: #181518;
      }

      .cls-60 {
        fill: #1c191c;
      }

      .cls-61 {
        fill: #201c20;
      }

      .cls-62 {
        fill: #221e22;
      }

      .cls-63 {
        clip-path: url(#clip-path-17);
      }

      .cls-64 {
        clip-path: url(#clip-path-18);
      }

      .cls-65 {
        clip-path: url(#clip-path-19);
      }

      .cls-66 {
        fill: #ce2c00;
      }

      .cls-67 {
        fill: #3a0ca3;
      }
    </style>
    <linearGradient id="linear-gradient" x1="100.96" y1="201.92" x2="100.96" gradientUnits="userSpaceOnUse">
      <stop offset="0" stop-color="#f72585"/>
      <stop offset="1" stop-color="#b5179e"/>
    </linearGradient>
    <clipPath id="clip-path">
      <circle class="cls-1" cx="100.96" cy="100.96" r="100.96"/>
    </clipPath>
    <clipPath id="clip-path-2">
      <path class="cls-2" d="M201.92,91.84l0,7.5a3.11,3.11,0,0,1-1.82,2.55l0-7.49A3.12,3.12,0,0,0,201.92,91.84Z"/>
    </clipPath>
    <clipPath id="clip-path-3">
      <path class="cls-2" d="M0,139.28l0-7.5a3.17,3.17,0,0,0,1.86,2.6l0,7.5A3.17,3.17,0,0,1,0,139.28Z"/>
    </clipPath>
    <clipPath id="clip-path-4">
      <path class="cls-2" d="M71.24,169.28l0,7.5a9.85,9.85,0,0,1-8.91,0l0-7.5A9.85,9.85,0,0,0,71.24,169.28Z"/>
    </clipPath>
    <clipPath id="clip-path-5">
      <path class="cls-6" d="M90,125.84,90,134a.64.64,0,0,0,.39.53,2,2,0,0,0,1.86,0,.65.65,0,0,0,.39-.54l0-8.15a.64.64,0,0,1-.38.55,2.12,2.12,0,0,1-1.87,0A.67.67,0,0,1,90,125.84Z"/>
    </clipPath>
    <clipPath id="clip-path-6">
      <path class="cls-6" d="M90.47,107.86l0,17.92a.4.4,0,0,0,.24.33,1.25,1.25,0,0,0,1.13,0,.39.39,0,0,0,.23-.33l-.05-17.93a.41.41,0,0,1-.23.33,1.27,1.27,0,0,1-1.14,0A.41.41,0,0,1,90.47,107.86Z"/>
    </clipPath>
    <clipPath id="clip-path-7">
      <path class="cls-3" d="M125.51,127l.23.13a.64.64,0,0,0-.64.07l-.23-.14A.66.66,0,0,1,125.51,127Z"/>
    </clipPath>
    <clipPath id="clip-path-8">
      <path class="cls-6" d="M124.46,129.35l-.23-.13a.65.65,0,0,1-.26-.58,2,2,0,0,1,.9-1.56l.23.14a2,2,0,0,0-.9,1.55A.62.62,0,0,0,124.46,129.35Z"/>
    </clipPath>
    <clipPath id="clip-path-9">
      <path class="cls-3" d="M119.6,130.48l.23.13a.64.64,0,0,0-.64.07l-.23-.14A.63.63,0,0,1,119.6,130.48Z"/>
    </clipPath>
    <clipPath id="clip-path-10">
      <path class="cls-6" d="M118.55,132.81l-.23-.14a.62.62,0,0,1-.26-.57,2,2,0,0,1,.9-1.56l.23.14a2,2,0,0,0-.9,1.55A.65.65,0,0,0,118.55,132.81Z"/>
    </clipPath>
    <clipPath id="clip-path-11">
      <path class="cls-3" d="M112.24,130.79l.64-.38a1.05,1.05,0,0,1,1,.1l-.64.38A1,1,0,0,0,112.24,130.79Z"/>
    </clipPath>
    <clipPath id="clip-path-12">
      <path class="cls-3" d="M115,134l-.64.38a1,1,0,0,0,.42-.94,3.18,3.18,0,0,0-1.45-2.52l.64-.38a3.23,3.23,0,0,1,1.46,2.53A1,1,0,0,1,115,134Z"/>
    </clipPath>
    <clipPath id="clip-path-13">
      <path class="cls-3" d="M101.57,124.64l.64-.38a1,1,0,0,1,1,.11l-.64.37A1,1,0,0,0,101.57,124.64Z"/>
    </clipPath>
    <clipPath id="clip-path-14">
      <path class="cls-3" d="M104.28,127.83l-.64.37a1,1,0,0,0,.43-.94,3.21,3.21,0,0,0-1.46-2.52l.64-.37a3.19,3.19,0,0,1,1.46,2.52A1,1,0,0,1,104.28,127.83Z"/>
    </clipPath>
    <clipPath id="clip-path-15">
      <path class="cls-4" d="M101.22,113.71l2.41,1.4a1.08,1.08,0,0,0-1.08.1l-2.41-1.4A1.08,1.08,0,0,1,101.22,113.71Z"/>
    </clipPath>
    <clipPath id="clip-path-16">
      <path class="cls-1" d="M86.91,132.74l-.06,20.07a.52.52,0,0,1-.3.42,1.63,1.63,0,0,1-1.46,0,.53.53,0,0,1-.31-.43l.06-20.06a.51.51,0,0,0,.3.42,1.59,1.59,0,0,0,1.47,0A.49.49,0,0,0,86.91,132.74Z"/>
    </clipPath>
    <clipPath id="clip-path-17">
      <path class="cls-1" d="M101.34,124.27l0,20.07a.52.52,0,0,1-.3.42,1.63,1.63,0,0,1-1.46,0,.53.53,0,0,1-.31-.43l.06-20.06a.51.51,0,0,0,.3.42,1.57,1.57,0,0,0,1.46,0A.49.49,0,0,0,101.34,124.27Z"/>
    </clipPath>
    <clipPath id="clip-path-18">
      <path class="cls-5" d="M81.88,138.55l-2.41-1.4a1.08,1.08,0,0,1-.44-1l2.41,1.4A1.08,1.08,0,0,0,81.88,138.55Z"/>
    </clipPath>
    <clipPath id="clip-path-19">
      <path class="cls-4" d="M81.41,129.17,79,127.77a3.33,3.33,0,0,1,1.53-2.63l2.4,1.4A3.35,3.35,0,0,0,81.41,129.17Z"/>
    </clipPath>
  </defs>
  <g id="Capa_2" data-name="Capa 2">
    <g id="Capa_1-2" data-name="Capa 1">
      <g>
        <circle class="cls-7" cx="100.96" cy="100.96" r="100.96"/>
        <g class="cls-8">
          <g>
            <g>
              <path class="cls-9" d="M200.06,89.24c2.47,1.42,2.49,3.74,0,5.16L71.24,169.28a9.85,9.85,0,0,1-8.91,0L1.88,134.38c-2.47-1.42-2.48-3.74,0-5.16L130.71,54.33a9.83,9.83,0,0,1,8.9,0Z"/>
              <polygon class="cls-10" points="126.08 60.89 188.66 97.02 79.98 160.18 17.4 124.05 126.08 60.89"/>
              <g>
                <path class="cls-11" d="M170.14,76.64a.69.69,0,0,1,0,1.31,2.5,2.5,0,0,1-2.26,0l-10.45-6a.69.69,0,0,1,0-1.31,2.46,2.46,0,0,1,2.27,0Z"/>
                <path class="cls-2" d="M168.14,78l-10.45-6a.69.69,0,0,1,0-1.31,2.2,2.2,0,0,1,1-.27,2.4,2.4,0,0,0-1.27.27.69.69,0,0,0,0,1.31l10.45,6a2.33,2.33,0,0,0,1.25.26A2.23,2.23,0,0,1,168.14,78Z"/>
              </g>
              <path class="cls-12" d="M75.5,166.81,196,96.77Z"/>
              <path class="cls-13" d="M190.39,100,196,96.77Z"/>
              <g>
                <g>
                  <g>
                    <path class="cls-2" d="M201.92,91.84l0,7.5a3.11,3.11,0,0,1-1.82,2.55l0-7.49A3.12,3.12,0,0,0,201.92,91.84Z"/>
                    <g class="cls-14">
                      <g class="cls-15">
                        <path class="cls-2" d="M201.92,91.84l0,7.5v0l0-7.49v-.06Z"/>
                        <path class="cls-2" d="M201.92,91.9l0,7.49a2.21,2.21,0,0,1,0,.37l0-7.5a1.47,1.47,0,0,0,0-.36Z"/>
                        <path class="cls-2" d="M201.88,92.26l0,7.5a2.68,2.68,0,0,1-.1.35l0-7.5a2,2,0,0,0,.1-.35Z"/>
                        <path class="cls-2" d="M201.78,92.61l0,7.5a2.92,2.92,0,0,1-.17.36l0-7.5a2.92,2.92,0,0,0,.17-.36Z"/>
                        <path class="cls-2" d="M201.61,93l0,7.5a4,4,0,0,1-.25.37l0-7.49a2.75,2.75,0,0,0,.25-.38Z"/>
                        <path class="cls-2" d="M201.36,93.35l0,7.49a3.08,3.08,0,0,1-.39.42l0-7.49a3.74,3.74,0,0,0,.39-.42Z"/>
                        <path class="cls-2" d="M201,93.77l0,7.49a4.61,4.61,0,0,1-.8.59l0-7.5a5,5,0,0,0,.79-.58Z"/>
                        <path class="cls-2" d="M200.18,94.35l0,7.5-.07,0,0-7.49.08-.05Z"/>
                      </g>
                    </g>
                  </g>
                  <g>
                    <path class="cls-2" d="M0,139.28l0-7.5a3.17,3.17,0,0,0,1.86,2.6l0,7.5A3.17,3.17,0,0,1,0,139.28Z"/>
                    <g class="cls-16">
                      <path class="cls-2" d="M1.88,134.38l0,7.5A3.17,3.17,0,0,1,0,139.28l0-7.5a3.17,3.17,0,0,0,1.86,2.6Z"/>
                    </g>
                  </g>
                  <polygon class="cls-2" points="200.1 94.4 200.08 101.89 71.22 176.78 71.24 169.28 200.1 94.4"/>
                  <polygon class="cls-2" points="62.33 169.28 62.31 176.78 1.86 141.88 1.88 134.38 62.33 169.28"/>
                  <g>
                    <path class="cls-2" d="M71.24,169.28l0,7.5a9.85,9.85,0,0,1-8.91,0l0-7.5A9.85,9.85,0,0,0,71.24,169.28Z"/>
                    <g class="cls-17">
                      <g class="cls-15">
                        <path class="cls-2" d="M71.24,169.28l0,7.5a7.37,7.37,0,0,1-1.37.6l0-7.49a7.11,7.11,0,0,0,1.37-.61Z"/>
                        <path class="cls-2" d="M69.87,169.89l0,7.49a9.57,9.57,0,0,1-1.2.3l0-7.5a9.54,9.54,0,0,0,1.2-.29Z"/>
                        <path class="cls-2" d="M68.67,170.18l0,7.5c-.26,0-.53.08-.8.11l0-7.49c.27,0,.54-.07.8-.12Z"/>
                        <path class="cls-2" d="M67.87,170.3l0,7.49-.7.05,0-7.5.7,0Z"/>
                        <path class="cls-2" d="M67.17,170.34l0,7.5H66.5l0-7.49Z"/>
                        <path class="cls-2" d="M66.52,170.35l0,7.49c-.21,0-.42,0-.62,0l0-7.5.62,0Z"/>
                        <path class="cls-2" d="M65.9,170.31l0,7.5-.62-.07,0-7.5c.21,0,.41.06.62.07Z"/>
                        <path class="cls-2" d="M65.28,170.24l0,7.5-.62-.11,0-7.5a6.17,6.17,0,0,0,.62.11Z"/>
                        <path class="cls-2" d="M64.66,170.13l0,7.5-.66-.16,0-7.5c.22.06.43.12.66.16Z"/>
                        <path class="cls-2" d="M64,170l0,7.5c-.26-.08-.52-.16-.77-.26l0-7.49c.24.09.5.18.76.25Z"/>
                        <path class="cls-2" d="M63.24,169.72l0,7.49a6.77,6.77,0,0,1-.9-.43l0-7.5a7.67,7.67,0,0,0,.91.44Z"/>
                      </g>
                    </g>
                  </g>
                </g>
                <path class="cls-18" d="M34.86,155.24a3.61,3.61,0,0,1,1.65,2.86c0,1.05-.75,1.47-1.66,1l-10.73-6.2A3.65,3.65,0,0,1,22.47,150c0-1.05.75-1.47,1.66-.94Z"/>
              </g>
              <g>
                <path class="cls-11" d="M43.17,143.3c2.54,1.47,2.56,3.85,0,5.32a10.13,10.13,0,0,1-9.19,0c-2.54-1.47-2.56-3.85,0-5.32A10.13,10.13,0,0,1,43.17,143.3Z"/>
                <path class="cls-2" d="M34.55,148.83c-2.54-1.47-2.55-3.86,0-5.32a10.26,10.26,0,0,1,7.9-.58,10.25,10.25,0,0,0-8.44.37c-2.53,1.47-2.51,3.85,0,5.32a7.53,7.53,0,0,0,1.29.57Q34.91,149,34.55,148.83Z"/>
              </g>
            </g>
            <g>
              <polygon class="cls-19" points="92.55 124.92 116.59 138.9 132.87 129.44 108.87 115.5 92.55 124.92"/>
              <g>
                <polygon class="cls-20" points="31.58 117.44 82.37 146.95 95.29 139.49 44.5 109.98 31.58 117.44"/>
                <g>
                  <polygon class="cls-21" points="39.11 112.19 39.13 119.12 45.22 122.65 45.2 115.73 39.11 112.19"/>
                  <polygon class="cls-10" points="45.2 115.73 45.22 122.65 51.35 119.11 51.33 112.19 45.2 115.73"/>
                  <polygon class="cls-22" points="39.11 112.19 45.2 115.73 51.33 112.19 45.24 108.65 39.11 112.19"/>
                </g>
                <g>
                  <polygon class="cls-21" points="54.23 120.86 54.24 127.79 60.33 131.33 60.31 124.4 54.23 120.86"/>
                  <polygon class="cls-10" points="60.31 124.4 60.33 131.33 66.47 127.79 66.45 120.86 60.31 124.4"/>
                  <polygon class="cls-22" points="54.23 120.86 60.31 124.4 66.45 120.86 60.36 117.33 54.23 120.86"/>
                </g>
                <g>
                  <polygon class="cls-21" points="70.89 130.45 70.91 137.38 77 140.91 76.98 133.99 70.89 130.45"/>
                  <polygon class="cls-10" points="76.98 133.99 77 140.91 83.13 137.37 83.11 130.45 76.98 133.99"/>
                  <polygon class="cls-22" points="70.89 130.45 76.98 133.99 83.11 130.45 77.02 126.91 70.89 130.45"/>
                </g>
              </g>
              <g>
                <g>
                  <polygon class="cls-6" points="22.72 123.59 22.72 112.43 24.16 113.27 24.16 124.42 22.72 123.59"/>
                  <polygon class="cls-23" points="24.16 113.27 25.68 114.15 25.68 123.54 24.16 124.42 24.16 113.27"/>
                </g>
                <g>
                  <polygon class="cls-6" points="28.45 126.9 28.45 115.75 29.89 116.58 29.89 127.73 28.45 126.9"/>
                  <polygon class="cls-23" points="29.89 116.58 31.41 117.46 31.41 126.85 29.89 127.73 29.89 116.58"/>
                </g>
                <g>
                  <polygon class="cls-6" points="34.09 130.2 34.09 119.04 35.52 119.88 35.52 131.03 34.09 130.2"/>
                  <polygon class="cls-23" points="35.52 119.88 37.04 120.76 37.04 130.15 35.52 131.03 35.52 119.88"/>
                </g>
                <g>
                  <polygon class="cls-6" points="39.82 133.51 39.82 122.36 41.25 123.19 41.25 134.34 39.82 133.51"/>
                  <polygon class="cls-23" points="41.25 123.19 42.77 124.07 42.77 133.46 41.25 134.34 41.25 123.19"/>
                </g>
                <g>
                  <polygon class="cls-6" points="45.33 136.65 45.33 125.5 46.76 126.33 46.76 137.48 45.33 136.65"/>
                  <polygon class="cls-23" points="46.76 126.33 48.28 127.21 48.28 136.6 46.76 137.48 46.76 126.33"/>
                </g>
                <g>
                  <polygon class="cls-6" points="51.06 139.97 51.06 128.81 52.49 129.64 52.49 140.79 51.06 139.97"/>
                  <polygon class="cls-23" points="52.49 129.64 54.01 130.52 54.01 139.91 52.49 140.79 52.49 129.64"/>
                </g>
                <g>
                  <polygon class="cls-6" points="56.69 143.26 56.69 132.1 58.13 132.94 58.13 144.09 56.69 143.26"/>
                  <polygon class="cls-23" points="58.13 132.94 59.65 133.82 59.65 143.21 58.13 144.09 58.13 132.94"/>
                </g>
                <g>
                  <polygon class="cls-6" points="62.42 146.57 62.42 135.42 63.86 136.25 63.86 147.4 62.42 146.57"/>
                  <polygon class="cls-23" points="63.86 136.25 65.38 137.13 65.38 146.52 63.86 147.4 63.86 136.25"/>
                </g>
                <g>
                  <polygon class="cls-6" points="68.73 150.14 68.73 138.98 70.16 139.82 70.16 150.97 68.73 150.14"/>
                  <polygon class="cls-23" points="70.16 139.82 71.68 140.7 71.68 150.09 70.16 150.97 70.16 139.82"/>
                </g>
                <polygon class="cls-6" points="73.24 140.79 73.23 142.2 21.96 112.59 21.96 111.19 73.24 140.79"/>
                <polygon class="cls-3" points="35.84 117.79 24.43 111.17 23.21 110.46 21.96 111.19 73.24 140.79 74.37 140.13 35.84 117.79"/>
                <polygon class="cls-23" points="74.37 140.13 74.37 141.54 73.23 142.2 73.24 140.79 74.37 140.13"/>
              </g>
              <g>
                <path class="cls-24" d="M157.51,80.46a.71.71,0,0,1,.42-.58,2.18,2.18,0,0,1,2,0,.71.71,0,0,1,.41.58V93.88a.73.73,0,0,1-.42.58,2.18,2.18,0,0,1-2,0,.71.71,0,0,1-.41-.58h0V80.46Z"/>
                <g>
                  <polygon class="cls-21" points="153.4 77.57 153.44 90.45 158.96 93.66 158.92 80.78 153.4 77.57"/>
                  <polygon class="cls-10" points="158.92 80.78 158.96 93.66 164.51 90.45 164.47 77.57 158.92 80.78"/>
                  <polygon class="cls-22" points="153.4 77.57 158.92 80.78 164.47 77.57 158.95 74.37 153.4 77.57"/>
                </g>
              </g>
              <g>
                <polygon class="cls-21" points="185.1 92.83 185.09 97.6 167.11 108.06 167.12 103.28 185.1 92.83"/>
                <polygon class="cls-25" points="167.12 103.28 167.11 108.06 162.67 105.5 162.69 100.72 167.12 103.28"/>
                <polygon class="cls-22" points="185.1 92.83 167.12 103.28 162.69 100.72 180.67 90.27 185.1 92.83"/>
              </g>
              <g>
                <polygon class="cls-21" points="152 111.91 151.99 116.69 134.01 127.14 134.02 122.36 152 111.91"/>
                <polygon class="cls-25" points="134.02 122.36 134.01 127.14 129.57 124.58 129.59 119.8 134.02 122.36"/>
                <polygon class="cls-22" points="152 111.91 134.02 122.36 129.59 119.8 147.57 109.35 152 111.91"/>
              </g>
              <g>
                <polygon class="cls-19" points="138.13 97.78 147.11 103.01 154.16 98.94 145.17 93.72 138.13 97.78"/>
                <polygon class="cls-26" points="77.88 48.46 78.01 93.08 113.06 113.45 112.93 68.83 77.88 48.46"/>
                <polygon class="cls-27" points="112.93 68.83 113.06 113.45 148.34 93.08 148.22 48.46 112.93 68.83"/>
                <polygon class="cls-28" points="77.88 48.46 112.93 68.83 148.22 48.46 113.16 28.09 77.88 48.46"/>
                <g>
                  <polygon class="cls-29" points="81.35 44.68 81.36 49.14 113.15 30.78 113.14 26.32 81.35 44.68"/>
                  <polygon class="cls-29" points="113.14 26.32 113.15 30.78 144.74 49.14 144.73 44.68 113.14 26.32"/>
                  <polygon class="cls-2" points="112.92 65.28 112.93 69.74 148.61 49.14 148.6 44.68 112.92 65.28"/>
                  <polygon class="cls-30" points="77.48 44.68 77.49 49.14 112.93 69.74 112.92 65.28 77.48 44.68"/>
                  <path class="cls-11" d="M148.6,44.68l-35.68,20.6L77.48,44.68l35.68-20.6ZM112.94,63l31.79-18.36L113.14,26.32,81.35,44.68,112.94,63Z"/>
                </g>
                <polygon class="cls-26" points="51.28 81.78 51.35 108.56 86.33 128.88 86.25 102.11 51.28 81.78"/>
                <polygon class="cls-27" points="86.25 101.43 86.33 128.88 113.06 113.45 112.98 71.66 86.25 101.43"/>
                <g>
                  <polygon class="cls-23" points="147.1 79.34 147.14 93.78 140.04 97.88 140 83.44 147.1 79.34"/>
                  <polygon class="cls-31" points="146.18 94.34 147.14 93.78 147.1 79.34 146.14 79.89 146.18 94.34"/>
                  <polygon class="cls-32" points="145.19 81.27 145.21 87.68 140.74 90.27 140.72 83.86 145.19 81.27"/>
                </g>
                <g>
                  <polygon class="cls-30" points="113.77 91.79 113.06 91.38 113.06 92.27 113.78 92.68 113.77 91.79"/>
                  <polygon class="cls-11" points="138.2 77.69 137.48 77.28 113.06 91.38 113.77 91.79 138.2 77.69"/>
                  <polygon class="cls-2" points="113.77 91.79 113.78 92.68 138.2 78.58 138.2 77.69 113.77 91.79"/>
                </g>
                <g>
                  <polygon class="cls-32" points="62.08 90.6 62.07 95.71 53.12 90.54 53.13 85.43 62.08 90.6"/>
                  <polygon class="cls-23" points="53.15 84.91 52.76 84.68 52.76 90.34 53.12 90.54 53.15 84.91"/>
                  <polygon class="cls-23" points="62.47 90.29 62.09 90.07 62.06 96.22 62.44 96.44 62.47 90.29"/>
                  <polygon class="cls-23" points="53.15 85.44 53.15 84.91 62.12 90.08 62.1 90.61 53.15 85.44"/>
                  <polygon class="cls-23" points="52.76 90.85 52.76 90.32 62.09 95.7 62.09 96.24 52.76 90.85"/>
                  <polygon class="cls-3" points="52.76 84.68 53.1 84.49 62.81 90.09 62.47 90.29 52.76 84.68"/>
                  <polygon class="cls-6" points="62.47 90.29 62.81 90.09 62.81 96.22 62.44 96.44 62.47 90.29"/>
                </g>
                <g>
                  <g>
                    <polygon class="cls-33" points="90.49 104.8 90.54 123.64 108.91 113.04 108.91 94.16 90.49 104.8"/>
                    <polygon class="cls-31" points="106.85 96.69 106.85 95.35 109.19 94 109.17 115.64 106.9 114.2 106.85 96.69"/>
                    <polygon class="cls-34" points="106.85 99.31 106.85 100.68 90.5 110.12 90.49 108.75 106.85 99.31"/>
                    <polygon class="cls-34" points="106.85 95.35 106.85 96.72 90.5 106.16 90.49 104.8 106.85 95.35"/>
                    <polygon class="cls-34" points="106.85 103.21 106.85 104.58 90.5 114.02 90.49 112.66 106.85 103.21"/>
                    <polygon class="cls-34" points="106.85 107.11 106.85 108.48 90.5 117.92 90.49 116.56 106.85 107.11"/>
                    <polygon class="cls-34" points="106.85 111.01 106.85 112.38 90.5 121.82 90.49 120.46 106.85 111.01"/>
                  </g>
                  <polygon class="cls-19" points="109.26 115.69 106.9 114.2 90.54 123.64 92.89 125.1 109.26 115.69"/>
                </g>
                <g>
                  <g>
                    <polygon class="cls-30" points="139.99 64.82 134.87 61.84 134.91 78.76 140.04 81.73 139.99 64.82"/>
                    <polygon class="cls-11" points="153.35 57.1 148.23 54.13 134.87 61.84 139.99 64.82 153.35 57.1"/>
                    <polygon class="cls-2" points="139.99 64.82 140.04 81.73 153.4 74.02 153.35 57.1 139.99 64.82"/>
                  </g>
                  <g>
                    <polygon class="cls-32" points="147.56 63.69 147.59 74.28 151.98 71.76 151.95 61.15 147.56 63.69"/>
                    <polygon class="cls-3" points="152.17 71.76 151.62 71.44 147.63 73.74 148.19 74.06 152.17 71.76"/>
                    <polygon class="cls-23" points="152.14 61.66 151.59 61.34 151.62 71.44 152.17 71.76 152.14 61.66"/>
                    <g class="cls-15">
                      <polygon class="cls-35" points="148.18 66.46 147.63 66.14 147.63 66.61 148.18 66.93 148.18 66.46"/>
                      <polygon class="cls-3" points="152.15 64.17 151.6 63.85 147.63 66.14 148.18 66.46 152.15 64.17"/>
                      <polygon class="cls-6" points="148.15 66.48 148.15 66.95 152.16 64.64 152.15 64.17 148.15 66.48"/>
                    </g>
                    <polygon class="cls-23" points="147.88 63.79 147.33 63.47 147.36 74.22 147.91 74.54 147.88 63.79"/>
                    <polygon class="cls-3" points="152.42 61.17 151.86 60.85 147.33 63.47 147.88 63.79 152.42 61.17"/>
                    <path class="cls-6" d="M152.45,71.92l-4.54,2.62,0-10.75,4.54-2.62Zm-4.26,2.14,4-2.3,0-10.1-4,2.3,0,10.1Z"/>
                  </g>
                  <g>
                    <polygon class="cls-32" points="141.53 67.16 141.56 77.75 145.96 75.23 145.93 64.62 141.53 67.16"/>
                    <polygon class="cls-3" points="146.15 75.23 145.59 74.91 141.62 77.21 142.17 77.53 146.15 75.23"/>
                    <polygon class="cls-23" points="146.12 65.13 145.57 64.81 145.59 74.91 146.15 75.23 146.12 65.13"/>
                    <g class="cls-15">
                      <polygon class="cls-35" points="142.16 69.93 141.61 69.61 141.61 70.08 142.16 70.4 142.16 69.93"/>
                      <polygon class="cls-3" points="146.13 67.64 145.58 67.32 141.61 69.61 142.16 69.93 146.13 67.64"/>
                      <polygon class="cls-6" points="142.13 69.95 142.13 70.42 146.13 68.11 146.13 67.64 142.13 69.95"/>
                    </g>
                    <polygon class="cls-23" points="141.86 67.27 141.31 66.94 141.34 77.69 141.89 78.01 141.86 67.27"/>
                    <polygon class="cls-3" points="146.4 64.64 145.84 64.32 141.31 66.94 141.86 67.27 146.4 64.64"/>
                    <path class="cls-6" d="M146.43,75.39,141.89,78l0-10.75,4.54-2.61Zm-4.26,2.14,4-2.3,0-10.1-4,2.3,0,10.1Z"/>
                  </g>
                </g>
                <g>
                  <polygon class="cls-32" points="126.15 89.3 126.19 103.19 131.95 99.89 131.91 85.97 126.15 89.3"/>
                  <polygon class="cls-3" points="132.2 99.89 131.48 99.47 126.25 102.48 126.98 102.9 132.2 99.89"/>
                  <polygon class="cls-23" points="132.16 86.64 131.44 86.22 131.48 99.47 132.2 99.89 132.16 86.64"/>
                  <g class="cls-15">
                    <polygon class="cls-35" points="126.97 92.94 126.25 92.52 126.25 93.14 126.98 93.56 126.97 92.94"/>
                    <polygon class="cls-3" points="132.18 89.94 131.46 89.52 126.25 92.52 126.97 92.94 132.18 89.94"/>
                    <polygon class="cls-6" points="126.93 92.97 126.93 93.59 132.18 90.55 132.18 89.94 126.93 92.97"/>
                  </g>
                  <polygon class="cls-23" points="126.58 89.44 125.85 89.02 125.89 103.11 126.62 103.53 126.58 89.44"/>
                  <polygon class="cls-3" points="132.53 86.01 131.8 85.59 125.85 89.02 126.58 89.44 132.53 86.01"/>
                  <path class="cls-6" d="M132.57,100.1l-5.95,3.43,0-14.09,6-3.43ZM127,102.9l5.22-3,0-13.25-5.22,3,0,13.25Z"/>
                </g>
                <g>
                  <polygon class="cls-32" points="118.25 93.85 118.29 107.74 124.06 104.44 124.02 90.53 118.25 93.85"/>
                  <polygon class="cls-3" points="124.31 104.44 123.58 104.02 118.36 107.03 119.08 107.45 124.31 104.44"/>
                  <polygon class="cls-23" points="124.27 91.19 123.54 90.77 123.58 104.02 124.31 104.44 124.27 91.19"/>
                  <g class="cls-15">
                    <polygon class="cls-35" points="119.08 97.5 118.35 97.07 118.36 97.69 119.08 98.11 119.08 97.5"/>
                    <polygon class="cls-3" points="124.29 94.49 123.56 94.07 118.35 97.07 119.08 97.5 124.29 94.49"/>
                    <polygon class="cls-6" points="119.03 97.52 119.03 98.14 124.29 95.1 124.29 94.49 119.03 97.52"/>
                  </g>
                  <polygon class="cls-23" points="118.68 93.99 117.96 93.57 118 107.66 118.72 108.08 118.68 93.99"/>
                  <polygon class="cls-3" points="124.63 90.56 123.91 90.14 117.96 93.57 118.68 93.99 124.63 90.56"/>
                  <path class="cls-6" d="M124.67,104.65l-6,3.43,0-14.09,5.95-3.43Zm-5.58,2.8,5.22-3,0-13.25-5.22,3,0,13.24Z"/>
                </g>
                <g>
                  <polygon class="cls-32" points="119.4 72.56 119.43 83.89 130.38 77.57 130.38 66.22 119.4 72.56"/>
                  <polygon class="cls-6" points="130.38 77.57 131 77.21 131 65.86 130.38 66.22 130.38 77.57"/>
                  <polygon class="cls-6" points="131 65.86 131 65.1 118.81 72.14 118.81 72.9 131 65.86"/>
                  <polygon class="cls-6" points="131 77.97 131 77.21 118.81 84.25 118.81 85.01 131 77.97"/>
                  <polygon class="cls-23" points="130.38 77.57 129.78 77.17 129.78 66.56 130.38 66.22 130.38 77.57"/>
                  <polygon class="cls-3" points="130.38 77.57 129.78 77.17 119.43 83.14 119.43 83.89 130.38 77.57"/>
                  <g class="cls-15">
                    <polygon class="cls-36" points="119.22 75.56 118.95 75.4 118.95 76.24 119.22 76.4 119.22 75.56"/>
                    <polygon class="cls-3" points="130.06 69.3 129.78 69.14 118.95 75.4 119.22 75.56 130.06 69.3"/>
                    <polygon class="cls-6" points="119.22 75.56 119.22 76.4 130.06 70.14 130.06 69.3 119.22 75.56"/>
                  </g>
                  <polygon class="cls-6" points="118.81 84.25 119.43 83.89 119.43 72.54 118.81 72.9 118.81 84.25"/>
                  <polygon class="cls-3" points="131 65.1 130.5 64.81 118.3 71.85 118.81 72.14 131 65.1"/>
                  <polygon class="cls-23" points="118.81 72.14 118.3 71.85 118.3 84.72 118.81 85.01 118.81 72.14"/>
                </g>
                <g>
                  <polygon class="cls-11" points="113.76 69.3 75.28 46.94 49.71 80.55 88.2 102.91 113.76 69.3"/>
                  <polygon class="cls-30" points="88.2 102.91 49.71 80.55 50.5 81.5 88.98 103.86 88.2 102.91"/>
                  <polygon class="cls-2" points="113.76 69.3 88.2 102.91 88.98 103.86 113.76 71.29 113.76 69.3"/>
                </g>
              </g>
              <g>
                <g>
                  <polygon class="cls-37" points="136.42 96.57 136.44 101 139.64 102.86 139.63 98.44 136.42 96.57"/>
                  <polygon class="cls-38" points="139.63 98.44 139.64 102.86 142.87 101 142.86 96.57 139.63 98.44"/>
                  <polygon class="cls-39" points="136.42 96.57 139.63 98.44 142.86 96.57 139.65 94.71 136.42 96.57"/>
                </g>
                <g>
                  <polygon class="cls-21" points="137.09 93.75 137.1 96.61 139.63 98.08 139.62 95.21 137.09 93.75"/>
                  <polygon class="cls-10" points="139.62 95.21 139.63 98.08 142.17 96.61 142.16 93.74 139.62 95.21"/>
                  <polygon class="cls-22" points="137.09 93.75 139.62 95.21 142.16 93.74 139.63 92.28 137.09 93.75"/>
                </g>
              </g>
              <g>
                <g>
                  <g>
                    <path class="cls-6" d="M90,125.84,90,134a.64.64,0,0,0,.39.53,2,2,0,0,0,1.86,0,.65.65,0,0,0,.39-.54l0-8.15a.64.64,0,0,1-.38.55,2.12,2.12,0,0,1-1.87,0A.67.67,0,0,1,90,125.84Z"/>
                    <g class="cls-40">
                      <g class="cls-15">
                        <path class="cls-6" d="M90,125.84,90,134h0l0-8.15Z"/>
                        <path class="cls-6" d="M90,125.85,90,134s0,.05,0,.08l0-8.15a.22.22,0,0,1,0-.08Z"/>
                        <path class="cls-6" d="M90,125.93l0,8.15s0,0,0,.07L90,126a.19.19,0,0,1,0-.07Z"/>
                        <path class="cls-6" d="M90,126l0,8.15a.16.16,0,0,0,0,.07l0-8.14a.3.3,0,0,1,0-.08Z"/>
                        <path class="cls-6" d="M90.07,126.08l0,8.14a.22.22,0,0,0,0,.08l0-8.15-.05-.07Z"/>
                        <path class="cls-6" d="M90.12,126.15l0,8.15.08.09,0-8.15-.08-.09Z"/>
                        <path class="cls-6" d="M90.2,126.24l0,8.15a1,1,0,0,0,.17.12l0-8.14a.76.76,0,0,1-.17-.13Z"/>
                        <path class="cls-6" d="M90.37,126.37l0,8.14h0a.9.9,0,0,0,.28.13l0-8.15a1.48,1.48,0,0,1-.29-.12Z"/>
                        <path class="cls-6" d="M90.67,126.5l0,8.15a1.14,1.14,0,0,0,.25.06l0-8.15a1,1,0,0,1-.25-.06Z"/>
                        <path class="cls-6" d="M90.92,126.56l0,8.15.17,0,0-8.15-.17,0Z"/>
                        <path class="cls-6" d="M91.09,126.59l0,8.15h.15l0-8.15Z"/>
                        <path class="cls-6" d="M91.23,126.6l0,8.15h.13l0-8.15Z"/>
                        <path class="cls-6" d="M91.37,126.6l0,8.15h.13l0-8.15Z"/>
                        <path class="cls-6" d="M91.5,126.59l0,8.15h.13l0-8.15Z"/>
                        <path class="cls-6" d="M91.63,126.58l0,8.15.13,0,0-8.15-.13,0Z"/>
                        <path class="cls-6" d="M91.76,126.55l0,8.15.14,0,0-8.15-.14,0Z"/>
                        <path class="cls-6" d="M91.9,126.52l0,8.15a1,1,0,0,0,.16-.06l0-8.14-.16,0Z"/>
                        <path class="cls-6" d="M92.06,126.47l0,8.14a.66.66,0,0,0,.19-.09.65.65,0,0,0,.39-.54l0-8.15a.64.64,0,0,1-.38.55l-.19.09Z"/>
                      </g>
                    </g>
                  </g>
                  <path class="cls-3" d="M90.39,125.3a.57.57,0,0,0,0,1.08,2.12,2.12,0,0,0,1.87,0,.57.57,0,0,0,0-1.08A2,2,0,0,0,90.39,125.3Z"/>
                </g>
                <g>
                  <g>
                    <path class="cls-6" d="M90.47,107.86l0,17.92a.4.4,0,0,0,.24.33,1.25,1.25,0,0,0,1.13,0,.39.39,0,0,0,.23-.33l-.05-17.93a.41.41,0,0,1-.23.33,1.27,1.27,0,0,1-1.14,0A.41.41,0,0,1,90.47,107.86Z"/>
                    <g class="cls-41">
                      <g class="cls-15">
                        <path class="cls-6" d="M90.47,107.86l0,17.92s0,0,0,.06l0-17.93a.11.11,0,0,1,0,0Z"/>
                        <path class="cls-6" d="M90.48,107.91l0,17.93a.41.41,0,0,0,.22.26l-.06-17.93a.4.4,0,0,1-.21-.26Z"/>
                        <path class="cls-6" d="M90.69,108.17l.06,17.93h0l.17.08-.05-17.93-.18-.08Z"/>
                        <path class="cls-6" d="M90.88,108.26l.05,17.93a1.4,1.4,0,0,0,.5,0l-.05-17.93a1.19,1.19,0,0,1-.5,0Z"/>
                        <path class="cls-6" d="M91.38,108.31l.05,17.93a1.12,1.12,0,0,0,.46-.13.39.39,0,0,0,.23-.33l-.05-17.93a.41.41,0,0,1-.23.33,1.12,1.12,0,0,1-.46.13Z"/>
                      </g>
                    </g>
                  </g>
                  <path class="cls-3" d="M90.71,107.52c-.31.19-.32.48,0,.66a1.27,1.27,0,0,0,1.14,0c.31-.18.31-.47,0-.66A1.25,1.25,0,0,0,90.71,107.52Z"/>
                </g>
                <g>
                  <g>
                    <polygon class="cls-42" points="88.61 105.59 88.61 109.13 91.31 110.7 91.3 107.15 88.61 105.59"/>
                    <polygon class="cls-43" points="91.3 107.15 91.31 110.7 94.02 109.13 94.01 105.59 91.3 107.15"/>
                    <polygon class="cls-44" points="88.61 105.59 91.3 107.15 94.01 105.59 91.32 104.02 88.61 105.59"/>
                  </g>
                  <g>
                    <polygon class="cls-23" points="88.09 105.64 88.09 106.01 91.29 107.87 91.29 107.5 88.09 105.64"/>
                    <polygon class="cls-6" points="91.29 107.5 91.29 107.87 94.51 106.01 94.51 105.64 91.29 107.5"/>
                    <polygon class="cls-3" points="88.09 105.64 91.29 107.5 94.51 105.64 91.31 103.78 88.09 105.64"/>
                  </g>
                  <g>
                    <polygon class="cls-6" points="91.56 106.73 93.1 105.84 92.52 104.06 90.99 104.95 91.56 106.73"/>
                    <polygon class="cls-3" points="90.99 104.95 92.52 104.06 91.45 103.44 89.92 104.33 90.99 104.95"/>
                    <polygon class="cls-23" points="89.92 104.33 89.34 105.45 91.56 106.73 90.99 104.95 89.92 104.33"/>
                  </g>
                </g>
              </g>
              <g>
                <polygon class="cls-45" points="103.35 121.59 112.45 116.29 110.03 114.9 100.92 120.19 103.35 121.59"/>
                <polygon class="cls-45" points="112.34 126.78 121.45 121.49 119.8 115.76 110.69 121.05 112.34 126.78"/>
                <polygon class="cls-6" points="112.7 126.25 120.93 121.47 119.44 116.28 111.21 121.07 112.7 126.25"/>
                <polygon class="cls-45" points="110.69 121.05 119.8 115.76 112.47 111.52 103.36 116.81 110.69 121.05"/>
                <polygon class="cls-45" points="116.85 130.56 125.95 125.27 121.45 121.49 112.34 126.78 116.85 130.56"/>
                <polygon class="cls-46" points="117.6 134.7 126.71 129.41 125.95 125.27 116.85 130.56 117.6 134.7"/>
                <polygon class="cls-47" points="103.36 116.81 103.35 121.59 100.92 120.19 100.91 125.07 117.6 134.7 116.85 130.56 112.34 126.78 110.69 121.05 103.36 116.81"/>
                <polygon class="cls-6" points="107.97 123.75 107.97 120.21 110.36 121.59 111.58 125.83 107.97 123.75"/>
                <g>
                  <g>
                    <path class="cls-3" d="M125.51,127l.23.13a.64.64,0,0,0-.64.07l-.23-.14A.66.66,0,0,1,125.51,127Z"/>
                    <g class="cls-48">
                      <g class="cls-15">
                        <path class="cls-3" d="M125.1,127.22l-.23-.14a.76.76,0,0,1,.43-.12l.23.14a.78.78,0,0,0-.43.12Z"/>
                        <path class="cls-3" d="M125.53,127.1l-.23-.14a.65.65,0,0,1,.21.06l.23.13a.46.46,0,0,0-.21-.05Z"/>
                      </g>
                    </g>
                  </g>
                  <g>
                    <path class="cls-6" d="M124.46,129.35l-.23-.13a.65.65,0,0,1-.26-.58,2,2,0,0,1,.9-1.56l.23.14a2,2,0,0,0-.9,1.55A.62.62,0,0,0,124.46,129.35Z"/>
                    <g class="cls-49">
                      <g>
                        <path class="cls-3" d="M124.46,129.35l-.23-.13a.65.65,0,0,1-.26-.58,1.51,1.51,0,0,1,.12-.58l.23.13a1.54,1.54,0,0,0-.12.58.62.62,0,0,0,.26.58Z"/>
                        <path class="cls-3" d="M124.32,128.19l-.23-.13a2.35,2.35,0,0,1,.19-.39l.23.13a3.49,3.49,0,0,0-.19.39Z"/>
                        <path class="cls-3" d="M124.51,127.8l-.23-.13a1.75,1.75,0,0,1,.59-.59l.23.14a1.81,1.81,0,0,0-.59.58Z"/>
                      </g>
                    </g>
                  </g>
                  <path class="cls-23" d="M125.1,127.22c.49-.29.9-.06.9.51a2,2,0,0,1-.9,1.56c-.49.28-.9.05-.9-.52A2,2,0,0,1,125.1,127.22Z"/>
                  <path class="cls-45" d="M125.1,127.48c.37-.21.67,0,.67.38a1.47,1.47,0,0,1-.67,1.16c-.37.22-.67,0-.67-.38A1.47,1.47,0,0,1,125.1,127.48Z"/>
                </g>
                <g>
                  <g>
                    <path class="cls-3" d="M119.6,130.48l.23.13a.64.64,0,0,0-.64.07l-.23-.14A.63.63,0,0,1,119.6,130.48Z"/>
                    <g class="cls-50">
                      <g class="cls-15">
                        <path class="cls-3" d="M119.19,130.68l-.23-.14a.78.78,0,0,1,.43-.12l.23.13a.81.81,0,0,0-.43.13Z"/>
                        <path class="cls-3" d="M119.62,130.55l-.23-.13a.47.47,0,0,1,.21.06l.23.13a.65.65,0,0,0-.21-.06Z"/>
                      </g>
                    </g>
                  </g>
                  <g>
                    <path class="cls-6" d="M118.55,132.81l-.23-.14a.62.62,0,0,1-.26-.57,2,2,0,0,1,.9-1.56l.23.14a2,2,0,0,0-.9,1.55A.65.65,0,0,0,118.55,132.81Z"/>
                    <g class="cls-51">
                      <g>
                        <path class="cls-3" d="M118.55,132.81l-.23-.14a.62.62,0,0,1-.26-.57,1.51,1.51,0,0,1,.12-.58l.23.13a1.51,1.51,0,0,0-.12.58.65.65,0,0,0,.26.58Z"/>
                        <path class="cls-3" d="M118.41,131.65l-.23-.13a2.35,2.35,0,0,1,.19-.39l.23.13a2.81,2.81,0,0,0-.19.39Z"/>
                        <path class="cls-3" d="M118.6,131.26l-.23-.13a1.75,1.75,0,0,1,.59-.59l.23.14a1.72,1.72,0,0,0-.59.58Z"/>
                      </g>
                    </g>
                  </g>
                  <path class="cls-23" d="M119.19,130.68c.49-.29.9-.06.9.51a2,2,0,0,1-.9,1.55c-.49.29-.9.06-.9-.51A2,2,0,0,1,119.19,130.68Z"/>
                  <path class="cls-45" d="M119.19,130.94c.37-.22.67,0,.67.38a1.47,1.47,0,0,1-.67,1.16c-.37.22-.67.05-.67-.38A1.47,1.47,0,0,1,119.19,130.94Z"/>
                </g>
                <g>
                  <g>
                    <path class="cls-3" d="M112.24,130.79l.64-.38a1.05,1.05,0,0,1,1,.1l-.64.38A1,1,0,0,0,112.24,130.79Z"/>
                    <g class="cls-52">
                      <g class="cls-15">
                        <path class="cls-3" d="M112.24,130.79l.64-.38a.83.83,0,0,1,.45-.09l-.64.37a.75.75,0,0,0-.45.1Z"/>
                        <path class="cls-3" d="M112.69,130.69l.64-.37a1.21,1.21,0,0,1,.31.06l-.65.38a1.18,1.18,0,0,0-.3-.07Z"/>
                        <path class="cls-3" d="M113,130.76l.65-.38.28.13-.64.38a1.23,1.23,0,0,0-.29-.13Z"/>
                      </g>
                    </g>
                  </g>
                  <g>
                    <path class="cls-3" d="M115,134l-.64.38a1,1,0,0,0,.42-.94,3.18,3.18,0,0,0-1.45-2.52l.64-.38a3.23,3.23,0,0,1,1.46,2.53A1,1,0,0,1,115,134Z"/>
                    <g class="cls-53">
                      <g class="cls-15">
                        <path class="cls-3" d="M113.28,130.89l.64-.38h0l-.64.38Z"/>
                        <path class="cls-3" d="M113.29,130.9l.64-.38a2.35,2.35,0,0,1,.32.23l-.64.37a2.27,2.27,0,0,0-.32-.22Z"/>
                        <path class="cls-3" d="M113.61,131.12l.64-.37a2.91,2.91,0,0,1,.31.3l-.64.38a3,3,0,0,0-.31-.31Z"/>
                        <path class="cls-3" d="M113.92,131.43l.64-.38a3.43,3.43,0,0,1,.56.89l-.64.38a3.53,3.53,0,0,0-.56-.89Z"/>
                        <path class="cls-3" d="M114.48,132.32l.64-.38a2.67,2.67,0,0,1,.14.36l-.64.38a3.84,3.84,0,0,0-.14-.36Z"/>
                        <path class="cls-3" d="M114.62,132.68l.64-.38a2.74,2.74,0,0,1,.09.39l-.64.37a2.34,2.34,0,0,0-.09-.38Z"/>
                        <path class="cls-3" d="M114.71,133.06l.64-.37a2,2,0,0,1,0,.35h0l-.65.38h0c0-.11,0-.23,0-.35Z"/>
                        <path class="cls-3" d="M114.73,133.42l.65-.38a1.78,1.78,0,0,1,0,.35l-.64.38a2,2,0,0,0,0-.35Z"/>
                        <path class="cls-3" d="M114.7,133.77l.64-.38a.82.82,0,0,1-.39.58l-.64.38a.89.89,0,0,0,.39-.58Z"/>
                      </g>
                    </g>
                  </g>
                  <path class="cls-6" d="M113.28,130.89a3.18,3.18,0,0,1,1.45,2.52c0,.93-.66,1.3-1.46.84a3.23,3.23,0,0,1-1.46-2.53C111.82,130.8,112.47,130.42,113.28,130.89Z"/>
                  <path class="cls-54" d="M113.28,131.46a2.13,2.13,0,0,1,1,1.66c0,.62-.44.86-1,.56a2.15,2.15,0,0,1-1-1.67C112.31,131.4,112.74,131.15,113.28,131.46Z"/>
                </g>
                <g>
                  <g>
                    <path class="cls-3" d="M101.57,124.64l.64-.38a1,1,0,0,1,1,.11l-.64.37A1,1,0,0,0,101.57,124.64Z"/>
                    <g class="cls-55">
                      <g class="cls-15">
                        <path class="cls-3" d="M101.57,124.64l.64-.38a.83.83,0,0,1,.45-.09l-.64.37a.75.75,0,0,0-.45.1Z"/>
                        <path class="cls-3" d="M102,124.54l.64-.37a1.21,1.21,0,0,1,.31.06l-.64.38a1.25,1.25,0,0,0-.31-.07Z"/>
                        <path class="cls-3" d="M102.33,124.61l.64-.38a1.83,1.83,0,0,1,.28.14l-.64.37a1.38,1.38,0,0,0-.28-.13Z"/>
                      </g>
                    </g>
                  </g>
                  <g>
                    <path class="cls-3" d="M104.28,127.83l-.64.37a1,1,0,0,0,.43-.94,3.21,3.21,0,0,0-1.46-2.52l.64-.37a3.19,3.19,0,0,1,1.46,2.52A1,1,0,0,1,104.28,127.83Z"/>
                    <g class="cls-56">
                      <g class="cls-15">
                        <path class="cls-3" d="M102.61,124.74l.64-.37h0l-.64.38Z"/>
                        <path class="cls-3" d="M102.63,124.75l.64-.38a2.26,2.26,0,0,1,.31.23l-.64.37a3,3,0,0,0-.31-.22Z"/>
                        <path class="cls-3" d="M102.94,125l.64-.37a2.91,2.91,0,0,1,.31.3l-.64.38a3,3,0,0,0-.31-.31Z"/>
                        <path class="cls-3" d="M103.25,125.28l.64-.38a3.75,3.75,0,0,1,.57.89l-.65.38a3.27,3.27,0,0,0-.56-.89Z"/>
                        <path class="cls-3" d="M103.81,126.17l.65-.38a2.6,2.6,0,0,1,.13.36l-.64.38a2.67,2.67,0,0,0-.14-.36Z"/>
                        <path class="cls-3" d="M104,126.53l.64-.38a2.74,2.74,0,0,1,.09.39l-.64.37a2.62,2.62,0,0,0-.09-.38Z"/>
                        <path class="cls-3" d="M104,126.91l.64-.37a2.07,2.07,0,0,1,0,.35h0l-.64.38h0a2.16,2.16,0,0,0,0-.35Z"/>
                        <path class="cls-3" d="M104.07,127.27l.64-.38a1.25,1.25,0,0,1,0,.35l-.64.38a2,2,0,0,0,0-.35Z"/>
                        <path class="cls-3" d="M104,127.62l.64-.38a.86.86,0,0,1-.39.59l-.64.37a.86.86,0,0,0,.39-.58Z"/>
                      </g>
                    </g>
                  </g>
                  <path class="cls-6" d="M102.61,124.74a3.21,3.21,0,0,1,1.46,2.52c0,.93-.66,1.3-1.47.84a3.19,3.19,0,0,1-1.45-2.52C101.15,124.65,101.8,124.27,102.61,124.74Z"/>
                  <path class="cls-54" d="M102.61,125.31a2.13,2.13,0,0,1,1,1.67c0,.61-.43.85-1,.55a2.15,2.15,0,0,1-1-1.67C101.64,125.25,102.08,125,102.61,125.31Z"/>
                </g>
              </g>
              <g>
                <g>
                  <path class="cls-4" d="M101.22,113.71l2.41,1.4a1.08,1.08,0,0,0-1.08.1l-2.41-1.4A1.08,1.08,0,0,1,101.22,113.71Z"/>
                  <g class="cls-57">
                    <g class="cls-15">
                      <path class="cls-4" d="M102.55,115.21l-2.41-1.4.21-.1,2.41,1.4-.21.1Z"/>
                      <path class="cls-4" d="M102.76,115.11l-2.41-1.4.18-.07,2.41,1.4-.18.07Z"/>
                      <path class="cls-4" d="M102.94,115l-2.41-1.4.14,0,2.41,1.4-.14,0Z"/>
                      <path class="cls-4" d="M103.08,115l-2.41-1.4.11,0,2.41,1.4-.11,0Z"/>
                      <path class="cls-4" d="M103.19,115l-2.41-1.4h.1l2.41,1.4Z"/>
                      <path class="cls-4" d="M103.29,115l-2.41-1.4H101l2.41,1.4Z"/>
                      <path class="cls-4" d="M103.38,115l-2.41-1.4.09,0,2.41,1.4-.09,0Z"/>
                      <path class="cls-4" d="M103.47,115l-2.41-1.4.08,0,2.41,1.4-.08,0Z"/>
                      <path class="cls-4" d="M103.55,115.06l-2.41-1.4.08,0,2.4,1.4-.07,0Z"/>
                      <polygon class="cls-4" points="103.63 115.1 101.22 113.7 101.22 113.71 103.63 115.11 103.63 115.1 103.63 115.1"/>
                    </g>
                  </g>
                </g>
                <g class="cls-15">
                  <g class="cls-15">
                    <g class="cls-58">
                      <g class="cls-15">
                        <path class="cls-59" d="M86.91,132.74l-.06,20.07a.13.13,0,0,1,0,.06l.06-20.06s0,0,0-.07Z"/>
                        <path class="cls-60" d="M86.9,132.81l-.06,20.06a.54.54,0,0,1-.28.35l.06-20.06a.57.57,0,0,0,.28-.35Z"/>
                        <path class="cls-61" d="M86.62,133.16l-.06,20.06h0l-.23.1.06-20.07a.94.94,0,0,0,.23-.1Z"/>
                        <path class="cls-60" d="M86.38,133.26l-.06,20.07a2,2,0,0,1-.65.07l.06-20.07a1.57,1.57,0,0,0,.65-.07Z"/>
                        <path class="cls-59" d="M85.73,133.33l-.06,20.07a1.51,1.51,0,0,1-.58-.17.53.53,0,0,1-.31-.43l.06-20.06a.51.51,0,0,0,.3.42,1.31,1.31,0,0,0,.59.17Z"/>
                      </g>
                    </g>
                  </g>
                  <path class="cls-62" d="M86.6,132.32c.41.23.41.61,0,.84a1.59,1.59,0,0,1-1.47,0,.44.44,0,0,1,0-.84A1.57,1.57,0,0,1,86.6,132.32Z"/>
                </g>
                <g class="cls-15">
                  <g class="cls-15">
                    <g class="cls-63">
                      <g class="cls-15">
                        <path class="cls-59" d="M101.34,124.27l0,20.07s0,0,0,.06l.06-20.06v-.07Z"/>
                        <path class="cls-60" d="M101.34,124.34l-.06,20.06a.54.54,0,0,1-.28.35l.06-20.06a.57.57,0,0,0,.28-.35Z"/>
                        <path class="cls-61" d="M101.06,124.69,101,144.75h0l-.23.1.06-20.07a.74.74,0,0,0,.22-.1Z"/>
                        <path class="cls-60" d="M100.82,124.79l-.06,20.07a2,2,0,0,1-.65.07l.06-20.07a1.57,1.57,0,0,0,.65-.07Z"/>
                        <path class="cls-59" d="M100.17,124.86l-.06,20.07a1.51,1.51,0,0,1-.58-.17.53.53,0,0,1-.31-.43l.06-20.06a.51.51,0,0,0,.3.42,1.31,1.31,0,0,0,.59.17Z"/>
                      </g>
                    </g>
                  </g>
                  <path class="cls-62" d="M101,123.85c.4.23.41.61,0,.84a1.57,1.57,0,0,1-1.46,0c-.4-.23-.41-.61,0-.84A1.57,1.57,0,0,1,101,123.85Z"/>
                </g>
                <g>
                  <path class="cls-5" d="M81.88,138.55l-2.41-1.4a1.08,1.08,0,0,1-.44-1l2.41,1.4A1.08,1.08,0,0,0,81.88,138.55Z"/>
                  <g class="cls-64">
                    <g class="cls-15">
                      <path class="cls-5" d="M81.88,138.55l-2.41-1.4a1.08,1.08,0,0,1-.44-1l2.41,1.4a1.08,1.08,0,0,0,.44,1Z"/>
                    </g>
                  </g>
                </g>
                <polygon class="cls-5" points="81.44 137.57 79.03 136.17 79 127.77 81.41 129.17 81.44 137.57"/>
                <polygon class="cls-4" points="82.93 126.54 80.53 125.14 100.14 113.81 102.55 115.21 82.93 126.54"/>
                <g>
                  <path class="cls-4" d="M81.41,129.17,79,127.77a3.33,3.33,0,0,1,1.53-2.63l2.4,1.4A3.35,3.35,0,0,0,81.41,129.17Z"/>
                  <g class="cls-65">
                    <g class="cls-15">
                      <path class="cls-4" d="M81.41,129.17,79,127.77c0-.09,0-.2,0-.3l2.41,1.4c0,.1,0,.21,0,.3Z"/>
                      <path class="cls-4" d="M81.43,128.87,79,127.47a1.55,1.55,0,0,1,0-.21l2.41,1.4a1.55,1.55,0,0,0,0,.21Z"/>
                      <path class="cls-4" d="M81.47,128.66l-2.41-1.4c0-.06,0-.12,0-.17l2.41,1.4a.85.85,0,0,0,0,.17Z"/>
                      <path class="cls-4" d="M81.51,128.49l-2.41-1.4c0-.06,0-.11.05-.16l2.41,1.4a.75.75,0,0,0,0,.16Z"/>
                      <path class="cls-4" d="M81.56,128.33l-2.41-1.4a.58.58,0,0,1,0-.14l2.41,1.4a.58.58,0,0,0,0,.14Z"/>
                      <path class="cls-4" d="M81.61,128.19l-2.41-1.4.06-.14,2.41,1.4-.06.14Z"/>
                      <path class="cls-4" d="M81.67,128.05l-2.41-1.4.06-.13,2.41,1.4a.52.52,0,0,0-.06.13Z"/>
                      <path class="cls-4" d="M81.73,127.92l-2.41-1.4.06-.13,2.41,1.4-.06.13Z"/>
                      <path class="cls-4" d="M81.79,127.79l-2.41-1.4.07-.13,2.41,1.4s0,.08-.07.13Z"/>
                      <path class="cls-4" d="M81.86,127.66l-2.41-1.4.08-.13,2.41,1.4-.08.13Z"/>
                      <path class="cls-4" d="M81.94,127.53l-2.41-1.4.09-.13L82,127.4l-.09.13Z"/>
                      <path class="cls-4" d="M82,127.4,79.62,126l.1-.14,2.41,1.4-.1.14Z"/>
                      <path class="cls-4" d="M82.13,127.26l-2.41-1.4.13-.15,2.41,1.4-.13.15Z"/>
                      <path class="cls-4" d="M82.26,127.11l-2.41-1.4.16-.18,2.41,1.4-.16.18Z"/>
                      <path class="cls-4" d="M82.42,126.93,80,125.53a2.36,2.36,0,0,1,.52-.39l2.4,1.4a2.31,2.31,0,0,0-.51.39Z"/>
                    </g>
                  </g>
                </g>
                <path class="cls-33" d="M102.55,115.21c.53-.3,1-.27,1.3.09l2.24,2.92a1.92,1.92,0,0,1,0,1.82l-2.21,5.48a3.33,3.33,0,0,1-1.3,1.6L83,138.44c-.85.49-1.53.09-1.53-.87l0-8.4a3.35,3.35,0,0,1,1.52-2.63Z"/>
                <path class="cls-66" d="M101.75,116.28a.87.87,0,0,1,1.19.08l2,2.65a1.75,1.75,0,0,1,0,1.65l-2,5a3,3,0,0,1-1.18,1.45L84,137.37c-.77.45-1.39.09-1.39-.79l0-7.62a3.07,3.07,0,0,1,1.39-2.4Z"/>
                <g>
                  <polygon class="cls-9" points="83.7 136.32 85.56 135.27 85.57 133.19 84.7 133.69 84.7 132.66 85.31 132.32 85.31 130.22 84.7 130.57 84.7 129.53 85.58 129.03 85.58 126.91 83.7 128 83.7 136.32"/>
                  <polygon class="cls-9" points="87.13 128.84 86.61 126.32 85.89 126.74 85.87 135.1 86.86 134.54 86.87 132.02 87.34 134.32 88.1 133.89 88.16 125.44 87.15 126.02 87.13 128.84"/>
                  <polygon class="cls-9" points="90.72 126.77 90.48 124.1 89.47 124.69 90.18 132.66 91.16 132.11 92.01 123.22 91 123.81 90.72 126.77"/>
                  <polygon class="cls-9" points="92.16 131.54 94.06 130.47 94.09 128.36 93.2 128.86 93.21 127.82 93.83 127.47 93.86 125.34 93.24 125.69 93.26 124.64 94.15 124.13 94.18 121.98 92.26 123.08 92.16 131.54"/>
                  <polygon class="cls-9" points="95.72 123.93 95.22 121.38 94.49 121.8 94.36 130.29 95.38 129.72 95.42 127.16 95.87 129.5 96.64 129.06 96.8 120.47 95.77 121.06 95.72 123.93"/>
                  <polygon class="cls-9" points="99.15 119.12 97.08 120.31 97.02 123.79 97.53 123.49 97.44 128.56 98.45 127.98 98.56 122.91 99.08 122.61 99.15 119.12"/>
                  <path class="cls-9" d="M101.31,117.88l-1.48.85-1,9,1-.59.16-1.52.75-.42.1,1.37,1-.58Zm-1.07,5.68.24-2.21.14,2Z"/>
                </g>
                <text/>              </g>
            </g>
          </g>
        </g>
        <path class="cls-67" d="M101,10a91,91,0,1,1-91,91,91.06,91.06,0,0,1,91-91m0-10a101,101,0,1,0,101,101A101,101,0,0,0,101,0Z"/>
      </g>
    </g>
  </g>
</svg>
