<svg xmlns="http://www.w3.org/2000/svg" xmlns:xlink="http://www.w3.org/1999/xlink" width="201.92" height="201.92" viewBox="0 0 201.92 201.92">
  <defs>
    <style>
      .cls-1 {
        fill: none;
      }

      .cls-2 {
        isolation: isolate;
      }

      .cls-3 {
        fill: url(#linear-gradient);
      }

      .cls-4 {
        clip-path: url(#clip-path);
      }

      .cls-5 {
        fill: url(#linear-gradient-2);
      }

      .cls-6 {
        opacity: 0.28;
      }

      .cls-7 {
        fill: #91b3fa;
      }

      .cls-8 {
        opacity: 0.68;
      }

      .cls-11, .cls-9 {
        fill: #fff;
      }

      .cls-9 {
        mix-blend-mode: soft-light;
      }

      .cls-10 {
        fill: url(#linear-gradient-3);
      }

      .cls-12 {
        fill: #7d97f4;
      }

      .cls-13 {
        fill: url(#linear-gradient-4);
      }

      .cls-14 {
        fill: url(#linear-gradient-5);
      }

      .cls-15 {
        fill: url(#linear-gradient-6);
      }

      .cls-16 {
        fill: url(#linear-gradient-7);
      }

      .cls-17 {
        fill: url(#linear-gradient-8);
      }

      .cls-18 {
        fill: url(#linear-gradient-9);
      }

      .cls-19 {
        fill: url(#linear-gradient-10);
      }

      .cls-20 {
        fill: url(#linear-gradient-11);
      }

      .cls-21 {
        fill: url(#linear-gradient-12);
      }

      .cls-22 {
        fill: url(#linear-gradient-13);
      }

      .cls-23 {
        fill: url(#linear-gradient-14);
      }

      .cls-24 {
        fill: url(#linear-gradient-15);
      }

      .cls-25 {
        fill: url(#linear-gradient-16);
      }

      .cls-26 {
        fill: url(#linear-gradient-17);
      }

      .cls-27 {
        fill: url(#linear-gradient-18);
      }

      .cls-28 {
        fill: url(#linear-gradient-19);
      }

      .cls-29 {
        fill: url(#linear-gradient-20);
      }

      .cls-30 {
        fill: url(#linear-gradient-21);
      }

      .cls-31 {
        fill: url(#linear-gradient-22);
      }

      .cls-32 {
        fill: url(#linear-gradient-23);
      }

      .cls-33 {
        fill: url(#linear-gradient-24);
      }

      .cls-34 {
        fill: url(#linear-gradient-25);
      }

      .cls-35 {
        fill: url(#linear-gradient-26);
      }

      .cls-36 {
        fill: url(#linear-gradient-27);
      }

      .cls-37 {
        fill: url(#linear-gradient-28);
      }

      .cls-38 {
        fill: url(#linear-gradient-29);
      }

      .cls-39 {
        fill: url(#linear-gradient-30);
      }

      .cls-40 {
        fill: url(#linear-gradient-31);
      }

      .cls-41 {
        fill: url(#linear-gradient-32);
      }

      .cls-42 {
        fill: url(#linear-gradient-33);
      }

      .cls-43 {
        fill: url(#linear-gradient-34);
      }

      .cls-44 {
        fill: url(#linear-gradient-35);
      }

      .cls-45 {
        fill: url(#linear-gradient-36);
      }

      .cls-46 {
        fill: url(#linear-gradient-37);
      }

      .cls-47 {
        fill: url(#linear-gradient-38);
      }

      .cls-48 {
        fill: url(#linear-gradient-39);
      }

      .cls-49 {
        fill: url(#linear-gradient-40);
      }

      .cls-50 {
        fill: url(#linear-gradient-41);
      }

      .cls-51 {
        fill: url(#linear-gradient-42);
      }

      .cls-52 {
        fill: url(#linear-gradient-43);
      }

      .cls-53 {
        fill: url(#linear-gradient-44);
      }

      .cls-54 {
        fill: url(#linear-gradient-45);
      }

      .cls-55 {
        fill: url(#linear-gradient-46);
      }

      .cls-56 {
        fill: url(#linear-gradient-47);
      }

      .cls-57 {
        fill: url(#linear-gradient-48);
      }

      .cls-58 {
        fill: #3a0ca3;
      }
    </style>
    <linearGradient id="linear-gradient" x1="100.96" y1="201.92" x2="100.96" gradientUnits="userSpaceOnUse">
      <stop offset="0" stop-color="#f72585"/>
      <stop offset="1" stop-color="#b5179e"/>
    </linearGradient>
    <clipPath id="clip-path">
      <circle class="cls-1" cx="100.96" cy="100.96" r="100.96"/>
    </clipPath>
    <linearGradient id="linear-gradient-2" x1="61.97" y1="180.27" x2="119.95" y2="66.6" gradientTransform="translate(198.8 -5.79) rotate(87.49)" gradientUnits="userSpaceOnUse">
      <stop offset="0" stop-color="#4042e2"/>
      <stop offset="1" stop-color="#4f52ff"/>
    </linearGradient>
    <linearGradient id="linear-gradient-3" x1="100.62" y1="81.13" x2="70.66" y2="129.52" gradientUnits="userSpaceOnUse">
      <stop offset="0" stop-color="#fe7062"/>
      <stop offset="1" stop-color="#ff928e"/>
    </linearGradient>
    <linearGradient id="linear-gradient-4" x1="-5367.53" y1="61.37" x2="-5371.71" y2="64.01" gradientTransform="matrix(1, 0, 0, -1, 5480.54, 194.9)" gradientUnits="userSpaceOnUse">
      <stop offset="0" stop-color="#09005d"/>
      <stop offset="1" stop-color="#1a0f91"/>
    </linearGradient>
    <linearGradient id="linear-gradient-5" x1="-5423.26" y1="98.81" x2="-5417.44" y2="111.13" gradientTransform="matrix(1, 0, 0, -1, 5480.61, 191.62)" gradientUnits="userSpaceOnUse">
      <stop offset="0" stop-color="#233894"/>
      <stop offset="1" stop-color="#dd397a"/>
    </linearGradient>
    <linearGradient id="linear-gradient-6" x1="-5367.11" y1="62.04" x2="-5371.28" y2="64.68" gradientTransform="matrix(1, 0, 0, -1, 5483.05, 198.36)" xlink:href="#linear-gradient-4"/>
    <linearGradient id="linear-gradient-7" x1="-5365.69" y1="64.29" x2="-5369.86" y2="66.93" gradientTransform="matrix(1, 0, 0, -1, 5473.08, 198.36)" xlink:href="#linear-gradient-4"/>
    <linearGradient id="linear-gradient-8" x1="55.66" y1="98.18" x2="43.04" y2="107.83" gradientTransform="translate(105.19 201.05) rotate(-180)" xlink:href="#linear-gradient-2"/>
    <linearGradient id="linear-gradient-9" x1="56.15" y1="98.82" x2="43.52" y2="108.46" gradientTransform="translate(107.82 201.05) rotate(-180)" xlink:href="#linear-gradient-2"/>
    <linearGradient id="linear-gradient-10" x1="56.72" y1="99.57" x2="44.1" y2="109.22" gradientTransform="translate(110.95 201.05) rotate(-180)" xlink:href="#linear-gradient-2"/>
    <linearGradient id="linear-gradient-11" x1="57.21" y1="100.2" x2="44.59" y2="109.85" gradientTransform="translate(113.58 201.05) rotate(-180)" xlink:href="#linear-gradient-2"/>
    <linearGradient id="linear-gradient-12" x1="58.47" y1="101.86" x2="45.85" y2="111.5" gradientTransform="translate(106.09 212.01) rotate(-180)" xlink:href="#linear-gradient-2"/>
    <linearGradient id="linear-gradient-13" x1="58.96" y1="102.49" x2="46.34" y2="112.14" gradientTransform="translate(108.72 212.01) rotate(-180)" xlink:href="#linear-gradient-2"/>
    <linearGradient id="linear-gradient-14" x1="59.53" y1="103.25" x2="46.91" y2="112.89" gradientTransform="translate(111.85 212.01) rotate(-180)" xlink:href="#linear-gradient-2"/>
    <linearGradient id="linear-gradient-15" x1="60.02" y1="103.88" x2="47.4" y2="113.53" gradientTransform="translate(114.48 212.01) rotate(-180)" xlink:href="#linear-gradient-2"/>
    <linearGradient id="linear-gradient-16" x1="46.92" y1="110.36" x2="78.87" y2="110.36" gradientUnits="userSpaceOnUse">
      <stop offset="0" stop-color="#ff928e"/>
      <stop offset="1" stop-color="#feb3b1"/>
    </linearGradient>
    <linearGradient id="linear-gradient-17" x1="78.5" y1="79.29" x2="68.42" y2="97.58" gradientTransform="matrix(1, 0, 0, 1, 0, 0)" xlink:href="#linear-gradient-4"/>
    <linearGradient id="linear-gradient-18" x1="106.39" y1="68.15" x2="112.25" y2="54.36" gradientTransform="matrix(1, 0, 0, 1, 0, 0)" xlink:href="#linear-gradient-4"/>
    <linearGradient id="linear-gradient-19" x1="125.22" y1="41.08" x2="110.25" y2="50.73" gradientTransform="matrix(1, 0, 0, 1, 0, 0)" xlink:href="#linear-gradient-4"/>
    <linearGradient id="linear-gradient-20" x1="115.57" y1="46.63" x2="98.69" y2="86.68" gradientTransform="matrix(1, 0, 0, 1, 0, 0)" xlink:href="#linear-gradient-4"/>
    <linearGradient id="linear-gradient-21" x1="105.78" y1="63.17" x2="115.25" y2="35.23" xlink:href="#linear-gradient-3"/>
    <linearGradient id="linear-gradient-22" x1="106.68" y1="63.47" x2="116.14" y2="35.53" xlink:href="#linear-gradient-3"/>
    <linearGradient id="linear-gradient-23" x1="109.44" y1="42.72" x2="111.23" y2="38.51" xlink:href="#linear-gradient-3"/>
    <linearGradient id="linear-gradient-24" x1="109.46" y1="42.52" x2="110.91" y2="39.09" xlink:href="#linear-gradient-16"/>
    <linearGradient id="linear-gradient-25" x1="104.55" y1="58.47" x2="106.43" y2="54.03" xlink:href="#linear-gradient-3"/>
    <linearGradient id="linear-gradient-26" x1="104.6" y1="58.35" x2="106.25" y2="54.46" xlink:href="#linear-gradient-16"/>
    <linearGradient id="linear-gradient-27" x1="113.57" y1="58.47" x2="115.45" y2="54.03" xlink:href="#linear-gradient-3"/>
    <linearGradient id="linear-gradient-28" x1="113.62" y1="58.35" x2="115.27" y2="54.46" xlink:href="#linear-gradient-16"/>
    <linearGradient id="linear-gradient-29" x1="129.69" y1="105.91" x2="131.71" y2="125.69" xlink:href="#linear-gradient-3"/>
    <linearGradient id="linear-gradient-30" x1="105.88" y1="112.88" x2="153.76" y2="112.88" xlink:href="#linear-gradient-16"/>
    <linearGradient id="linear-gradient-31" x1="117.49" y1="100.86" x2="104.43" y2="121.11" xlink:href="#linear-gradient-3"/>
    <linearGradient id="linear-gradient-32" x1="114.24" y1="111.52" x2="102.72" y2="129.47" xlink:href="#linear-gradient-3"/>
    <linearGradient id="linear-gradient-33" x1="126.94" y1="119.38" x2="135.96" y2="119.38" xlink:href="#linear-gradient-3"/>
    <linearGradient id="linear-gradient-34" x1="128.39" y1="118.33" x2="119.27" y2="128.99" xlink:href="#linear-gradient-16"/>
    <linearGradient id="linear-gradient-35" x1="134.83" y1="99.11" x2="134.73" y2="110.05" xlink:href="#linear-gradient-16"/>
    <linearGradient id="linear-gradient-36" x1="103.01" y1="113.93" x2="90.34" y2="121.22" xlink:href="#linear-gradient-3"/>
    <linearGradient id="linear-gradient-37" x1="322.15" y1="317.87" x2="343.46" y2="297.9" gradientTransform="matrix(1, 0, 0, 1, -220.68, -183.99)" xlink:href="#linear-gradient-4"/>
    <linearGradient id="linear-gradient-38" x1="323.05" y1="318.83" x2="344.36" y2="298.87" gradientTransform="translate(-220.78 -184.07) rotate(-0.01)" xlink:href="#linear-gradient-4"/>
    <linearGradient id="linear-gradient-39" x1="323.8" y1="319.63" x2="345.11" y2="299.66" gradientTransform="translate(-220.92 -184.13) rotate(-0.02)" xlink:href="#linear-gradient-4"/>
    <linearGradient id="linear-gradient-40" x1="324.54" y1="320.42" x2="345.85" y2="300.46" gradientTransform="translate(-220.86 -184.4) rotate(-0.01)" xlink:href="#linear-gradient-4"/>
    <linearGradient id="linear-gradient-41" x1="325.44" y1="321.38" x2="346.75" y2="301.41" gradientTransform="translate(-220.99 -184.48) rotate(-0.02)" xlink:href="#linear-gradient-4"/>
    <linearGradient id="linear-gradient-42" x1="326.26" y1="322.26" x2="347.58" y2="302.29" gradientTransform="translate(-220.84 -184.86) rotate(0.01)" xlink:href="#linear-gradient-4"/>
    <linearGradient id="linear-gradient-43" x1="327.01" y1="323.05" x2="348.32" y2="303.09" gradientTransform="matrix(1, 0, 0, 1, -220.89, -185.04)" xlink:href="#linear-gradient-4"/>
    <linearGradient id="linear-gradient-44" x1="327.84" y1="323.94" x2="349.15" y2="303.97" gradientTransform="translate(-220.92 -185.19) rotate(0.01)" xlink:href="#linear-gradient-4"/>
    <linearGradient id="linear-gradient-45" x1="328.66" y1="324.81" x2="349.97" y2="304.85" gradientTransform="translate(-221.11 -185.17) rotate(-0.02)" xlink:href="#linear-gradient-4"/>
    <linearGradient id="linear-gradient-46" x1="329.4" y1="325.61" x2="350.71" y2="305.64" gradientTransform="matrix(1, 0, 0, 1, -221.01, -185.52)" xlink:href="#linear-gradient-4"/>
    <linearGradient id="linear-gradient-47" x1="330.23" y1="326.49" x2="351.54" y2="306.52" gradientTransform="translate(-221.02 -185.69) rotate(0.01)" xlink:href="#linear-gradient-4"/>
    <linearGradient id="linear-gradient-48" x1="332.16" y1="328.55" x2="353.47" y2="308.59" gradientTransform="translate(-244.23 -154.66) rotate(-4.73)" xlink:href="#linear-gradient-4"/>
  </defs>
  <g class="cls-2">
    <g id="Capa_2" data-name="Capa 2">
      <g id="Capa_1-2" data-name="Capa 1">
        <g>
          <circle class="cls-3" cx="100.96" cy="100.96" r="100.96"/>
          <g class="cls-4">
            <g>
              <g>
                <ellipse class="cls-5" cx="102.42" cy="100.96" rx="62.43" ry="67.38" transform="translate(-2.93 198.86) rotate(-87.49)"/>
                <g class="cls-6">
                  <ellipse class="cls-7" cx="98.98" cy="96.32" rx="52.88" ry="49.95"/>
                </g>
                <g class="cls-8">
                  <path class="cls-9" d="M119.64,101.26a188.9,188.9,0,0,1-2.71,32.9c-.49,2.71-1.06,5.41-1.74,8.08a77.67,77.67,0,0,1-2.43,7.91,37.79,37.79,0,0,1-3.62,7.46,15.22,15.22,0,0,1-2.72,3.17,8.1,8.1,0,0,1-1.78,1.15,5.51,5.51,0,0,1-2.08.49,5.19,5.19,0,0,1-2.1-.39A7.24,7.24,0,0,1,98.64,161a14,14,0,0,1-2.78-3.13,36,36,0,0,1-3.68-7.43,77.6,77.6,0,0,1-2.45-7.9c-.69-2.67-1.26-5.36-1.76-8.08C87,129,86.31,123.52,85.86,118s-.68-11-.71-16.51c0-2.75.06-5.51.16-8.26s.25-5.5.46-8.25c.4-5.49,1-11,1.92-16.4.45-2.72,1-5.42,1.62-8.1a76,76,0,0,1,2.3-7.95c.46-1.3,1-2.58,1.54-3.84a28.49,28.49,0,0,1,2-3.64,13.57,13.57,0,0,1,2.71-3.14,7.18,7.18,0,0,1,1.8-1.08,5,5,0,0,1,2.07-.36,5.52,5.52,0,0,1,2,.47,8.11,8.11,0,0,1,1.77,1.11,15.12,15.12,0,0,1,2.78,3.09,37.59,37.59,0,0,1,3.81,7.34,74.37,74.37,0,0,1,2.6,7.85c.74,2.65,1.36,5.34,1.9,8A172.54,172.54,0,0,1,119.64,101.26Zm-.82,0c0-5.48-.2-11-.65-16.44A157.2,157.2,0,0,0,116,68.51c-.5-2.69-1.09-5.37-1.79-8a76.68,76.68,0,0,0-2.51-7.83A37.41,37.41,0,0,0,108,45.35a14.76,14.76,0,0,0-2.69-3.05,7.58,7.58,0,0,0-1.7-1.09,4.85,4.85,0,0,0-1.94-.47,4.56,4.56,0,0,0-2,.37,6.79,6.79,0,0,0-1.72,1,13.27,13.27,0,0,0-2.62,3.1,28.38,28.38,0,0,0-1.91,3.62c-.56,1.25-1,2.53-1.49,3.82a80,80,0,0,0-2.2,7.92c-.6,2.67-1.1,5.37-1.52,8.08-.84,5.43-1.39,10.89-1.74,16.37s-.47,11-.46,16.45.17,11,.58,16.45,1,10.92,2,16.32c.48,2.71,1,5.39,1.69,8.05a76.45,76.45,0,0,0,2.37,7.86,35.42,35.42,0,0,0,3.57,7.35,13.76,13.76,0,0,0,2.65,3,6.89,6.89,0,0,0,1.7,1,4.57,4.57,0,0,0,1.93.36,4.87,4.87,0,0,0,1.9-.46,7.62,7.62,0,0,0,1.67-1.09,14.56,14.56,0,0,0,2.6-3.09,37,37,0,0,0,3.51-7.38,79.1,79.1,0,0,0,2.35-7.87c.65-2.66,1.19-5.35,1.66-8.05.94-5.4,1.56-10.86,2-16.33S118.83,106.75,118.82,101.26Z"/>
                  <path class="cls-9" d="M147.41,101.26a80.2,80.2,0,0,1-2.84,21,67.62,67.62,0,0,1-8.8,19.28,55.15,55.15,0,0,1-6.72,8.23,46.76,46.76,0,0,1-8.26,6.65,40.12,40.12,0,0,1-9.65,4.42,36.16,36.16,0,0,1-21,0,40,40,0,0,1-9.66-4.41,47.72,47.72,0,0,1-8.28-6.65,55.44,55.44,0,0,1-6.73-8.23,67.67,67.67,0,0,1-8.82-19.28,77,77,0,0,1-2.13-10.42,78.61,78.61,0,0,1,0-21.23,77.05,77.05,0,0,1,2.15-10.42A67.49,67.49,0,0,1,65.52,61a55.25,55.25,0,0,1,6.73-8.22,46.93,46.93,0,0,1,8.28-6.64,39.75,39.75,0,0,1,9.64-4.38,35.73,35.73,0,0,1,21,0,40.2,40.2,0,0,1,9.64,4.4A47.22,47.22,0,0,1,129,52.76,55.81,55.81,0,0,1,135.75,61a67.69,67.69,0,0,1,8.8,19.27A80.15,80.15,0,0,1,147.41,101.26Zm-.93,0a79.33,79.33,0,0,0-2.73-20.79,67.3,67.3,0,0,0-8.52-19.15,55.12,55.12,0,0,0-6.56-8.2,46.46,46.46,0,0,0-8.13-6.66,39.21,39.21,0,0,0-9.52-4.4,34.93,34.93,0,0,0-20.74,0,39,39,0,0,0-9.52,4.41,46.32,46.32,0,0,0-8.11,6.66,55.13,55.13,0,0,0-6.55,8.21,67.11,67.11,0,0,0-8.49,19.13,77.2,77.2,0,0,0-2,10.3,81.73,81.73,0,0,0-.69,10.48,83.33,83.33,0,0,0,.69,10.48,78.52,78.52,0,0,0,2,10.3,67.38,67.38,0,0,0,8.51,19.12,54.42,54.42,0,0,0,6.55,8.2A45.82,45.82,0,0,0,80.79,156a39.28,39.28,0,0,0,9.51,4.39A35.93,35.93,0,0,0,100.65,162,36.33,36.33,0,0,0,111,160.41a39.7,39.7,0,0,0,9.52-4.38,45.89,45.89,0,0,0,8.12-6.65,55.18,55.18,0,0,0,6.57-8.2,67.22,67.22,0,0,0,8.52-19.13A79.29,79.29,0,0,0,146.48,101.26Z"/>
                  <path class="cls-9" d="M46.08,77.06l14-.11,14.05-.06,28.08-.06,28.09.06,14,.07,14,.12a0,0,0,0,1,0,0,0,0,0,0,1,0,0l-14,.12-14,.07-28.09.06-28.08-.06L60.12,77.3l-14-.11s-.06,0-.06-.07A.06.06,0,0,1,46.08,77.06Z"/>
                  <path class="cls-9" d="M62.37,53.54c3.32,0,6.65-.07,10-.11l10-.07,10,0,10,0,20,.06,10,.07c3.32,0,6.64.06,10,.12a0,0,0,0,1,0,.08c-3.33.06-6.65.08-10,.13l-10,.07-20,0-10,0c-3.32,0-6.64,0-10,0l-10-.06c-3.32,0-6.65-.06-10-.12a.06.06,0,1,1,0-.12Z"/>
                  <path class="cls-9" d="M41.2,100.59l15.26-.12,15.27-.06,30.52,0,30.53,0,15.27.07,15.26.13a0,0,0,0,1,0,.08l-15.26.12-15.27.07-30.53.06-30.52,0-15.27-.07-15.26-.11a.06.06,0,0,1-.06-.06A.05.05,0,0,1,41.2,100.59Z"/>
                  <path class="cls-9" d="M46.08,124.11l14-.11,14.05-.07,28.08-.05,28.09.06,14,.07,14,.12a0,0,0,0,1,0,.08l-14,.12-14,.07-28.09.06-28.08,0-14.05-.06-14-.12a.06.06,0,1,1,0-.12Z"/>
                  <path class="cls-9" d="M144.15,147.91H64.38a.22.22,0,0,1-.22-.22.21.21,0,0,1,.22-.21h79.77a.21.21,0,0,1,.21.21A.21.21,0,0,1,144.15,147.91Z"/>
                </g>
                <g>
                  <path class="cls-7" d="M76.85,91.78c.64-.09,1.33-.08,1.74-.56a3.26,3.26,0,0,0,.39-.74,2.64,2.64,0,0,1,3.73-.91,3.68,3.68,0,0,0,.51.37,1.86,1.86,0,0,0,.7.14,4.6,4.6,0,0,0,2.31-.51c.63-.44.59-1.32.87-2a3.05,3.05,0,0,1,4.69-1c1.1,1,1.62,2.16,3.18,2.6a6,6,0,0,0,4.82-.5c.45-.3.83-.69,1.31-1a4.43,4.43,0,0,1,3.25-.15,17.54,17.54,0,0,0,3.24.77c1,.07,2.09-.19,3.12,0a4.15,4.15,0,0,1,2.61,1.46.82.82,0,0,1,.2.38c0,.36-.32.62-.64.79l-1.7.9a4.58,4.58,0,0,0-1.18.81,1.48,1.48,0,0,0-.43,1.31c.11.5.56.85.87,1.26a2.66,2.66,0,0,1,.52,2c-.09.59-.35,1.23,0,1.73a.51.51,0,0,1,.12.23.4.4,0,0,1-.15.29,6.12,6.12,0,0,1-3.8,1.68c-1.4.16-2.82.06-4.23.14a14.26,14.26,0,0,1-2.77,0,12.09,12.09,0,0,0-2.78-.43,13.06,13.06,0,0,0-3,.67,3.34,3.34,0,0,0-1.76,1.82,8.76,8.76,0,0,0-.29,1.7,2.25,2.25,0,0,1-.74,1.5A1,1,0,0,1,90,106.3c-.11-.23-.1-.49-.2-.72a1.54,1.54,0,0,0-1.16-.65,5.19,5.19,0,0,1-2.12-.72,1.65,1.65,0,0,1-.65-2c.2-.39.61-.67.68-1.1a1.28,1.28,0,0,0-.31-.91,3.62,3.62,0,0,0-2.9-1.4c-.38,0-2.43.83-2.62.13-.27-1,1.64-1.82,1.15-2.76a1.16,1.16,0,0,0-.42-.4c-.92-.59-2.25-.46-3.29-.56-.43,0-1.32,0-1.65-.33a4.23,4.23,0,0,1-.65-2.13.87.87,0,0,1,.08-.62.77.77,0,0,1,.44-.28Z"/>
                  <circle class="cls-10" cx="90.07" cy="98.17" r="3.18"/>
                  <circle class="cls-11" cx="113.87" cy="78.58" r="2.44"/>
                  <circle class="cls-11" cx="131.16" cy="92.76" r="2.44"/>
                  <circle class="cls-11" cx="85.18" cy="119.7" r="2.44"/>
                  <circle class="cls-11" cx="71.2" cy="88.29" r="2.44"/>
                  <circle class="cls-11" cx="76.83" cy="68.4" r="2.44"/>
                  <g>
                    <g>
                      <path class="cls-11" d="M126.53,92.8l-.52-.06h0a.09.09,0,0,1-.08-.1.08.08,0,0,1,.1-.08l.52.06a.09.09,0,0,1,0,.18Z"/>
                      <path class="cls-11" d="M125.49,92.69l-.52,0h0a.1.1,0,0,1-.09-.1.09.09,0,0,1,.1-.08l.53.05a.09.09,0,0,1,.08.1.1.1,0,0,1-.1.08Z"/>
                      <path class="cls-11" d="M124.45,92.6l-.53,0h0a.1.1,0,0,1-.09-.1.11.11,0,0,1,.11-.09l.52,0a.09.09,0,0,1,.09.1.09.09,0,0,1-.1.08Z"/>
                      <path class="cls-11" d="M123.4,92.54l-.52,0h0a.1.1,0,1,1,0-.19l.52,0a.09.09,0,0,1,.09.1.08.08,0,0,1-.1.09Z"/>
                      <path class="cls-11" d="M122.36,92.51h-.53a.11.11,0,0,1,0-.21l.52,0a.09.09,0,0,1,.1.1.11.11,0,0,1-.1.1Z"/>
                      <path class="cls-11" d="M121.31,92.49h-.52a.1.1,0,0,1-.11-.1.11.11,0,0,1,.11-.11h.52a.1.1,0,0,1,0,.2Z"/>
                      <path class="cls-11" d="M120.26,92.5h-.52a.11.11,0,0,1-.11-.11.11.11,0,0,1,.11-.1h.52a.1.1,0,0,1,.11.1.11.11,0,0,1-.1.11Z"/>
                      <path class="cls-11" d="M119.22,92.52l-.52,0h0a.1.1,0,0,1-.11-.1.11.11,0,0,1,.11-.11l.52,0a.1.1,0,0,1,.11.1.1.1,0,0,1-.1.11Z"/>
                      <path class="cls-11" d="M118.17,92.57l-.52,0h0a.13.13,0,0,1-.12-.11.11.11,0,0,1,.11-.11l.52,0a.11.11,0,0,1,.12.1.11.11,0,0,1-.11.12Z"/>
                      <path class="cls-11" d="M117.13,92.63l-.52,0h0a.11.11,0,0,1-.13-.1.13.13,0,0,1,.11-.13h0l.52,0a.11.11,0,0,1,.13.1.12.12,0,0,1-.11.12Z"/>
                      <path class="cls-11" d="M116.09,92.71l-.52.05h0a.12.12,0,0,1,0-.23h0l.52,0a.11.11,0,0,1,.12.11.11.11,0,0,1-.1.12Z"/>
                      <path class="cls-11" d="M115.05,92.81l-.52.06h0a.12.12,0,1,1,0-.24h0l.52,0a.12.12,0,1,1,0,.23Z"/>
                      <path class="cls-11" d="M114,92.93l-.52.06h0a.12.12,0,0,1-.14-.11.12.12,0,0,1,.11-.13h0l.52-.06a.11.11,0,0,1,.13.1.12.12,0,0,1-.1.14Z"/>
                      <path class="cls-11" d="M113,93.06l-.52.07h0a.13.13,0,0,1,0-.25h0l.52-.07a.13.13,0,0,1,.14.11.13.13,0,0,1-.11.14Z"/>
                      <path class="cls-11" d="M111.93,93.2l-.52.08h0a.13.13,0,0,1,0-.25h0l.52-.08a.13.13,0,0,1,.14.11.12.12,0,0,1-.11.14Z"/>
                      <path class="cls-11" d="M110.9,93.36l-.52.09h0a.13.13,0,0,1,0-.26h0l.52-.08a.13.13,0,0,1,.15.1.13.13,0,0,1-.11.15Z"/>
                      <path class="cls-11" d="M109.87,93.54l-.52.09h0a.13.13,0,0,1-.15-.11.12.12,0,0,1,.1-.15h0l.52-.09a.12.12,0,0,1,.15.1.13.13,0,0,1-.1.16Z"/>
                      <path class="cls-11" d="M108.84,93.72l-.52.1h0a.13.13,0,1,1,0-.26h0l.52-.1a.13.13,0,0,1,.15.11.12.12,0,0,1-.1.15Z"/>
                      <path class="cls-11" d="M107.81,93.92l-.51.11h0a.15.15,0,0,1-.17-.11.14.14,0,0,1,.11-.16h0l.52-.11a.15.15,0,0,1,.16.11.14.14,0,0,1-.11.16Z"/>
                      <path class="cls-11" d="M106.78,94.14l-.51.11h0a.15.15,0,0,1-.17-.11.16.16,0,0,1,.11-.17h0l.52-.11a.14.14,0,0,1,.16.11.14.14,0,0,1-.11.17Z"/>
                      <path class="cls-11" d="M105.76,94.36l-.51.12h0a.14.14,0,0,1-.17-.11.13.13,0,0,1,.11-.17h0l.51-.12a.15.15,0,0,1,.17.11.14.14,0,0,1-.11.17Z"/>
                      <path class="cls-11" d="M104.74,94.6l-.51.12h0a.13.13,0,0,1-.17-.11.14.14,0,0,1,.1-.18h0l.52-.12a.15.15,0,0,1,.17.11.15.15,0,0,1-.11.18Z"/>
                      <path class="cls-11" d="M103.72,94.84l-.5.13h0a.15.15,0,0,1-.18-.11.14.14,0,0,1,.1-.18h0l.51-.12a.15.15,0,0,1,.18.11.15.15,0,0,1-.1.17Z"/>
                      <path class="cls-11" d="M102.71,95.1l-.5.14h0a.15.15,0,0,1-.18-.11.16.16,0,0,1,.11-.19h0l.51-.13a.15.15,0,1,1,.07.29Z"/>
                      <path class="cls-11" d="M101.7,95.37l-.5.14h0a.16.16,0,0,1-.19-.11.16.16,0,0,1,.11-.19h0l.51-.13a.15.15,0,0,1,.19.1.15.15,0,0,1-.11.19Z"/>
                      <path class="cls-11" d="M100.69,95.65l-.5.14h0a.16.16,0,0,1-.2-.1.17.17,0,0,1,.11-.2h0l.51-.14a.16.16,0,1,1,.08.3Z"/>
                      <path class="cls-11" d="M99.69,95.94l-.51.15h0A.18.18,0,0,1,99,96a.17.17,0,0,1,.11-.2h0l.51-.15a.16.16,0,0,1,.19.11.16.16,0,0,1-.1.2Z"/>
                      <path class="cls-11" d="M98.68,96.24l-.5.15h0a.15.15,0,0,1-.2-.11.16.16,0,0,1,.11-.2h0l.5-.15a.16.16,0,0,1,.09.31Z"/>
                      <path class="cls-11" d="M97.68,96.55l-.5.15h0a.17.17,0,0,1-.21-.1.18.18,0,0,1,.11-.21h0l.5-.16a.17.17,0,0,1,.21.11.16.16,0,0,1-.11.21Z"/>
                      <path class="cls-11" d="M96.68,96.86l-.49.16h0a.17.17,0,0,1-.22-.1.18.18,0,0,1,.11-.22h0l.5-.16a.18.18,0,0,1,.21.11.16.16,0,0,1-.11.21Z"/>
                      <path class="cls-11" d="M95.69,97.19l-.5.16h0a.16.16,0,0,1-.21-.1.17.17,0,0,1,.1-.22h0l.5-.16a.18.18,0,0,1,.22.1.18.18,0,0,1-.11.22Z"/>
                      <path class="cls-11" d="M94.7,97.52l-.5.17h0a.17.17,0,0,1-.22-.1.19.19,0,0,1,.11-.23h0l.5-.16a.16.16,0,0,1,.21.1.17.17,0,0,1-.1.22Z"/>
                    </g>
                    <path class="cls-11" d="M126.07,93.63a.14.14,0,0,1-.13-.09.14.14,0,0,1,.09-.17l1.68-.54-1.49-.73a.13.13,0,0,1,.11-.24l1.79.88a.14.14,0,0,1,.07.13.13.13,0,0,1-.09.11l-2,.64Z"/>
                  </g>
                  <g>
                    <g>
                      <path class="cls-11" d="M92.4,94.93l.2-.49a.16.16,0,0,1,.22-.09.17.17,0,0,1,.1.22h0l-.2.48h0a.18.18,0,0,1-.23.1.17.17,0,0,1-.09-.23Z"/>
                      <path class="cls-11" d="M92.81,94l.23-.48a.17.17,0,0,1,.22-.08.16.16,0,0,1,.09.22h0l-.22.47h0a.17.17,0,0,1-.23.09.18.18,0,0,1-.08-.23Z"/>
                      <path class="cls-11" d="M93.28,93l.25-.47a.15.15,0,0,1,.22-.06.16.16,0,0,1,.07.22h0l-.24.46h0a.16.16,0,0,1-.22.07.16.16,0,0,1-.07-.23Z"/>
                      <path class="cls-11" d="M93.79,92.09l.28-.46a.16.16,0,0,1,.22,0,.16.16,0,0,1,.06.22h0l-.26.44h0a.16.16,0,0,1-.22,0,.15.15,0,0,1-.06-.22Z"/>
                      <path class="cls-11" d="M94.35,91.19l.3-.44a.16.16,0,0,1,.26.18h0l-.29.44h0a.16.16,0,0,1-.22,0,.15.15,0,0,1-.05-.22Z"/>
                      <path class="cls-11" d="M95,90.32l.32-.42a.15.15,0,0,1,.22,0,.15.15,0,0,1,0,.21h0l-.31.42h0a.16.16,0,0,1-.26-.19Z"/>
                      <path class="cls-11" d="M95.59,89.48l.34-.41a.16.16,0,0,1,.21,0,.16.16,0,0,1,0,.22h0l-.32.41h0a.15.15,0,0,1-.21,0,.16.16,0,0,1,0-.22Z"/>
                      <path class="cls-11" d="M96.27,88.67l.35-.39a.16.16,0,0,1,.22,0,.15.15,0,0,1,0,.21h0l-.35.39h0a.17.17,0,0,1-.22,0,.15.15,0,0,1,0-.21Z"/>
                      <path class="cls-11" d="M97,87.9l.36-.38a.14.14,0,0,1,.21,0,.13.13,0,0,1,0,.2h0l-.36.37h0a.15.15,0,0,1-.22-.2Z"/>
                      <path class="cls-11" d="M97.73,87.15l.38-.36a.15.15,0,1,1,.2.21h0l-.38.36h0a.15.15,0,1,1-.2-.21Z"/>
                      <path class="cls-11" d="M98.5,86.43l.4-.34a.14.14,0,0,1,.2,0,.15.15,0,0,1,0,.2h0l-.39.34h0a.15.15,0,0,1-.19-.22Z"/>
                      <path class="cls-11" d="M99.3,85.75l.41-.33a.14.14,0,0,1,.2,0,.15.15,0,0,1,0,.19h0l-.4.33h0a.14.14,0,0,1-.2,0,.14.14,0,0,1,0-.19Z"/>
                      <path class="cls-11" d="M100.13,85.09l.42-.31a.13.13,0,1,1,.16.21h0l-.42.32h0a.14.14,0,0,1-.16-.22Z"/>
                      <path class="cls-11" d="M101,84.47l.43-.3a.13.13,0,0,1,.15.21h0l-.43.3h0a.13.13,0,0,1-.18,0,.12.12,0,0,1,0-.18Z"/>
                      <path class="cls-11" d="M101.85,83.88l.44-.29a.13.13,0,0,1,.18,0,.13.13,0,0,1,0,.17h0l-.44.28h0a.14.14,0,0,1-.18,0,.13.13,0,0,1,0-.18Z"/>
                      <path class="cls-11" d="M102.74,83.31l.45-.27a.13.13,0,0,1,.13.22h0l-.45.27h0a.13.13,0,0,1-.17,0,.13.13,0,0,1,0-.18Z"/>
                      <path class="cls-11" d="M103.65,82.78l.46-.25a.12.12,0,0,1,.16,0,.13.13,0,0,1,0,.17h0l-.45.25h0a.11.11,0,0,1-.16,0,.13.13,0,0,1,.05-.17Z"/>
                      <path class="cls-11" d="M104.57,82.28,105,82a.12.12,0,0,1,.16,0,.13.13,0,0,1,0,.16h0l-.47.24h0a.12.12,0,0,1-.11-.21Z"/>
                      <path class="cls-11" d="M105.51,81.81l.48-.22a.11.11,0,0,1,.15,0,.11.11,0,0,1,0,.15h0l-.48.23h0a.11.11,0,0,1-.15-.06.11.11,0,0,1,.05-.15Z"/>
                      <path class="cls-11" d="M106.47,81.37l.48-.21a.11.11,0,0,1,.09.21h0l-.48.21h0a.13.13,0,0,1-.15-.06.12.12,0,0,1,.06-.15Z"/>
                      <path class="cls-11" d="M107.44,81l.49-.19a.11.11,0,0,1,.08.2h0l-.49.2h0a.11.11,0,0,1-.14-.06.12.12,0,0,1,.06-.15Z"/>
                      <path class="cls-11" d="M108.42,80.59l.5-.17a.1.1,0,0,1,.07.19h0l-.49.18h0a.1.1,0,0,1-.13-.06.11.11,0,0,1,.06-.14Z"/>
                      <path class="cls-11" d="M109.42,80.25l.43-.13a.1.1,0,0,1,.12.07.09.09,0,0,1-.06.12h0l-.43.14h0a.1.1,0,0,1-.13-.07.12.12,0,0,1,.07-.13Z"/>
                    </g>
                    <path class="cls-11" d="M109.7,81.16a.18.18,0,0,1-.1,0,.14.14,0,0,1,0-.19l1.28-1.11-2,.15a.14.14,0,0,1-.14-.12.14.14,0,0,1,.13-.15l2.39-.17a.14.14,0,0,1,.13.08.13.13,0,0,1,0,.15l-1.57,1.37A.16.16,0,0,1,109.7,81.16Z"/>
                  </g>
                  <g>
                    <g>
                      <path class="cls-11" d="M88.42,94.47l-.15-.5a.17.17,0,0,1,.12-.21.16.16,0,0,1,.21.11l.15.51a.16.16,0,0,1-.11.21.17.17,0,0,1-.22-.11Z"/>
                      <path class="cls-11" d="M88.13,93.47,88,93a.17.17,0,0,1,.11-.21.17.17,0,0,1,.21.12l.15.5a.17.17,0,1,1-.32.1Z"/>
                      <path class="cls-11" d="M87.83,92.46l-.15-.5a.16.16,0,0,1,.11-.21.18.18,0,0,1,.21.11l.15.51a.17.17,0,0,1-.11.21.18.18,0,0,1-.21-.12Z"/>
                      <path class="cls-11" d="M87.53,91.46l-.15-.5a.17.17,0,0,1,.1-.21.18.18,0,0,1,.21.11l.15.5a.16.16,0,0,1-.11.21.16.16,0,0,1-.2-.11Z"/>
                      <path class="cls-11" d="M87.22,90.46l-.15-.5a.15.15,0,0,1,.1-.2.16.16,0,0,1,.2.1l.16.5a.15.15,0,0,1-.11.2.16.16,0,0,1-.2-.1Z"/>
                      <path class="cls-11" d="M86.91,89.46l-.16-.5a.17.17,0,0,1,.1-.2.16.16,0,0,1,.2.1l.16.5a.16.16,0,0,1-.3.1Z"/>
                      <path class="cls-11" d="M86.59,88.46l-.16-.5a.15.15,0,0,1,.1-.19.14.14,0,0,1,.19.09l.17.5a.16.16,0,0,1-.3.1Z"/>
                      <path class="cls-11" d="M86.27,87.46,86.1,87a.15.15,0,0,1,.1-.18.14.14,0,0,1,.19.09l.17.5a.15.15,0,1,1-.29.09Z"/>
                      <path class="cls-11" d="M85.94,86.47l-.17-.5h0a.14.14,0,0,1,.27-.09l.18.49a.16.16,0,0,1-.09.19.14.14,0,0,1-.19-.09Z"/>
                      <path class="cls-11" d="M85.6,85.48l-.18-.5h0a.16.16,0,0,1,.09-.18.15.15,0,0,1,.18.09l.18.49a.15.15,0,0,1-.09.19.15.15,0,0,1-.18-.09Z"/>
                      <path class="cls-11" d="M85.25,84.49,85.07,84h0a.14.14,0,0,1,.26-.1l.18.5a.14.14,0,0,1-.08.18.14.14,0,0,1-.18-.09Z"/>
                      <path class="cls-11" d="M84.89,83.51,84.7,83h0a.14.14,0,0,1,.26-.1l.18.49a.13.13,0,0,1-.08.18.13.13,0,0,1-.17-.08Z"/>
                      <path class="cls-11" d="M84.52,82.53,84.33,82h0a.12.12,0,0,1,.07-.17.13.13,0,0,1,.17.07l.2.49a.15.15,0,0,1-.08.18.13.13,0,0,1-.17-.08Z"/>
                      <path class="cls-11" d="M84.13,81.55l-.19-.48h0A.12.12,0,0,1,84,80.9a.13.13,0,0,1,.17.07l.2.49a.15.15,0,0,1-.07.17.16.16,0,0,1-.18-.07Z"/>
                      <path class="cls-11" d="M83.74,80.58l-.2-.48h0a.11.11,0,0,1,.07-.16.12.12,0,0,1,.16.06l.2.49a.12.12,0,0,1-.06.16.13.13,0,0,1-.17-.06h0Z"/>
                      <path class="cls-11" d="M83.33,79.62l-.21-.48h0a.14.14,0,0,1,.07-.16.12.12,0,0,1,.16.06l.21.48a.12.12,0,0,1-.06.16.13.13,0,0,1-.17-.06Z"/>
                      <path class="cls-11" d="M82.91,78.66l-.21-.48h0a.11.11,0,1,1,.21-.09l.22.47a.12.12,0,0,1-.22.1Z"/>
                      <path class="cls-11" d="M82.48,77.71l-.23-.47h0a.13.13,0,0,1,.06-.16.12.12,0,0,1,.15.06l.23.47a.12.12,0,1,1-.21.1Z"/>
                      <path class="cls-11" d="M82,76.76l-.23-.47h0a.11.11,0,0,1,0-.15.13.13,0,0,1,.15,0l.23.47a.12.12,0,0,1,0,.16.12.12,0,0,1-.15,0h0Z"/>
                      <path class="cls-11" d="M81.56,75.83l-.24-.47h0a.11.11,0,0,1,.2-.1l.24.47a.11.11,0,0,1-.05.15.13.13,0,0,1-.15,0Z"/>
                      <path class="cls-11" d="M81.08,74.9l-.25-.46h0a.12.12,0,0,1,0-.15.11.11,0,0,1,.14,0l.25.46a.1.1,0,0,1,0,.14.11.11,0,0,1-.15,0Z"/>
                      <path class="cls-11" d="M80.58,74l-.25-.46h0a.1.1,0,1,1,.18-.1l.25.46a.11.11,0,0,1,0,.14.11.11,0,0,1-.15,0Z"/>
                      <path class="cls-11" d="M80.07,73.07l-.26-.46h0a.09.09,0,0,1,0-.13.09.09,0,0,1,.13,0l.27.46a.1.1,0,0,1,0,.13.11.11,0,0,1-.14,0Z"/>
                      <path class="cls-11" d="M79.54,72.16l-.25-.4h0a.1.1,0,0,1,0-.13.11.11,0,0,1,.13,0l.24.4a.1.1,0,0,1,0,.14.1.1,0,0,1-.13,0Z"/>
                    </g>
                    <path class="cls-11" d="M79.38,73.07a.14.14,0,0,1-.12-.09l-.78-2.16a.15.15,0,0,1,0-.14.16.16,0,0,1,.15,0l1.85,1a.14.14,0,0,1,.06.18.14.14,0,0,1-.18.06l-1.56-.81.66,1.84a.13.13,0,0,1-.08.17Z"/>
                  </g>
                  <g>
                    <g>
                      <path class="cls-11" d="M86.78,95.82l-.4-.33h0a.17.17,0,1,1,.22-.26l.41.33a.18.18,0,0,1,0,.25.17.17,0,0,1-.24,0Z"/>
                      <path class="cls-11" d="M86,95.16l-.41-.33h0a.15.15,0,0,1,0-.22.16.16,0,0,1,.22,0l.42.32a.16.16,0,0,1-.2.26Z"/>
                      <path class="cls-11" d="M85.15,94.52l-.42-.31h0a.15.15,0,0,1,0-.21.14.14,0,0,1,.2,0l.43.3a.16.16,0,0,1,0,.22.15.15,0,0,1-.21,0Z"/>
                      <path class="cls-11" d="M84.3,93.91l-.43-.29h0a.13.13,0,0,1,0-.19.13.13,0,0,1,.19,0l.45.28a.16.16,0,0,1,0,.2.15.15,0,0,1-.2,0h0Z"/>
                      <path class="cls-11" d="M83.43,93.34,83,93.07h0a.13.13,0,0,1,0-.19.14.14,0,0,1,.19,0l.45.27a.14.14,0,0,1,0,.19.13.13,0,0,1-.18,0Z"/>
                      <path class="cls-11" d="M82.54,92.8l-.46-.25h0a.14.14,0,0,1,0-.18.14.14,0,0,1,.18-.05l.46.25a.13.13,0,0,1,0,.18.13.13,0,0,1-.18.06h0Z"/>
                      <path class="cls-11" d="M81.62,92.3l-.46-.23h0a.14.14,0,0,1-.06-.17.13.13,0,0,1,.17-.06l.47.24a.13.13,0,0,1,.06.17.12.12,0,0,1-.17,0h0Z"/>
                      <path class="cls-11" d="M80.69,91.84l-.47-.22h0a.13.13,0,0,1-.06-.16.12.12,0,0,1,.16-.06l.48.22a.12.12,0,0,1,.06.16.12.12,0,0,1-.16.06Z"/>
                      <path class="cls-11" d="M79.74,91.41l-.49-.19h0a.11.11,0,0,1,.09-.21l.49.19a.12.12,0,0,1,.06.16.11.11,0,0,1-.15.06Z"/>
                      <path class="cls-11" d="M78.77,91l-.49-.18h0a.11.11,0,0,1-.07-.15.11.11,0,0,1,.14-.07l.5.18a.12.12,0,1,1-.08.22Z"/>
                      <path class="cls-11" d="M77.78,90.68l-.49-.16h0a.13.13,0,0,1-.07-.15.11.11,0,0,1,.14-.07l.51.16a.11.11,0,0,1,.07.14.11.11,0,0,1-.14.08Z"/>
                      <path class="cls-11" d="M76.79,90.37l-.5-.15h0a.1.1,0,0,1-.07-.14.1.1,0,0,1,.13-.07l.51.14a.11.11,0,0,1,.08.14.12.12,0,0,1-.14.08Z"/>
                      <path class="cls-11" d="M75.78,90.09,75.27,90h0a.12.12,0,0,1-.08-.14.11.11,0,0,1,.13-.08l.51.13a.11.11,0,1,1,0,.21Z"/>
                    </g>
                    <path class="cls-11" d="M75.37,90.9a.11.11,0,0,1-.08,0l-1.47-1.35a.13.13,0,0,1,.09-.22L76,89.24a.13.13,0,0,1,.14.13.13.13,0,0,1-.13.13l-1.76,0,1.22,1.12a.13.13,0,0,1,0,.19A.13.13,0,0,1,75.37,90.9Z"/>
                  </g>
                  <g>
                    <g>
                      <path class="cls-11" d="M88.93,101.76l-.26.46h0a.18.18,0,0,1-.23.07.19.19,0,0,1-.06-.23l.24-.47a.18.18,0,1,1,.31.17Z"/>
                      <path class="cls-11" d="M88.43,102.68l-.24.46h0a.16.16,0,0,1-.21.06.16.16,0,0,1-.07-.2l.23-.48a.16.16,0,0,1,.29.14Z"/>
                      <path class="cls-11" d="M88,103.61l-.23.47h0a.13.13,0,0,1-.19.06.12.12,0,0,1-.06-.18l.21-.48a.14.14,0,0,1,.19-.08.15.15,0,0,1,.08.2Z"/>
                      <path class="cls-11" d="M87.52,104.56l-.21.48h0a.12.12,0,0,1-.17.07.14.14,0,0,1-.07-.17l.2-.49a.14.14,0,0,1,.18-.07.12.12,0,0,1,.07.17Z"/>
                      <path class="cls-11" d="M87.12,105.52l-.19.49h0a.11.11,0,0,1-.16.07.13.13,0,0,1-.07-.16l.18-.49a.12.12,0,0,1,.16-.07.12.12,0,0,1,.08.16Z"/>
                      <path class="cls-11" d="M86.75,106.5l-.16.49h0a.12.12,0,0,1-.15.07.13.13,0,0,1-.08-.15l.17-.5a.11.11,0,0,1,.15-.07.12.12,0,0,1,.08.15h0Z"/>
                      <path class="cls-11" d="M86.43,107.49l-.15.5h0a.12.12,0,0,1-.14.08.11.11,0,0,1-.07-.14l.14-.5a.11.11,0,1,1,.22.06Z"/>
                      <path class="cls-11" d="M86.14,108.49,86,109h0a.1.1,0,0,1-.12.08.11.11,0,0,1-.08-.13l.12-.51a.12.12,0,0,1,.13-.08.11.11,0,0,1,.08.13Z"/>
                      <path class="cls-11" d="M85.89,109.51l-.1.51h0a.11.11,0,0,1-.12.08.1.1,0,0,1-.08-.12l.11-.51a.1.1,0,1,1,.19,0Z"/>
                      <path class="cls-11" d="M85.69,110.53l-.09.52h0a.09.09,0,0,1-.11.08.1.1,0,0,1-.08-.11l.09-.52a.1.1,0,1,1,.19,0Z"/>
                      <path class="cls-11" d="M85.53,111.56l-.07.52h0a.09.09,0,0,1-.1.09.1.1,0,0,1-.08-.11l.06-.52a.09.09,0,0,1,.11-.08.09.09,0,0,1,.08.1Z"/>
                      <path class="cls-11" d="M85.41,112.6l0,.52h0a.1.1,0,0,1-.1.09.09.09,0,0,1-.08-.1l0-.53a.1.1,0,0,1,.1-.08.1.1,0,0,1,.09.1Z"/>
                      <path class="cls-11" d="M85.32,113.64l0,.53h0a.1.1,0,0,1-.1.08.08.08,0,0,1-.08-.09l0-.53a.09.09,0,0,1,.1-.08.08.08,0,0,1,.08.09Z"/>
                      <path class="cls-11" d="M85.28,114.69v.52h0a.09.09,0,0,1-.09.09.09.09,0,0,1-.08-.09v-.53a.09.09,0,0,1,.09-.08.09.09,0,0,1,.09.09Z"/>
                    </g>
                    <path class="cls-11" d="M85.14,116.73h0a.13.13,0,0,1-.12-.08l-.72-2a.13.13,0,0,1,.08-.17.13.13,0,0,1,.17.08l.6,1.65.68-1.52a.13.13,0,0,1,.17-.06.12.12,0,0,1,.07.17l-.81,1.82A.14.14,0,0,1,85.14,116.73Z"/>
                  </g>
                </g>
              </g>
              <g>
                <path class="cls-12" d="M66.16,109.67h9.3v-5.33a.66.66,0,0,0-.66-.66H67.14a1,1,0,0,0-1,1Z"/>
                <path class="cls-7" d="M66.86,109.56h8.6v-6H67.83a1,1,0,0,0-1,1Z"/>
                <rect class="cls-13" x="55.75" y="95.69" width="0.38" height="3.53" transform="translate(111.88 194.9) rotate(180)"/>
                <path class="cls-14" d="M55.46,95.69h1a0,0,0,0,1,0,0v0a.24.24,0,0,1-.24.24H55.7a.24.24,0,0,1-.24-.24v0a0,0,0,0,1,0,0Z" transform="translate(111.95 191.62) rotate(180)"/>
                <rect class="cls-15" x="56.86" y="98.28" width="0.68" height="1.8" transform="translate(114.39 198.36) rotate(180)"/>
                <rect class="cls-16" x="51.87" y="98.28" width="0.68" height="1.8" transform="translate(104.42 198.36) rotate(180)"/>
                <rect class="cls-7" x="50.73" y="104.03" width="8.84" height="5.04"/>
                <path class="cls-7" d="M51.46,104.06h6.71V99.2A.16.16,0,0,0,58,99H51.46Z"/>
                <rect class="cls-12" x="50.43" y="103.69" width="9.32" height="0.73" rx="0.36"/>
                <rect class="cls-17" x="52.21" y="99.78" width="0.76" height="1.49" transform="translate(105.19 201.05) rotate(180)"/>
                <rect class="cls-18" x="53.53" y="99.78" width="0.76" height="1.49" transform="translate(107.82 201.05) rotate(180)"/>
                <rect class="cls-19" x="55.09" y="99.78" width="0.76" height="1.49" transform="translate(110.95 201.05) rotate(180)"/>
                <rect class="cls-20" x="56.41" y="99.78" width="0.76" height="1.49" transform="translate(113.58 201.05) rotate(180)"/>
                <rect class="cls-21" x="52.66" y="105.26" width="0.76" height="1.49" transform="translate(106.09 212.01) rotate(180)"/>
                <rect class="cls-22" x="53.98" y="105.26" width="0.76" height="1.49" transform="translate(108.72 212.01) rotate(180)"/>
                <rect class="cls-23" x="55.54" y="105.26" width="0.76" height="1.49" transform="translate(111.85 212.01) rotate(180)"/>
                <rect class="cls-24" x="56.86" y="105.26" width="0.76" height="1.49" transform="translate(114.48 212.01) rotate(180)"/>
                <path class="cls-25" d="M76.91,111.21c-1.69.81-3.24,1.68-3.71,2.89l-19.86.1-.73-2.85a2.33,2.33,0,0,0-1.47-1.52c-2.43-1-4.32-1.7-4.21-3.19l13-.12a.2.2,0,0,1,.2.14l.19.57a1.94,1.94,0,0,0,1.88,1.2l11.44.21.44-.77a.18.18,0,0,1,.17-.1h4.55a.13.13,0,0,1,.1.19Z"/>
                <path class="cls-26" d="M76.91,111.67c-1.69.81-3.24,1.68-3.71,2.88l-19.86.11-.73-2.85a2.32,2.32,0,0,0-1.47-1.53c-2.43-1-4.08-2-4.21-3.19l12.68-.18a.2.2,0,0,1,.18.12l.34.76a2.12,2.12,0,0,0,2,1.09l11.44.22.42-.75a.26.26,0,0,1,.23-.13l4.51,0Z"/>
                <path class="cls-12" d="M73.1,111.27a.66.66,0,1,1,.66-.66A.66.66,0,0,1,73.1,111.27Zm0-1.14a.47.47,0,0,0-.48.48.48.48,0,0,0,.48.49.49.49,0,0,0,.49-.49A.48.48,0,0,0,73.1,110.13Z"/>
                <path class="cls-12" d="M71,111.27A.66.66,0,1,1,71,110a.66.66,0,0,1,0,1.32Zm0-1.14a.48.48,0,0,0-.49.48.49.49,0,1,0,1,0A.48.48,0,0,0,71,110.13Z"/>
                <path class="cls-12" d="M69.18,111.22a.66.66,0,1,1,.66-.66A.66.66,0,0,1,69.18,111.22Zm0-1.14a.48.48,0,0,0-.48.48.49.49,0,1,0,1,0A.48.48,0,0,0,69.18,110.08Z"/>
                <path class="cls-12" d="M57.62,108.83a.66.66,0,1,1,0-1.32.66.66,0,1,1,0,1.32Zm0-1.15a.49.49,0,1,0,.49.49A.49.49,0,0,0,57.62,107.68Z"/>
                <path class="cls-12" d="M55.54,108.83a.66.66,0,0,1,0-1.32.66.66,0,1,1,0,1.32Zm0-1.15a.49.49,0,0,0,0,1,.49.49,0,1,0,0-1Z"/>
                <path class="cls-12" d="M53.91,108.83a.66.66,0,1,1,0-1.32.66.66,0,1,1,0,1.32Zm0-1.15a.49.49,0,0,0,0,1,.49.49,0,1,0,0-1Z"/>
                <path class="cls-12" d="M73.79,109.77h0l-11.16-.19a.09.09,0,0,1-.08-.09.09.09,0,0,1,.09-.09l11.15.2a.09.09,0,0,1,.09.09A.09.09,0,0,1,73.79,109.77Z"/>
                <path class="cls-12" d="M48.6,107.48a.09.09,0,0,1-.09-.09.09.09,0,0,1,.09-.08l9.65-.2a.08.08,0,0,1,.09.08.09.09,0,0,1-.08.09l-9.66.2Z"/>
              </g>
              <g>
                <g>
                  <rect class="cls-7" x="101.55" y="63.68" width="15.96" height="1.46"/>
                  <rect class="cls-7" x="103.32" y="60.04" width="13.55" height="1.46"/>
                  <polygon class="cls-7" points="101.87 66.72 99.71 66.72 104.27 58.84 105.57 59.59 101.87 66.72"/>
                  <polygon class="cls-7" points="118.22 66.72 120.38 66.72 115.83 58.84 114.53 59.59 118.22 66.72"/>
                </g>
                <rect class="cls-27" x="102.16" y="59.2" width="15.36" height="1.68" rx="0.84"/>
                <path class="cls-28" d="M117,59.44H102.63a1.29,1.29,0,0,1-1.35-1.29l1.32-15c0-.66.18-1.17.9-1.17H116c.72,0,.78.57.82,1.22l1.47,15A1.29,1.29,0,0,1,117,59.44Z"/>
                <path class="cls-29" d="M118.33,58.14l-1.47-15c0-.65-.1-1.22-.82-1.22h-6.23v17.5H117A1.29,1.29,0,0,0,118.33,58.14Z"/>
                <polygon class="cls-30" points="117.7 51.77 101.84 51.77 101.94 50.72 117.6 50.72 117.7 51.77"/>
                <polygon class="cls-31" points="117.99 54.67 101.57 54.67 101.68 53.62 117.89 53.62 117.99 54.67"/>
                <rect class="cls-32" x="108.35" y="40.99" width="2.98" height="1.61" rx="0.8"/>
                <rect class="cls-33" x="108.56" y="41.11" width="2.42" height="1.31" rx="0.65"/>
                <g>
                  <ellipse class="cls-34" cx="104.96" cy="57.49" rx="1.28" ry="1.1"/>
                  <ellipse class="cls-35" cx="104.96" cy="57.49" rx="1.12" ry="0.96"/>
                </g>
                <g>
                  <ellipse class="cls-36" cx="113.98" cy="57.49" rx="1.28" ry="1.1"/>
                  <ellipse class="cls-37" cx="113.98" cy="57.49" rx="1.12" ry="0.96"/>
                </g>
                <path class="cls-12" d="M115.32,50.12h-3.91a1,1,0,0,1-1-1V43.55a.49.49,0,0,1,.48-.48h4a.73.73,0,0,1,.69.71L116,49.4A.68.68,0,0,1,115.32,50.12Z"/>
                <path class="cls-12" d="M104.23,50.12H108A1.12,1.12,0,0,0,109.07,49V43.66a.58.58,0,0,0-.58-.59H104.6a.73.73,0,0,0-.7.71l-.42,5.54A.75.75,0,0,0,104.23,50.12Z"/>
              </g>
              <g>
                <path class="cls-38" d="M133.89,109.9l-3.24-1.63a.28.28,0,0,0-.22,0l-3.92,1.16a.29.29,0,0,0-.21.23.32.32,0,0,0,.11.29l2.59,1.94Z"/>
                <path class="cls-39" d="M107.57,115.76s36.68-9.91,38.17-9.57,4.23,1.66,5,1.59,3.49.18,3,2.15-30.92,10.51-34.62,9.58-13-2.47-13-2.47S105.11,115.81,107.57,115.76Z"/>
                <path class="cls-40" d="M118.2,113l-5.62-2.52a2.12,2.12,0,0,1-.87-.73l-2.5-3.73a.82.82,0,0,0-.91-.33c-1.09.33-3.35,1-3.34,1.31s1.89,8.91,1.89,8.91Z"/>
                <path class="cls-41" d="M108,117l-.29,1.87a1,1,0,0,0,.26.85,1,1,0,0,0,.85.32l1.89-.16a1,1,0,0,0,.75-.41l3.05-4.14Z"/>
                <path class="cls-42" d="M128.07,121.38a4.21,4.21,0,0,0,3.13,1.16c1.87-.16,4.12-.86,4.5-1.56s.89-5.65-2.84-4.64S124.88,119.94,128.07,121.38Z"/>
                <path class="cls-43" d="M125.52,116.52l8.72-2.3-6.63,10.17a.62.62,0,0,1-.41.27l-5.26.89a.62.62,0,0,1-.6-.25.64.64,0,0,1,0-.64Z"/>
                <path class="cls-44" d="M135.22,121.16h.07c.12,0,.23-.16.32-.39a4.15,4.15,0,0,0-.32-3.47,1.16,1.16,0,0,0-1-.53.78.78,0,0,0-.82.74A6.25,6.25,0,0,0,135,121,.53.53,0,0,0,135.22,121.16Zm-.78-4.23a1,1,0,0,1,.71.45,4,4,0,0,1,.31,3.32c-.08.2-.16.29-.2.29s-.06,0-.18-.1a6.13,6.13,0,0,1-1.44-3.37.62.62,0,0,1,.66-.6Z"/>
                <polygon class="cls-45" points="105.35 109.07 106.27 108.99 107.61 114.79 106.67 115.1 105.35 109.07"/>
                <g>
                  <g>
                    <rect class="cls-46" x="121.06" y="114.28" width="1.13" height="1.46" rx="0.55" transform="translate(-9.09 10.45) rotate(-4.74)"/>
                    <rect class="cls-47" x="123.14" y="113.95" width="1.13" height="1.46" rx="0.55" transform="translate(-9.03 10.58) rotate(-4.73)"/>
                    <rect class="cls-48" x="125.2" y="113.29" width="1.13" height="1.46" rx="0.55" transform="translate(-8.94 10.71) rotate(-4.71)"/>
                    <rect class="cls-49" x="127.11" y="112.8" width="1.13" height="1.46" rx="0.55" transform="translate(-8.92 10.91) rotate(-4.73)"/>
                    <rect class="cls-50" x="129.35" y="112.29" width="1.13" height="1.46" rx="0.55" transform="translate(-8.84 11.05) rotate(-4.71)"/>
                    <rect class="cls-51" x="131.42" y="111.8" width="1.13" height="1.46" rx="0.55" transform="translate(-8.85 11.3) rotate(-4.74)"/>
                    <rect class="cls-52" x="133.48" y="111.14" width="1.13" height="1.46" rx="0.55" transform="translate(-8.79 11.47) rotate(-4.74)"/>
                    <rect class="cls-53" x="135.4" y="110.82" width="1.13" height="1.46" rx="0.55" transform="translate(-8.76 11.62) rotate(-4.74)"/>
                    <rect class="cls-54" x="137.48" y="110.32" width="1.13" height="1.46" rx="0.55" transform="translate(-8.65 11.71) rotate(-4.71)"/>
                    <rect class="cls-55" x="139.54" y="109.66" width="1.13" height="1.46" rx="0.55" transform="translate(-8.64 11.96) rotate(-4.74)"/>
                    <rect class="cls-56" x="141.46" y="109.34" width="1.13" height="1.46" rx="0.55" transform="translate(-8.61 12.12) rotate(-4.74)"/>
                  </g>
                  <path class="cls-57" d="M148.44,107.13l-3.6,1.32a.6.6,0,0,0-.38.67c.06.33.14.71.21.68s5.78-2,5.78-2Z"/>
                </g>
              </g>
            </g>
          </g>
          <path class="cls-58" d="M101,10a91,91,0,1,1-91,91,91.06,91.06,0,0,1,91-91m0-10a101,101,0,1,0,101,101A101,101,0,0,0,101,0Z"/>
        </g>
      </g>
    </g>
  </g>
</svg>
