<svg xmlns="http://www.w3.org/2000/svg" xmlns:xlink="http://www.w3.org/1999/xlink" width="201.92" height="201.92" viewBox="0 0 201.92 201.92">
  <defs>
    <style>
      .cls-1 {
        fill: none;
      }

      .cls-2 {
        isolation: isolate;
      }

      .cls-3 {
        fill: url(#linear-gradient);
      }

      .cls-4 {
        clip-path: url(#clip-path);
      }

      .cls-5 {
        fill: #450672;
        opacity: 0.8;
      }

      .cls-19, .cls-27, .cls-5 {
        mix-blend-mode: multiply;
      }

      .cls-6 {
        fill: url(#Áåçûìÿííûé_ãðàäèåíò_2);
      }

      .cls-7 {
        fill: #27201f;
      }

      .cls-8 {
        fill: #181019;
      }

      .cls-9 {
        fill: #281b19;
      }

      .cls-10 {
        fill: #3a2a29;
      }

      .cls-11 {
        fill: #f7ecff;
      }

      .cls-12 {
        fill: #f1d8ff;
      }

      .cls-13 {
        fill: #191110;
      }

      .cls-14 {
        clip-path: url(#clip-path-2);
      }

      .cls-15 {
        opacity: 0.4;
      }

      .cls-16 {
        fill: #b644ff;
      }

      .cls-17, .cls-29 {
        fill: #d86cff;
      }

      .cls-18, .cls-19 {
        fill: #8e1be7;
      }

      .cls-19 {
        opacity: 0.7;
      }

      .cls-20 {
        fill: #a53aff;
      }

      .cls-21 {
        fill: #ffabff;
      }

      .cls-22 {
        fill: #7100d2;
      }

      .cls-23 {
        fill: #7224b1;
      }

      .cls-24 {
        fill: #961bfd;
      }

      .cls-25 {
        fill: #963ade;
      }

      .cls-26 {
        fill: #ad41ff;
      }

      .cls-27 {
        fill: #b394cf;
        opacity: 0.5;
      }

      .cls-28 {
        fill: #ed94ff;
        opacity: 0.3;
      }

      .cls-29 {
        opacity: 0.6;
      }

      .cls-29, .cls-30, .cls-32, .cls-33, .cls-34, .cls-35, .cls-36, .cls-37, .cls-38, .cls-39 {
        mix-blend-mode: screen;
      }

      .cls-31 {
        fill: #ffe0c2;
      }

      .cls-32 {
        fill: url(#Degradado_sin_nombre_11);
      }

      .cls-33 {
        fill: url(#Degradado_sin_nombre_11-2);
      }

      .cls-34 {
        fill: url(#Degradado_sin_nombre_11-3);
      }

      .cls-35 {
        fill: url(#Degradado_sin_nombre_11-4);
      }

      .cls-36 {
        fill: url(#Degradado_sin_nombre_11-5);
      }

      .cls-37 {
        fill: url(#Degradado_sin_nombre_11-6);
      }

      .cls-38 {
        fill: url(#Degradado_sin_nombre_11-7);
      }

      .cls-39 {
        fill: url(#Degradado_sin_nombre_11-8);
      }

      .cls-40 {
        fill: #3a0ca3;
      }
    </style>
    <linearGradient id="linear-gradient" x1="100.96" y1="201.92" x2="100.96" gradientUnits="userSpaceOnUse">
      <stop offset="0" stop-color="#f72585"/>
      <stop offset="1" stop-color="#b5179e"/>
    </linearGradient>
    <clipPath id="clip-path">
      <circle class="cls-1" cx="100.96" cy="100.96" r="100.96"/>
    </clipPath>
    <linearGradient id="Áåçûìÿííûé_ãðàäèåíò_2" data-name="Áåçûìÿííûé ãðàäèåíò 2" x1="66.61" y1="136" x2="78.69" y2="136" gradientUnits="userSpaceOnUse">
      <stop offset="0" stop-color="#dca3f4"/>
      <stop offset="1" stop-color="#f1d8ff"/>
    </linearGradient>
    <clipPath id="clip-path-2">
      <path class="cls-1" d="M72.32,164a8.28,8.28,0,0,0,4-.94l100.74-58.16c.82-.48,1.3-1.06,1.3-1.59s-.46-1.09-1.26-1.55L127.53,73a8.21,8.21,0,0,0-4-.94,8.39,8.39,0,0,0-4,.94L18.79,131.14c-.83.47-1.3,1.05-1.3,1.58s.46,1.09,1.27,1.56L68.34,163.1A8.21,8.21,0,0,0,72.32,164Z"/>
    </clipPath>
    <radialGradient id="Degradado_sin_nombre_11" data-name="Degradado sin nombre 11" cx="130.3" cy="-66.02" r="54.13" gradientTransform="translate(15.4 109.56) rotate(14.28) scale(0.95)" gradientUnits="userSpaceOnUse">
      <stop offset="0" stop-color="#ffecd8"/>
      <stop offset="0.05" stop-color="#e53dff"/>
      <stop offset="0.06" stop-color="#dd3bf6" stop-opacity="0.96"/>
      <stop offset="0.1" stop-color="#b430c8" stop-opacity="0.78"/>
      <stop offset="0.14" stop-color="#8d269d" stop-opacity="0.61"/>
      <stop offset="0.19" stop-color="#6b1c77" stop-opacity="0.47"/>
      <stop offset="0.24" stop-color="#4e1557" stop-opacity="0.34"/>
      <stop offset="0.29" stop-color="#350e3b" stop-opacity="0.23"/>
      <stop offset="0.36" stop-color="#220925" stop-opacity="0.15"/>
      <stop offset="0.43" stop-color="#120514" stop-opacity="0.08"/>
      <stop offset="0.52" stop-color="#080209" stop-opacity="0.03"/>
      <stop offset="0.65" stop-color="#020002" stop-opacity="0.01"/>
      <stop offset="1" stop-opacity="0"/>
    </radialGradient>
    <radialGradient id="Degradado_sin_nombre_11-2" cx="96.89" cy="-44.22" r="39.41" gradientTransform="matrix(0.36, 0.88, -0.88, 0.36, 45.13, 31.04)" xlink:href="#Degradado_sin_nombre_11"/>
    <radialGradient id="Degradado_sin_nombre_11-3" cx="85.46" cy="-24.8" r="39.41" gradientTransform="translate(40.17 68.32) rotate(52.62) scale(0.95)" xlink:href="#Degradado_sin_nombre_11"/>
    <radialGradient id="Degradado_sin_nombre_11-4" cx="87.11" cy="-91.16" r="39.41" gradientTransform="translate(-9.25 42.67) rotate(52.46) scale(0.95)" xlink:href="#Degradado_sin_nombre_11"/>
    <radialGradient id="Degradado_sin_nombre_11-5" cx="10.92" cy="-35.9" r="39.41" gradientTransform="translate(5.98 124.67) rotate(45) scale(0.95)" xlink:href="#Degradado_sin_nombre_11"/>
    <radialGradient id="Degradado_sin_nombre_11-6" cx="47.99" cy="-14.34" r="39.41" gradientTransform="translate(39.15 94.57) rotate(61.98) scale(0.95)" xlink:href="#Degradado_sin_nombre_11"/>
    <radialGradient id="Degradado_sin_nombre_11-7" cx="64.56" cy="-78.22" r="39.41" gradientTransform="matrix(0.55, 0.77, -0.77, 0.55, -7.66, 60.53)" xlink:href="#Degradado_sin_nombre_11"/>
    <radialGradient id="Degradado_sin_nombre_11-8" cx="142.35" cy="-48.87" r="39.41" gradientTransform="translate(84.46 -24.2) rotate(76.03) scale(0.95)" xlink:href="#Degradado_sin_nombre_11"/>
  </defs>
  <g class="cls-2">
    <g id="Capa_2" data-name="Capa 2">
      <g id="Capa_2-2" data-name="Capa 2">
        <g>
          <circle class="cls-3" cx="100.96" cy="100.96" r="100.96"/>
          <g class="cls-4">
            <g id="_2" data-name="2">
              <g>
                <path class="cls-5" d="M18.14,148.48c-2.57,1.49-2.59,3.9,0,5.39L67.7,182.68a10.22,10.22,0,0,0,9.28,0l100.74-58.16c2.58-1.49,2.59-3.9,0-5.38L128.18,90.32a10.23,10.23,0,0,0-9.3,0Z"/>
                <g>
                  <path class="cls-6" d="M179.66,103.33v3.34a3.3,3.3,0,0,1-1.94,2.72L77,167.55a10.21,10.21,0,0,1-9.29,0L18.12,138.74a3.27,3.27,0,0,1-1.91-2.67v-3.34Z"/>
                  <g>
                    <path class="cls-7" d="M18.14,130c-2.58,1.49-2.59,3.9,0,5.39l49.58,28.82a10.24,10.24,0,0,0,9.29,0l100.74-58.16c2.58-1.49,2.59-3.9,0-5.38L128.18,71.85a10.23,10.23,0,0,0-9.3,0Z"/>
                    <path class="cls-8" d="M72.32,164a8.28,8.28,0,0,0,4-.94l100.74-58.16c.82-.48,1.3-1.06,1.3-1.59s-.46-1.09-1.26-1.55L127.53,73a8.21,8.21,0,0,0-4-.94,8.39,8.39,0,0,0-4,.94L18.79,131.14c-.83.47-1.3,1.05-1.3,1.58s.46,1.09,1.27,1.56L68.34,163.1A8.21,8.21,0,0,0,72.32,164Z"/>
                  </g>
                  <path class="cls-7" d="M165.54,93.57h-7.62a6.41,6.41,0,0,1-3.17-.85l-17-9.82A3.29,3.29,0,0,1,136.09,80V76.46Z"/>
                  <path class="cls-9" d="M38.59,150l6,3.49c.47.27.86.11.86-.37v-.39a1.8,1.8,0,0,0-.86-1.36l-6-3.48c-.47-.28-.86-.11-.86.36v.4A1.79,1.79,0,0,0,38.59,150Z"/>
                  <path class="cls-10" d="M38.22,149.71l1.75-1,4.66,2.69a1.8,1.8,0,0,1,.86,1.36v.39c0,.48-.39.64-.86.37l-6-3.49A1.79,1.79,0,0,1,38.22,149.71Z"/>
                  <g>
                    <g class="cls-2">
                      <path class="cls-11" d="M155.81,119.7a1.57,1.57,0,0,1,.27-.43,1.23,1.23,0,0,1,.31-.26l7-4a.48.48,0,0,1,.51,0l.56.33a.48.48,0,0,0-.51,0l-7,4a1.11,1.11,0,0,0-.32.26,1.57,1.57,0,0,0-.27.43,1.28,1.28,0,0,0-.12.53v.9a.48.48,0,0,0,.21.45l-.56-.32a.5.5,0,0,1-.21-.46v-.9A1.28,1.28,0,0,1,155.81,119.7Z"/>
                      <path class="cls-12" d="M157,119.34l7-4c.4-.23.71,0,.72.4v.9a1.55,1.55,0,0,1-.71,1.22l-7,4c-.39.23-.71,0-.71-.4v-.9A1.53,1.53,0,0,1,157,119.34Z"/>
                    </g>
                    <g class="cls-2">
                      <path class="cls-11" d="M144.15,126.43a1.63,1.63,0,0,1,.27-.43,1.53,1.53,0,0,1,.31-.26l7-4a.51.51,0,0,1,.5,0l.57.33a.53.53,0,0,0-.51.05l-7,4a1.23,1.23,0,0,0-.31.26,1.94,1.94,0,0,0-.27.43,1.31,1.31,0,0,0-.12.53v.9a.52.52,0,0,0,.2.46l-.56-.33a.5.5,0,0,1-.2-.45V127A1.33,1.33,0,0,1,144.15,126.43Z"/>
                      <path class="cls-12" d="M145.29,126.07l7-4c.39-.23.71,0,.71.41v.9a1.53,1.53,0,0,1-.7,1.22l-7,4c-.39.22-.71,0-.71-.41v-.9A1.53,1.53,0,0,1,145.29,126.07Z"/>
                    </g>
                  </g>
                </g>
                <path class="cls-13" d="M154.67,89.54a1.31,1.31,0,0,1-1.16,0l-8.93-5.16c-.33-.19-.33-.49,0-.67a1.23,1.23,0,0,1,1.15,0l8.94,5.16C155,89.05,155,89.35,154.67,89.54Z"/>
              </g>
              <g class="cls-14">
                <g class="cls-15">
                  <g>
                    <polygon id="Cube_face_-_left" data-name="Cube face - left" class="cls-16" points="72.42 169.63 37.08 149.23 37.08 123.92 72.42 144.32 72.42 169.63"/>
                    <polygon id="Cube_face_-_right" data-name="Cube face - right" class="cls-17" points="155.29 121.79 72.42 169.63 72.42 144.32 155.29 96.48 155.29 121.79"/>
                    <polygon class="cls-18" points="72.98 144.64 154.74 97.44 154.74 122.1 72.98 169.3 72.98 144.64"/>
                    <polygon class="cls-19" points="72.98 144.64 154.74 97.44 154.74 122.1 72.98 169.3 72.98 144.64"/>
                    <polygon class="cls-20" points="154.74 97.44 72.98 144.64 72.98 169.3 73.31 169.11 73.31 144.83 154.4 98.01 154.4 122.29 154.74 122.1 154.74 97.44"/>
                    <path class="cls-20" d="M154.52,105.61l-36.26,20.94v-7.81H118v7.94l-4.72,2.72v-7.8h-.22v7.93l-4.72,2.73v-7.81h-.22v7.93l-4.72,2.73V127.3h-.23v7.94L98.49,138v-7.8h-.22v7.93l-4.72,2.73V133h-.22v7.93l-4.72,2.73v-7.81h-.22v7.94l-4.72,2.72v-7.8h-.22v7.93l-4.72,2.73v-7.81h-.22v7.93l-5.41,3.12.11.2,5.3-3.06v16.35l.22-.13V149.63l4.72-2.73v16.36l.22-.13v-8.46l4.72-2.73v8.47l.22-.13v-8.46l4.72-2.73v8.46l.22-.13V149l4.72-2.72v8.46l.22-.13v-8.46l4.72-2.73v8.47l.23-.13v-8.46l4.72-2.73V149l.22-.12V132.51l4.72-2.72v16.35l.22-.13V129.66l4.72-2.73v16.36l.22-.13V126.8l36.37-21ZM88.39,151.69l-4.72,2.72v-7.63l4.72-2.73Zm4.94-2.85-4.72,2.72v-7.64l4.72-2.72ZM98.27,146l-4.72,2.73v-7.64l4.72-2.72Zm4.94-2.85-4.72,2.73v-7.64l4.72-2.73Zm5-2.85L103.44,143v-7.64l4.72-2.72Z"/>
                    <polygon id="Cube_face_-_top" data-name="Cube face - top" class="cls-21" points="72.42 144.32 37.08 123.92 119.94 76.08 155.29 96.48 72.42 144.32"/>
                    <g id="Axonometric_Cube" data-name="Axonometric Cube">
                      <polygon id="Cube_face_-_left-2" data-name="Cube face - left" class="cls-16" points="129.34 144.02 123.07 140.39 123.06 115.08 87.72 94.68 87.72 83.72 129.34 107.75 129.34 144.02"/>
                      <polygon id="Cube_face_-_right-2" data-name="Cube face - right" class="cls-17" points="151.09 131.46 129.34 144.02 129.34 107.75 151.09 95.2 151.09 131.46"/>
                      <polygon class="cls-18" points="129.9 111.17 150.54 99.25 150.54 131.81 129.9 143.72 129.9 111.17"/>
                      <polygon class="cls-19" points="129.9 111.17 150.54 99.25 150.54 131.81 129.9 143.72 129.9 111.17"/>
                      <polygon id="Cube_face_-_top-2" data-name="Cube face - top" class="cls-21" points="129.34 107.75 87.72 83.72 109.46 71.17 151.09 95.2 129.34 107.75"/>
                      <polygon class="cls-22" points="104.65 104.45 123.06 115.08 123.07 140.39 128.79 143.7 128.79 111.17 104.65 97.23 104.65 104.45"/>
                      <polygon class="cls-19" points="128.74 143.06 128.79 140.45 128.79 111.17 104.65 97.23 104.65 104.45 123.06 115.08 123.07 140.39 123.21 140.47 128.74 143.06"/>
                      <polygon class="cls-23" points="104.65 97.23 104.65 104.45 104.98 104.67 104.98 97.8 128.46 111.36 128.46 143.51 128.79 143.7 128.79 111.17 104.65 97.23"/>
                    </g>
                    <g>
                      <polygon class="cls-22" points="51.32 157.45 71.78 169.26 71.78 149.08 51.32 137.27 51.32 157.45"/>
                      <polygon class="cls-19" points="51.32 157.45 71.78 169.26 71.78 149.08 51.32 137.27 51.32 157.45"/>
                      <path class="cls-18" d="M51.21,157.38l.31.18V140.94l4.72,2.72v16.63l.22.12V143.79l4.72,2.73v16.62l.22.13V146.64l4.72,2.73V166l.22.13V149.5l5.2,3v16.62l.33.19v-20.4L51.21,137ZM66.34,146.1l5.2,3v3.14l-5.2-3Zm-4.94-2.85L66.12,146v3.15l-4.72-2.73Zm-4.94-2.85,4.72,2.72v3.14l-4.72-2.72Zm-4.94-2.86,4.72,2.73v3.14l-4.72-2.73Z"/>
                    </g>
                    <g>
                      <g>
                        <polygon id="Cube_face_-_left-3" data-name="Cube face - left" class="cls-16" points="85.82 138.46 83.62 137.19 83.62 163.17 85.82 164.44 85.82 138.46"/>
                        <polygon id="Cube_face_-_right-3" data-name="Cube face - right" class="cls-17" points="110.58 150.14 85.82 164.44 85.82 138.46 110.58 124.17 110.58 150.14"/>
                        <polygon id="Cube_face_-_top-3" data-name="Cube face - top" class="cls-21" points="85.82 138.46 83.62 137.19 108.38 122.89 110.58 124.17 85.82 138.46"/>
                      </g>
                      <g>
                        <polygon class="cls-18" points="108.52 151.33 88.06 163.14 88.06 141.57 108.52 129.76 108.52 151.33"/>
                        <polygon class="cls-19" points="108.52 151.33 88.06 163.14 88.06 141.57 108.52 129.76 108.52 151.33"/>
                        <path class="cls-20" d="M88,141.41V163.2l.33-.19V145l5.2-3v18l.22-.13V141.73l9.66-5.58V154.3l.22-.13v-18l4.72-2.73v18l.31-.18V129.48Zm5.53.33-5.2,3V141.6l5.2-3Zm4.94-2.85-4.72,2.72v-3.14l4.72-2.73Zm4.94-2.86-4.72,2.73v-3.14l4.72-2.73Zm4.94-2.85-4.72,2.72v-3.14l4.72-2.72Z"/>
                        <path class="cls-20" d="M93.56,141.76V160l10-5.74V136Zm2.32,16L94,158.82V141.93l1.92-1.12Zm2.32-1.34-1.93,1.11V140.59l1.93-1.11Zm2.6-1.5L98.88,156V139.09L100.8,138Zm2.32-1.34-1.93,1.11V137.75l1.93-1.11Z"/>
                      </g>
                    </g>
                    <path class="cls-20" d="M150.24,105.58v5.21l-4.72,2.73v-5.71l-.22.1v5.73l-4.72,2.73v-6.15l-.22.11v6.17l-4.72,2.72v-6.34l-.22.13v6.34l-5.2,3v-6.24l-.33.18v27.44l.33-.19V122.61l5.2-3v20.94l.09-.06,9.94-5.73.07-.05V113.77l4.72-2.72V132l.31-.18V105.43Zm-12.42,32.66-1.92,1.11V119.59l1.92-1.11Zm2.32-1.34L138.22,138V118.26l1.92-1.12Zm2.6-1.5-1.92,1.11V116.75l1.92-1.11Zm2.32-1.34-1.92,1.11V115.42l1.92-1.12Z"/>
                  </g>
                  <path class="cls-21" d="M72.42,169.77l-.07,0L37,149.35a.15.15,0,0,1-.07-.12V123.92a.14.14,0,0,1,.07-.12L87.58,94.6V83.72a.15.15,0,0,1,.07-.12L109.4,71.05a.11.11,0,0,1,.13,0L119,76.49l.91-.53a.12.12,0,0,1,.14,0l35.35,20.4a.15.15,0,0,1,.07.12v25.31a.14.14,0,0,1-.07.12l-4.13,2.38v7.17a.14.14,0,0,1-.07.12l-.49.28a.08.08,0,0,1,0,0l-5.08,2.94-10,5.76L130,143.84l-.08,0-.48.28a.15.15,0,0,1-.13,0l-6.21-3.59-12.35,7.13v2.46a.12.12,0,0,1-.07.12l-24.76,14.3a.17.17,0,0,1-.14,0l-2.13-1.23-11.13,6.42Zm-35.2-20.62,35.2,20.32,11.13-6.42a.12.12,0,0,1,.14,0l2.13,1.23,24.63-14.22V147.6a.12.12,0,0,1,.07-.12L123,140.27a.17.17,0,0,1,.14,0l6.21,3.59.47-.28h.07l5.55-3.21,9.92-5.72,5.08-2.94,0,0,.47-.27v-7.17a.15.15,0,0,1,.07-.12l4.13-2.38V96.56L119.94,76.23l-.92.54a.15.15,0,0,1-.13,0l-9.43-5.44L87.86,83.8V94.68a.14.14,0,0,1-.07.12L37.22,124Z"/>
                </g>
              </g>
              <g>
                <g>
                  <g>
                    <polygon id="Cube_face_-_left-4" data-name="Cube face - left" class="cls-16" points="72.42 153.67 37.08 133.26 37.08 107.95 72.42 128.36 72.42 153.67"/>
                    <polygon id="Cube_face_-_right-4" data-name="Cube face - right" class="cls-17" points="155.29 105.83 72.42 153.67 72.42 128.36 155.29 80.52 155.29 105.83"/>
                    <polygon class="cls-18" points="72.98 128.68 154.74 81.47 154.74 106.14 72.98 153.34 72.98 128.68"/>
                    <path class="cls-19" d="M125.83,98.16,125,113.31l-1.94,11.12-.14.06h-11L107.54,127h10.71l-.16.28h-11l-4.48,2.58h10.71l-.15.28h-11l-15.89,9.18-.35,6.58-2.34,1.35-2.11,1.21H73l0-19.78ZM78.68,149.85H73v.27h5.55Zm75.94-68L150,84.48,137.63,106.3h16.8l.16-.28.15-.88Z"/>
                    <polygon class="cls-20" points="154.74 81.47 72.98 128.68 72.98 153.34 73.31 153.15 73.31 128.87 154.4 82.05 154.4 106.33 154.74 106.14 154.74 81.47"/>
                    <path class="cls-20" d="M118.26,118.48v-7.64l36.37-21-.11-.19-36.26,20.94v-7.81H118v7.93l-4.72,2.73v-7.81h-.22v7.94l-4.72,2.72v-7.8h-.22v7.93l-4.72,2.73v-7.81h-.23v7.93L98.49,122v-7.81h-.22v7.94l-4.72,2.72v-7.8h-.22V125l-4.72,2.73V119.9h-.22v7.93l-4.72,2.73v-7.81h-.22v7.94l-4.72,2.72V125.6h-.22v7.94l-5.41,3.12.11.19,5.3-3.06v7.64l-5.41,3.12.11.19,5.3-3.05v8.46l.22-.13v-8.46l4.72-2.73v8.47l.22-.13v-8.46L88.39,136v8.46l.22-.13v-8.46l4.72-2.72v8.46l.22-.13V133l4.72-2.73v8.47l.22-.13v-8.46l4.72-2.73v8.46l.23-.13v-8.46l4.72-2.72V133l.22-.13v-8.46l4.72-2.73v8.47l.22-.13v-8.46l4.72-2.73v8.46l.22-.13v-8.46l36.37-21-.11-.19Zm-34.81,20.1-4.72,2.72v-7.63l4.72-2.73Zm4.94-2.85-4.72,2.72v-7.64l4.72-2.72Zm4.94-2.86-4.72,2.73V128l4.72-2.73ZM98.27,130l-4.72,2.72v-7.63l4.72-2.73Zm4.94-2.85-4.72,2.72v-7.64l4.72-2.72Zm5-2.86L103.44,127V119.4l4.72-2.72Zm4.94-2.85-4.72,2.72v-7.63l4.72-2.73Zm4.94-2.85-4.72,2.72v-7.64L118,111Z"/>
                    <polygon id="Cube_face_-_top-4" data-name="Cube face - top" class="cls-21" points="72.42 128.36 37.08 107.95 119.94 60.11 155.29 80.52 72.42 128.36"/>
                    <g id="Axonometric_Cube-2" data-name="Axonometric Cube">
                      <polygon id="Cube_face_-_left-5" data-name="Cube face - left" class="cls-16" points="129.34 128.05 123.07 124.43 123.06 99.12 87.72 78.72 87.72 67.76 129.34 91.79 129.34 128.05"/>
                      <polygon id="Cube_face_-_right-5" data-name="Cube face - right" class="cls-17" points="151.09 115.5 129.34 128.05 129.34 91.79 151.09 79.24 151.09 115.5"/>
                      <polygon class="cls-18" points="129.9 95.2 150.54 83.29 150.54 115.84 129.9 127.76 129.9 95.2"/>
                      <polygon id="Cube_face_-_top-5" data-name="Cube face - top" class="cls-21" points="129.34 91.79 87.72 67.76 109.46 55.2 151.09 79.24 129.34 91.79"/>
                      <polygon class="cls-22" points="104.65 88.49 123.06 99.12 123.07 124.43 128.79 127.73 128.79 95.2 104.65 81.26 104.65 88.49"/>
                      <polygon class="cls-19" points="128.74 124.51 128.79 124.48 128.79 95.2 104.65 81.26 104.65 88.49 123.06 99.12 123.07 124.43 123.21 124.51 128.74 124.51"/>
                      <polygon class="cls-23" points="104.65 81.26 104.65 88.49 104.98 88.71 104.98 81.84 128.46 95.4 128.46 127.54 128.79 127.73 128.79 95.2 104.65 81.26"/>
                    </g>
                    <path class="cls-19" d="M150.54,88.67l-.16,2,.07,8.56-.15.28H138.8l-4.48,2.58H145.5l-.16.28h-11.5l-3.94,2.28V95.2l20.64-11.91Zm-15,19.14H129.9v.27h5.53Zm5-2.86H129.9v.27h10.48Z"/>
                    <path class="cls-19" d="M142.43,116l-4.7,2.71h7.63l-.4.31h-7.77l-1.71,1h7.83l-.29.17-.22.09H135l-2,1.15h7.84l-.48.27-.25.11h-7.77l-1.71,1h7.83l-.29.17-.22.09h-7.77l-.29.17,0-10.7,20.3-9,.26-.07v12.41l-.15.1-.12.07Zm-12.5,8.2v.31h5.53l.25-.11.36-.2Z"/>
                    <path class="cls-20" d="M129.89,95.21v32.55l.33-.19v-8.46l5.2-3v8.46l.22-.13V116l4.72-2.72v8.46l.22-.13v-8.46l4.72-2.73v8.47l.22-.13v-8.46l4.72-2.73V116l.31-.18V83.28Zm15.63-8.65,4.72-2.72v7.67l-4.72,2.73Zm-4.94,2.86,4.72-2.73v7.67l-4.72,2.73Zm0,7.92,4.72-2.72v7.64L140.58,105Zm-4.94-5.07,4.72-2.73v7.68l-4.72,2.72Zm0,7.93,4.72-2.73v7.64l-4.72,2.72Zm-5.42-4.8,5.2-3v7.67l-5.2,3Zm0,7.92,5.2-3V108l-5.2,3Zm0,15.54v-7.64l5.2-3v7.64Zm5.42-3.13v-7.64l4.72-2.73V113Zm4.94-2.86v-7.63l4.72-2.73v7.64Zm4.94-2.85v-7.64l4.72-2.72v7.64Zm4.72-10.62-4.72,2.73V94.49l4.72-2.73Z"/>
                    <g id="Axonometric_Cube-3" data-name="Axonometric Cube">
                      <polygon id="Cube_face_-_left-6" data-name="Cube face - left" class="cls-16" points="75.96 124.76 40.68 104.4 40.68 105.97 75.96 126.33 75.96 124.76"/>
                      <polygon id="Cube_face_-_right-6" data-name="Cube face - right" class="cls-17" points="119.14 101.81 75.96 126.33 75.96 124.76 119.14 99.83 119.14 101.81"/>
                      <polygon id="Cube_face_-_top-6" data-name="Cube face - top" class="cls-21" points="75.96 124.76 40.68 104.4 83.87 79.46 119.14 99.83 75.96 124.76"/>
                      <polygon class="cls-24" points="41.79 104.4 83.87 80.1 97.51 87.98 55.43 112.27 41.79 104.4"/>
                    </g>
                    <g>
                      <g id="Axonometric_Cube-4" data-name="Axonometric Cube">
                        <polygon id="Cube_face_-_left-7" data-name="Cube face - left" class="cls-16" points="134.27 115.31 129.34 112.46 129.34 111.68 134.27 114.53 134.27 115.31"/>
                        <polygon id="Cube_face_-_right-7" data-name="Cube face - right" class="cls-17" points="166.48 96.71 134.27 115.31 134.27 114.53 166.48 95.93 166.48 96.71"/>
                      </g>
                      <polygon class="cls-21" points="155.29 89.47 151.09 91.89 151.09 99.13 129.35 111.69 134.27 114.53 166.48 95.93 155.29 89.47"/>
                    </g>
                    <g>
                      <g>
                        <g id="Axonometric_Cube-5" data-name="Axonometric Cube">
                          <polygon id="Cube_face_-_left-8" data-name="Cube face - left" class="cls-17" points="47.39 116.56 47.66 116.41 47.66 123.36 47.39 123.52 47.39 116.56"/>
                          <polygon id="Cube_face_-_right-8" data-name="Cube face - right" class="cls-17" points="38.57 118.43 47.39 123.52 47.39 116.56 38.57 111.47 38.57 118.43"/>
                          <polygon id="Cube_face_-_top-7" data-name="Cube face - top" class="cls-21" points="47.39 116.56 47.66 116.41 38.84 111.31 38.57 111.47 47.39 116.56"/>
                        </g>
                        <g>
                          <g>
                            <path class="cls-21" d="M38.18,111.19l.75,0a1.05,1.05,0,0,0,.6-.15l.17-.09a0,0,0,0,1,0,0l0,0a.08.08,0,0,1,0,0v0a.08.08,0,0,1,0,0l-.2.11a1.11,1.11,0,0,1-.61.15l-.75,0a.83.83,0,0,0-.46.11l-.06,0-.1-.06v-.09l.09-.06A.88.88,0,0,1,38.18,111.19Z"/>
                            <g id="Axonometric_Cube-6" data-name="Axonometric Cube">
                              <polygon id="Cube_face_-_left-9" data-name="Cube face - left" class="cls-16" points="37.09 112.08 37.86 111.64 37.86 111.46 37.09 111.9 37.09 112.08"/>
                              <polygon id="Cube_face_-_right-9" data-name="Cube face - right" class="cls-17" points="36.71 111.86 37.09 112.08 37.09 111.9 36.71 111.68 36.71 111.86"/>
                              <polygon id="Cube_face_-_top-8" data-name="Cube face - top" class="cls-21" points="37.09 111.9 37.86 111.46 37.48 111.24 36.71 111.68 37.09 111.9"/>
                            </g>
                          </g>
                          <g>
                            <path class="cls-21" d="M40.7,112.65l.75,0a1.13,1.13,0,0,0,.6-.14l.17-.1a0,0,0,0,1,.05,0l0,0a.05.05,0,0,1,0,0v0a.05.05,0,0,1,0,0l-.2.12a1.19,1.19,0,0,1-.61.14l-.75,0a.75.75,0,0,0-.46.11l-.06,0-.1-.06v-.09l.09,0A.76.76,0,0,1,40.7,112.65Z"/>
                            <g id="Axonometric_Cube-7" data-name="Axonometric Cube">
                              <polygon id="Cube_face_-_left-10" data-name="Cube face - left" class="cls-16" points="39.61 113.54 40.38 113.09 40.38 112.92 39.61 113.36 39.61 113.54"/>
                              <polygon id="Cube_face_-_right-10" data-name="Cube face - right" class="cls-17" points="39.23 113.31 39.61 113.54 39.61 113.36 39.23 113.14 39.23 113.31"/>
                              <polygon id="Cube_face_-_top-9" data-name="Cube face - top" class="cls-21" points="39.61 113.36 40.38 112.92 39.99 112.69 39.23 113.14 39.61 113.36"/>
                            </g>
                          </g>
                          <g>
                            <path class="cls-21" d="M43.22,114.1l.74,0a1,1,0,0,0,.61-.14l.17-.1h0l0,0a.05.05,0,0,1,0,0v0a.05.05,0,0,1,0,0l-.2.11a1,1,0,0,1-.6.14l-.75,0a.88.88,0,0,0-.47.11l-.05,0-.1,0v-.1l.09-.05A.84.84,0,0,1,43.22,114.1Z"/>
                            <g id="Axonometric_Cube-8" data-name="Axonometric Cube">
                              <polygon id="Cube_face_-_left-11" data-name="Cube face - left" class="cls-16" points="42.13 114.99 42.89 114.55 42.89 114.37 42.13 114.81 42.13 114.99"/>
                              <polygon id="Cube_face_-_right-11" data-name="Cube face - right" class="cls-17" points="41.74 114.77 42.13 114.99 42.13 114.81 41.74 114.59 41.74 114.77"/>
                              <polygon id="Cube_face_-_top-10" data-name="Cube face - top" class="cls-21" points="42.13 114.81 42.89 114.37 42.51 114.15 41.74 114.59 42.13 114.81"/>
                            </g>
                          </g>
                          <g>
                            <path class="cls-21" d="M45.73,115.55l.75,0a1.11,1.11,0,0,0,.61-.15l.17-.09a0,0,0,0,1,.05,0l0,0s0,0,0,0v0s0,0,0,0l-.2.12a1.13,1.13,0,0,1-.6.14l-.75,0a.86.86,0,0,0-.47.11l-.06,0-.09-.06v-.09l.09-.06A.83.83,0,0,1,45.73,115.55Z"/>
                            <g id="Axonometric_Cube-9" data-name="Axonometric Cube">
                              <polygon id="Cube_face_-_left-12" data-name="Cube face - left" class="cls-16" points="44.65 116.44 45.41 116 45.41 115.82 44.65 116.27 44.65 116.44"/>
                              <polygon id="Cube_face_-_right-12" data-name="Cube face - right" class="cls-17" points="44.26 116.22 44.65 116.44 44.65 116.27 44.26 116.05 44.26 116.22"/>
                              <polygon id="Cube_face_-_top-11" data-name="Cube face - top" class="cls-21" points="44.65 116.27 45.41 115.82 45.03 115.6 44.26 116.05 44.65 116.27"/>
                            </g>
                          </g>
                        </g>
                      </g>
                      <g>
                        <g id="Axonometric_Cube-10" data-name="Axonometric Cube">
                          <polygon id="Cube_face_-_left-13" data-name="Cube face - left" class="cls-17" points="58.93 123.23 59.2 123.07 59.2 130.03 58.93 130.19 58.93 123.23"/>
                          <polygon id="Cube_face_-_right-13" data-name="Cube face - right" class="cls-24" points="50.12 125.09 58.93 130.19 58.93 123.23 50.12 118.14 50.12 125.09"/>
                          <polygon id="Cube_face_-_top-12" data-name="Cube face - top" class="cls-21" points="58.93 123.23 59.2 123.07 50.38 117.98 50.12 118.14 58.93 123.23"/>
                        </g>
                        <g>
                          <g>
                            <path class="cls-21" d="M49.72,117.86l.75,0a1.19,1.19,0,0,0,.61-.14l.17-.1h0l0,0a.05.05,0,0,1,0,0v0s0,0,0,0l-.2.12a1,1,0,0,1-.6.14l-.75,0a.86.86,0,0,0-.47.11l-.06,0-.09-.06V118l.09,0A.83.83,0,0,1,49.72,117.86Z"/>
                            <g id="Axonometric_Cube-11" data-name="Axonometric Cube">
                              <polygon id="Cube_face_-_left-14" data-name="Cube face - left" class="cls-16" points="48.64 118.75 49.4 118.31 49.4 118.13 48.64 118.57 48.64 118.75"/>
                              <polygon id="Cube_face_-_right-14" data-name="Cube face - right" class="cls-17" points="48.25 118.53 48.64 118.75 48.64 118.57 48.25 118.35 48.25 118.53"/>
                              <polygon id="Cube_face_-_top-13" data-name="Cube face - top" class="cls-21" points="48.64 118.57 49.4 118.13 49.02 117.91 48.25 118.35 48.64 118.57"/>
                            </g>
                          </g>
                          <g>
                            <path class="cls-21" d="M52.24,119.31l.75,0a1.11,1.11,0,0,0,.61-.15l.16-.09a0,0,0,0,1,.05,0l0,0a.05.05,0,0,1,0,0v0a.05.05,0,0,1,0,0l-.2.11a1.07,1.07,0,0,1-.61.15l-.74,0a.84.84,0,0,0-.47.11l-.06,0-.1-.05v-.1l.1,0A.83.83,0,0,1,52.24,119.31Z"/>
                            <g id="Axonometric_Cube-12" data-name="Axonometric Cube">
                              <polygon id="Cube_face_-_left-15" data-name="Cube face - left" class="cls-16" points="51.15 120.2 51.92 119.76 51.92 119.58 51.15 120.02 51.15 120.2"/>
                              <polygon id="Cube_face_-_right-15" data-name="Cube face - right" class="cls-17" points="50.77 119.98 51.15 120.2 51.15 120.02 50.77 119.8 50.77 119.98"/>
                              <polygon id="Cube_face_-_top-14" data-name="Cube face - top" class="cls-21" points="51.15 120.02 51.92 119.58 51.54 119.36 50.77 119.8 51.15 120.02"/>
                            </g>
                          </g>
                          <g>
                            <path class="cls-21" d="M54.76,120.77l.75,0a1.13,1.13,0,0,0,.6-.14l.17-.1h0l.05,0a.05.05,0,0,1,0,0v0a.05.05,0,0,1,0,0l-.2.12a1.19,1.19,0,0,1-.61.14l-.75,0a.92.92,0,0,0-.46.11l-.06,0-.1-.06v-.09l.09-.06A.87.87,0,0,1,54.76,120.77Z"/>
                            <g id="Axonometric_Cube-13" data-name="Axonometric Cube">
                              <polygon id="Cube_face_-_left-16" data-name="Cube face - left" class="cls-16" points="53.67 121.66 54.44 121.21 54.44 121.03 53.67 121.48 53.67 121.66"/>
                              <polygon id="Cube_face_-_right-16" data-name="Cube face - right" class="cls-17" points="53.29 121.43 53.67 121.66 53.67 121.48 53.29 121.26 53.29 121.43"/>
                              <polygon id="Cube_face_-_top-15" data-name="Cube face - top" class="cls-21" points="53.67 121.48 54.44 121.03 54.05 120.81 53.29 121.26 53.67 121.48"/>
                            </g>
                          </g>
                          <g>
                            <path class="cls-21" d="M57.28,122.22l.75,0a1,1,0,0,0,.6-.14l.17-.1h.05l0,0a.08.08,0,0,1,0,0v0a.08.08,0,0,1,0,.05l-.2.11a1,1,0,0,1-.61.14l-.75,0a.83.83,0,0,0-.46.11l-.06,0-.1,0v-.1l.09,0A.86.86,0,0,1,57.28,122.22Z"/>
                            <g id="Axonometric_Cube-14" data-name="Axonometric Cube">
                              <polygon id="Cube_face_-_left-17" data-name="Cube face - left" class="cls-16" points="56.19 123.11 56.96 122.67 56.96 122.49 56.19 122.93 56.19 123.11"/>
                              <polygon id="Cube_face_-_right-17" data-name="Cube face - right" class="cls-17" points="55.81 122.89 56.19 123.11 56.19 122.93 55.81 122.71 55.81 122.89"/>
                              <polygon id="Cube_face_-_top-16" data-name="Cube face - top" class="cls-21" points="56.19 122.93 56.96 122.49 56.57 122.27 55.81 122.71 56.19 122.93"/>
                            </g>
                          </g>
                        </g>
                      </g>
                      <g>
                        <g id="Axonometric_Cube-15" data-name="Axonometric Cube">
                          <polygon id="Cube_face_-_left-18" data-name="Cube face - left" class="cls-17" points="70.48 129.89 70.75 129.74 70.75 136.69 70.48 136.85 70.48 129.89"/>
                          <polygon id="Cube_face_-_right-18" data-name="Cube face - right" class="cls-19" points="61.66 131.76 70.48 136.85 70.48 129.89 61.66 124.8 61.66 131.76"/>
                          <polygon id="Cube_face_-_top-17" data-name="Cube face - top" class="cls-21" points="70.48 129.89 70.75 129.74 61.93 124.64 61.66 124.8 70.48 129.89"/>
                        </g>
                        <g>
                          <g>
                            <path class="cls-21" d="M61.27,124.52l.75,0a1.05,1.05,0,0,0,.6-.15l.17-.09a0,0,0,0,1,.05,0l0,0a.08.08,0,0,1,0,.05v0a.08.08,0,0,1,0,0l-.2.11a1.11,1.11,0,0,1-.61.15l-.75,0a.83.83,0,0,0-.46.11l-.06,0-.1-.06v-.09l.09-.06A.86.86,0,0,1,61.27,124.52Z"/>
                            <g id="Axonometric_Cube-16" data-name="Axonometric Cube">
                              <polygon id="Cube_face_-_left-19" data-name="Cube face - left" class="cls-16" points="60.18 125.41 60.95 124.97 60.95 124.79 60.18 125.23 60.18 125.41"/>
                              <polygon id="Cube_face_-_right-19" data-name="Cube face - right" class="cls-17" points="59.8 125.19 60.18 125.41 60.18 125.23 59.8 125.01 59.8 125.19"/>
                              <polygon id="Cube_face_-_top-18" data-name="Cube face - top" class="cls-21" points="60.18 125.23 60.95 124.79 60.56 124.57 59.8 125.01 60.18 125.23"/>
                            </g>
                          </g>
                          <g>
                            <path class="cls-21" d="M63.79,126l.74,0a1.15,1.15,0,0,0,.61-.14l.17-.1a0,0,0,0,1,0,0l0,0a.05.05,0,0,1,0,0v0s0,0,0,0l-.2.12a1.13,1.13,0,0,1-.6.14l-.75,0a.8.8,0,0,0-.47.11l-.05,0-.1-.06v-.09l.09,0A.76.76,0,0,1,63.79,126Z"/>
                            <g id="Axonometric_Cube-17" data-name="Axonometric Cube">
                              <polygon id="Cube_face_-_left-20" data-name="Cube face - left" class="cls-16" points="62.7 126.87 63.46 126.42 63.46 126.25 62.7 126.69 62.7 126.87"/>
                              <polygon id="Cube_face_-_right-20" data-name="Cube face - right" class="cls-17" points="62.31 126.64 62.7 126.87 62.7 126.69 62.31 126.47 62.31 126.64"/>
                              <polygon id="Cube_face_-_top-19" data-name="Cube face - top" class="cls-21" points="62.7 126.69 63.46 126.25 63.08 126.03 62.31 126.47 62.7 126.69"/>
                            </g>
                          </g>
                          <g>
                            <path class="cls-21" d="M66.3,127.43l.75,0a1,1,0,0,0,.61-.14l.17-.1h0l0,0a.05.05,0,0,1,0,0v0a.05.05,0,0,1,0,0l-.2.11a1.05,1.05,0,0,1-.6.15l-.75-.05a.86.86,0,0,0-.47.11l-.06,0-.09,0v-.1l.09,0A.83.83,0,0,1,66.3,127.43Z"/>
                            <g id="Axonometric_Cube-18" data-name="Axonometric Cube">
                              <polygon id="Cube_face_-_left-21" data-name="Cube face - left" class="cls-16" points="65.22 128.32 65.98 127.88 65.98 127.7 65.22 128.14 65.22 128.32"/>
                              <polygon id="Cube_face_-_right-21" data-name="Cube face - right" class="cls-17" points="64.83 128.1 65.22 128.32 65.22 128.14 64.83 127.92 64.83 128.1"/>
                              <polygon id="Cube_face_-_top-20" data-name="Cube face - top" class="cls-21" points="65.22 128.14 65.98 127.7 65.6 127.48 64.83 127.92 65.22 128.14"/>
                            </g>
                          </g>
                          <g>
                            <path class="cls-21" d="M68.82,128.88l.75.05a1.19,1.19,0,0,0,.61-.14l.16-.1h0l0,0s0,0,0,0v0s0,0,0,0l-.2.12a1.15,1.15,0,0,1-.61.14l-.74,0a.84.84,0,0,0-.47.11l-.06,0-.09-.06v-.09l.09-.06A.83.83,0,0,1,68.82,128.88Z"/>
                            <g id="Axonometric_Cube-19" data-name="Axonometric Cube">
                              <polygon id="Cube_face_-_left-22" data-name="Cube face - left" class="cls-16" points="67.73 129.77 68.5 129.33 68.5 129.15 67.73 129.6 67.73 129.77"/>
                              <polygon id="Cube_face_-_right-22" data-name="Cube face - right" class="cls-17" points="67.35 129.55 67.73 129.77 67.73 129.6 67.35 129.38 67.35 129.55"/>
                              <polygon id="Cube_face_-_top-21" data-name="Cube face - top" class="cls-21" points="67.73 129.6 68.5 129.15 68.12 128.93 67.35 129.38 67.73 129.6"/>
                            </g>
                          </g>
                        </g>
                      </g>
                    </g>
                    <g>
                      <polygon class="cls-22" points="51.32 141.48 71.78 153.29 71.78 141.34 51.32 129.53 51.32 141.48"/>
                      <path class="cls-19" d="M71.78,150.12H67.49l-.6.35-15.57-9v-12l20.46,11.81v7.14H70.35L68,149.85h3.81Z"/>
                      <path class="cls-18" d="M51.21,141.42l.31.18v-8.4l4.72,2.72v8.4l.22.13v-8.4l4.72,2.72v8.41l.22.12v-8.4l4.72,2.73V150l.22.13v-8.4l5.2,3v8.4l.33.19V141.17L51.21,129.24Zm15.13-3.06,5.2,3v3.14l-5.2-3Zm-4.94-2.85,4.72,2.72v3.14l-4.72-2.72Zm-4.94-2.86,4.72,2.73v3.14l-4.72-2.73Zm-4.94-2.85,4.72,2.73v3.14l-4.72-2.73Z"/>
                    </g>
                    <g>
                      <g>
                        <polygon id="Cube_face_-_left-23" data-name="Cube face - left" class="cls-16" points="85.82 132.11 83.62 130.84 83.62 147.2 85.82 148.47 85.82 132.11"/>
                        <polygon id="Cube_face_-_right-23" data-name="Cube face - right" class="cls-17" points="110.58 134.18 85.82 148.47 85.82 132.11 110.58 117.81 110.58 134.18"/>
                        <polygon id="Cube_face_-_top-22" data-name="Cube face - top" class="cls-21" points="85.82 132.11 83.62 130.84 108.38 116.54 110.58 117.81 85.82 132.11"/>
                      </g>
                      <g id="Axonometric_Cube-20" data-name="Axonometric Cube">
                        <polygon id="Cube_face_-_left-24" data-name="Cube face - left" class="cls-16" points="88.61 132.95 88.29 132.77 88.29 129.29 88.61 129.47 88.61 132.95"/>
                        <polygon id="Cube_face_-_right-24" data-name="Cube face - right" class="cls-17" points="108.06 121.72 88.61 132.95 88.61 129.47 108.06 118.24 108.06 121.72"/>
                        <polygon id="Cube_face_-_top-23" data-name="Cube face - top" class="cls-21" points="88.61 129.47 88.29 129.29 107.74 118.06 108.06 118.24 88.61 129.47"/>
                      </g>
                      <g>
                        <polygon class="cls-18" points="108.52 135.37 88.06 147.18 88.06 135.22 108.52 123.41 108.52 135.37"/>
                        <path class="cls-19" d="M100.47,135.48l-4.7,2.72h7.63l-.4.31H95.23l-1.71,1h7.85l-.26.14-.27.12H93.07l-2,1.14h7.85l-.37.22-.37.16H90.42l-1.71,1h7.85l-.26.15-.27.11H88.26l-.2.12v-7.43l20.46-11.81v11.94l-.2.13Zm-12.41,8.2V144H93.5l.31-.13.31-.18Z"/>
                        <path class="cls-20" d="M88,135.05v12.18l.33-.19v-8.4l5.2-3V144l.22-.13v-8.53l9.66-5.58v8.53l.22-.12v-8.4l4.72-2.73v8.4l.31-.18V123.12Zm5.53.33-5.2,3v-3.14l5.2-3Zm4.94-2.85-4.72,2.73v-3.14l4.72-2.73Zm4.94-2.85-4.72,2.72v-3.14l4.72-2.72Zm4.94-2.85-4.72,2.72v-3.14l4.72-2.73Z"/>
                        <path class="cls-20" d="M93.56,135.41V144l10-5.74v-8.59Zm2.32,6.34L94,142.86v-7.29l1.92-1.11Zm2.32-1.34-1.93,1.11v-7.28l1.93-1.12Zm2.6-1.5L98.88,140v-7.29l1.92-1.11Zm2.32-1.34-1.93,1.11v-7.29l1.93-1.11Z"/>
                      </g>
                    </g>
                    <path class="cls-20" d="M135.51,115.93v8.59l9.94-5.74v-8.59Zm2.31,6.34-1.92,1.11V116.1l1.92-1.11Zm2.32-1.34-1.92,1.12v-7.29l1.92-1.11Zm2.6-1.5-1.92,1.11v-7.28l1.92-1.11Zm2.32-1.34-1.92,1.12v-7.29l1.92-1.11Z"/>
                    <g>
                      <g>
                        <g>
                          <polygon class="cls-25" points="95.95 104.39 108.56 97.11 113.34 99.87 100.74 107.15 95.95 104.39"/>
                          <polygon class="cls-26" points="112.9 99.87 100.74 106.89 96.4 104.39 108.56 97.37 112.9 99.87"/>
                          <path class="cls-25" d="M103.39,105.45l-.11.15L98.77,103l.06-.17Zm-2-4.1-.06.17,4.52,2.61.1-.15Zm2.55-1.47-.06.17,4.51,2.61.11-.15Zm2.54-1.47-.06.18,4.52,2.6.1-.15Z"/>
                        </g>
                        <g>
                          <polygon class="cls-25" points="71.39 118.57 83.99 111.29 88.78 114.05 76.17 121.33 71.39 118.57"/>
                          <polygon class="cls-26" points="88.33 114.05 76.17 121.07 71.83 118.57 83.99 111.55 88.33 114.05"/>
                          <path class="cls-25" d="M78.82,119.63l-.1.15-4.51-2.61.06-.17Zm-2-4.1-.06.17,4.52,2.61.1-.15Zm2.55-1.47-.06.18,4.51,2.6.1-.15Zm2.54-1.47-.06.18,4.52,2.6.1-.15Z"/>
                        </g>
                      </g>
                      <g>
                        <g>
                          <polygon class="cls-25" points="85.39 98.29 97.99 91.01 102.77 93.77 90.17 101.05 85.39 98.29"/>
                          <polygon class="cls-26" points="102.33 93.77 90.17 100.79 85.83 98.29 97.99 91.27 102.33 93.77"/>
                          <path class="cls-25" d="M92.82,99.35l-.1.15-4.51-2.61.06-.17Zm-2-4.1-.06.17L95.27,98l.1-.15Zm2.54-1.47-.06.17,4.52,2.61.1-.15Zm2.55-1.47-.06.18,4.51,2.6.11-.15Z"/>
                        </g>
                        <g>
                          <polygon class="cls-25" points="60.83 112.47 73.43 105.19 78.21 107.95 65.61 115.23 60.83 112.47"/>
                          <polygon class="cls-26" points="77.77 107.95 65.61 114.97 61.27 112.47 73.43 105.45 77.77 107.95"/>
                          <path class="cls-25" d="M68.26,113.53l-.1.15-4.52-2.61.06-.17Zm-2-4.1-.06.17,4.51,2.61.11-.15ZM68.79,108l-.06.18,4.52,2.6.1-.15Zm2.55-1.47-.06.18,4.51,2.6.1-.15Z"/>
                        </g>
                      </g>
                    </g>
                    <g>
                      <g>
                        <polygon class="cls-27" points="63.06 95.07 59.22 97.29 62.71 99.3 64.08 99.3 63.06 95.07"/>
                        <g>
                          <g id="Axonometric_Cube-21" data-name="Axonometric Cube">
                            <polygon id="Cube_face_-_top-24" data-name="Cube face - top" class="cls-21" points="67.82 95.69 64.08 93.53 60.34 95.69 64.08 97.85 67.82 95.69"/>
                            <polygon id="Cube_face_-_left-25" data-name="Cube face - left" class="cls-16" points="64.08 99.3 60.34 97.14 60.34 95.69 64.08 97.85 64.08 99.3"/>
                            <polygon id="Cube_face_-_right-25" data-name="Cube face - right" class="cls-17" points="67.82 97.14 64.08 99.3 64.08 97.85 67.82 95.69 67.82 97.14"/>
                          </g>
                          <ellipse class="cls-24" cx="64.12" cy="95.67" rx="2.11" ry="1.22"/>
                          <ellipse class="cls-28" cx="64.12" cy="95.67" rx="1.75" ry="1.01"/>
                          <ellipse class="cls-21" cx="64.12" cy="95.67" rx="0.48" ry="0.28"/>
                        </g>
                      </g>
                      <g>
                        <polygon class="cls-27" points="56.68 98.75 52.84 100.97 56.33 102.99 57.7 102.99 56.68 98.75"/>
                        <g>
                          <g id="Axonometric_Cube-22" data-name="Axonometric Cube">
                            <polygon id="Cube_face_-_top-25" data-name="Cube face - top" class="cls-21" points="61.44 99.38 57.7 97.22 53.95 99.38 57.7 101.54 61.44 99.38"/>
                            <polygon id="Cube_face_-_left-26" data-name="Cube face - left" class="cls-16" points="57.7 102.99 53.95 100.83 53.95 99.38 57.7 101.54 57.7 102.99"/>
                            <polygon id="Cube_face_-_right-26" data-name="Cube face - right" class="cls-17" points="61.44 100.83 57.7 102.99 57.7 101.54 61.44 99.38 61.44 100.83"/>
                          </g>
                          <ellipse class="cls-24" cx="57.73" cy="99.35" rx="2.11" ry="1.22"/>
                          <ellipse class="cls-28" cx="57.73" cy="99.35" rx="1.75" ry="1.01"/>
                          <path class="cls-21" d="M58.08,99.16a.21.21,0,0,1,0,.39.76.76,0,0,1-.69,0,.21.21,0,0,1,0-.39A.76.76,0,0,1,58.08,99.16Z"/>
                        </g>
                      </g>
                      <g>
                        <polygon class="cls-27" points="50.3 102.44 46.45 104.66 49.95 106.67 51.31 106.67 50.3 102.44"/>
                        <g>
                          <g id="Axonometric_Cube-23" data-name="Axonometric Cube">
                            <polygon id="Cube_face_-_top-26" data-name="Cube face - top" class="cls-21" points="55.06 103.06 51.31 100.9 47.57 103.06 51.31 105.22 55.06 103.06"/>
                            <polygon id="Cube_face_-_left-27" data-name="Cube face - left" class="cls-16" points="51.31 106.67 47.57 104.51 47.57 103.06 51.31 105.22 51.31 106.67"/>
                            <polygon id="Cube_face_-_right-27" data-name="Cube face - right" class="cls-17" points="55.06 104.51 51.31 106.67 51.31 105.22 55.06 103.06 55.06 104.51"/>
                          </g>
                          <ellipse class="cls-24" cx="51.35" cy="103.04" rx="2.11" ry="1.22"/>
                          <ellipse class="cls-28" cx="51.35" cy="103.04" rx="1.75" ry="1.01"/>
                          <path class="cls-21" d="M51.69,102.84a.21.21,0,0,1,0,.4.81.81,0,0,1-.68,0,.21.21,0,0,1,0-.4A.74.74,0,0,1,51.69,102.84Z"/>
                        </g>
                      </g>
                    </g>
                  </g>
                  <path class="cls-29" d="M128.18,71.85a10.23,10.23,0,0,0-9.3,0l-81.8,47.23v14.18l14.13,8.16.11.06,20.22,11.68,0,0,.2.11.64.38,11.2-6.47,2.2,1.28,24.76-14.3v-2.54l12.47-7.2s6.3,3.61,6.3,3.61l.54-.31s5.62-3.22,5.62-3.22l9.94-5.74,5.09-2.94s.55-.34.55-.34v-7.25l4.2-2.42v-2.66l11.19-6.46v-.78l-11.19-6.46V87.61Z"/>
                  <path class="cls-21" d="M72.42,153.81l-.07,0L51.25,141.6l-.11-.06L37,133.38a.14.14,0,0,1-.07-.12v-21.1l-.3-.18a.14.14,0,0,1-.07-.12v-.18a.15.15,0,0,1,.07-.12l.3-.17V108a.15.15,0,0,1,.07-.12l3.54-2V104.4a.13.13,0,0,1,.06-.12L83.8,79.34a.17.17,0,0,1,.14,0l1.21.7,2.43-1.4V67.76a.14.14,0,0,1,.07-.12L109.4,55.08a.15.15,0,0,1,.13,0L119,60.52l.91-.53a.17.17,0,0,1,.14,0L155.36,80.4a.14.14,0,0,1,.07.12v8.87l11.12,6.42a.15.15,0,0,1,.07.12v.78a.15.15,0,0,1-.07.12l-11.12,6.42v2.58a.15.15,0,0,1-.07.12l-4.13,2.38v7.17a.15.15,0,0,1-.07.12l-.49.28a.12.12,0,0,1,0,0l-5.08,2.93-10,5.76L130,127.88l-.08,0-.48.27a.11.11,0,0,1-.13,0l-6.21-3.58-12.35,7.13v2.46a.13.13,0,0,1-.07.12L85.89,148.59a.12.12,0,0,1-.14,0l-2.13-1.23-11.13,6.43Zm-21-12.44,21,12.14,11.13-6.43a.17.17,0,0,1,.14,0l2.13,1.24,24.63-14.22v-2.46a.12.12,0,0,1,.07-.12l12.46-7.2,0,0a.17.17,0,0,1,.12,0l6.21,3.58.47-.27.07,0,5.55-3.2,9.92-5.73,5.08-2.93,0,0,.47-.27v-7.17a.14.14,0,0,1,.07-.12l4.13-2.38v-2.58a.15.15,0,0,1,.07-.12l11.12-6.42V96l-11.12-6.42a.15.15,0,0,1-.07-.12V80.6L119.94,60.27l-.92.53a.11.11,0,0,1-.13,0l-9.43-5.44L87.86,67.84V78.72a.15.15,0,0,1-.07.12l-2.57,1.48a.17.17,0,0,1-.14,0l-1.21-.7L40.82,104.48v1.39a.12.12,0,0,1-.07.12l-3.53,2v3.44a.15.15,0,0,1-.07.12l-.3.19.3.18a.14.14,0,0,1,.07.12v21.1l14.17,8.18Z"/>
                </g>
                <g class="cls-30">
                  <path class="cls-31" d="M44,95.55a.17.17,0,0,0-.14,0l-10,5.79a.13.13,0,0,0,0,.19.13.13,0,0,0,.19,0l9.81-5.67,0,14a.14.14,0,0,0,.14.14.14.14,0,0,0,.14-.13l0-14.24A.15.15,0,0,0,44,95.55Z"/>
                  <path class="cls-31" d="M44.84,109.35c.54.31.54.8,0,1.11a2.12,2.12,0,0,1-1.93,0,.59.59,0,0,1,0-1.11A2.12,2.12,0,0,1,44.84,109.35Z"/>
                  <path class="cls-31" d="M33.68,95.21,32,96.2v.42l1.71-1Zm.56.1L37,93.72V93.3l-2.76,1.59Zm3.32-1.92,1.86-1.07V91.9L37.56,93ZM40,92l3.93-2.27v-.42L40,91.58Zm-5,3.61-3,1.73v.41L35,96Zm3.55-2-3,1.73v.41l3-1.72Zm.56.09,1.25-.72v-.41l-1.25.71Zm1.81-1,3-1.75v-.42l-3,1.75ZM32,98.89l1.71-1v-.42l-1.71,1Zm2.27-1.32L37,96v-.42l-2.76,1.6Zm3.32-1.91,1.86-1.07v-.42l-1.86,1.07ZM40,94.26,43.91,92v-.42L40,93.85Zm-1.19-7.62-1,.6v.42l1-.6Zm.56.09,1.82-1v-.41l-1.82,1Zm2.38-1.37,2.14-1.24v-.41l-2.14,1.23ZM40.07,87l-2.33,1.35v.41l2.33-1.34Zm2.61-1.5-2,1.18v.42l2-1.19Zm.56.09.65-.37v-.42l-.65.37Zm-5.5,4.31,1-.61v-.41l-1,.6ZM39.35,89l1.82-1v-.42l-1.82,1Zm2.38-1.37,2.18-1.26V86l-2.18,1.26Z"/>
                  <path class="cls-31" d="M169.74,74.88a.14.14,0,0,0-.19,0L161.8,79.3a.15.15,0,0,0-.07.12v16.4a.13.13,0,0,0,.14.13.14.14,0,0,0,.14-.13V79.5l7.68-4.43A.15.15,0,0,0,169.74,74.88Z"/>
                  <path class="cls-31" d="M162.84,95.26a.59.59,0,0,1,0,1.11,2.14,2.14,0,0,1-1.94,0,.59.59,0,0,1,0-1.11A2.14,2.14,0,0,1,162.84,95.26Z"/>
                  <path class="cls-31" d="M164.3,61.74l-3.07,1.78V64l3.07-1.78Zm4.14-2.39-3.56,2.06v.43l3.56-2.06ZM163,63.66l-1.76,1v.43l1.76-1Zm3.41-2-2.83,1.64v.43l2.83-1.64Zm.58.1,1.47-.85v-.43l-1.47.85Zm-2.68,2.28-3.07,1.78v.42l3.07-1.77Zm4.14-2.39-3.56,2.06v.43l3.56-2.06ZM163,66l-1.76,1v.43l1.76-1Zm.58.1,2.83-1.64V64l-2.83,1.64Zm3.41-2,1.47-.85v-.43l-1.47.85ZM164.3,66.4l-3.07,1.78v.42l3.07-1.77ZM168.44,64l-3.56,2.06v.43l3.56-2.06Zm-7.21,5.76,1.76-1v-.43l-1.76,1Zm2.34-1.35,2.83-1.64v-.43L163.57,68Zm3.41-2,1.47-.85v-.43L167,66Z"/>
                  <path class="cls-31" d="M164,74.58l-2.72,1.58v.44L164,75ZM165.7,74v-.44l-1.23.71v.44Zm1.65-1.39-1.14.65v.44l1.14-.65Zm2.38-1.38-1.87,1.08v.44l1.87-1.08Zm-6.93,2.81-1.56.91v.43l1.56-.9Zm1.53-.44v-.44l-1,.59v.44Zm2.2-1.71-1.69,1v.44l1.69-1Zm3.2-1.85L167,71.62v.44l2.69-1.56ZM164,72.2l-2.72,1.57v.44L164,72.64Zm1.74-.57v-.44l-1.23.72v.44Zm1.65-1.39-1.14.66v.44l1.14-.66Zm2.38-1.37L167.86,70v.44l1.87-1.08Zm-6.93,2.81-1.56.9V73l1.56-.9Zm1.53-.44V70.8l-1,.59v.44Zm2.2-1.71-1.69,1v.44l1.69-1Zm3.2-1.85L167,69.23v.44l2.69-1.56Z"/>
                  <path class="cls-31" d="M80.4,102.12a.14.14,0,0,0-.19-.05l-7.75,4.47a.15.15,0,0,0-.07.12v19.67a.14.14,0,1,0,.28,0V106.74l7.68-4.43A.14.14,0,0,0,80.4,102.12Z"/>
                  <path class="cls-31" d="M73.5,125.77a.59.59,0,0,1,0,1.12,2.14,2.14,0,0,1-1.94,0,.59.59,0,0,1,0-1.12A2.14,2.14,0,0,1,73.5,125.77Z"/>
                  <path class="cls-31" d="M75.32,96.51l-3.08,1.78v.43l3.08-1.78Zm4.14-2.39-3.57,2.06v.43l3.57-2.06ZM74,98.43l-1.76,1v.43l1.76-1Zm3.41-2L74.58,98.1v.43l2.83-1.64Zm.58.1,1.47-.85v-.43L78,96.13Zm-2.67,2.28-3.08,1.78v.43l3.08-1.78Zm4.14-2.39-3.57,2.06v.43l3.57-2.06ZM74,100.76l-1.76,1v.43l1.76-1Zm.58.1,2.83-1.64v-.43l-2.83,1.64Zm3.41-2L79.46,98v-.43L78,98.46Zm-2.67,2.28L72.24,103v.42l3.08-1.77Zm4.14-2.39-3.57,2.06v.43l3.57-2.06Zm-7.22,5.76,1.76-1v-.43l-1.76,1Zm2.34-1.35,2.83-1.64v-.43l-2.83,1.64Zm3.41-2,1.47-.85v-.43l-1.47.85Z"/>
                  <path class="cls-31" d="M127.42,43.63a.15.15,0,0,0-.19-.05L111,52.94a.14.14,0,0,0-.07.12v6.68a.14.14,0,0,0,.28,0v-6.6l16.13-9.32A.13.13,0,0,0,127.42,43.63Z"/>
                  <path class="cls-31" d="M112.07,59.18a.59.59,0,0,1,0,1.11,2.14,2.14,0,0,1-1.94,0,.59.59,0,0,1,0-1.11A2.14,2.14,0,0,1,112.07,59.18Z"/>
                  <path class="cls-31" d="M114.08,34.61,111,36.38v.43L114.08,35Zm3.65-2.11-3.07,1.77v.43l3.07-1.77Zm1.86-1.07-1.28.74v.42l1.28-.74Zm.58-.34v.43l2.15-1.24v-.43Zm-7.4,5.44-1.76,1V38l1.76-1Zm3.41-2-2.84,1.64v.43L116.18,35Zm.58.1,1.9-1.1v-.43l-1.9,1.1Zm2.48-1.44,3.08-1.77V31l-3.08,1.77Zm-5.16,3.72L111,38.71v.43l3.07-1.77Zm3.65-2.11-3.07,1.77V37l3.07-1.77Zm1.86-1.08-1.28.74v.43l1.28-.74Zm.58.1,2.15-1.24v-.43l-2.15,1.24Zm-7.4,5-1.76,1v.43l1.76-1Zm.57.1,2.84-1.64v-.43l-2.84,1.64Zm3.42-2,1.9-1.1v-.43l-1.9,1.1Zm2.48-1.44,3.08-1.78v-.42l-3.08,1.77Zm-5.16,3.72L111,41v.43l3.07-1.78Zm3.65-2.11-3.07,1.77v.43l3.07-1.77Zm.58.09,1.28-.74v-.43l-1.28.74Zm1.86-1.07,2.15-1.24v-.43l-2.15,1.24ZM111,42.63l1.76-1v-.43l-1.76,1Zm2.33-1.35,2.84-1.63v-.43l-2.84,1.64Zm3.42-2,1.9-1.1v-.42l-1.9,1.1Zm2.48-1.43,3.08-1.78v-.42l-3.08,1.77Z"/>
                  <path class="cls-31" d="M112.77,48.74l-1.77,1v-.43l1.77-1Zm1.66-1.39-1.15.66v.44l1.15-.66Zm2.89-1.67-2.38,1.37v.44l2.38-1.38Zm3.24-1.87-2.73,1.57v.44l2.73-1.57Zm3.23-1.43v-.44l-2.72,1.57V44ZM125.44,41l-1.14.65v.44l1.14-.65Zm1.68-1-1.17.67v.44l1.17-.67Zm-13.37,6.53L111,48.13v.44L113.75,47Zm1.66-1-1.15.66v.44l1.15-.66Zm1.91-1.11-1.4.82v.43l1.4-.81Zm2.07-1.19-1.56.9v.44l1.56-.9Zm3-1.31v-.44L119.9,43v.44Zm2.2-1.71-1.69,1v.44l1.69-1Zm2.5-1.44-2,1.15v.44l2-1.15Zm-14.35,7.09-1.77,1v.44l1.77-1Zm1.66-1-1.15.67v.44l1.15-.67Zm2.89-1.67-2.38,1.38v.44l2.38-1.38Zm3.24-1.87L117.83,43v.44l2.73-1.58ZM123.79,40v-.44l-2.72,1.57v.44Zm1.65-1.39-1.14.65v.44l1.14-.66Zm1.68-1-1.17.68v.44l1.17-.68Zm-13.37,6.54L111,45.75v.44l2.75-1.59Zm1.66-1-1.15.66v.44l1.15-.66Zm1.91-1.11-1.4.81v.44l1.4-.81Zm2.07-1.2-1.56.91v.43l1.56-.9Zm3-1.3v-.44l-2.52,1.45v.44Zm2.2-1.71-1.69,1v.44l1.69-1Zm2.5-1.45-2,1.15V38l2-1.15Z"/>
                  <path class="cls-31" d="M95.87,56.12a.12.12,0,0,0-.14,0L79.08,65.73a.13.13,0,0,0,0,.19.15.15,0,0,0,.19,0l16.44-9.5V68.66a.14.14,0,0,0,.14.14.15.15,0,0,0,.14-.14V56.23A.14.14,0,0,0,95.87,56.12Z"/>
                  <path class="cls-31" d="M96.76,68.1a.59.59,0,0,1,0,1.12,2.12,2.12,0,0,1-1.93,0,.59.59,0,0,1,0-1.12A2.12,2.12,0,0,1,96.76,68.1Z"/>
                  <path class="cls-31" d="M87.33,44.21,84.26,46v.43l3.07-1.77ZM91,42.1l-3.08,1.78v.42L91,42.53ZM92.84,41l-1.28.74v.43l1.28-.74Zm.58-.34v.43l2.15-1.24v-.43ZM86,46.13l-1.76,1v.43l1.76-1Zm3.41-2L86.6,45.8v.43l2.83-1.64Zm.58.1,1.9-1.1v-.43L90,43.83Zm2.48-1.44,3.08-1.77v-.43L92.49,42.4Zm-5.16,3.72-3.07,1.77v.43L87.33,47ZM91,44.43l-3.08,1.78v.42L91,44.86Zm1.85-1.07-1.28.74v.43l1.28-.74Zm.58.09,2.15-1.24v-.43L93.42,43Zm-7.4,5-1.76,1v.43l1.76-1Zm.58.1,2.83-1.64v-.43L86.6,48.13Zm3.41-2,1.9-1.1v-.43L90,46.16Zm2.48-1.44,3.08-1.77V43l-3.08,1.78Zm-5.16,3.72-3.07,1.77v.43l3.07-1.77ZM91,46.76l-3.08,1.77V49L91,47.19Zm.57.1,1.28-.74v-.43l-1.28.74Zm1.86-1.08,2.15-1.24v-.43l-2.15,1.24Zm-9.16,6.46,1.76-1v-.43l-1.76,1Zm2.34-1.35,2.83-1.64v-.43L86.6,50.46Zm3.41-2,1.9-1.1v-.43L90,48.49Zm2.48-1.44,3.08-1.77v-.43l-3.08,1.77Z"/>
                  <path class="cls-31" d="M81.21,60.92l-1.77,1V61.5l1.77-1Zm1.66-1.4-1.15.67v.44L82.87,60Zm2.9-1.67-2.39,1.38v.44l2.39-1.38ZM89,56l-2.72,1.58V58L89,56.42Zm3.24-1.43v-.43l-2.73,1.57v.44Zm1.64-1.39-1.13.66v.44l1.13-.66Zm1.69-1-1.18.68v.44l1.18-.68ZM82.19,58.72l-2.75,1.59v.44l2.75-1.59Zm1.66-.95-1.15.66v.44l1.15-.67Zm1.92-1.11-1.41.81v.44l1.41-.81Zm2.07-1.2-1.56.9v.44l1.56-.9Zm3-1.3v-.44l-2.51,1.45v.44Zm2.2-1.71-1.69,1v.44l1.69-1ZM95.57,51l-2,1.15v.44l2-1.15ZM81.21,58.1l-1.77,1v.44l1.77-1Zm1.66-1-1.15.66v.44l1.15-.66Zm2.9-1.67-2.39,1.37v.44l2.39-1.37ZM89,53.6l-2.72,1.57v.44L89,54Zm3.24-1.43v-.44L89.51,53.3v.44Zm1.64-1.39-1.13.66v.44l1.13-.66Zm1.69-1-1.18.68v.44l1.18-.68ZM82.19,56.34l-2.75,1.59v.44l2.75-1.59Zm1.66-1-1.15.67v.43l1.15-.66Zm1.92-1.1-1.41.81v.44l1.41-.81Zm2.07-1.2-1.56.9v.44l1.56-.9Zm3-1.31v-.44l-2.51,1.46v.43Zm2.2-1.71-1.69,1v.44l1.69-1Zm2.51-1.44-2,1.15v.44l2-1.15Z"/>
                  <path class="cls-31" d="M135.62,87.83a.12.12,0,0,0-.14,0l-16.65,9.61a.14.14,0,0,0,0,.19.16.16,0,0,0,.19.05l16.45-9.5v23.13a.13.13,0,0,0,.13.14.14.14,0,0,0,.14-.14V87.94A.14.14,0,0,0,135.62,87.83Z"/>
                  <path class="cls-31" d="M136.52,110.75a.59.59,0,0,1,0,1.12,2.12,2.12,0,0,1-1.93,0,.59.59,0,0,1,0-1.12A2.18,2.18,0,0,1,136.52,110.75Z"/>
                  <path class="cls-31" d="M127.09,75.92,124,77.69v.43l3.08-1.77Zm3.65-2.11-3.07,1.78V76l3.07-1.77Zm1.86-1.07-1.28.74v.43l1.28-.74Zm.58-.34v.43l2.15-1.24v-.43Zm-7.4,5.44-1.77,1v.43l1.77-1Zm3.41-2-2.84,1.64v.43l2.84-1.64Zm.57.1,1.91-1.1v-.43l-1.91,1.1Zm2.49-1.44,3.08-1.77v-.43l-3.08,1.78Zm-5.16,3.72L124,80v.43l3.08-1.77Zm3.65-2.11-3.07,1.78v.42l3.07-1.77Zm1.86-1.07-1.28.74v.43l1.28-.74Zm.58.09,2.15-1.24v-.43l-2.15,1.24Zm-7.4,5-1.77,1v.43l1.77-1Zm.57.1,2.84-1.64V78.2l-2.84,1.64Zm3.41-2,1.91-1.1v-.43l-1.91,1.1Zm2.49-1.44,3.08-1.77v-.43l-3.08,1.78Zm-5.16,3.72L124,82.35v.43L127.09,81Zm3.65-2.11-3.07,1.77v.43l3.07-1.77Zm.58.1,1.28-.74V77.4l-1.28.74Zm1.86-1.08,2.15-1.24v-.43l-2.15,1.24ZM124,84l1.77-1V82.5l-1.77,1Zm2.34-1.35L129.19,81v-.43l-2.84,1.64Zm3.41-2,1.91-1.1V79.1l-1.91,1.1Zm2.49-1.44,3.08-1.77V77l-3.08,1.77Z"/>
                  <path class="cls-31" d="M121,92.63l-1.77,1v-.44l1.77-1Zm1.66-1.4-1.15.67v.44l1.15-.67Zm2.89-1.67-2.38,1.38v.44L125.52,90Zm3.24-1.87L126,89.27v.43l2.73-1.57ZM132,86.26v-.44l-2.72,1.58v.44Zm1.65-1.39-1.14.66V86l1.14-.66Zm1.68-1-1.17.68V85l1.17-.68ZM122,90.43,119.2,92v.44L122,90.87Zm1.66-1-1.15.66v.44l1.15-.67Zm1.91-1.11-1.4.81v.44l1.4-.81Zm2.07-1.2-1.56.9v.44l1.56-.9Zm3-1.3v-.44l-2.51,1.45v.44Zm2.2-1.71-1.69,1v.44l1.69-1Zm2.5-1.45-2,1.15v.44l2-1.15ZM121,89.81l-1.77,1v.44l1.77-1Zm1.66-1-1.15.66V90l1.15-.66Zm2.89-1.67-2.38,1.37V89l2.38-1.37Zm3.24-1.87L126,86.88v.44l2.73-1.57ZM132,83.88v-.44L129.27,85v.44Zm1.65-1.39-1.14.66v.44l1.14-.66Zm1.68-1-1.17.68v.44l1.17-.68ZM122,88.05l-2.75,1.59v.44L122,88.49Zm1.66-1-1.15.67v.43l1.15-.66Zm1.91-1.1-1.4.81v.44l1.4-.82Zm2.07-1.2-1.56.9v.44l1.56-.9Zm3-1.31V83l-2.51,1.45v.44Zm2.2-1.71-1.69,1v.44l1.69-1Zm2.5-1.44-2,1.15v.44l2-1.15Z"/>
                </g>
                <circle class="cls-32" cx="150.59" cy="79.35" r="51.33" transform="translate(-14.92 39.58) rotate(-14.28)"/>
                <circle class="cls-33" cx="118.9" cy="100.02" r="37.37" transform="translate(-18.87 171.87) rotate(-67.61)"/>
                <circle class="cls-34" cx="108.06" cy="118.44" r="37.37" transform="translate(-51.66 132.4) rotate(-52.62)"/>
                <circle class="cls-35" cx="109.63" cy="55.51" r="37.37" transform="translate(-1.18 108.62) rotate(-52.46)"/>
                <circle class="cls-36" cx="37.37" cy="107.91" r="37.37" transform="translate(-65.36 58.03) rotate(-45)"/>
                <circle class="cls-37" cx="72.53" cy="128.36" r="37.37" transform="translate(-74.86 132.09) rotate(-61.98)"/>
                <circle class="cls-38" cx="88.25" cy="67.78" r="37.37" transform="translate(-18.01 100.79) rotate(-54.78)"/>
                <circle class="cls-39" cx="162.02" cy="95.61" r="37.37" transform="translate(30.12 229.76) rotate(-76.03)"/>
              </g>
            </g>
          </g>
          <path class="cls-40" d="M101,10a91,91,0,1,1-91,91,91.06,91.06,0,0,1,91-91m0-10a101,101,0,1,0,101,101A101,101,0,0,0,101,0Z"/>
        </g>
      </g>
    </g>
  </g>
</svg>
