<svg xmlns="http://www.w3.org/2000/svg" xmlns:xlink="http://www.w3.org/1999/xlink" width="130" height="97.27" viewBox="0 0 130 97.27">
  <defs>
    <style>
      .cls-1, .cls-10, .cls-11, .cls-12, .cls-13, .cls-14, .cls-15, .cls-16, .cls-17, .cls-18, .cls-19, .cls-7, .cls-8, .cls-86, .cls-87, .cls-9 {
        fill: none;
      }

      .cls-2 {
        opacity: 0.3;
      }

      .cls-3 {
        fill: #fff;
      }

      .cls-4 {
        opacity: 0.8;
      }

      .cls-5 {
        opacity: 0.85;
      }

      .cls-13, .cls-6, .cls-86 {
        opacity: 0.5;
      }

      .cls-10, .cls-11, .cls-12, .cls-13, .cls-14, .cls-15, .cls-16, .cls-17, .cls-18, .cls-19, .cls-7, .cls-8, .cls-9 {
        stroke-miterlimit: 10;
        stroke-width: 0.5px;
      }

      .cls-7 {
        stroke: url(#Degradado_sin_nombre_7);
      }

      .cls-8 {
        opacity: 0.92;
        stroke: url(#Degradado_sin_nombre_7-2);
      }

      .cls-9 {
        opacity: 0.83;
        stroke: url(#Degradado_sin_nombre_7-3);
      }

      .cls-10 {
        opacity: 0.75;
        stroke: url(#Degradado_sin_nombre_7-4);
      }

      .cls-11 {
        opacity: 0.67;
        stroke: url(#Degradado_sin_nombre_7-5);
      }

      .cls-12 {
        opacity: 0.58;
        stroke: url(#Degradado_sin_nombre_7-6);
      }

      .cls-13 {
        stroke: url(#Degradado_sin_nombre_7-7);
      }

      .cls-14 {
        opacity: 0.42;
        stroke: url(#Degradado_sin_nombre_7-8);
      }

      .cls-15 {
        opacity: 0.33;
        stroke: url(#Degradado_sin_nombre_7-9);
      }

      .cls-16 {
        opacity: 0.25;
        stroke: url(#Degradado_sin_nombre_7-10);
      }

      .cls-17 {
        opacity: 0.17;
        stroke: url(#Degradado_sin_nombre_7-11);
      }

      .cls-18 {
        opacity: 0.08;
        stroke: url(#Degradado_sin_nombre_7-12);
      }

      .cls-19 {
        opacity: 0;
        stroke: url(#Degradado_sin_nombre_7-13);
      }

      .cls-20 {
        isolation: isolate;
      }

      .cls-21 {
        clip-path: url(#clip-path);
      }

      .cls-22 {
        fill: #737373;
      }

      .cls-23 {
        fill: #777;
      }

      .cls-24 {
        fill: #7c7c7c;
      }

      .cls-25 {
        fill: gray;
      }

      .cls-26 {
        fill: #858585;
      }

      .cls-27 {
        fill: #898989;
      }

      .cls-28 {
        fill: #8d8d8d;
      }

      .cls-29 {
        fill: #929292;
      }

      .cls-30 {
        fill: #969696;
      }

      .cls-31 {
        fill: #9b9b9b;
      }

      .cls-32 {
        fill: #9f9f9f;
      }

      .cls-33 {
        fill: #b8b8b8;
      }

      .cls-34 {
        clip-path: url(#clip-path-2);
      }

      .cls-35 {
        fill: #acacac;
      }

      .cls-36 {
        fill: #a7a7a7;
      }

      .cls-37 {
        fill: #a3a3a3;
      }

      .cls-38 {
        fill: #9e9e9e;
      }

      .cls-39 {
        fill: #999;
      }

      .cls-40 {
        fill: #949494;
      }

      .cls-41 {
        fill: #8f8f8f;
      }

      .cls-42 {
        fill: #8b8b8b;
      }

      .cls-43 {
        clip-path: url(#clip-path-3);
      }

      .cls-44 {
        fill: #ababab;
      }

      .cls-45 {
        clip-path: url(#clip-path-4);
      }

      .cls-46 {
        clip-path: url(#clip-path-5);
      }

      .cls-47 {
        clip-path: url(#clip-path-6);
      }

      .cls-48 {
        clip-path: url(#clip-path-7);
      }

      .cls-49 {
        clip-path: url(#clip-path-8);
      }

      .cls-50 {
        clip-path: url(#clip-path-9);
      }

      .cls-51 {
        fill: #868686;
      }

      .cls-52 {
        fill: #818181;
      }

      .cls-53 {
        fill: url(#Degradado_sin_nombre_3);
      }

      .cls-54 {
        fill: url(#Degradado_sin_nombre_2);
      }

      .cls-55 {
        fill: url(#Degradado_sin_nombre_5);
      }

      .cls-56 {
        fill: url(#Degradado_sin_nombre_6);
      }

      .cls-57 {
        fill: url(#Degradado_sin_nombre_19);
      }

      .cls-58 {
        fill: #3ca56d;
      }

      .cls-59 {
        fill: #0e4f28;
      }

      .cls-60 {
        fill: #166638;
      }

      .cls-61 {
        fill: #61a9ff;
      }

      .cls-62 {
        fill: #4599ed;
      }

      .cls-63, .cls-64 {
        fill: #a6e1ff;
      }

      .cls-64, .cls-68, .cls-78 {
        mix-blend-mode: multiply;
      }

      .cls-65 {
        fill: #ebfcff;
      }

      .cls-66 {
        fill: #3b80e2;
      }

      .cls-67 {
        fill: #66acff;
      }

      .cls-68 {
        fill: #6cf;
      }

      .cls-69 {
        fill: #c2dbff;
      }

      .cls-70 {
        fill: url(#Degradado_sin_nombre_8);
      }

      .cls-71 {
        fill: url(#Degradado_sin_nombre_5-2);
      }

      .cls-72 {
        fill: #2a86c4;
      }

      .cls-73 {
        fill: #8fcaf2;
      }

      .cls-74 {
        fill: #5f9bc4;
      }

      .cls-75 {
        fill: #9cd6f7;
      }

      .cls-76 {
        fill: #bdd9ef;
      }

      .cls-77 {
        fill: #4987bf;
      }

      .cls-78 {
        fill: url(#Degradado_sin_nombre_17);
      }

      .cls-79 {
        fill: #347dc6;
      }

      .cls-80 {
        fill: #ccf4ff;
      }

      .cls-81 {
        fill: #94d1ff;
      }

      .cls-82 {
        fill: #e9f5ff;
      }

      .cls-83 {
        fill: #ff6e91;
      }

      .cls-84 {
        fill: url(#Degradado_sin_nombre_13);
      }

      .cls-85 {
        fill: url(#Degradado_sin_nombre_14);
      }

      .cls-86, .cls-87 {
        stroke: #fff;
        stroke-linecap: round;
        stroke-linejoin: round;
        stroke-width: 0.24px;
      }
    </style>
    <linearGradient id="Degradado_sin_nombre_7" data-name="Degradado sin nombre 7" x1="31" y1="63.64" x2="99" y2="63.64" gradientUnits="userSpaceOnUse">
      <stop offset="0" stop-color="#f3ffff"/>
      <stop offset="1" stop-color="#39f1ff"/>
    </linearGradient>
    <linearGradient id="Degradado_sin_nombre_7-2" x1="29.01" y1="63.64" x2="100.99" y2="63.64" xlink:href="#Degradado_sin_nombre_7"/>
    <linearGradient id="Degradado_sin_nombre_7-3" x1="27.02" y1="63.64" x2="102.98" y2="63.64" xlink:href="#Degradado_sin_nombre_7"/>
    <linearGradient id="Degradado_sin_nombre_7-4" x1="25.03" y1="63.64" x2="104.97" y2="63.64" xlink:href="#Degradado_sin_nombre_7"/>
    <linearGradient id="Degradado_sin_nombre_7-5" x1="23.04" y1="63.64" x2="106.96" y2="63.64" xlink:href="#Degradado_sin_nombre_7"/>
    <linearGradient id="Degradado_sin_nombre_7-6" x1="21.05" y1="63.64" x2="108.95" y2="63.64" xlink:href="#Degradado_sin_nombre_7"/>
    <linearGradient id="Degradado_sin_nombre_7-7" x1="19.06" y1="63.64" x2="110.94" y2="63.64" xlink:href="#Degradado_sin_nombre_7"/>
    <linearGradient id="Degradado_sin_nombre_7-8" x1="17.07" y1="63.64" x2="112.93" y2="63.64" xlink:href="#Degradado_sin_nombre_7"/>
    <linearGradient id="Degradado_sin_nombre_7-9" x1="15.08" y1="63.64" x2="114.92" y2="63.64" xlink:href="#Degradado_sin_nombre_7"/>
    <linearGradient id="Degradado_sin_nombre_7-10" x1="13.09" y1="63.64" x2="116.91" y2="63.64" xlink:href="#Degradado_sin_nombre_7"/>
    <linearGradient id="Degradado_sin_nombre_7-11" x1="11.1" y1="63.64" x2="118.9" y2="63.64" xlink:href="#Degradado_sin_nombre_7"/>
    <linearGradient id="Degradado_sin_nombre_7-12" x1="9.11" y1="63.64" x2="120.89" y2="63.64" xlink:href="#Degradado_sin_nombre_7"/>
    <linearGradient id="Degradado_sin_nombre_7-13" x1="7.12" y1="63.64" x2="122.88" y2="63.64" xlink:href="#Degradado_sin_nombre_7"/>
    <clipPath id="clip-path">
      <path class="cls-1" d="M85.48,21.07v2.7a4.59,4.59,0,0,0-4.16,0V21.06A4.59,4.59,0,0,1,85.48,21.07Z"/>
    </clipPath>
    <clipPath id="clip-path-2">
      <path class="cls-1" d="M96.12,31.5V28.79a.64.64,0,0,1,.37-.51V31A.63.63,0,0,0,96.12,31.5Z"/>
    </clipPath>
    <clipPath id="clip-path-3">
      <path class="cls-1" d="M96.12,31.5V28.79a.66.66,0,0,0,.38.53V32A.63.63,0,0,1,96.12,31.5Z"/>
    </clipPath>
    <clipPath id="clip-path-4">
      <path class="cls-1" d="M113.6,38.14v2.71a2,2,0,0,1-1.8,0V38.14A2,2,0,0,0,113.6,38.14Z"/>
    </clipPath>
    <clipPath id="clip-path-5">
      <path class="cls-1" d="M126.94,45.71v2.71a1.43,1.43,0,0,0-.86-1.21V44.5A1.49,1.49,0,0,1,126.94,45.71Z"/>
    </clipPath>
    <clipPath id="clip-path-6">
      <path class="cls-1" d="M126.94,45.71v2.71a1.44,1.44,0,0,1-.85,1.19v-2.7A1.44,1.44,0,0,0,126.94,45.71Z"/>
    </clipPath>
    <clipPath id="clip-path-7">
      <path class="cls-1" d="M3.91,68.75a1.44,1.44,0,0,0-.85,1.19v-2.7a1.44,1.44,0,0,1,.85-1.19C3.92,66.86,3.91,67.94,3.91,68.75Z"/>
    </clipPath>
    <clipPath id="clip-path-8">
      <path class="cls-1" d="M3.06,69.94v-2.7a1.49,1.49,0,0,0,.87,1.22v2.7A1.47,1.47,0,0,1,3.06,69.94Z"/>
    </clipPath>
    <clipPath id="clip-path-9">
      <path class="cls-1" d="M48.68,91.89V94.6a4.6,4.6,0,0,1-4.15,0V91.89A4.54,4.54,0,0,0,48.68,91.89Z"/>
    </clipPath>
    <linearGradient id="Degradado_sin_nombre_3" data-name="Degradado sin nombre 3" x1="7.61" y1="55.16" x2="126.94" y2="55.16" gradientUnits="userSpaceOnUse">
      <stop offset="0" stop-color="#f3ffff"/>
      <stop offset="1" stop-color="#4ba6dd"/>
    </linearGradient>
    <linearGradient id="Degradado_sin_nombre_2" data-name="Degradado sin nombre 2" x1="10.21" y1="55.16" x2="124.34" y2="55.16" gradientUnits="userSpaceOnUse">
      <stop offset="0" stop-color="#f3ffff"/>
      <stop offset="1" stop-color="#78cef4"/>
    </linearGradient>
    <linearGradient id="Degradado_sin_nombre_5" data-name="Degradado sin nombre 5" x1="15.36" y1="55.16" x2="119.19" y2="55.16" gradientUnits="userSpaceOnUse">
      <stop offset="0" stop-color="#50deff"/>
      <stop offset="1" stop-color="#2389e5"/>
    </linearGradient>
    <linearGradient id="Degradado_sin_nombre_6" data-name="Degradado sin nombre 6" x1="0.01" y1="56.48" x2="130" y2="56.48" gradientUnits="userSpaceOnUse">
      <stop offset="0" stop-color="#33caff"/>
      <stop offset="1" stop-color="#246de2"/>
    </linearGradient>
    <linearGradient id="Degradado_sin_nombre_19" data-name="Degradado sin nombre 19" y1="71.3" x2="130" y2="71.3" gradientUnits="userSpaceOnUse">
      <stop offset="0" stop-color="#50deff"/>
      <stop offset="0.17" stop-color="#53dfff"/>
      <stop offset="0.33" stop-color="#5ee1ff"/>
      <stop offset="0.47" stop-color="#70e4ff"/>
      <stop offset="0.61" stop-color="#89e9ff"/>
      <stop offset="0.74" stop-color="#aaefff"/>
      <stop offset="0.87" stop-color="#d1f6ff"/>
      <stop offset="1" stop-color="#fff"/>
    </linearGradient>
    <linearGradient id="Degradado_sin_nombre_8" data-name="Degradado sin nombre 8" x1="58.98" y1="19.52" x2="111.17" y2="19.52" gradientUnits="userSpaceOnUse">
      <stop offset="0" stop-color="#4accff"/>
      <stop offset="1" stop-color="#196dbf"/>
    </linearGradient>
    <linearGradient id="Degradado_sin_nombre_5-2" x1="63.75" y1="21.12" x2="107.67" y2="21.12" xlink:href="#Degradado_sin_nombre_5"/>
    <linearGradient id="Degradado_sin_nombre_17" data-name="Degradado sin nombre 17" x1="84.81" y1="24.91" x2="92.42" y2="24.91" gradientUnits="userSpaceOnUse">
      <stop offset="0" stop-color="#196dbf"/>
      <stop offset="1" stop-color="#196dbf"/>
    </linearGradient>
    <linearGradient id="Degradado_sin_nombre_13" data-name="Degradado sin nombre 13" x1="95.94" y1="32.93" x2="107.86" y2="53.57" gradientUnits="userSpaceOnUse">
      <stop offset="0" stop-color="#fff" stop-opacity="0"/>
      <stop offset="0.17" stop-color="#fff" stop-opacity="0.01"/>
      <stop offset="0.3" stop-color="#fff" stop-opacity="0.05"/>
      <stop offset="0.42" stop-color="#fff" stop-opacity="0.12"/>
      <stop offset="0.53" stop-color="#fff" stop-opacity="0.21"/>
      <stop offset="0.63" stop-color="#fff" stop-opacity="0.33"/>
      <stop offset="0.74" stop-color="#fff" stop-opacity="0.48"/>
      <stop offset="0.84" stop-color="#fff" stop-opacity="0.65"/>
      <stop offset="0.93" stop-color="#fff" stop-opacity="0.85"/>
      <stop offset="1" stop-color="#fff"/>
    </linearGradient>
    <linearGradient id="Degradado_sin_nombre_14" data-name="Degradado sin nombre 14" x1="65.29" y1="49.14" x2="77.21" y2="28.49" gradientUnits="userSpaceOnUse">
      <stop offset="0" stop-color="#fff"/>
      <stop offset="0.03" stop-color="#fff" stop-opacity="0.94"/>
      <stop offset="0.14" stop-color="#fff" stop-opacity="0.72"/>
      <stop offset="0.26" stop-color="#fff" stop-opacity="0.53"/>
      <stop offset="0.37" stop-color="#fff" stop-opacity="0.37"/>
      <stop offset="0.49" stop-color="#fff" stop-opacity="0.23"/>
      <stop offset="0.61" stop-color="#fff" stop-opacity="0.13"/>
      <stop offset="0.73" stop-color="#fff" stop-opacity="0.06"/>
      <stop offset="0.86" stop-color="#fff" stop-opacity="0.01"/>
      <stop offset="1" stop-color="#fff" stop-opacity="0"/>
    </linearGradient>
  </defs>
  <g id="Capa_2" data-name="Capa 2">
    <g id="Layer_1" data-name="Layer 1">
      <g>
        <g>
          <g>
            <g class="cls-2">
              <polygon class="cls-3" points="57.42 12.65 60.58 10.81 63.88 12.71 60.72 14.55 57.42 12.65"/>
            </g>
            <g class="cls-4">
              <polygon class="cls-3" points="60.72 10.77 63.88 8.93 63.87 12.71 60.7 14.55 60.72 10.77"/>
            </g>
            <g class="cls-5">
              <polygon class="cls-3" points="57.42 8.86 60.58 7.03 63.88 8.93 60.72 10.77 57.42 8.86"/>
            </g>
            <g class="cls-6">
              <polygon class="cls-3" points="60.72 10.77 60.7 14.55 57.41 12.65 57.42 8.86 60.72 10.77"/>
            </g>
          </g>
          <g>
            <g class="cls-2">
              <polygon class="cls-3" points="57.42 7.42 60.58 5.58 63.88 7.48 60.72 9.32 57.42 7.42"/>
            </g>
            <g class="cls-4">
              <polygon class="cls-3" points="60.72 5.53 63.88 3.7 63.87 7.48 60.7 9.32 60.72 5.53"/>
            </g>
            <g class="cls-5">
              <polygon class="cls-3" points="57.42 3.63 60.58 1.79 63.88 3.7 60.72 5.53 57.42 3.63"/>
            </g>
            <g class="cls-6">
              <polygon class="cls-3" points="60.72 5.53 60.7 9.32 57.41 7.42 57.42 3.63 60.72 5.53"/>
            </g>
          </g>
        </g>
        <g>
          <path class="cls-7" d="M88.79,49.82c13.22,7.64,13.29,20,.15,27.65s-34.51,7.63-47.73,0-13.29-20-.15-27.65S75.56,42.19,88.79,49.82Z"/>
          <path class="cls-8" d="M90.19,49c14,8.08,14.07,21.19.16,29.27s-36.54,8.09-50.54,0S25.74,57.09,39.65,49,76.19,40.92,90.19,49Z"/>
          <path class="cls-9" d="M91.59,48.19c14.78,8.54,14.86,22.37.17,30.91s-38.57,8.53-53.35,0-14.86-22.37-.17-30.91S76.81,39.66,91.59,48.19Z"/>
          <path class="cls-10" d="M93,47.38c15.56,9,15.65,23.55.19,32.53s-40.61,9-56.18,0-15.63-23.55-.17-32.53S77.43,38.39,93,47.38Z"/>
          <path class="cls-11" d="M94.4,46.56c16.34,9.44,16.42,24.73.19,34.17s-42.65,9.43-59,0S19.18,56,35.41,46.56,78.06,37.13,94.4,46.56Z"/>
          <path class="cls-12" d="M95.8,45.75c17.12,9.88,17.21,25.91.2,35.79s-44.68,9.89-61.8,0S17,55.63,34,45.75,78.68,35.86,95.8,45.75Z"/>
          <path class="cls-13" d="M97.2,44.93c17.9,10.34,18,27.09.21,37.43s-46.71,10.33-64.61,0-18-27.09-.21-37.43S79.3,34.6,97.2,44.93Z"/>
          <path class="cls-14" d="M98.6,44.12c18.68,10.78,18.78,28.27.22,39.05S50.07,94,31.39,83.17,12.62,54.9,31.18,44.12,79.92,33.33,98.6,44.12Z"/>
          <path class="cls-15" d="M100,43.3c19.46,11.24,19.56,29.45.23,40.69S49.45,95.22,30,84,10.43,54.54,29.77,43.3,80.55,32.07,100,43.3Z"/>
          <path class="cls-16" d="M101.41,42.49c20.24,11.68,20.35,30.62.24,42.31s-52.82,11.69-73.06,0S8.25,54.17,28.36,42.49,81.17,30.8,101.41,42.49Z"/>
          <path class="cls-17" d="M102.81,41.67c21,12.14,21.13,31.81.25,44s-54.86,12.14-75.88,0S6.06,53.81,26.94,41.67,81.79,29.53,102.81,41.67Z"/>
          <path class="cls-18" d="M104.21,40.85c21.8,12.59,21.92,33,.26,45.58S47.58,99,25.78,86.43s-21.9-33-.25-45.57S82.42,28.27,104.21,40.85Z"/>
          <path class="cls-19" d="M105.62,40c22.58,13,22.69,34.17.26,47.21s-58.92,13-81.5,0S1.69,53.08,24.12,40,83,27,105.62,40Z"/>
        </g>
        <g>
          <g class="cls-20">
            <g class="cls-20">
              <g class="cls-21">
                <g class="cls-20">
                  <path class="cls-22" d="M85.48,21.07v2.7l-.43-.2v-2.7a2,2,0,0,1,.42.2"/>
                  <path class="cls-23" d="M85.06,20.87v2.7a1.9,1.9,0,0,0-.36-.12V20.74l.36.13"/>
                  <path class="cls-24" d="M84.7,20.74v2.71l-.31-.08v-2.7l.31.07"/>
                  <path class="cls-25" d="M84.39,20.67v2.7l-.29-.05v-2.7l.29.05"/>
                  <path class="cls-26" d="M84.1,20.62v2.7l-.29,0v-2.7a1.43,1.43,0,0,1,.29,0"/>
                  <path class="cls-27" d="M83.81,20.59v2.7l-.29,0v-2.7l.29,0"/>
                  <path class="cls-28" d="M83.52,20.57v2.7h-.3V20.57h.3"/>
                  <path class="cls-29" d="M83.22,20.57v2.71l-.32,0V20.59l.33,0"/>
                  <path class="cls-30" d="M82.89,20.59V23.3l-.38.05v-2.7c.12,0,.25,0,.37-.06"/>
                  <path class="cls-31" d="M82.52,20.65v2.7a3.41,3.41,0,0,0-.55.14V20.78a5.07,5.07,0,0,1,.56-.13"/>
                  <path class="cls-32" d="M82,20.78v2.71a3.1,3.1,0,0,0-.64.28V21.06a4.59,4.59,0,0,1,.64-.28"/>
                </g>
              </g>
            </g>
            <polygon class="cls-23" points="97.23 27.85 97.22 30.56 85.48 23.77 85.48 21.07 97.23 27.85"/>
            <polygon class="cls-33" points="97.23 27.85 97.22 30.56 96.5 30.98 96.5 28.28 97.23 27.85"/>
            <g class="cls-20">
              <g class="cls-34">
                <g class="cls-20">
                  <path class="cls-35" d="M96.5,28.28V31h0v-2.7h0"/>
                  <path class="cls-36" d="M96.49,28.29V31l-.16.12v-2.7a.52.52,0,0,1,.17-.12"/>
                  <path class="cls-37" d="M96.32,28.41v2.7l-.08.09V28.49a.27.27,0,0,1,.07-.08"/>
                  <path class="cls-38" d="M96.25,28.49V31.2l0,.07v-2.7l.06-.08"/>
                  <path class="cls-39" d="M96.19,28.57v2.7a.25.25,0,0,0,0,.07v-2.7l0-.07"/>
                  <path class="cls-40" d="M96.16,28.64v2.7a.64.64,0,0,1,0,.07v-2.7a.19.19,0,0,1,0-.07"/>
                  <path class="cls-41" d="M96.14,28.71v2.7s0,.05,0,.08V28.78s0-.05,0-.07"/>
                  <polyline class="cls-42" points="96.13 28.78 96.12 31.49 96.12 31.5 96.13 28.79 96.13 28.78"/>
                </g>
              </g>
            </g>
            <g class="cls-20">
              <g class="cls-43">
                <g class="cls-20">
                  <path class="cls-22" d="M96.51,29.32V32a.63.63,0,0,1-.38-.52V28.79a.66.66,0,0,0,.38.53"/>
                </g>
              </g>
            </g>
            <polygon class="cls-44" points="114.33 37.72 114.32 40.42 113.59 40.85 113.6 38.15 114.33 37.72"/>
            <polygon class="cls-23" points="111.8 38.15 111.79 40.85 96.5 32.02 96.51 29.32 111.8 38.15"/>
            <g class="cls-20">
              <g class="cls-45">
                <g class="cls-20">
                  <path class="cls-32" d="M113.6,38.14v2.71a1.39,1.39,0,0,1-.28.12v-2.7l.28-.13"/>
                  <path class="cls-31" d="M113.32,38.27V41a1.05,1.05,0,0,1-.24.06v-2.7l.24-.06"/>
                  <path class="cls-30" d="M113.08,38.33V41l-.16,0v-2.7l.16,0"/>
                  <path class="cls-29" d="M112.92,38.35v2.7h-.14v-2.7h.15"/>
                  <path class="cls-28" d="M112.77,38.36v2.7h-.14v-2.7h.13"/>
                  <path class="cls-27" d="M112.64,38.36v2.7h-.12V38.35h.12"/>
                  <path class="cls-26" d="M112.52,38.35v2.71l-.13,0v-2.7h.13"/>
                  <path class="cls-25" d="M112.39,38.34V41l-.12,0v-2.7l.12,0"/>
                  <path class="cls-24" d="M112.27,38.32V41l-.14,0V38.28l.14,0"/>
                  <path class="cls-23" d="M112.13,38.28V41l-.15-.05V38.23l.15.05"/>
                  <path class="cls-22" d="M112,38.23v2.71l-.18-.09V38.14a.51.51,0,0,0,.18.09"/>
                </g>
              </g>
            </g>
            <polygon class="cls-23" points="126.08 44.5 126.07 47.21 114.32 40.42 114.33 37.72 126.08 44.5"/>
            <g class="cls-20">
              <g class="cls-46">
                <g class="cls-20">
                  <path class="cls-22" d="M126.94,45.71v2.71a1.43,1.43,0,0,0-.86-1.21V44.5a1.49,1.49,0,0,1,.87,1.21"/>
                </g>
              </g>
            </g>
            <g class="cls-20">
              <g class="cls-47">
                <g class="cls-20">
                  <path class="cls-42" d="M126.94,45.71v0"/>
                  <path class="cls-41" d="M126.94,45.74v2.7a.47.47,0,0,1,0,.17v-2.7a1,1,0,0,0,0-.17"/>
                  <path class="cls-40" d="M126.92,45.91v2.7a1,1,0,0,1,0,.17V46.07a.94.94,0,0,0,0-.16"/>
                  <path class="cls-39" d="M126.88,46.07v2.71l-.08.17V46.24c0-.05,0-.11.08-.17"/>
                  <path class="cls-38" d="M126.8,46.24V49a1.36,1.36,0,0,1-.12.17v-2.7l.12-.18"/>
                  <path class="cls-37" d="M126.68,46.42v2.7a1.62,1.62,0,0,1-.18.2V46.61a1.57,1.57,0,0,0,.18-.19"/>
                  <path class="cls-36" d="M126.5,46.61v2.71a2.72,2.72,0,0,1-.37.27v-2.7a2.34,2.34,0,0,0,.38-.28"/>
                  <path class="cls-35" d="M126.12,46.89v2.7l0,0v-2.7l0,0"/>
                </g>
              </g>
            </g>
            <polygon class="cls-44" points="81.33 21.07 81.32 23.77 3.91 68.75 3.92 66.05 81.33 21.07"/>
            <g class="cls-20">
              <g class="cls-48">
                <g class="cls-20">
                  <path class="cls-32" d="M3.92,66.05v2.7l0,0v-2.7l0,0"/>
                  <path class="cls-31" d="M3.88,66.07v2.7a1.88,1.88,0,0,0-.37.28V66.34a2.72,2.72,0,0,1,.37-.27"/>
                  <path class="cls-30" d="M3.51,66.34v2.71l-.19.19v-2.7a1.62,1.62,0,0,1,.18-.2"/>
                  <path class="cls-29" d="M3.33,66.54v2.7a1.74,1.74,0,0,0-.11.18V66.71l.12-.17"/>
                  <path class="cls-28" d="M3.21,66.71v2.71a.6.6,0,0,0-.08.16v-2.7a1.22,1.22,0,0,1,.07-.17"/>
                  <path class="cls-27" d="M3.14,66.88v2.7a1.09,1.09,0,0,0,0,.17v-2.7a.48.48,0,0,1,.05-.17"/>
                  <path class="cls-26" d="M3.09,67.05v2.7a1,1,0,0,0,0,.17V67.21a.88.88,0,0,1,0-.16"/>
                  <path class="cls-25" d="M3.07,67.21v0"/>
                </g>
              </g>
            </g>
            <g class="cls-20">
              <g class="cls-49">
                <g class="cls-20">
                  <path class="cls-24" d="M3.94,68.46v2.7a1.47,1.47,0,0,1-.87-1.22v-2.7a1.49,1.49,0,0,0,.87,1.22"/>
                </g>
              </g>
            </g>
            <polygon class="cls-33" points="126.09 46.91 126.08 49.61 48.67 94.6 48.68 91.89 126.09 46.91"/>
            <polygon class="cls-25" points="44.53 91.89 44.52 94.6 3.93 71.16 3.94 68.46 44.53 91.89"/>
            <g class="cls-20">
              <g class="cls-50">
                <g class="cls-20">
                  <path class="cls-35" d="M48.68,91.89V94.6a3.1,3.1,0,0,1-.64.28v-2.7a3.12,3.12,0,0,0,.64-.29"/>
                  <path class="cls-36" d="M48,92.18v2.7a4.58,4.58,0,0,1-.56.14V92.31a5.07,5.07,0,0,0,.56-.13"/>
                  <path class="cls-37" d="M47.48,92.31V95l-.37,0v-2.7c.12,0,.25,0,.37-.06"/>
                  <path class="cls-38" d="M47.11,92.37v2.7l-.33,0v-2.7l.33,0"/>
                  <path class="cls-39" d="M46.78,92.39v2.7h-.3v-2.7h.3"/>
                  <path class="cls-40" d="M46.48,92.39v2.7h-.28V92.37l.29,0"/>
                  <path class="cls-41" d="M46.19,92.37v2.71l-.29,0V92.34a1.33,1.33,0,0,0,.28,0"/>
                  <path class="cls-42" d="M45.91,92.34v2.71l-.29,0V92.29l.29,0"/>
                  <path class="cls-51" d="M45.62,92.29V95l-.31-.08v-2.7l.31.07"/>
                  <path class="cls-52" d="M45.31,92.22v2.7A2.06,2.06,0,0,1,45,94.8V92.1l.36.12"/>
                  <path class="cls-24" d="M45,92.1v2.7l-.43-.2V91.89a2.74,2.74,0,0,0,.42.21"/>
                </g>
              </g>
            </g>
            <g>
              <path class="cls-53" d="M126.07,44.5a1.27,1.27,0,0,1,0,2.41L53.22,89.25a4.54,4.54,0,0,1-4.15,0L8.48,65.82c-1.15-.67-1.16-1.75,0-2.41L81.32,21.06a4.59,4.59,0,0,1,4.16,0l11.75,6.78-.73.43a.55.55,0,0,0,0,1l15.29,8.82a2,2,0,0,0,1.8,0l.73-.42Z"/>
              <path class="cls-54" d="M123.51,45a1.21,1.21,0,0,1,0,2.3L53.84,87.77a4.43,4.43,0,0,1-4,0L11,65.35a1.22,1.22,0,0,1,0-2.3l69.69-40.5a4.43,4.43,0,0,1,4,0L95.93,29l-.7.41c-.48.27-.47.72,0,1l14.62,8.44a2,2,0,0,0,1.73,0l.7-.41Z"/>
              <path class="cls-55" d="M118.44,45.89a1.1,1.1,0,0,1,0,2.09L55.05,84.82a4,4,0,0,1-3.61,0L16.12,64.43a1.1,1.1,0,0,1,0-2.09L79.5,25.49a4,4,0,0,1,3.62,0l10.22,5.9-.63.37c-.44.25-.44.65,0,.91L106,40.36a1.77,1.77,0,0,0,1.57,0l.63-.37Z"/>
              <path class="cls-56" d="M128.8,44c1.6.93,1.6,2.43,0,3.36L49.54,93.47a6.38,6.38,0,0,1-5.8,0L1.22,68.92c-1.6-.93-1.62-2.43,0-3.36L80.47,19.49a6.44,6.44,0,0,1,5.8,0ZM53.22,89.25l72.87-42.34a1.27,1.27,0,0,0,0-2.41l-11.74-6.78-.73.42a2,2,0,0,1-1.8,0L96.51,29.32a.55.55,0,0,1,0-1l.73-.43L85.48,21.07a4.59,4.59,0,0,0-4.16,0L8.46,63.41c-1.14.66-1.13,1.74,0,2.41L49.07,89.25a4.54,4.54,0,0,0,4.15,0"/>
            </g>
            <path class="cls-57" d="M129.93,46.15a.09.09,0,0,0,0,.05,2.32,2.32,0,0,1-.2.38l0,.06a1.86,1.86,0,0,1-.33.36,2.21,2.21,0,0,1-.29.22l-.25.18L49.54,93.47a5.35,5.35,0,0,1-.81.35l-.31.1L48,94l-.5.08-.12,0a5.32,5.32,0,0,1-.69,0h-.11a5.17,5.17,0,0,1-.68,0h-.1a5,5,0,0,1-.66-.11L45,94l-.57-.17-.1,0a4.51,4.51,0,0,1-.63-.29L1.22,68.92A2.06,2.06,0,0,1,0,67.23v2.7a2,2,0,0,0,1.21,1.69L43.74,96.17a3.59,3.59,0,0,0,.59.29h0l.1,0,.36.13.21.05.11,0,.11,0,.4.07.15,0h.25c.13,0,.27,0,.4,0h.24a1.08,1.08,0,0,0,.18,0,3.55,3.55,0,0,0,.46,0h.05l.12,0,.35,0,.15,0,.41-.1.22-.05.09,0a5.38,5.38,0,0,0,.81-.36L128.8,50.1l0,0c.08,0,.13-.1.21-.15l.28-.21,0,0a2.18,2.18,0,0,0,.25-.28l0-.06,0-.07a.76.76,0,0,0,.08-.11l.11-.23s0,0,0,0,0,0,0,0a.83.83,0,0,0,0-.15.85.85,0,0,0,0-.23V45.73A1.54,1.54,0,0,1,129.93,46.15Z"/>
          </g>
          <path class="cls-3" d="M32.26,81.84a.64.64,0,0,1,0,1.21,2.31,2.31,0,0,1-2.11,0l-9.48-5.47c-.59-.34-.59-.89,0-1.22a2.29,2.29,0,0,1,2.1,0Z"/>
          <path class="cls-3" d="M109.33,34.39a.25.25,0,0,1,0,.48.93.93,0,0,1-.83,0l-5.73-3.31c-.23-.13-.24-.35,0-.48a.93.93,0,0,1,.83,0Z"/>
        </g>
        <g>
          <g>
            <polygon class="cls-58" points="70.95 31.68 79.9 26.52 67.99 19.63 59.05 24.79 70.95 31.68"/>
            <polygon class="cls-59" points="70.95 31.68 70.95 32.02 79.9 26.86 79.9 26.52 70.95 31.68"/>
            <polygon class="cls-60" points="70.95 32.02 59.05 25.14 59.05 24.79 70.95 31.68 70.95 32.02"/>
          </g>
          <g>
            <g class="cls-20">
              <polygon class="cls-61" points="112.15 26.53 112.08 50.76 91.89 62.49 91.96 38.26 112.15 26.53"/>
              <polygon class="cls-62" points="112.15 26.53 112.08 29.22 91.89 40.95 91.96 38.26 112.15 26.53"/>
              <polygon class="cls-63" points="91.96 38.26 91.89 62.49 58.02 42.94 58.09 18.71 91.96 38.26"/>
              <line class="cls-64" x1="58.09" y1="18.71" x2="91.96" y2="38.26"/>
              <polygon class="cls-65" points="112.15 26.53 91.96 38.26 58.09 18.71 78.28 6.98 112.15 26.53"/>
            </g>
            <g class="cls-20">
              <polygon class="cls-66" points="112.15 49.26 112.08 50.77 91.89 62.5 91.96 60.99 112.15 49.26"/>
              <polygon class="cls-67" points="91.96 60.99 91.89 62.5 58.02 42.95 58.09 41.44 91.96 60.99"/>
            </g>
            <g class="cls-20">
              <polygon class="cls-66" points="114.25 23.76 114.17 27.03 92.42 39.67 92.49 36.41 114.25 23.76"/>
              <polygon class="cls-68" points="58.09 18.21 58.02 21.41 91.89 40.96 91.96 37.77 58.09 18.21"/>
              <polygon class="cls-67" points="92.49 36.41 92.42 39.67 55.92 18.6 56 15.34 92.49 36.41"/>
              <polygon class="cls-69" points="114.25 23.76 92.49 36.41 56 15.34 77.75 2.69 114.25 23.76"/>
              <polygon class="cls-70" points="111.17 23.77 92.42 34.66 58.98 15.28 77.73 4.39 111.17 23.77"/>
              <polygon class="cls-71" points="107.67 24.69 91.89 33.86 63.75 17.55 79.53 8.38 107.67 24.69"/>
              <polygon class="cls-66" points="77.73 6.68 109.19 24.91 111.17 23.77 77.73 4.39 58.98 15.28 60.95 16.43 77.73 6.68"/>
            </g>
            <g class="cls-20">
              <polygon class="cls-72" points="106.23 24.09 106.22 24.9 102.41 27.12 102.42 26.3 106.23 24.09"/>
              <polygon class="cls-67" points="102.42 26.3 102.41 27.12 96.03 23.43 96.04 22.62 102.42 26.3"/>
              <polygon class="cls-73" points="106.23 24.09 102.42 26.3 96.04 22.62 99.85 20.4 106.23 24.09"/>
              <polygon class="cls-65" points="104.72 23.87 102.04 25.43 97.55 22.84 100.23 21.28 104.72 23.87"/>
              <polygon class="cls-3" points="103.33 23.67 101.69 24.63 98.94 23.04 100.58 22.08 103.33 23.67"/>
            </g>
            <g>
              <polygon class="cls-61" points="78.49 52.77 71.3 48.62 71.3 32.79 78.49 36.95 78.49 52.77"/>
              <polygon class="cls-74" points="71.13 48.73 70.92 48.85 70.92 32.57 71.13 32.7 71.13 48.73"/>
              <polygon class="cls-75" points="70.92 48.85 78.49 53.22 78.49 52.98 71.13 48.73 70.92 48.85"/>
              <g>
                <polygon class="cls-74" points="71.31 48.6 71.23 48.65 78.49 52.84 78.49 52.75 71.31 48.6"/>
                <polygon class="cls-74" points="71.31 48.6 71.31 32.8 71.23 32.76 71.23 48.65 71.31 48.6"/>
                <polygon class="cls-76" points="78.49 52.84 71.23 48.65 71.13 48.73 78.49 52.98 78.49 52.84"/>
                <polygon class="cls-76" points="71.13 48.73 71.23 48.65 71.23 32.76 71.13 32.7 71.13 48.73"/>
              </g>
            </g>
            <path class="cls-3" d="M77.81,45c.12.31.06.61-.11.67s-.41-.13-.52-.44-.06-.61.11-.67S77.7,44.68,77.81,45Z"/>
            <g>
              <polygon class="cls-65" points="90.76 57.26 83.51 53.07 83.51 42.2 90.76 46.39 90.76 57.26"/>
              <polygon class="cls-66" points="83.35 53.18 83.16 53.28 83.13 41.99 83.35 42.11 83.35 53.18"/>
              <polygon class="cls-76" points="83.16 53.28 90.79 57.69 90.76 57.46 83.35 53.18 83.16 53.28"/>
              <g>
                <polygon class="cls-69" points="83.53 53.05 83.45 53.1 90.76 57.33 90.76 57.23 83.53 53.05"/>
                <polygon class="cls-76" points="83.53 53.05 83.53 42.21 83.45 42.17 83.45 53.1 83.53 53.05"/>
                <polygon class="cls-77" points="90.76 57.33 83.45 53.1 83.35 53.18 90.76 57.46 90.76 57.33"/>
                <polygon class="cls-77" points="83.35 53.18 83.45 53.1 83.45 42.17 83.35 42.11 83.35 53.18"/>
              </g>
              <g>
                <polygon class="cls-77" points="88.5 56.37 88.5 45.09 87.74 44.65 87.74 55.93 88.5 56.37"/>
                <polygon class="cls-66" points="88.5 56.37 88.69 56.26 88.69 45.19 88.5 45.09 88.5 56.37"/>
              </g>
              <g>
                <polygon class="cls-77" points="85.71 54.75 85.71 43.48 84.95 43.03 84.95 54.31 85.71 54.75"/>
                <polygon class="cls-66" points="85.71 54.75 85.89 54.65 85.89 43.58 85.71 43.48 85.71 54.75"/>
              </g>
            </g>
            <g>
              <polygon class="cls-65" points="66.46 44.19 59.21 40 59.21 29.14 66.46 33.33 66.46 44.19"/>
              <polygon class="cls-66" points="59.05 40.11 58.86 40.22 58.83 28.92 59.05 29.05 59.05 40.11"/>
              <polygon class="cls-76" points="58.86 40.22 66.49 44.62 66.46 44.39 59.05 40.11 58.86 40.22"/>
              <g>
                <polygon class="cls-69" points="59.22 39.99 59.15 40.04 66.46 44.26 66.46 44.17 59.22 39.99"/>
                <polygon class="cls-76" points="59.22 39.99 59.22 29.15 59.15 29.1 59.15 40.04 59.22 39.99"/>
                <polygon class="cls-77" points="66.46 44.26 59.15 40.04 59.05 40.11 66.46 44.39 66.46 44.26"/>
                <polygon class="cls-77" points="59.05 40.11 59.15 40.04 59.15 29.1 59.05 29.05 59.05 40.11"/>
              </g>
              <g>
                <polygon class="cls-77" points="64.2 43.3 64.2 32.02 63.44 31.58 63.44 42.86 64.2 43.3"/>
                <polygon class="cls-66" points="64.2 43.3 64.39 43.19 64.39 32.13 64.2 32.02 64.2 43.3"/>
              </g>
              <g>
                <polygon class="cls-77" points="61.41 41.69 61.41 30.41 60.64 29.97 60.64 41.25 61.41 41.69"/>
                <polygon class="cls-66" points="61.41 41.69 61.59 41.58 61.59 30.52 61.41 30.41 61.41 41.69"/>
              </g>
            </g>
          </g>
          <g>
            <polygon class="cls-65" points="96.18 54.85 109.77 47 109.77 34.64 96.18 42.49 96.18 54.85"/>
            <polygon class="cls-66" points="110.08 47.21 110.43 47.4 110.49 34.23 110.08 34.46 110.08 47.21"/>
            <polygon class="cls-76" points="110.43 47.4 96.12 55.66 96.18 55.24 110.08 47.21 110.43 47.4"/>
            <g>
              <polygon class="cls-69" points="109.74 46.98 109.89 47.07 96.18 54.99 96.18 54.81 109.74 46.98"/>
              <polygon class="cls-76" points="109.74 46.98 109.74 34.65 109.89 34.57 109.89 47.07 109.74 46.98"/>
              <polygon class="cls-66" points="96.18 54.99 109.89 47.07 110.08 47.21 96.18 55.24 96.18 54.99"/>
              <polygon class="cls-66" points="110.08 47.21 109.89 47.07 109.89 34.57 110.08 34.46 110.08 47.21"/>
            </g>
            <g>
              <polygon class="cls-61" points="100.41 53.19 100.41 40.04 101.84 39.22 101.84 52.36 100.41 53.19"/>
              <polygon class="cls-66" points="100.41 53.19 100.07 52.99 100.07 40.24 100.41 40.04 100.41 53.19"/>
            </g>
            <g>
              <polygon class="cls-61" points="105.65 50.16 105.65 37.02 107.08 36.19 107.08 49.34 105.65 50.16"/>
              <polygon class="cls-66" points="105.65 50.16 105.31 49.97 105.31 37.22 105.65 37.02 105.65 50.16"/>
            </g>
          </g>
        </g>
        <g>
          <polygon class="cls-3" points="92.56 57.91 92.48 57.86 43.56 29.61 55.69 22.57 55.69 22.95 44.22 29.61 92.56 57.52 121.25 40.85 109.73 34.2 109.73 33.82 121.91 40.85 92.56 57.91"/>
          <circle class="cls-3" cx="92.56" cy="57.52" r="0.86"/>
          <path class="cls-3" d="M45,29.7a.86.86,0,1,1-.86-.86A.86.86,0,0,1,45,29.7Z"/>
          <path class="cls-3" d="M122.37,41a.86.86,0,1,1-.86-.86A.85.85,0,0,1,122.37,41Z"/>
        </g>
        <g>
          <g class="cls-20">
            <polygon class="cls-78" points="88.36 28.26 92.42 25.95 84.81 21.57 88.36 28.26"/>
            <polygon class="cls-79" points="87.52 19.41 88.38 18.9 88.36 28.26 87.49 28.76 87.52 19.41"/>
            <polygon class="cls-80" points="87.49 28.76 87.65 19.63 88.18 19.02 87.52 19.41 87.49 28.76"/>
            <polygon class="cls-81" points="70.07 9.34 70.94 8.83 88.38 18.9 87.52 19.41 70.07 9.34"/>
            <polygon class="cls-80" points="70.07 9.34 87.18 18.9 87.49 18.71 82.21 15.34 88.38 18.9 87.52 19.41 70.07 9.34"/>
            <polygon class="cls-82" points="87.52 19.41 87.49 28.76 70.05 18.69 70.07 9.34 87.52 19.41"/>
          </g>
          <g>
            <path class="cls-83" d="M73.33,14.16a4.58,4.58,0,0,1,1.33,1.16l-.28.62a4,4,0,0,0-1.06-1c-.53-.3-.73-.19-.73.09,0,.81,2.23,1.54,2.23,3.16,0,.74-.54,1.07-1.64.43a5.09,5.09,0,0,1-1.56-1.41l.3-.6a4.22,4.22,0,0,0,1.27,1.19c.53.31.74.23.74,0,0-.83-2.23-1.55-2.23-3.19C71.7,13.84,72.23,13.52,73.33,14.16Z"/>
            <path class="cls-83" d="M77.53,16.66l1.71,5.41-.94-.54L78,20.39l-1.79-1-.35.75-.91-.53,1.73-3.43Zm-1.06,2.08,1.22.71-.61-2.05-.61,1.34"/>
            <polygon class="cls-83" points="80.55 18.4 80.53 21.99 82.47 23.1 82.46 23.93 79.64 22.3 79.65 17.88 80.55 18.4"/>
            <polygon class="cls-83" points="85.89 21.48 85.88 22.3 83.86 21.14 83.86 22.1 85.64 23.13 85.64 23.92 83.86 22.89 83.85 23.91 85.95 25.12 85.94 25.95 82.97 24.22 82.98 19.8 85.89 21.48"/>
          </g>
        </g>
        <polygon class="cls-84" points="113.39 22.86 113.31 50.34 90.41 63.64 90.49 36.16 113.39 22.86"/>
        <polygon class="cls-85" points="90.49 36.16 90.41 63.64 52.01 41.47 52.09 13.99 90.49 36.16"/>
        <g>
          <g>
            <g>
              <polygon class="cls-86" points="31.79 38.99 29.27 27.45 36.8 30.45 31.79 38.99"/>
              <polygon class="cls-86" points="36.8 30.45 36.09 21.24 29.27 27.45 36.8 30.45"/>
            </g>
            <path class="cls-3" d="M36.26,21.22a.22.22,0,0,1-.06.31.22.22,0,1,1-.25-.37A.22.22,0,0,1,36.26,21.22Z"/>
            <path class="cls-3" d="M37,30.35a.23.23,0,0,1-.07.31.22.22,0,0,1-.31-.06.22.22,0,0,1,.07-.31A.22.22,0,0,1,37,30.35Z"/>
            <path class="cls-3" d="M29.46,27.33a.24.24,0,0,1-.07.31.22.22,0,0,1-.31-.06.22.22,0,0,1,.06-.31A.24.24,0,0,1,29.46,27.33Z"/>
            <path class="cls-3" d="M32,38.87a.22.22,0,0,1-.06.31.22.22,0,0,1-.31-.07.22.22,0,1,1,.37-.24Z"/>
          </g>
          <g>
            <g>
              <polygon class="cls-86" points="80.75 36.72 85 32.44 89.63 39.09 80.75 36.72"/>
              <polygon class="cls-86" points="89.63 39.09 94.11 31.01 85 32.44 89.63 39.09"/>
            </g>
            <circle class="cls-3" cx="94.04" cy="31.08" r="0.22"/>
            <circle class="cls-3" cx="89.59" cy="39.09" r="0.22"/>
            <circle class="cls-3" cx="95.65" cy="38.57" r="0.22"/>
            <path class="cls-3" d="M85.22,32.43a.23.23,0,1,1-.22-.22A.22.22,0,0,1,85.22,32.43Z"/>
            <circle class="cls-3" cx="80.75" cy="36.71" r="0.22"/>
            <polyline class="cls-87" points="89.63 39.09 95.64 38.6 94.04 31.08"/>
          </g>
          <g>
            <g>
              <polygon class="cls-86" points="103.3 11.76 107.1 2.48 111.74 9.13 103.3 11.76"/>
              <polygon class="cls-86" points="111.74 9.13 111.51 1.79 107.1 2.48 111.74 9.13"/>
            </g>
            <circle class="cls-3" cx="111.44" cy="1.87" r="0.22"/>
            <circle class="cls-3" cx="111.7" cy="9.13" r="0.22"/>
            <path class="cls-3" d="M107.33,2.48a.23.23,0,1,1-.45,0,.22.22,0,0,1,.22-.22A.22.22,0,0,1,107.33,2.48Z"/>
            <circle class="cls-3" cx="103.3" cy="11.76" r="0.22"/>
          </g>
          <g>
            <polygon class="cls-86" points="52.34 11.3 49.74 20.99 44.3 14.98 52.34 11.3"/>
            <path class="cls-3" d="M44.11,15a.24.24,0,0,1,.2-.25.23.23,0,1,1,0,.45A.24.24,0,0,1,44.11,15Z"/>
            <path class="cls-3" d="M49.51,21a.24.24,0,0,1,.2-.25A.22.22,0,0,1,50,21a.21.21,0,0,1-.19.25A.23.23,0,0,1,49.51,21Z"/>
            <path class="cls-3" d="M52.12,11.33a.22.22,0,0,1,.19-.25.23.23,0,0,1,.25.2.22.22,0,0,1-.19.25A.22.22,0,0,1,52.12,11.33Z"/>
          </g>
          <g>
            <polygon class="cls-86" points="123.5 33.96 122.63 38.06 117.19 32.04 123.5 33.96"/>
            <path class="cls-3" d="M117,32.07a.23.23,0,0,1,.19-.26.23.23,0,0,1,.25.2.22.22,0,0,1-.19.25A.21.21,0,0,1,117,32.07Z"/>
            <path class="cls-3" d="M122.41,38.08a.22.22,0,1,1,.25.2A.22.22,0,0,1,122.41,38.08Z"/>
            <path class="cls-3" d="M123.28,34a.23.23,0,1,1,.25.19A.23.23,0,0,1,123.28,34Z"/>
          </g>
          <g>
            <polygon class="cls-86" points="77.43 50.48 67.77 47.77 73.85 42.4 77.43 50.48"/>
            <path class="cls-3" d="M73.83,42.22a.22.22,0,1,1,0,.44.22.22,0,1,1,0-.44Z"/>
            <path class="cls-3" d="M67.75,47.55a.22.22,0,0,1,.25.19.23.23,0,0,1-.2.25.23.23,0,0,1-.25-.2A.22.22,0,0,1,67.75,47.55Z"/>
            <path class="cls-3" d="M77.4,50.26a.23.23,0,0,1,.25.2.22.22,0,0,1-.19.25.23.23,0,0,1-.25-.2A.22.22,0,0,1,77.4,50.26Z"/>
          </g>
          <g>
            <g>
              <g class="cls-2">
                <polygon class="cls-3" points="30.32 66.95 34.33 64.62 38.5 67.03 34.5 69.36 30.32 66.95"/>
              </g>
              <g class="cls-4">
                <polygon class="cls-3" points="34.5 64.56 38.5 62.24 38.49 67.03 34.48 69.36 34.5 64.56"/>
              </g>
              <g class="cls-5">
                <polygon class="cls-3" points="30.32 62.15 34.33 59.83 38.5 62.24 34.5 64.56 30.32 62.15"/>
              </g>
              <g class="cls-6">
                <polygon class="cls-3" points="34.5 64.56 34.48 69.36 30.31 66.95 30.32 62.15 34.5 64.56"/>
              </g>
            </g>
            <g>
              <g class="cls-2">
                <polygon class="cls-3" points="30.32 60.32 34.33 57.99 38.5 60.4 34.5 62.73 30.32 60.32"/>
              </g>
              <g class="cls-4">
                <polygon class="cls-3" points="34.5 57.94 38.5 55.61 38.49 60.4 34.48 62.73 34.5 57.94"/>
              </g>
              <g class="cls-5">
                <polygon class="cls-3" points="30.32 55.53 34.33 53.2 38.5 55.61 34.5 57.94 30.32 55.53"/>
              </g>
              <g class="cls-6">
                <polygon class="cls-3" points="34.5 57.94 34.48 62.73 30.31 60.32 30.32 55.53 34.5 57.94"/>
              </g>
            </g>
            <g>
              <g class="cls-2">
                <polygon class="cls-3" points="30.32 53.7 34.33 51.37 38.5 53.78 34.5 56.1 30.32 53.7"/>
              </g>
              <g class="cls-4">
                <polygon class="cls-3" points="34.5 51.31 38.5 48.98 38.49 53.78 34.48 56.1 34.5 51.31"/>
              </g>
              <g class="cls-5">
                <polygon class="cls-3" points="30.32 48.9 34.33 46.57 38.5 48.98 34.5 51.31 30.32 48.9"/>
              </g>
              <g class="cls-6">
                <polygon class="cls-3" points="34.5 51.31 34.48 56.1 30.31 53.7 30.32 48.9 34.5 51.31"/>
              </g>
            </g>
          </g>
          <g>
            <g>
              <g class="cls-2">
                <polygon class="cls-3" points="57.8 70.74 60.96 68.9 64.26 70.8 61.1 72.64 57.8 70.74"/>
              </g>
              <g class="cls-4">
                <polygon class="cls-3" points="61.1 68.85 64.26 67.02 64.25 70.8 61.09 72.64 61.1 68.85"/>
              </g>
              <g class="cls-5">
                <polygon class="cls-3" points="57.8 66.95 60.96 65.11 64.26 67.02 61.1 68.85 57.8 66.95"/>
              </g>
              <g class="cls-6">
                <polygon class="cls-3" points="61.1 68.85 61.09 72.64 57.79 70.74 57.8 66.95 61.1 68.85"/>
              </g>
            </g>
            <g>
              <g class="cls-2">
                <polygon class="cls-3" points="57.8 65.5 60.96 63.67 64.26 65.57 61.1 67.41 57.8 65.5"/>
              </g>
              <g class="cls-4">
                <polygon class="cls-3" points="61.1 63.62 64.26 61.78 64.25 65.57 61.09 67.41 61.1 63.62"/>
              </g>
              <g class="cls-5">
                <polygon class="cls-3" points="57.8 61.72 60.96 59.88 64.26 61.78 61.1 63.62 57.8 61.72"/>
              </g>
              <g class="cls-6">
                <polygon class="cls-3" points="61.1 63.62 61.09 67.41 57.79 65.5 57.8 61.72 61.1 63.62"/>
              </g>
            </g>
            <g>
              <g class="cls-2">
                <polygon class="cls-3" points="57.8 60.27 60.96 58.44 64.26 60.34 61.1 62.17 57.8 60.27"/>
              </g>
              <g class="cls-4">
                <polygon class="cls-3" points="61.1 58.39 64.26 56.55 64.25 60.34 61.09 62.17 61.1 58.39"/>
              </g>
              <g class="cls-5">
                <polygon class="cls-3" points="57.8 56.49 60.96 54.65 64.26 56.55 61.1 58.39 57.8 56.49"/>
              </g>
              <g class="cls-6">
                <polygon class="cls-3" points="61.1 58.39 61.09 62.17 57.79 60.27 57.8 56.49 61.1 58.39"/>
              </g>
            </g>
          </g>
        </g>
        <g>
          <g>
            <g class="cls-2">
              <polygon class="cls-3" points="111.79 18.81 113.36 17.89 115 18.84 113.42 19.75 111.79 18.81"/>
            </g>
            <g class="cls-4">
              <polygon class="cls-3" points="113.42 17.87 115 16.96 114.99 18.84 113.42 19.75 113.42 17.87"/>
            </g>
            <g class="cls-5">
              <polygon class="cls-3" points="111.79 16.93 113.36 16.01 115 16.96 113.42 17.87 111.79 16.93"/>
            </g>
            <g class="cls-6">
              <polygon class="cls-3" points="113.42 17.87 113.42 19.75 111.78 18.81 111.79 16.93 113.42 17.87"/>
            </g>
          </g>
          <g>
            <g class="cls-2">
              <polygon class="cls-3" points="116.43 29.22 117.21 28.77 118.03 29.24 117.25 29.69 116.43 29.22"/>
            </g>
            <g class="cls-4">
              <polygon class="cls-3" points="117.25 28.76 118.03 28.3 118.02 29.24 117.24 29.69 117.25 28.76"/>
            </g>
            <g class="cls-5">
              <polygon class="cls-3" points="116.43 28.29 117.21 27.83 118.03 28.3 117.25 28.76 116.43 28.29"/>
            </g>
            <g class="cls-6">
              <polygon class="cls-3" points="117.25 28.76 117.24 29.69 116.43 29.22 116.43 28.29 117.25 28.76"/>
            </g>
          </g>
          <g>
            <g class="cls-2">
              <polygon class="cls-3" points="92.62 25.52 93.4 25.07 94.22 25.54 93.44 25.99 92.62 25.52"/>
            </g>
            <g class="cls-4">
              <polygon class="cls-3" points="93.44 25.06 94.22 24.6 94.22 25.54 93.43 25.99 93.44 25.06"/>
            </g>
            <g class="cls-5">
              <polygon class="cls-3" points="92.62 24.59 93.4 24.13 94.22 24.6 93.44 25.06 92.62 24.59"/>
            </g>
            <g class="cls-6">
              <polygon class="cls-3" points="93.44 25.06 93.43 25.99 92.62 25.52 92.62 24.59 93.44 25.06"/>
            </g>
          </g>
          <g>
            <g class="cls-2">
              <polygon class="cls-3" points="67.2 4.84 67.98 4.39 68.8 4.86 68.02 5.32 67.2 4.84"/>
            </g>
            <g class="cls-4">
              <polygon class="cls-3" points="68.02 4.38 68.8 3.93 68.8 4.86 68.01 5.32 68.02 4.38"/>
            </g>
            <g class="cls-5">
              <polygon class="cls-3" points="67.2 3.91 67.98 3.46 68.8 3.93 68.02 4.38 67.2 3.91"/>
            </g>
            <g class="cls-6">
              <polygon class="cls-3" points="68.02 4.38 68.01 5.32 67.2 4.84 67.2 3.91 68.02 4.38"/>
            </g>
          </g>
          <g>
            <g class="cls-2">
              <polygon class="cls-3" points="88.58 6.04 89.36 5.59 90.17 6.06 89.39 6.51 88.58 6.04"/>
            </g>
            <g class="cls-4">
              <polygon class="cls-3" points="89.39 5.58 90.17 5.12 90.17 6.06 89.39 6.51 89.39 5.58"/>
            </g>
            <g class="cls-5">
              <polygon class="cls-3" points="88.58 5.11 89.36 4.65 90.17 5.12 89.39 5.58 88.58 5.11"/>
            </g>
            <g class="cls-6">
              <polygon class="cls-3" points="89.39 5.58 89.39 6.51 88.57 6.04 88.58 5.11 89.39 5.58"/>
            </g>
          </g>
          <g>
            <g class="cls-2">
              <polygon class="cls-3" points="47.49 23.81 48.28 23.36 49.09 23.82 48.31 24.28 47.49 23.81"/>
            </g>
            <g class="cls-4">
              <polygon class="cls-3" points="48.31 23.34 49.09 22.89 49.09 23.82 48.31 24.28 48.31 23.34"/>
            </g>
            <g class="cls-5">
              <polygon class="cls-3" points="47.49 22.87 48.28 22.42 49.09 22.89 48.31 23.34 47.49 22.87"/>
            </g>
            <g class="cls-6">
              <polygon class="cls-3" points="48.31 23.34 48.31 24.28 47.49 23.81 47.49 22.87 48.31 23.34"/>
            </g>
          </g>
          <g>
            <g class="cls-2">
              <polygon class="cls-3" points="83.17 2.79 84.74 1.88 86.38 2.83 84.81 3.74 83.17 2.79"/>
            </g>
            <g class="cls-4">
              <polygon class="cls-3" points="84.81 1.86 86.38 0.94 86.37 2.83 84.8 3.74 84.81 1.86"/>
            </g>
            <g class="cls-5">
              <polygon class="cls-3" points="83.17 0.91 84.74 0 86.38 0.94 84.81 1.86 83.17 0.91"/>
            </g>
            <g class="cls-6">
              <polygon class="cls-3" points="84.81 1.86 84.8 3.74 83.17 2.79 83.17 0.91 84.81 1.86"/>
            </g>
          </g>
          <g>
            <g class="cls-2">
              <polygon class="cls-3" points="39.99 20.45 41.56 19.54 43.2 20.48 41.63 21.39 39.99 20.45"/>
            </g>
            <g class="cls-4">
              <polygon class="cls-3" points="41.63 19.51 43.2 18.6 43.2 20.48 41.63 21.39 41.63 19.51"/>
            </g>
            <g class="cls-5">
              <polygon class="cls-3" points="39.99 18.57 41.56 17.65 43.2 18.6 41.63 19.51 39.99 18.57"/>
            </g>
            <g class="cls-6">
              <polygon class="cls-3" points="41.63 19.51 41.63 21.39 39.99 20.45 39.99 18.57 41.63 19.51"/>
            </g>
          </g>
        </g>
      </g>
    </g>
  </g>
</svg>
