<svg xmlns="http://www.w3.org/2000/svg" xmlns:xlink="http://www.w3.org/1999/xlink" width="350" height="261.47" viewBox="0 0 350 261.47">
  <defs>
    <style>
      .cls-1, .cls-10, .cls-11, .cls-12, .cls-13, .cls-14, .cls-15, .cls-16, .cls-17, .cls-18, .cls-19, .cls-7, .cls-8, .cls-86, .cls-87, .cls-9 {
        fill: none;
      }

      .cls-2 {
        opacity: 0.3;
      }

      .cls-3 {
        fill: #fff;
      }

      .cls-4 {
        opacity: 0.8;
      }

      .cls-5 {
        opacity: 0.85;
      }

      .cls-13, .cls-6, .cls-86 {
        opacity: 0.5;
      }

      .cls-10, .cls-11, .cls-12, .cls-13, .cls-14, .cls-15, .cls-16, .cls-17, .cls-18, .cls-19, .cls-7, .cls-8, .cls-9 {
        stroke-miterlimit: 10;
        stroke-width: 0.5px;
      }

      .cls-7 {
        stroke: url(#Degradado_sin_nombre_7);
      }

      .cls-8 {
        opacity: 0.92;
        stroke: url(#Degradado_sin_nombre_7-2);
      }

      .cls-9 {
        opacity: 0.83;
        stroke: url(#Degradado_sin_nombre_7-3);
      }

      .cls-10 {
        opacity: 0.75;
        stroke: url(#Degradado_sin_nombre_7-4);
      }

      .cls-11 {
        opacity: 0.67;
        stroke: url(#Degradado_sin_nombre_7-5);
      }

      .cls-12 {
        opacity: 0.58;
        stroke: url(#Degradado_sin_nombre_7-6);
      }

      .cls-13 {
        stroke: url(#Degradado_sin_nombre_7-7);
      }

      .cls-14 {
        opacity: 0.42;
        stroke: url(#Degradado_sin_nombre_7-8);
      }

      .cls-15 {
        opacity: 0.33;
        stroke: url(#Degradado_sin_nombre_7-9);
      }

      .cls-16 {
        opacity: 0.25;
        stroke: url(#Degradado_sin_nombre_7-10);
      }

      .cls-17 {
        opacity: 0.17;
        stroke: url(#Degradado_sin_nombre_7-11);
      }

      .cls-18 {
        opacity: 0.08;
        stroke: url(#Degradado_sin_nombre_7-12);
      }

      .cls-19 {
        opacity: 0;
        stroke: url(#Degradado_sin_nombre_7-13);
      }

      .cls-20 {
        isolation: isolate;
      }

      .cls-21 {
        clip-path: url(#clip-path);
      }

      .cls-22 {
        fill: #737373;
      }

      .cls-23 {
        fill: #777;
      }

      .cls-24 {
        fill: #7c7c7c;
      }

      .cls-25 {
        fill: gray;
      }

      .cls-26 {
        fill: #858585;
      }

      .cls-27 {
        fill: #898989;
      }

      .cls-28 {
        fill: #8d8d8d;
      }

      .cls-29 {
        fill: #929292;
      }

      .cls-30 {
        fill: #969696;
      }

      .cls-31 {
        fill: #9b9b9b;
      }

      .cls-32 {
        fill: #9f9f9f;
      }

      .cls-33 {
        fill: #b8b8b8;
      }

      .cls-34 {
        clip-path: url(#clip-path-2);
      }

      .cls-35 {
        fill: #acacac;
      }

      .cls-36 {
        fill: #a7a7a7;
      }

      .cls-37 {
        fill: #a3a3a3;
      }

      .cls-38 {
        fill: #9e9e9e;
      }

      .cls-39 {
        fill: #999;
      }

      .cls-40 {
        fill: #949494;
      }

      .cls-41 {
        fill: #8f8f8f;
      }

      .cls-42 {
        fill: #8b8b8b;
      }

      .cls-43 {
        clip-path: url(#clip-path-3);
      }

      .cls-44 {
        fill: #ababab;
      }

      .cls-45 {
        clip-path: url(#clip-path-4);
      }

      .cls-46 {
        clip-path: url(#clip-path-5);
      }

      .cls-47 {
        clip-path: url(#clip-path-6);
      }

      .cls-48 {
        clip-path: url(#clip-path-7);
      }

      .cls-49 {
        clip-path: url(#clip-path-8);
      }

      .cls-50 {
        clip-path: url(#clip-path-9);
      }

      .cls-51 {
        fill: #868686;
      }

      .cls-52 {
        fill: #818181;
      }

      .cls-53 {
        fill: url(#Degradado_sin_nombre_3);
      }

      .cls-54 {
        fill: url(#Degradado_sin_nombre_2);
      }

      .cls-55 {
        fill: url(#Degradado_sin_nombre_5);
      }

      .cls-56 {
        fill: url(#Degradado_sin_nombre_6);
      }

      .cls-57 {
        fill: url(#Degradado_sin_nombre_19);
      }

      .cls-58 {
        fill: #3ca56d;
      }

      .cls-59 {
        fill: #0e4f28;
      }

      .cls-60 {
        fill: #166638;
      }

      .cls-61 {
        fill: #61a9ff;
      }

      .cls-62 {
        fill: #4599ed;
      }

      .cls-63, .cls-64 {
        fill: #a6e1ff;
      }

      .cls-64, .cls-68, .cls-78 {
        mix-blend-mode: multiply;
      }

      .cls-65 {
        fill: #ebfcff;
      }

      .cls-66 {
        fill: #3b80e2;
      }

      .cls-67 {
        fill: #66acff;
      }

      .cls-68 {
        fill: #6cf;
      }

      .cls-69 {
        fill: #c2dbff;
      }

      .cls-70 {
        fill: url(#Degradado_sin_nombre_8);
      }

      .cls-71 {
        fill: url(#Degradado_sin_nombre_5-2);
      }

      .cls-72 {
        fill: #2a86c4;
      }

      .cls-73 {
        fill: #8fcaf2;
      }

      .cls-74 {
        fill: #5f9bc4;
      }

      .cls-75 {
        fill: #9cd6f7;
      }

      .cls-76 {
        fill: #bdd9ef;
      }

      .cls-77 {
        fill: #4987bf;
      }

      .cls-78 {
        fill: url(#Degradado_sin_nombre_17);
      }

      .cls-79 {
        fill: #347dc6;
      }

      .cls-80 {
        fill: #ccf4ff;
      }

      .cls-81 {
        fill: #94d1ff;
      }

      .cls-82 {
        fill: #e9f5ff;
      }

      .cls-83 {
        fill: #ff6e91;
      }

      .cls-84 {
        fill: url(#Degradado_sin_nombre_13);
      }

      .cls-85 {
        fill: url(#Degradado_sin_nombre_14);
      }

      .cls-86, .cls-87 {
        stroke: #fff;
        stroke-linecap: round;
        stroke-linejoin: round;
        stroke-width: 0.24px;
      }
    </style>
    <linearGradient id="Degradado_sin_nombre_7" data-name="Degradado sin nombre 7" x1="83.89" y1="171.35" x2="266.11" y2="171.35" gradientUnits="userSpaceOnUse">
      <stop offset="0" stop-color="#f3ffff"/>
      <stop offset="1" stop-color="#39f1ff"/>
    </linearGradient>
    <linearGradient id="Degradado_sin_nombre_7-2" x1="78.53" y1="171.35" x2="271.47" y2="171.35" xlink:href="#Degradado_sin_nombre_7"/>
    <linearGradient id="Degradado_sin_nombre_7-3" x1="73.17" y1="171.35" x2="276.83" y2="171.35" xlink:href="#Degradado_sin_nombre_7"/>
    <linearGradient id="Degradado_sin_nombre_7-4" x1="67.82" y1="171.35" x2="282.18" y2="171.35" xlink:href="#Degradado_sin_nombre_7"/>
    <linearGradient id="Degradado_sin_nombre_7-5" x1="62.46" y1="171.35" x2="287.54" y2="171.35" xlink:href="#Degradado_sin_nombre_7"/>
    <linearGradient id="Degradado_sin_nombre_7-6" x1="57.1" y1="171.35" x2="292.9" y2="171.35" xlink:href="#Degradado_sin_nombre_7"/>
    <linearGradient id="Degradado_sin_nombre_7-7" x1="51.74" y1="171.35" x2="298.26" y2="171.35" xlink:href="#Degradado_sin_nombre_7"/>
    <linearGradient id="Degradado_sin_nombre_7-8" x1="46.38" y1="171.35" x2="303.62" y2="171.35" xlink:href="#Degradado_sin_nombre_7"/>
    <linearGradient id="Degradado_sin_nombre_7-9" x1="41.03" y1="171.35" x2="308.97" y2="171.35" xlink:href="#Degradado_sin_nombre_7"/>
    <linearGradient id="Degradado_sin_nombre_7-10" x1="35.67" y1="171.35" x2="314.33" y2="171.35" xlink:href="#Degradado_sin_nombre_7"/>
    <linearGradient id="Degradado_sin_nombre_7-11" x1="30.31" y1="171.35" x2="319.69" y2="171.35" xlink:href="#Degradado_sin_nombre_7"/>
    <linearGradient id="Degradado_sin_nombre_7-12" x1="24.95" y1="171.35" x2="325.05" y2="171.35" xlink:href="#Degradado_sin_nombre_7"/>
    <linearGradient id="Degradado_sin_nombre_7-13" x1="19.6" y1="171.35" x2="330.4" y2="171.35" xlink:href="#Degradado_sin_nombre_7"/>
    <clipPath id="clip-path">
      <path class="cls-1" d="M230.15,56.72l0,7.28a12.38,12.38,0,0,0-11.2,0l0-7.28A12.35,12.35,0,0,1,230.15,56.72Z"/>
    </clipPath>
    <clipPath id="clip-path-2">
      <path class="cls-1" d="M258.79,84.8l0-7.28a1.68,1.68,0,0,1,1-1.39l0,7.28A1.73,1.73,0,0,0,258.79,84.8Z"/>
    </clipPath>
    <clipPath id="clip-path-3">
      <path class="cls-1" d="M258.79,84.8l0-7.28a1.71,1.71,0,0,0,1,1.42l0,7.28A1.73,1.73,0,0,1,258.79,84.8Z"/>
    </clipPath>
    <clipPath id="clip-path-4">
      <path class="cls-1" d="M305.84,102.7l0,7.28a5.35,5.35,0,0,1-4.85,0l0-7.28A5.35,5.35,0,0,0,305.84,102.7Z"/>
    </clipPath>
    <clipPath id="clip-path-5">
      <path class="cls-1" d="M341.77,123.08l0,7.28a4,4,0,0,0-2.34-3.26l0-7.28A4,4,0,0,1,341.77,123.08Z"/>
    </clipPath>
    <clipPath id="clip-path-6">
      <path class="cls-1" d="M341.77,123.08l0,7.28a3.93,3.93,0,0,1-2.3,3.21l0-7.28A3.94,3.94,0,0,0,341.77,123.08Z"/>
    </clipPath>
    <clipPath id="clip-path-7">
      <path class="cls-1" d="M10.53,185.1a3.91,3.91,0,0,0-2.29,3.21l0-7.28a3.91,3.91,0,0,1,2.29-3.21C10.54,180,10.53,182.92,10.53,185.1Z"/>
    </clipPath>
    <clipPath id="clip-path-8">
      <path class="cls-1" d="M8.24,188.31l0-7.28a4,4,0,0,0,2.34,3.28l0,7.28A4,4,0,0,1,8.24,188.31Z"/>
    </clipPath>
    <clipPath id="clip-path-9">
      <path class="cls-1" d="M131.07,247.4l0,7.28a12.31,12.31,0,0,1-11.18,0l0-7.28A12.31,12.31,0,0,0,131.07,247.4Z"/>
    </clipPath>
    <linearGradient id="Degradado_sin_nombre_3" data-name="Degradado sin nombre 3" x1="20.49" y1="148.51" x2="341.77" y2="148.51" gradientUnits="userSpaceOnUse">
      <stop offset="0" stop-color="#f3ffff"/>
      <stop offset="1" stop-color="#4ba6dd"/>
    </linearGradient>
    <linearGradient id="Degradado_sin_nombre_2" data-name="Degradado sin nombre 2" x1="27.49" y1="148.51" x2="334.76" y2="148.51" gradientUnits="userSpaceOnUse">
      <stop offset="0" stop-color="#f3ffff"/>
      <stop offset="1" stop-color="#78cef4"/>
    </linearGradient>
    <linearGradient id="Degradado_sin_nombre_5" data-name="Degradado sin nombre 5" x1="41.36" y1="148.51" x2="320.9" y2="148.51" gradientUnits="userSpaceOnUse">
      <stop offset="0" stop-color="#50deff"/>
      <stop offset="1" stop-color="#2389e5"/>
    </linearGradient>
    <linearGradient id="Degradado_sin_nombre_6" data-name="Degradado sin nombre 6" x1="0.02" y1="152.06" x2="350" y2="152.06" gradientUnits="userSpaceOnUse">
      <stop offset="0" stop-color="#33caff"/>
      <stop offset="1" stop-color="#246de2"/>
    </linearGradient>
    <linearGradient id="Degradado_sin_nombre_19" data-name="Degradado sin nombre 19" y1="191.95" x2="350" y2="191.95" gradientUnits="userSpaceOnUse">
      <stop offset="0" stop-color="#50deff"/>
      <stop offset="0.17" stop-color="#53dfff"/>
      <stop offset="0.33" stop-color="#5ee1ff"/>
      <stop offset="0.47" stop-color="#70e4ff"/>
      <stop offset="0.61" stop-color="#89e9ff"/>
      <stop offset="0.74" stop-color="#aaefff"/>
      <stop offset="0.87" stop-color="#d1f6ff"/>
      <stop offset="1" stop-color="#fff"/>
    </linearGradient>
    <linearGradient id="Degradado_sin_nombre_8" data-name="Degradado sin nombre 8" x1="158.79" y1="52.56" x2="299.3" y2="52.56" gradientUnits="userSpaceOnUse">
      <stop offset="0" stop-color="#4accff"/>
      <stop offset="1" stop-color="#196dbf"/>
    </linearGradient>
    <linearGradient id="Degradado_sin_nombre_5-2" x1="171.64" y1="56.87" x2="289.88" y2="56.87" xlink:href="#Degradado_sin_nombre_5"/>
    <linearGradient id="Degradado_sin_nombre_17" data-name="Degradado sin nombre 17" x1="228.33" y1="67.08" x2="248.81" y2="67.08" gradientUnits="userSpaceOnUse">
      <stop offset="0" stop-color="#196dbf"/>
      <stop offset="1" stop-color="#196dbf"/>
    </linearGradient>
    <linearGradient id="Degradado_sin_nombre_13" data-name="Degradado sin nombre 13" x1="258.3" y1="88.66" x2="290.39" y2="144.23" gradientUnits="userSpaceOnUse">
      <stop offset="0" stop-color="#fff" stop-opacity="0"/>
      <stop offset="0.17" stop-color="#fff" stop-opacity="0.01"/>
      <stop offset="0.3" stop-color="#fff" stop-opacity="0.05"/>
      <stop offset="0.42" stop-color="#fff" stop-opacity="0.12"/>
      <stop offset="0.53" stop-color="#fff" stop-opacity="0.21"/>
      <stop offset="0.63" stop-color="#fff" stop-opacity="0.33"/>
      <stop offset="0.74" stop-color="#fff" stop-opacity="0.48"/>
      <stop offset="0.84" stop-color="#fff" stop-opacity="0.65"/>
      <stop offset="0.93" stop-color="#fff" stop-opacity="0.85"/>
      <stop offset="1" stop-color="#fff"/>
    </linearGradient>
    <linearGradient id="Degradado_sin_nombre_14" data-name="Degradado sin nombre 14" x1="175.78" y1="132.3" x2="207.87" y2="76.72" gradientUnits="userSpaceOnUse">
      <stop offset="0" stop-color="#fff"/>
      <stop offset="0.03" stop-color="#fff" stop-opacity="0.94"/>
      <stop offset="0.14" stop-color="#fff" stop-opacity="0.72"/>
      <stop offset="0.26" stop-color="#fff" stop-opacity="0.53"/>
      <stop offset="0.37" stop-color="#fff" stop-opacity="0.37"/>
      <stop offset="0.49" stop-color="#fff" stop-opacity="0.23"/>
      <stop offset="0.61" stop-color="#fff" stop-opacity="0.13"/>
      <stop offset="0.73" stop-color="#fff" stop-opacity="0.06"/>
      <stop offset="0.86" stop-color="#fff" stop-opacity="0.01"/>
      <stop offset="1" stop-color="#fff" stop-opacity="0"/>
    </linearGradient>
  </defs>
  <g id="Capa_2" data-name="Capa 2">
    <g id="Layer_1" data-name="Layer 1">
      <g>
        <g>
          <g>
            <g class="cls-2">
              <polygon class="cls-3" points="154.59 34.06 163.11 29.11 171.98 34.23 163.46 39.18 154.59 34.06"/>
            </g>
            <g class="cls-4">
              <polygon class="cls-3" points="163.46 28.99 171.98 24.04 171.95 34.23 163.43 39.18 163.46 28.99"/>
            </g>
            <g class="cls-5">
              <polygon class="cls-3" points="154.59 23.86 163.11 18.92 171.98 24.04 163.46 28.99 154.59 23.86"/>
            </g>
            <g class="cls-6">
              <polygon class="cls-3" points="163.46 28.99 163.43 39.18 154.56 34.06 154.59 23.86 163.46 28.99"/>
            </g>
          </g>
          <g>
            <g class="cls-2">
              <polygon class="cls-3" points="154.59 19.97 163.11 15.02 171.98 20.14 163.46 25.09 154.59 19.97"/>
            </g>
            <g class="cls-4">
              <polygon class="cls-3" points="163.46 14.9 171.98 9.95 171.95 20.14 163.43 25.09 163.46 14.9"/>
            </g>
            <g class="cls-5">
              <polygon class="cls-3" points="154.59 9.78 163.11 4.83 171.98 9.95 163.46 14.9 154.59 9.78"/>
            </g>
            <g class="cls-6">
              <polygon class="cls-3" points="163.46 14.9 163.43 25.09 154.56 19.97 154.59 9.78 163.46 14.9"/>
            </g>
          </g>
        </g>
        <g>
          <path class="cls-7" d="M239,134.13c35.6,20.56,35.78,53.88.42,74.43s-92.91,20.56-128.5,0-35.78-53.88-.41-74.44S203.44,113.58,239,134.13Z"/>
          <path class="cls-8" d="M242.81,131.94c37.7,21.76,37.9,57.05.45,78.81s-98.38,21.78-136.08,0-37.88-57-.43-78.82S205.12,110.17,242.81,131.94Z"/>
          <path class="cls-9" d="M246.59,129.74c39.8,23,40,60.23.47,83.21s-103.86,23-143.66,0-40-60.24-.45-83.21S206.79,106.77,246.59,129.74Z"/>
          <path class="cls-10" d="M250.37,127.55c41.89,24.19,42.11,63.4.49,87.59s-109.34,24.2-151.23,0-42.11-63.41-.48-87.6S208.47,103.36,250.37,127.55Z"/>
          <path class="cls-11" d="M254.14,125.36c44,25.4,44.23,66.58.52,92s-114.82,25.41-158.81,0-44.21-66.59-.5-92S210.15,100,254.14,125.36Z"/>
          <path class="cls-12" d="M257.92,123.16c46.09,26.61,46.34,69.76.54,96.37s-120.29,26.62-166.39,0-46.32-69.76-.52-96.38S211.83,96.55,257.92,123.16Z"/>
          <path class="cls-13" d="M261.7,121c48.19,27.82,48.44,72.93.56,100.76s-125.77,27.83-174,0-48.44-73-.55-100.77S213.5,93.14,261.7,121Z"/>
          <path class="cls-14" d="M265.47,118.77c50.29,29,50.56,76.11.59,105.15s-131.25,29.05-181.54,0S34,147.81,83.94,118.77,215.18,89.74,265.47,118.77Z"/>
          <path class="cls-15" d="M269.25,116.58c52.39,30.25,52.67,79.29.61,109.53s-136.73,30.26-189.12,0-52.65-79.29-.6-109.54S216.86,86.33,269.25,116.58Z"/>
          <path class="cls-16" d="M273,114.38c54.5,31.46,54.78,82.47.65,113.93s-142.21,31.47-196.7,0-54.76-82.47-.63-113.94S218.53,82.92,273,114.38Z"/>
          <path class="cls-17" d="M276.8,112.19c56.59,32.67,56.89,85.64.67,118.31s-147.69,32.69-204.28,0-56.87-85.65-.65-118.32S220.21,79.52,276.8,112.19Z"/>
          <path class="cls-18" d="M280.58,110c58.69,33.89,59,88.82.69,122.71s-153.17,33.89-211.86,0-59-88.83-.67-122.71S221.89,76.11,280.58,110Z"/>
          <path class="cls-19" d="M284.35,107.8c60.79,35.1,61.11,92,.72,127.09S126.43,270,65.64,234.9s-61.09-92-.7-127.1S223.56,72.7,284.35,107.8Z"/>
        </g>
        <g>
          <g class="cls-20">
            <g class="cls-20">
              <g class="cls-21">
                <g class="cls-20">
                  <path class="cls-22" d="M230.15,56.72l0,7.28a9.37,9.37,0,0,0-1.15-.54l0-7.28a8.52,8.52,0,0,1,1.14.54"/>
                  <path class="cls-23" d="M229,56.18l0,7.28a7.76,7.76,0,0,0-1-.33l0-7.28a8.52,8.52,0,0,1,1,.33"/>
                  <path class="cls-24" d="M228,55.85l0,7.28c-.27-.08-.55-.14-.83-.2l0-7.28a7.72,7.72,0,0,1,.83.2"/>
                  <path class="cls-25" d="M227.21,55.65l0,7.28c-.26-.06-.52-.1-.79-.14l0-7.28c.27,0,.53.08.79.14"/>
                  <path class="cls-26" d="M226.42,55.51l0,7.28c-.25,0-.51-.07-.77-.09l0-7.28c.26,0,.52,0,.77.09"/>
                  <path class="cls-27" d="M225.65,55.42l0,7.28-.78,0,0-7.28.78,0"/>
                  <path class="cls-28" d="M224.87,55.38l0,7.28c-.27,0-.55,0-.82,0l0-7.29c.28,0,.55,0,.82,0"/>
                  <path class="cls-29" d="M224.05,55.38l0,7.29c-.29,0-.58,0-.88,0l0-7.28q.44,0,.87-.06"/>
                  <path class="cls-30" d="M223.18,55.44l0,7.28c-.33,0-.67.08-1,.14l0-7.28c.33-.06.67-.1,1-.14"/>
                  <path class="cls-31" d="M222.17,55.58l0,7.28a11.75,11.75,0,0,0-1.5.38l0-7.29a13.7,13.7,0,0,1,1.5-.37"/>
                  <path class="cls-32" d="M220.67,56l0,7.29a9.51,9.51,0,0,0-1.72.75l0-7.28a10.3,10.3,0,0,1,1.72-.76"/>
                </g>
              </g>
            </g>
            <polygon class="cls-23" points="261.78 74.99 261.76 82.27 230.13 64 230.15 56.72 261.78 74.99"/>
            <polygon class="cls-33" points="261.78 74.99 261.76 82.27 259.8 83.41 259.82 76.13 261.78 74.99"/>
            <g class="cls-20">
              <g class="cls-34">
                <g class="cls-20">
                  <path class="cls-35" d="M259.82,76.13l0,7.28-.05,0,0-7.28.05,0"/>
                  <path class="cls-36" d="M259.77,76.15l0,7.28a2.53,2.53,0,0,0-.44.33l0-7.28a2.44,2.44,0,0,1,.43-.33"/>
                  <path class="cls-37" d="M259.34,76.48l0,7.28a1.51,1.51,0,0,0-.21.23l0-7.28a1.19,1.19,0,0,1,.22-.23"/>
                  <path class="cls-38" d="M259.12,76.71l0,7.28a1.43,1.43,0,0,0-.14.2l0-7.28a1.43,1.43,0,0,1,.14-.2"/>
                  <path class="cls-39" d="M259,76.91l0,7.28-.09.2,0-7.29.09-.19"/>
                  <path class="cls-40" d="M258.89,77.1l0,7.29a1.05,1.05,0,0,0-.05.19l0-7.28a1.46,1.46,0,0,1,.05-.2"/>
                  <path class="cls-41" d="M258.84,77.3l0,7.28a.62.62,0,0,0,0,.19l0-7.28a1.23,1.23,0,0,1,0-.19"/>
                  <path class="cls-42" d="M258.82,77.49l0,7.28v0l0-7.28v0"/>
                </g>
              </g>
            </g>
            <g class="cls-20">
              <g class="cls-43">
                <g class="cls-20">
                  <path class="cls-22" d="M259.83,78.94l0,7.28a1.73,1.73,0,0,1-1-1.42l0-7.28a1.71,1.71,0,0,0,1,1.42"/>
                </g>
              </g>
            </g>
            <polygon class="cls-44" points="307.8 101.56 307.78 108.84 305.82 109.98 305.84 102.7 307.8 101.56"/>
            <polygon class="cls-23" points="300.99 102.7 300.97 109.98 259.81 86.22 259.83 78.94 300.99 102.7"/>
            <g class="cls-20">
              <g class="cls-45">
                <g class="cls-20">
                  <path class="cls-32" d="M305.84,102.7l0,7.28a4.25,4.25,0,0,1-.75.33l0-7.28a4.25,4.25,0,0,0,.75-.33"/>
                  <path class="cls-31" d="M305.09,103l0,7.28c-.21.06-.43.12-.65.16l0-7.28c.22,0,.44-.1.65-.16"/>
                  <path class="cls-30" d="M304.44,103.19l0,7.28-.44.06,0-7.28.44-.06"/>
                  <path class="cls-29" d="M304,103.25l0,7.28-.38,0,0-7.29.38,0"/>
                  <path class="cls-28" d="M303.62,103.27l0,7.29h-.35l0-7.28h.35"/>
                  <path class="cls-27" d="M303.27,103.28l0,7.28-.34,0,0-7.28.34,0"/>
                  <path class="cls-26" d="M302.93,103.26l0,7.28-.34,0,0-7.28.34,0"/>
                  <path class="cls-25" d="M302.59,103.22l0,7.28-.34-.06,0-7.28.34.06"/>
                  <path class="cls-24" d="M302.25,103.16l0,7.28a2.37,2.37,0,0,1-.36-.09l0-7.28a2.37,2.37,0,0,0,.36.09"/>
                  <path class="cls-23" d="M301.89,103.07l0,7.28a2.83,2.83,0,0,1-.41-.14l0-7.28a2.83,2.83,0,0,0,.41.14"/>
                  <path class="cls-22" d="M301.48,102.93l0,7.28A3.17,3.17,0,0,1,301,110l0-7.28a3.17,3.17,0,0,0,.49.23"/>
                </g>
              </g>
            </g>
            <polygon class="cls-23" points="339.43 119.82 339.41 127.1 307.78 108.84 307.8 101.56 339.43 119.82"/>
            <g class="cls-20">
              <g class="cls-46">
                <g class="cls-20">
                  <path class="cls-22" d="M341.77,123.08l0,7.28a4,4,0,0,0-2.34-3.26l0-7.28a4,4,0,0,1,2.34,3.26"/>
                </g>
              </g>
            </g>
            <g class="cls-20">
              <g class="cls-47">
                <g class="cls-20">
                  <path class="cls-42" d="M341.77,123.08l0,7.28v.07l0-7.28v-.07"/>
                  <path class="cls-41" d="M341.77,123.15l0,7.28a3.47,3.47,0,0,1-.06.45l0-7.28a3.47,3.47,0,0,0,.06-.45"/>
                  <path class="cls-40" d="M341.71,123.6l0,7.28a3.74,3.74,0,0,1-.12.45l0-7.28a3.74,3.74,0,0,0,.12-.45"/>
                  <path class="cls-39" d="M341.59,124.05l0,7.28a4.54,4.54,0,0,1-.21.45l0-7.29a3.55,3.55,0,0,0,.21-.44"/>
                  <path class="cls-38" d="M341.38,124.49l0,7.29a4.35,4.35,0,0,1-.32.47l0-7.28a4.45,4.45,0,0,0,.32-.48"/>
                  <path class="cls-37" d="M341.06,125l0,7.28a5.91,5.91,0,0,1-.49.53l0-7.29a4.74,4.74,0,0,0,.49-.52"/>
                  <path class="cls-36" d="M340.57,125.49l0,7.29a6.28,6.28,0,0,1-1,.74l0-7.28a6.07,6.07,0,0,0,1-.75"/>
                  <path class="cls-35" d="M339.57,126.24l0,7.28-.09,0,0-7.28.1-.05"/>
                </g>
              </g>
            </g>
            <polygon class="cls-44" points="218.95 56.71 218.93 63.99 10.53 185.1 10.55 177.82 218.95 56.71"/>
            <g class="cls-20">
              <g class="cls-48">
                <g class="cls-20">
                  <path class="cls-32" d="M10.55,177.82l0,7.28-.1.06,0-7.28.1-.06"/>
                  <path class="cls-31" d="M10.45,177.88l0,7.28a6.08,6.08,0,0,0-1,.74l0-7.28a6.08,6.08,0,0,1,1-.74"/>
                  <path class="cls-30" d="M9.46,178.62l0,7.28a3.94,3.94,0,0,0-.49.52l0-7.28a3.94,3.94,0,0,1,.49-.52"/>
                  <path class="cls-29" d="M9,179.14l0,7.28a4.35,4.35,0,0,0-.32.47l0-7.28a4.35,4.35,0,0,1,.32-.47"/>
                  <path class="cls-28" d="M8.65,179.61l0,7.28a4.54,4.54,0,0,0-.21.45l0-7.28a4.54,4.54,0,0,1,.21-.45"/>
                  <path class="cls-27" d="M8.44,180.06l0,7.28a3.81,3.81,0,0,0-.13.45l0-7.28a3.81,3.81,0,0,1,.13-.45"/>
                  <path class="cls-26" d="M8.31,180.51l0,7.28a3.44,3.44,0,0,0,0,.45l0-7.28a3.44,3.44,0,0,1,.05-.45"/>
                  <path class="cls-25" d="M8.26,181l0,7.28v.07l0-7.28V181"/>
                </g>
              </g>
            </g>
            <g class="cls-20">
              <g class="cls-49">
                <g class="cls-20">
                  <path class="cls-24" d="M10.6,184.31l0,7.28a4,4,0,0,1-2.34-3.28l0-7.28a4,4,0,0,0,2.34,3.28"/>
                </g>
              </g>
            </g>
            <polygon class="cls-33" points="339.47 126.29 339.45 133.57 131.05 254.68 131.07 247.4 339.47 126.29"/>
            <polygon class="cls-25" points="119.89 247.4 119.87 254.68 10.58 191.59 10.61 184.31 119.89 247.4"/>
            <g class="cls-20">
              <g class="cls-50">
                <g class="cls-20">
                  <path class="cls-35" d="M131.07,247.4l0,7.28a8.83,8.83,0,0,1-1.74.77l0-7.28a9.46,9.46,0,0,0,1.74-.77"/>
                  <path class="cls-36" d="M129.33,248.17l0,7.28a12,12,0,0,1-1.49.37l0-7.28a12,12,0,0,0,1.49-.37"/>
                  <path class="cls-37" d="M127.84,248.54l0,7.28c-.34.06-.67.11-1,.14l0-7.28c.34,0,.68-.08,1-.14"/>
                  <path class="cls-38" d="M126.83,248.68l0,7.28c-.29,0-.58,0-.88.06l0-7.28c.3,0,.59,0,.88-.06"/>
                  <path class="cls-39" d="M126,248.74l0,7.28h-.81l0-7.28H126"/>
                  <path class="cls-40" d="M125.14,248.74l0,7.28c-.26,0-.52,0-.77,0l0-7.28.77,0"/>
                  <path class="cls-41" d="M124.37,248.7l0,7.28c-.26,0-.52,0-.77-.09l0-7.28c.25,0,.51.07.77.09"/>
                  <path class="cls-42" d="M123.6,248.61l0,7.28c-.27,0-.53-.08-.79-.13l0-7.28c.26.05.52.1.79.13"/>
                  <path class="cls-51" d="M122.81,248.48l0,7.28-.82-.2,0-7.28.82.2"/>
                  <path class="cls-52" d="M122,248.28l0,7.28q-.5-.15-1-.33l0-7.28q.47.18,1,.33"/>
                  <path class="cls-24" d="M121,248l0,7.28a8,8,0,0,1-1.14-.55l0-7.28A8.57,8.57,0,0,0,121,248"/>
                </g>
              </g>
            </g>
            <g>
              <path class="cls-53" d="M339.43,119.82c3.1,1.79,3.12,4.68,0,6.47l-196.18,114a12.31,12.31,0,0,1-11.18,0L22.83,177.2c-3.1-1.79-3.13-4.7,0-6.48L219,56.71a12.35,12.35,0,0,1,11.2,0L261.78,75l-2,1.14c-1.34.78-1.34,2,0,2.81L301,102.7a5.35,5.35,0,0,0,4.85,0l2-1.14Z"/>
              <path class="cls-54" d="M332.53,121.07c3,1.71,3,4.48,0,6.19l-187.63,109a11.78,11.78,0,0,1-10.69,0L29.73,176c-3-1.71-3-4.49-.05-6.2l187.62-109a11.82,11.82,0,0,1,10.71,0l30.25,17.47-1.87,1.09c-1.29.75-1.28,1.94,0,2.69l39.36,22.72a5.1,5.1,0,0,0,4.64,0l1.88-1.09Z"/>
              <path class="cls-55" d="M318.87,123.55c2.69,1.55,2.71,4.07,0,5.63L148.21,228.37a10.7,10.7,0,0,1-9.73,0L43.4,173.47c-2.7-1.55-2.73-4.08,0-5.64L214,68.64a10.72,10.72,0,0,1,9.74,0L251.3,84.54l-1.71,1a1.29,1.29,0,0,0,0,2.45l35.8,20.67a4.65,4.65,0,0,0,4.22,0l1.71-1Z"/>
              <path class="cls-56" d="M346.76,118.58c4.31,2.49,4.32,6.54,0,9l-213.43,124a17.17,17.17,0,0,1-15.59,0L3.28,185.55c-4.32-2.49-4.36-6.54,0-9l213.42-124c4.29-2.5,11.3-2.5,15.62,0ZM143.29,240.3l196.18-114c3.08-1.79,3.06-4.68,0-6.47L307.8,101.56l-2,1.14a5.35,5.35,0,0,1-4.85,0L259.83,78.94c-1.35-.78-1.35-2,0-2.81l2-1.14L230.15,56.72a12.35,12.35,0,0,0-11.2,0l-196.17,114c-3.08,1.78-3.05,4.69,0,6.48l109.28,63.1a12.31,12.31,0,0,0,11.18,0"/>
            </g>
            <path class="cls-57" d="M349.81,124.25l0,.12a5.3,5.3,0,0,1-.53,1l-.12.18a6.6,6.6,0,0,1-.88,1,8.28,8.28,0,0,1-.78.57,5.92,5.92,0,0,1-.68.49l-213.43,124a12,12,0,0,1-2.18,1l-.83.25c-.36.11-.73.2-1.11.28s-.87.17-1.32.23l-.34,0c-.61.06-1.23.09-1.85.1h-.29c-.62,0-1.23,0-1.83-.1l-.28,0a17.2,17.2,0,0,1-1.77-.3l-.31-.08a14.35,14.35,0,0,1-1.53-.47l-.27-.09a12.35,12.35,0,0,1-1.68-.79L3.28,185.55C1.11,184.29,0,182.64,0,181l0,7.29c0,1.64,1.08,3.29,3.26,4.55l114.49,66.1a11.64,11.64,0,0,0,1.59.76l.09,0,.27.09a10.24,10.24,0,0,0,1,.33c.18.06.36.09.55.14l.31.08.28.07,1.09.19.4,0,.27,0,.4.05,1.09.05h1.12c.41,0,.82,0,1.22-.08l.15,0,.33-.05c.31,0,.63-.07.93-.13.14,0,.27-.07.4-.1.38-.08.75-.17,1.11-.28.19-.05.4-.08.58-.14l.25-.11a12,12,0,0,0,2.18-1l213.43-124,.13-.08a6.23,6.23,0,0,0,.56-.41c.26-.19.55-.37.77-.57l.07-.05A6.74,6.74,0,0,0,349,133a1.88,1.88,0,0,1,.12-.18l.12-.18.2-.3a4.5,4.5,0,0,0,.3-.63s0-.06,0-.1a.56.56,0,0,0,0-.12c0-.13.09-.27.12-.4a4.64,4.64,0,0,0,.07-.64v-.09l0-7.29A3.68,3.68,0,0,1,349.81,124.25Z"/>
          </g>
          <path class="cls-3" d="M86.85,220.33c1.57.9,1.58,2.37,0,3.27a6.23,6.23,0,0,1-5.67,0L55.67,208.86c-1.57-.91-1.58-2.38,0-3.29a6.24,6.24,0,0,1,5.66,0Z"/>
          <path class="cls-3" d="M294.34,92.58c.62.36.62.94,0,1.29a2.46,2.46,0,0,1-2.24,0L276.68,85c-.62-.36-.63-.94,0-1.3a2.47,2.47,0,0,1,2.23,0Z"/>
        </g>
        <g>
          <g>
            <polygon class="cls-58" points="191.03 85.29 215.11 71.39 183.05 52.85 158.97 66.75 191.03 85.29"/>
            <polygon class="cls-59" points="191.03 85.29 191.03 86.22 215.11 72.32 215.11 71.39 191.03 85.29"/>
            <polygon class="cls-60" points="191.03 86.22 158.97 67.68 158.97 66.75 191.03 85.29 191.03 86.22"/>
          </g>
          <g>
            <g class="cls-20">
              <polygon class="cls-61" points="301.94 71.42 301.75 136.66 247.39 168.25 247.58 103.01 301.94 71.42"/>
              <polygon class="cls-62" points="301.94 71.42 301.75 78.66 247.39 110.25 247.58 103.01 301.94 71.42"/>
              <polygon class="cls-63" points="247.58 103.01 247.39 168.25 156.21 115.61 156.4 50.37 247.58 103.01"/>
              <line class="cls-64" x1="156.4" y1="50.37" x2="247.58" y2="103.01"/>
              <polygon class="cls-65" points="301.94 71.42 247.58 103.01 156.4 50.37 210.76 18.78 301.94 71.42"/>
            </g>
            <g class="cls-20">
              <polygon class="cls-66" points="301.94 132.61 301.75 136.68 247.39 168.27 247.58 164.21 301.94 132.61"/>
              <polygon class="cls-67" points="247.58 164.21 247.39 168.27 156.21 115.63 156.4 111.56 247.58 164.21"/>
            </g>
            <g class="cls-20">
              <polygon class="cls-66" points="307.59 63.97 307.39 72.76 248.81 106.81 249.01 98.01 307.59 63.97"/>
              <polygon class="cls-68" points="156.4 49.04 156.21 57.64 247.39 110.28 247.58 101.68 156.4 49.04"/>
              <polygon class="cls-67" points="249.01 98.01 248.81 106.81 150.56 50.08 150.76 41.29 249.01 98.01"/>
              <polygon class="cls-69" points="307.59 63.97 249.01 98.01 150.76 41.29 209.34 7.24 307.59 63.97"/>
              <polygon class="cls-70" points="299.3 63.98 248.81 93.32 158.79 41.15 209.28 11.81 299.3 63.98"/>
              <polygon class="cls-71" points="289.88 66.47 247.39 91.16 171.64 47.26 214.13 22.57 289.88 66.47"/>
              <polygon class="cls-66" points="209.28 17.98 293.99 67.07 299.3 63.98 209.28 11.81 158.79 41.15 164.1 44.23 209.28 17.98"/>
            </g>
            <g class="cls-20">
              <polygon class="cls-72" points="286.01 64.86 285.98 67.05 275.73 73.01 275.76 70.82 286.01 64.86"/>
              <polygon class="cls-67" points="275.76 70.82 275.73 73.01 258.53 63.08 258.56 60.89 275.76 70.82"/>
              <polygon class="cls-73" points="286.01 64.86 275.76 70.82 258.56 60.89 268.82 54.94 286.01 64.86"/>
              <polygon class="cls-65" points="281.93 64.27 274.73 68.46 262.64 61.48 269.85 57.3 281.93 64.27"/>
              <polygon class="cls-3" points="278.2 63.73 273.78 66.3 266.37 62.02 270.79 59.45 278.2 63.73"/>
            </g>
            <g>
              <polygon class="cls-61" points="211.32 142.08 191.95 130.89 191.95 88.28 211.32 99.47 211.32 142.08"/>
              <polygon class="cls-74" points="191.51 131.18 190.93 131.52 190.93 87.69 191.51 88.03 191.51 131.18"/>
              <polygon class="cls-75" points="190.93 131.52 211.32 143.29 211.32 142.63 191.51 131.18 190.93 131.52"/>
              <g>
                <polygon class="cls-74" points="191.99 130.85 191.78 130.99 211.32 142.28 211.32 142.02 191.99 130.85"/>
                <polygon class="cls-74" points="191.99 130.85 191.99 88.3 191.78 88.19 191.78 130.99 191.99 130.85"/>
                <polygon class="cls-76" points="211.32 142.28 191.78 130.99 191.51 131.18 211.32 142.63 211.32 142.28"/>
                <polygon class="cls-76" points="191.51 131.18 191.78 130.99 191.78 88.19 191.51 88.03 191.51 131.18"/>
              </g>
            </g>
            <path class="cls-3" d="M209.5,121.13c.3.83.16,1.64-.31,1.81s-1.1-.36-1.4-1.19-.17-1.64.31-1.82S209.2,120.3,209.5,121.13Z"/>
            <g>
              <polygon class="cls-65" points="244.36 154.15 224.84 142.87 224.84 113.63 244.36 124.9 244.36 154.15"/>
              <polygon class="cls-66" points="224.41 143.17 223.9 143.45 223.82 113.04 224.41 113.38 224.41 143.17"/>
              <polygon class="cls-76" points="223.9 143.45 244.44 155.31 244.36 154.69 224.41 143.17 223.9 143.45"/>
              <g>
                <polygon class="cls-69" points="224.88 142.84 224.68 142.97 244.36 154.34 244.36 154.09 224.88 142.84"/>
                <polygon class="cls-76" points="224.88 142.84 224.88 113.65 224.68 113.53 224.68 142.97 224.88 142.84"/>
                <polygon class="cls-77" points="244.36 154.34 224.68 142.97 224.41 143.17 244.36 154.69 244.36 154.34"/>
                <polygon class="cls-77" points="224.41 143.17 224.68 142.97 224.68 113.53 224.41 113.38 224.41 143.17"/>
              </g>
              <g>
                <polygon class="cls-77" points="238.28 151.76 238.28 121.39 236.23 120.2 236.23 150.57 238.28 151.76"/>
                <polygon class="cls-66" points="238.28 151.76 238.78 151.47 238.78 121.68 238.28 121.39 238.28 151.76"/>
              </g>
              <g>
                <polygon class="cls-77" points="230.76 147.41 230.76 117.05 228.7 115.86 228.7 146.23 230.76 147.41"/>
                <polygon class="cls-66" points="230.76 147.41 231.26 147.13 231.26 117.33 230.76 117.05 230.76 147.41"/>
              </g>
            </g>
            <g>
              <polygon class="cls-65" points="178.93 118.97 159.41 107.7 159.41 78.45 178.93 89.72 178.93 118.97"/>
              <polygon class="cls-66" points="158.97 107.99 158.46 108.27 158.38 77.86 158.97 78.2 158.97 107.99"/>
              <polygon class="cls-76" points="158.46 108.27 179.01 120.13 178.93 119.52 158.97 107.99 158.46 108.27"/>
              <g>
                <polygon class="cls-69" points="159.45 107.66 159.24 107.8 178.93 119.17 178.93 118.91 159.45 107.66"/>
                <polygon class="cls-76" points="159.45 107.66 159.45 78.47 159.24 78.36 159.24 107.8 159.45 107.66"/>
                <polygon class="cls-77" points="178.93 119.17 159.24 107.8 158.97 107.99 178.93 119.52 178.93 119.17"/>
                <polygon class="cls-77" points="158.97 107.99 159.24 107.8 159.24 78.36 158.97 78.2 158.97 107.99"/>
              </g>
              <g>
                <polygon class="cls-77" points="172.85 116.58 172.85 86.21 170.79 85.03 170.79 115.39 172.85 116.58"/>
                <polygon class="cls-66" points="172.85 116.58 173.34 116.29 173.34 86.5 172.85 86.21 172.85 116.58"/>
              </g>
              <g>
                <polygon class="cls-77" points="165.32 112.24 165.32 81.87 163.27 80.68 163.27 111.05 165.32 112.24"/>
                <polygon class="cls-66" points="165.32 112.24 165.82 111.95 165.82 82.16 165.32 81.87 165.32 112.24"/>
              </g>
            </g>
          </g>
          <g>
            <polygon class="cls-65" points="258.94 147.69 295.54 126.55 295.54 93.25 258.94 114.39 258.94 147.69"/>
            <polygon class="cls-66" points="296.36 127.1 297.31 127.62 297.46 92.15 296.36 92.78 296.36 127.1"/>
            <polygon class="cls-76" points="297.31 127.62 258.79 149.87 258.94 148.71 296.36 127.1 297.31 127.62"/>
            <g>
              <polygon class="cls-69" points="295.46 126.48 295.85 126.73 258.94 148.05 258.94 147.57 295.46 126.48"/>
              <polygon class="cls-76" points="295.46 126.48 295.46 93.3 295.85 93.07 295.85 126.73 295.46 126.48"/>
              <polygon class="cls-66" points="258.94 148.05 295.85 126.73 296.36 127.1 258.94 148.71 258.94 148.05"/>
              <polygon class="cls-66" points="296.36 127.1 295.85 126.73 295.85 93.07 296.36 92.78 296.36 127.1"/>
            </g>
            <g>
              <polygon class="cls-61" points="270.34 143.2 270.34 107.8 274.2 105.58 274.2 140.98 270.34 143.2"/>
              <polygon class="cls-66" points="270.34 143.2 269.41 142.66 269.41 108.34 270.34 107.8 270.34 143.2"/>
            </g>
            <g>
              <polygon class="cls-61" points="284.45 135.06 284.45 99.66 288.3 97.44 288.3 132.84 284.45 135.06"/>
              <polygon class="cls-66" points="284.45 135.06 283.51 134.52 283.51 100.2 284.45 99.66 284.45 135.06"/>
            </g>
          </g>
        </g>
        <g>
          <polygon class="cls-3" points="249.2 155.9 248.98 155.77 117.27 79.73 149.93 60.76 149.93 61.79 119.06 79.73 249.2 154.87 326.44 109.98 295.44 92.09 295.44 91.05 328.23 109.98 249.2 155.9"/>
          <circle class="cls-3" cx="249.2" cy="154.87" r="2.31"/>
          <path class="cls-3" d="M121,80a2.31,2.31,0,1,1-2.31-2.31A2.32,2.32,0,0,1,121,80Z"/>
          <path class="cls-3" d="M329.47,110.38a2.32,2.32,0,1,1-2.32-2.32A2.32,2.32,0,0,1,329.47,110.38Z"/>
        </g>
        <g>
          <g class="cls-20">
            <polygon class="cls-78" points="237.88 76.08 248.81 69.85 228.33 58.07 237.88 76.08"/>
            <polygon class="cls-79" points="235.62 52.24 237.96 50.89 237.88 76.08 235.55 77.44 235.62 52.24"/>
            <polygon class="cls-80" points="235.55 77.44 235.98 52.85 237.42 51.2 235.62 52.24 235.55 77.44"/>
            <polygon class="cls-81" points="188.66 25.13 191 23.78 237.96 50.89 235.62 52.24 188.66 25.13"/>
            <polygon class="cls-80" points="188.66 25.13 234.71 50.89 235.55 50.37 221.33 41.29 237.96 50.89 235.62 52.24 188.66 25.13"/>
            <polygon class="cls-82" points="235.62 52.24 235.55 77.44 188.59 50.33 188.66 25.13 235.62 52.24"/>
          </g>
          <g>
            <path class="cls-83" d="M197.42,38.11A12.71,12.71,0,0,1,201,41.24l-.74,1.67a11,11,0,0,0-2.87-2.6c-1.42-.82-2-.53-2,.23,0,2.19,6,4.16,6,8.52,0,2-1.45,2.87-4.41,1.16a13.86,13.86,0,0,1-4.22-3.82l.82-1.6A11.88,11.88,0,0,0,197.05,48c1.42.82,2,.6,2-.13,0-2.23-6-4.17-6-8.6C193.05,37.27,194.47,36.41,197.42,38.11Z"/>
            <path class="cls-83" d="M208.73,44.84l4.6,14.59L210.82,58l-.91-3.08-4.81-2.78-.93,2-2.46-1.42,4.65-9.23Zm-2.86,5.63,3.29,1.9-1.63-5.52-1.66,3.62"/>
            <polygon class="cls-83" points="216.85 49.53 216.82 59.2 222.02 62.2 222.01 64.44 214.42 60.05 214.45 48.15 216.85 49.53"/>
            <polygon class="cls-83" points="231.23 57.83 231.22 60.04 225.78 56.9 225.77 59.49 230.58 62.27 230.58 64.41 225.76 61.63 225.76 64.38 231.4 67.64 231.39 69.85 223.37 65.22 223.4 53.31 231.23 57.83"/>
          </g>
        </g>
        <polygon class="cls-84" points="305.28 61.54 305.07 135.52 243.42 171.35 243.63 97.36 305.28 61.54"/>
        <polygon class="cls-85" points="243.63 97.36 243.42 171.35 140.02 111.65 140.23 37.67 243.63 97.36"/>
        <g>
          <g>
            <g>
              <polygon class="cls-86" points="85.58 104.98 78.8 73.91 99.08 81.99 85.58 104.98"/>
              <polygon class="cls-86" points="99.08 81.99 97.17 57.19 78.8 73.91 99.08 81.99"/>
            </g>
            <path class="cls-3" d="M97.62,57.14a.6.6,0,0,1-1,.66.6.6,0,0,1,1-.66Z"/>
            <path class="cls-3" d="M99.5,81.71a.62.62,0,0,1-.17.84.61.61,0,0,1-.67-1A.62.62,0,0,1,99.5,81.71Z"/>
            <path class="cls-3" d="M79.3,73.58a.6.6,0,1,1-.83-.17A.6.6,0,0,1,79.3,73.58Z"/>
            <path class="cls-3" d="M86.08,104.64a.6.6,0,1,1-.83-.17A.6.6,0,0,1,86.08,104.64Z"/>
          </g>
          <g>
            <g>
              <polygon class="cls-86" points="217.4 98.85 228.84 87.33 241.32 105.23 217.4 98.85"/>
              <polygon class="cls-86" points="241.32 105.23 253.38 83.48 228.84 87.33 241.32 105.23"/>
            </g>
            <circle class="cls-3" cx="253.18" cy="83.68" r="0.6"/>
            <circle class="cls-3" cx="241.22" cy="105.23" r="0.6"/>
            <circle class="cls-3" cx="257.51" cy="103.83" r="0.6"/>
            <path class="cls-3" d="M229.44,87.32a.61.61,0,1,1-.6-.6A.6.6,0,0,1,229.44,87.32Z"/>
            <circle class="cls-3" cx="217.39" cy="98.85" r="0.6"/>
            <polyline class="cls-87" points="241.32 105.23 257.51 103.93 253.18 83.68"/>
          </g>
          <g>
            <g>
              <polygon class="cls-86" points="278.12 31.67 288.36 6.68 300.84 24.59 278.12 31.67"/>
              <polygon class="cls-86" points="300.84 24.59 300.22 4.83 288.36 6.68 300.84 24.59"/>
            </g>
            <circle class="cls-3" cx="300.02" cy="5.03" r="0.6"/>
            <circle class="cls-3" cx="300.74" cy="24.59" r="0.6"/>
            <path class="cls-3" d="M289,6.68a.61.61,0,1,1-.6-.6A.6.6,0,0,1,289,6.68Z"/>
            <circle class="cls-3" cx="278.12" cy="31.67" r="0.6"/>
          </g>
          <g>
            <polygon class="cls-86" points="140.91 30.44 133.91 56.52 119.27 40.33 140.91 30.44"/>
            <path class="cls-3" d="M118.77,40.39a.6.6,0,0,1,.52-.67.6.6,0,1,1,.15,1.19A.6.6,0,0,1,118.77,40.39Z"/>
            <path class="cls-3" d="M133.31,56.59a.6.6,0,0,1,.52-.67.61.61,0,0,1,.68.52.62.62,0,0,1-.53.68A.61.61,0,0,1,133.31,56.59Z"/>
            <path class="cls-3" d="M140.31,30.51a.6.6,0,0,1,.52-.67A.61.61,0,1,1,141,31,.62.62,0,0,1,140.31,30.51Z"/>
          </g>
          <g>
            <polygon class="cls-86" points="332.51 91.44 330.15 102.46 315.52 86.27 332.51 91.44"/>
            <path class="cls-3" d="M315,86.33a.6.6,0,1,1,.67.52A.6.6,0,0,1,315,86.33Z"/>
            <path class="cls-3" d="M329.56,102.53a.59.59,0,0,1,.52-.67.6.6,0,0,1,.67.52.6.6,0,1,1-1.19.15Z"/>
            <path class="cls-3" d="M331.91,91.51a.6.6,0,1,1,.68.52A.6.6,0,0,1,331.91,91.51Z"/>
          </g>
          <g>
            <polygon class="cls-86" points="208.46 135.92 182.47 128.6 198.83 114.16 208.46 135.92"/>
            <path class="cls-3" d="M198.78,113.66a.59.59,0,0,1,.66.53.6.6,0,0,1-.53.67.59.59,0,0,1-.66-.53A.61.61,0,0,1,198.78,113.66Z"/>
            <path class="cls-3" d="M182.4,128a.61.61,0,0,1,.67.53.59.59,0,0,1-.53.66.6.6,0,0,1-.67-.53A.59.59,0,0,1,182.4,128Z"/>
            <path class="cls-3" d="M208.4,135.32a.59.59,0,0,1,.66.53.61.61,0,0,1-.53.67.59.59,0,0,1-.66-.53A.6.6,0,0,1,208.4,135.32Z"/>
          </g>
          <g>
            <g>
              <g class="cls-2">
                <polygon class="cls-3" points="81.64 180.25 92.43 173.98 103.66 180.47 92.88 186.73 81.64 180.25"/>
              </g>
              <g class="cls-4">
                <polygon class="cls-3" points="92.88 173.82 103.66 167.56 103.63 180.47 92.84 186.73 92.88 173.82"/>
              </g>
              <g class="cls-5">
                <polygon class="cls-3" points="81.64 167.34 92.43 161.07 103.66 167.56 92.88 173.82 81.64 167.34"/>
              </g>
              <g class="cls-6">
                <polygon class="cls-3" points="92.88 173.82 92.84 186.73 81.61 180.25 81.64 167.34 92.88 173.82"/>
              </g>
            </g>
            <g>
              <g class="cls-2">
                <polygon class="cls-3" points="81.64 162.41 92.43 156.14 103.66 162.63 92.88 168.89 81.64 162.41"/>
              </g>
              <g class="cls-4">
                <polygon class="cls-3" points="92.88 155.98 103.66 149.72 103.63 162.63 92.84 168.89 92.88 155.98"/>
              </g>
              <g class="cls-5">
                <polygon class="cls-3" points="81.64 149.5 92.43 143.23 103.66 149.72 92.88 155.98 81.64 149.5"/>
              </g>
              <g class="cls-6">
                <polygon class="cls-3" points="92.88 155.98 92.84 168.89 81.61 162.41 81.64 149.5 92.88 155.98"/>
              </g>
            </g>
            <g>
              <g class="cls-2">
                <polygon class="cls-3" points="81.64 144.57 92.43 138.3 103.66 144.79 92.88 151.05 81.64 144.57"/>
              </g>
              <g class="cls-4">
                <polygon class="cls-3" points="92.88 138.14 103.66 131.88 103.63 144.79 92.84 151.05 92.88 138.14"/>
              </g>
              <g class="cls-5">
                <polygon class="cls-3" points="81.64 131.66 92.43 125.39 103.66 131.88 92.88 138.14 81.64 131.66"/>
              </g>
              <g class="cls-6">
                <polygon class="cls-3" points="92.88 138.14 92.84 151.05 81.61 144.57 81.64 131.66 92.88 138.14"/>
              </g>
            </g>
          </g>
          <g>
            <g>
              <g class="cls-2">
                <polygon class="cls-3" points="155.62 190.44 164.13 185.5 173 190.62 164.49 195.57 155.62 190.44"/>
              </g>
              <g class="cls-4">
                <polygon class="cls-3" points="164.49 185.37 173 180.43 172.98 190.62 164.46 195.57 164.49 185.37"/>
              </g>
              <g class="cls-5">
                <polygon class="cls-3" points="155.62 180.25 164.13 175.3 173 180.43 164.49 185.37 155.62 180.25"/>
              </g>
              <g class="cls-6">
                <polygon class="cls-3" points="164.49 185.37 164.46 195.57 155.59 190.44 155.62 180.25 164.49 185.37"/>
              </g>
            </g>
            <g>
              <g class="cls-2">
                <polygon class="cls-3" points="155.62 176.36 164.13 171.41 173 176.53 164.49 181.48 155.62 176.36"/>
              </g>
              <g class="cls-4">
                <polygon class="cls-3" points="164.49 171.29 173 166.34 172.98 176.53 164.46 181.48 164.49 171.29"/>
              </g>
              <g class="cls-5">
                <polygon class="cls-3" points="155.62 166.17 164.13 161.22 173 166.34 164.49 171.29 155.62 166.17"/>
              </g>
              <g class="cls-6">
                <polygon class="cls-3" points="164.49 171.29 164.46 181.48 155.59 176.36 155.62 166.17 164.49 171.29"/>
              </g>
            </g>
            <g>
              <g class="cls-2">
                <polygon class="cls-3" points="155.62 162.27 164.13 157.32 173 162.45 164.49 167.39 155.62 162.27"/>
              </g>
              <g class="cls-4">
                <polygon class="cls-3" points="164.49 157.2 173 152.25 172.98 162.45 164.46 167.39 164.49 157.2"/>
              </g>
              <g class="cls-5">
                <polygon class="cls-3" points="155.62 152.08 164.13 147.13 173 152.25 164.49 157.2 155.62 152.08"/>
              </g>
              <g class="cls-6">
                <polygon class="cls-3" points="164.49 157.2 164.46 167.39 155.59 162.27 155.62 152.08 164.49 157.2"/>
              </g>
            </g>
          </g>
        </g>
        <g>
          <g>
            <g class="cls-2">
              <polygon class="cls-3" points="300.96 50.64 305.2 48.18 309.6 50.72 305.37 53.18 300.96 50.64"/>
            </g>
            <g class="cls-4">
              <polygon class="cls-3" points="305.37 48.12 309.6 45.66 309.59 50.72 305.36 53.18 305.37 48.12"/>
            </g>
            <g class="cls-5">
              <polygon class="cls-3" points="300.96 45.57 305.2 43.11 309.6 45.66 305.37 48.12 300.96 45.57"/>
            </g>
            <g class="cls-6">
              <polygon class="cls-3" points="305.37 48.12 305.36 53.18 300.95 50.64 300.96 45.57 305.37 48.12"/>
            </g>
          </g>
          <g>
            <g class="cls-2">
              <polygon class="cls-3" points="313.47 78.68 315.57 77.45 317.76 78.72 315.66 79.94 313.47 78.68"/>
            </g>
            <g class="cls-4">
              <polygon class="cls-3" points="315.66 77.42 317.76 76.2 317.76 78.72 315.65 79.94 315.66 77.42"/>
            </g>
            <g class="cls-5">
              <polygon class="cls-3" points="313.47 76.16 315.57 74.94 317.76 76.2 315.66 77.42 313.47 76.16"/>
            </g>
            <g class="cls-6">
              <polygon class="cls-3" points="315.66 77.42 315.65 79.94 313.46 78.68 313.47 76.16 315.66 77.42"/>
            </g>
          </g>
          <g>
            <g class="cls-2">
              <polygon class="cls-3" points="249.37 68.71 251.47 67.49 253.66 68.76 251.56 69.98 249.37 68.71"/>
            </g>
            <g class="cls-4">
              <polygon class="cls-3" points="251.56 67.46 253.66 66.24 253.66 68.76 251.55 69.98 251.56 67.46"/>
            </g>
            <g class="cls-5">
              <polygon class="cls-3" points="249.37 66.2 251.47 64.97 253.66 66.24 251.56 67.46 249.37 66.2"/>
            </g>
            <g class="cls-6">
              <polygon class="cls-3" points="251.56 67.46 251.55 69.98 249.36 68.71 249.37 66.2 251.56 67.46"/>
            </g>
          </g>
          <g>
            <g class="cls-2">
              <polygon class="cls-3" points="180.93 13.04 183.03 11.82 185.22 13.09 183.12 14.31 180.93 13.04"/>
            </g>
            <g class="cls-4">
              <polygon class="cls-3" points="183.12 11.79 185.22 10.57 185.22 13.09 183.11 14.31 183.12 11.79"/>
            </g>
            <g class="cls-5">
              <polygon class="cls-3" points="180.93 10.53 183.03 9.3 185.22 10.57 183.12 11.79 180.93 10.53"/>
            </g>
            <g class="cls-6">
              <polygon class="cls-3" points="183.12 11.79 183.11 14.31 180.92 13.04 180.93 10.53 183.12 11.79"/>
            </g>
          </g>
          <g>
            <g class="cls-2">
              <polygon class="cls-3" points="238.47 16.26 240.57 15.04 242.76 16.3 240.66 17.53 238.47 16.26"/>
            </g>
            <g class="cls-4">
              <polygon class="cls-3" points="240.66 15.01 242.76 13.79 242.76 16.3 240.65 17.53 240.66 15.01"/>
            </g>
            <g class="cls-5">
              <polygon class="cls-3" points="238.47 13.74 240.57 12.52 242.76 13.79 240.66 15.01 238.47 13.74"/>
            </g>
            <g class="cls-6">
              <polygon class="cls-3" points="240.66 15.01 240.65 17.53 238.46 16.26 238.47 13.74 240.66 15.01"/>
            </g>
          </g>
          <g>
            <g class="cls-2">
              <polygon class="cls-3" points="127.87 64.1 129.97 62.88 132.17 64.14 130.06 65.36 127.87 64.1"/>
            </g>
            <g class="cls-4">
              <polygon class="cls-3" points="130.06 62.85 132.17 61.63 132.16 64.14 130.06 65.36 130.06 62.85"/>
            </g>
            <g class="cls-5">
              <polygon class="cls-3" points="127.87 61.58 129.97 60.36 132.17 61.63 130.06 62.85 127.87 61.58"/>
            </g>
            <g class="cls-6">
              <polygon class="cls-3" points="130.06 62.85 130.06 65.36 127.86 64.1 127.87 61.58 130.06 62.85"/>
            </g>
          </g>
          <g>
            <g class="cls-2">
              <polygon class="cls-3" points="223.92 7.52 228.15 5.07 232.56 7.61 228.33 10.07 223.92 7.52"/>
            </g>
            <g class="cls-4">
              <polygon class="cls-3" points="228.33 5 232.56 2.54 232.54 7.61 228.31 10.07 228.33 5"/>
            </g>
            <g class="cls-5">
              <polygon class="cls-3" points="223.92 2.46 228.15 0 232.56 2.54 228.33 5 223.92 2.46"/>
            </g>
            <g class="cls-6">
              <polygon class="cls-3" points="228.33 5 228.31 10.07 223.91 7.52 223.92 2.46 228.33 5"/>
            </g>
          </g>
          <g>
            <g class="cls-2">
              <polygon class="cls-3" points="107.67 55.05 111.91 52.6 116.31 55.14 112.08 57.6 107.67 55.05"/>
            </g>
            <g class="cls-4">
              <polygon class="cls-3" points="112.08 52.53 116.31 50.08 116.3 55.14 112.07 57.6 112.08 52.53"/>
            </g>
            <g class="cls-5">
              <polygon class="cls-3" points="107.67 49.99 111.91 47.53 116.31 50.08 112.08 52.53 107.67 49.99"/>
            </g>
            <g class="cls-6">
              <polygon class="cls-3" points="112.08 52.53 112.07 57.6 107.66 55.05 107.67 49.99 112.08 52.53"/>
            </g>
          </g>
        </g>
      </g>
    </g>
  </g>
</svg>
