<svg xmlns="http://www.w3.org/2000/svg" width="350" height="115.98" viewBox="0 0 350 115.98">
  <defs>
    <style>
      .cls-1 {
        fill: #6930c3;
      }

      .cls-2 {
        fill: #7209b7;
      }

      .cls-3 {
        fill: #f72585;
      }
    </style>
  </defs>
  <g id="Capa_2" data-name="Capa 2">
    <g id="Layer_1" data-name="Layer 1">
      <g>
        <polygon class="cls-1" points="297.48 13.26 316.97 12.1 332.81 57.99 313.27 57.99 297.48 13.26"/>
        <polygon class="cls-1" points="332.81 57.99 316.97 103.88 297.48 102.72 313.27 57.99 332.81 57.99"/>
        <polygon class="cls-2" points="284.57 8.4 264.25 9.81 264.25 106.51 284.57 107.57 284.57 8.4"/>
        <g>
          <polygon class="cls-1" points="281.05 33 260.67 33.66 234.19 32.32 254.64 31.49 281.05 33"/>
          <polygon class="cls-1" points="260.67 82.32 281.05 82.98 254.64 84.49 234.19 83.66 260.67 82.32"/>
        </g>
        <polygon class="cls-2" points="238.07 3.1 217.7 4.98 217.7 111 238.07 112.88 238.07 3.1"/>
        <polygon class="cls-3" points="238.07 3.1 238.07 112.88 281.05 107.98 281.05 82.98 254.64 84.49 254.64 71.24 270.11 70.8 270.11 45.18 254.64 44.74 254.64 31.49 281.05 33 281.05 8 238.07 3.1"/>
        <polygon class="cls-3" points="284.57 8.4 284.57 107.57 313.95 104.22 313.95 81.11 298.14 82.01 298.14 9.95 284.57 8.4"/>
        <polygon class="cls-2" points="316.97 12.1 331.43 13.75 350 57.99 331.43 102.23 316.97 103.88 332.81 57.99 316.97 12.1"/>
        <polygon class="cls-2" points="33.03 12.1 18.57 13.75 0 57.99 18.57 102.23 33.03 103.88 17.19 57.99 33.03 12.1"/>
        <polygon class="cls-1" points="52.52 13.26 33.03 12.1 17.19 57.99 36.73 57.99 52.52 13.26"/>
        <polygon class="cls-1" points="17.19 57.99 33.03 103.88 52.52 102.72 36.73 57.99 17.19 57.99"/>
        <polygon class="cls-2" points="68.34 34.75 48.6 34.16 48.6 81.82 68.34 81.23 68.34 34.75"/>
        <g>
          <polygon class="cls-1" points="68.34 34.75 48.6 34.16 56.3 22.08 85.75 33.89 68.34 34.75"/>
          <polygon class="cls-1" points="48.6 81.82 68.34 81.23 82.55 81.23 65.57 84.23 48.6 81.82"/>
        </g>
        <g>
          <path class="cls-2" d="M79.33,10.66v0L59.89,9.36l1.4,2.87,2.43,5L78.46,34.61c5.16.92,6.46,5.39,6.46,22.18,0,13.94-.9,20.15-4.15,22.79v.63l-16,23.9-1.69,2.53,18.6-1.29h0c16.33-.14,30.62-7.2,30.62-47.36C112.34,15.88,96.63,10.16,79.33,10.66Z"/>
          <path class="cls-3" d="M48.6,10.32,36.05,11.76v92.46l12.55,1.43C69,108,91.39,110.54,91.39,58S69,8,48.6,10.32Zm0,71.5V34.16C62,33.4,76.19,32.58,76.19,58S62,82.58,48.6,81.82Z"/>
        </g>
        <polygon class="cls-3" points="111.93 3.1 95.36 4.99 95.36 110.99 111.93 112.88 111.93 3.1"/>
        <polygon class="cls-2" points="132.3 4.98 111.93 3.1 111.93 112.88 132.3 111 132.3 4.98"/>
        <polygon class="cls-3" points="175 57.99 210.88 0 233.75 2.61 208.47 57.99 233.75 113.37 210.88 115.98 175 57.99"/>
        <polygon class="cls-3" points="175 57.99 139.12 0 116.25 2.61 141.53 57.99 116.25 113.37 139.12 115.98 175 57.99"/>
        <polygon class="cls-2" points="210.88 0 190.96 2.19 175 25.68 175 57.99 210.88 0"/>
        <polygon class="cls-2" points="175 57.99 175 90.29 190.96 113.78 210.88 115.98 175 57.99"/>
        <polygon class="cls-2" points="139.12 0 159.04 2.19 175 25.68 175 57.99 139.12 0"/>
        <polygon class="cls-2" points="175 57.99 175 90.29 159.04 113.78 139.12 115.98 175 57.99"/>
      </g>
    </g>
  </g>
</svg>
