<svg xmlns="http://www.w3.org/2000/svg" width="200" height="66.6" viewBox="0 0 200 66.6">
  <defs>
    <style>
      .cls-1 {
        fill: #fff;
      }
    </style>
  </defs>
  <g id="Capa_2" data-name="Capa 2">
    <g id="Capa_1-2" data-name="Capa 1">
      <g>
        <path class="cls-1" d="M190,33.54H178.82a.24.24,0,0,1-.23-.16l-9-25.5a.26.26,0,0,1,0-.21.27.27,0,0,1,.18-.11l11.12-.66a.25.25,0,0,1,.24.16l9,26.16a.28.28,0,0,1,0,.22A.26.26,0,0,1,190,33.54Zm-11-.48h10.63L180.76,7.39,170.15,8Z"/>
        <path class="cls-1" d="M180.93,59.7h0L169.8,59a.27.27,0,0,1-.18-.11.28.28,0,0,1,0-.22l9-25.49a.24.24,0,0,1,.23-.16H190a.23.23,0,0,1,.2.1.28.28,0,0,1,0,.22l-9,26.16A.25.25,0,0,1,180.93,59.7Zm-10.78-1.13,10.61.64,8.86-25.67H179Z"/>
        <path class="cls-1" d="M162.46,61.81h0l-11.59-.61a.24.24,0,0,1-.23-.24V5.83a.25.25,0,0,1,.23-.24l11.59-.8a.27.27,0,0,1,.18.07.22.22,0,0,1,.07.17V61.56a.24.24,0,0,1-.07.18A.28.28,0,0,1,162.46,61.81Zm-11.34-1.08,11.1.58v-56l-11.1.77Z"/>
        <rect class="cls-1" x="137.64" y="18.86" height="0.24"/>
        <rect class="cls-1" x="137.64" y="18.26" height="0.24"/>
        <rect class="cls-1" x="137.64" y="18.51" height="0.36"/>
        <g>
          <polygon class="cls-1" points="148.85 19.19 155.05 18.99 145.39 18.43 139.05 18.69 148.85 19.19"/>
          <path class="cls-1" d="M160.46,19.29a.23.23,0,0,0,.23-.24.24.24,0,0,0-.22-.24L145.39,18l-7.75.31v.25l7.76-.32,15,.86-11.61.38-11.2-.57v.25l11.2.56Z"/>
          <path class="cls-1" d="M148.84,19.43l11.61-.38-15-.86-7.76.32v.35Zm6.21-.44-6.2.2-9.8-.5,6.34-.26Z"/>
        </g>
        <polygon class="cls-1" points="145.41 48.16 155.05 47.61 148.84 47.41 139.05 47.91 145.41 48.16"/>
        <rect class="cls-1" x="137.64" y="48.09" height="0.24"/>
        <rect class="cls-1" x="137.64" y="47.49" height="0.24"/>
        <path class="cls-1" d="M160.46,47.3l-11.62-.38h0l-11.18.57v.24l11.2-.56,11.61.38-15,.85-7.76-.31v.24l7.77.32,15.06-.86a.25.25,0,0,0,.22-.25A.24.24,0,0,0,160.46,47.3Z"/>
        <path class="cls-1" d="M145.4,48.4l15-.85-11.61-.38-11.2.56v.36Zm3.44-1,6.21.2-9.64.55-6.36-.26Z"/>
        <rect class="cls-1" x="137.64" y="47.73" height="0.36"/>
        <path class="cls-1" d="M136,64.83h0l-11.61-1.07a.24.24,0,0,1-.22-.24V3.08a.23.23,0,0,1,.22-.24l11.61-1.07a.26.26,0,0,1,.19.06.25.25,0,0,1,.08.18V64.59a.25.25,0,0,1-.08.18A.27.27,0,0,1,136,64.83ZM124.58,63.3l11.13,1v-62l-11.13,1Z"/>
        <path class="cls-1" d="M160.44,19.29a.23.23,0,0,0,.18-.06.24.24,0,0,0,.07-.18V4.8a.25.25,0,0,0-.21-.24L136,1.77a.22.22,0,0,0-.19.06.25.25,0,0,0-.08.18V64.59a.25.25,0,0,0,.08.18.27.27,0,0,0,.16.06h0l24.5-2.8a.23.23,0,0,0,.21-.24V47.55a.24.24,0,0,0-.25-.25l-14.8.85V41.09l8.58-.25a.24.24,0,0,0,.24-.24V26a.24.24,0,0,0-.24-.24l-8.58-.25V18.45Z"/>
        <path class="cls-1" d="M179.38,46.3a.26.26,0,0,0-.18-.07l-8.76.5V5.92a.25.25,0,0,0-.22-.25l-7.73-.88a.26.26,0,0,0-.19.06.25.25,0,0,0-.08.18V61.56a.23.23,0,0,0,.08.18.26.26,0,0,0,.16.07h0l16.75-1.91a.23.23,0,0,0,.21-.24V46.48A.29.29,0,0,0,179.38,46.3Z"/>
        <path class="cls-1" d="M180.93,59.7a.25.25,0,0,1-.19-.09.27.27,0,0,1,0-.23l9-26.08-9-26.08a.26.26,0,0,1,0-.23A.24.24,0,0,1,181,6.9l8.24.94a.23.23,0,0,1,.19.15L200,33.2a.21.21,0,0,1,0,.19L189.39,58.61a.24.24,0,0,1-.19.15L181,59.7Zm.36-52.28,8.9,25.8a.22.22,0,0,1,0,.16l-8.9,25.79,7.71-.88,10.5-25L189,8.3Z"/>
        <path class="cls-1" d="M19.07,59.7h0l-8.24-.94a.24.24,0,0,1-.19-.15L0,33.39a.21.21,0,0,1,0-.19L10.61,8a.23.23,0,0,1,.19-.15L19,6.9a.24.24,0,0,1,.22.09.26.26,0,0,1,0,.23l-9,26.08,9,26.08a.27.27,0,0,1,0,.23A.25.25,0,0,1,19.07,59.7ZM11,58.29l7.71.88L9.81,33.38a.22.22,0,0,1,0-.16l8.9-25.8L11,8.3.5,33.3Z"/>
        <path class="cls-1" d="M21.18,33.54H10a.26.26,0,0,1-.2-.1.28.28,0,0,1,0-.22l9-26.16a.25.25,0,0,1,.24-.16l11.12.66a.27.27,0,0,1,.18.11.23.23,0,0,1,0,.21l-9,25.5A.24.24,0,0,1,21.18,33.54Zm-10.8-.48H21L29.85,8,19.24,7.39Z"/>
        <path class="cls-1" d="M19.07,59.7a.25.25,0,0,1-.23-.16l-9-26.16a.28.28,0,0,1,0-.22.23.23,0,0,1,.2-.1H21.18a.24.24,0,0,1,.23.16l9,25.49a.24.24,0,0,1,0,.22.27.27,0,0,1-.18.11l-11.12.66ZM10.38,33.54l8.86,25.67,10.61-.64L21,33.54Z"/>
        <path class="cls-1" d="M39.2,50.72h-.08l-11.25-3.6a.24.24,0,0,1-.17-.23V19.71a.24.24,0,0,1,.18-.23l11.25-3.3a.25.25,0,0,1,.31.24V50.48a.26.26,0,0,1-.1.2A.23.23,0,0,1,39.2,50.72Zm-11-4L39,50.15V16.74L28.19,19.89Z"/>
        <g>
          <path class="cls-1" d="M45.82,8.72C41,4.4,34.34,5.15,27.92,5.89l-7.16.81a.25.25,0,0,0-.21.24V59.65a.23.23,0,0,0,.21.24l7.16.82a66.21,66.21,0,0,0,7.37.57c3.88,0,7.54-.74,10.53-3.4,4.55-4.06,6.76-12.1,6.76-24.58S50.37,12.78,45.82,8.72ZM43.43,33.3c0,5.32-1.09,8.93-3.32,11-2.94,2.78-7.49,2.57-11.92,2.32V19.94c4.43-.25,9-.46,11.92,2.32C42.34,24.37,43.43,28,43.43,33.3Z"/>
          <path class="cls-1" d="M46.81,60.05l-10.11.7L46.49,46.1a.23.23,0,0,0,0-.14v-.24c1.78-1.54,2.36-4.78,2.36-13.1,0-9.6-.78-12.29-3.79-12.87L36.77,9.91l-2-4.06,10.59.69.1,0c3.86-.11,8.75.22,12.41,3.78.34.33.66.7,1,1.07v-.74c-.21-.24-.42-.46-.64-.68-3.77-3.66-8.74-4-12.67-3.92h-.07L34.4,5.34a.24.24,0,0,0-.22.11.26.26,0,0,0,0,.24l2.19,4.46,0,0,8.4,9.93a.28.28,0,0,0,.15.08c2.76.49,3.48,3,3.48,12.41,0,8.19-.58,11.42-2.28,12.8a.25.25,0,0,0-.09.19v.28l-10,15a.24.24,0,0,0,0,.26.22.22,0,0,0,.21.12h0l10.59-.73c4.33,0,8.71-.87,12-4.59v-.79C55.59,59.15,51.18,60,46.81,60.05Z"/>
        </g>
        <path class="cls-1" d="M64.21,1.83A.23.23,0,0,0,64,1.77L54.57,2.85a.23.23,0,0,0-.21.24V63.51a.24.24,0,0,0,.21.24L64,64.83h0a.27.27,0,0,0,.16-.06.25.25,0,0,0,.08-.18V2A.25.25,0,0,0,64.21,1.83Z"/>
        <path class="cls-1" d="M64.05,64.83a.27.27,0,0,1-.17-.06.25.25,0,0,1-.08-.18V2a.25.25,0,0,1,.08-.18.26.26,0,0,1,.19-.06L75.68,2.84a.23.23,0,0,1,.22.24V63.52a.24.24,0,0,1-.22.24L64.07,64.83Zm.24-62.55v62l11.13-1V3.3Z"/>
        <path class="cls-1" d="M100,33.54h-.07a.24.24,0,0,1-.17-.23V14.88a.22.22,0,0,1,0-.13l9.1-13.4a.23.23,0,0,1,.17-.1L120.43,0a.24.24,0,0,1,.23.11.24.24,0,0,1,0,.26L100.21,33.43A.26.26,0,0,1,100,33.54ZM100.24,15V32.45L120,.54,109.24,1.72Z"/>
        <path class="cls-1" d="M120.45,66.6h0l-11.36-1.26a.23.23,0,0,1-.17-.1L99.8,51.85a.23.23,0,0,1,0-.14V33.3a.24.24,0,0,1,.17-.23.25.25,0,0,1,.28.1l20.45,33.06a.23.23,0,0,1,0,.25A.24.24,0,0,1,120.45,66.6Zm-11.21-1.73L120,66.06,100.24,34.15V51.64Z"/>
        <path class="cls-1" d="M100,33.54a.26.26,0,0,1-.21-.11L79.34.37a.24.24,0,0,1,0-.26A.24.24,0,0,1,79.57,0L90.93,1.25a.23.23,0,0,1,.17.1l9.1,13.4a.22.22,0,0,1,0,.13V33.3a.24.24,0,0,1-.17.23ZM80,.54,99.76,32.45V15l-9-13.24Z"/>
        <path class="cls-1" d="M79.55,66.6a.24.24,0,0,1-.21-.12.23.23,0,0,1,0-.25L99.79,33.17a.25.25,0,0,1,.28-.1.24.24,0,0,1,.17.23V51.71a.23.23,0,0,1,0,.14L91.1,65.24a.23.23,0,0,1-.17.1L79.57,66.6ZM99.76,34.15,80,66.06l10.75-1.19,9-13.23Z"/>
        <path class="cls-1" d="M119.28,33.3,133.65,1.8a.18.18,0,0,0,0-.16.17.17,0,0,0-.14-.09l-13-1.49a.18.18,0,0,0-.18.09L99.85,33.2a.17.17,0,0,0,0,.19L120.3,66.45a.19.19,0,0,0,.15.09h0l13-1.49a.19.19,0,0,0,.14-.09.2.2,0,0,0,0-.17Z"/>
        <path class="cls-1" d="M100.15,33.2,79.7.15a.18.18,0,0,0-.17-.09l-13,1.49a.17.17,0,0,0-.14.09.18.18,0,0,0,0,.16L80.72,33.3,66.35,64.79a.2.2,0,0,0,0,.17.19.19,0,0,0,.14.09l13,1.49h0a.19.19,0,0,0,.15-.09l20.45-33.06A.17.17,0,0,0,100.15,33.2Z"/>
      </g>
    </g>
  </g>
</svg>
