<svg xmlns="http://www.w3.org/2000/svg" width="40.45" height="40" viewBox="0 0 40.45 40">
  <defs>
    <style>
      .cls-1 {
        fill: #00f5d4;
      }
    </style>
  </defs>
  <g id="Capa_2" data-name="Capa 2">
    <g id="Layer_1" data-name="Layer 1">
      <g>
        <path class="cls-1" d="M20.22,20.15h0a.15.15,0,0,1-.1-.14V8.94a.19.19,0,0,1,0-.08l5.47-8a.13.13,0,0,1,.1-.06L32.49,0a.13.13,0,0,1,.14.07.14.14,0,0,1,0,.15L20.35,20.08A.17.17,0,0,1,20.22,20.15ZM20.37,9V19.49L32.23.32,25.77,1Z"/>
        <path class="cls-1" d="M32.51,40h0l-6.82-.75a.14.14,0,0,1-.1-.07l-5.47-8a.19.19,0,0,1,0-.08V20a.14.14,0,0,1,.1-.14.16.16,0,0,1,.17.06L32.63,39.78a.14.14,0,0,1,0,.15A.15.15,0,0,1,32.51,40Zm-6.74-1,6.46.72L20.37,20.51V31Z"/>
        <path class="cls-1" d="M20.22,20.15a.15.15,0,0,1-.12-.07L7.81.22a.14.14,0,0,1,0-.15A.14.14,0,0,1,8,0l6.82.75a.15.15,0,0,1,.11.06l5.46,8a.11.11,0,0,1,0,.08V20a.16.16,0,0,1-.11.14ZM8.22.32,20.08,19.49V9L14.67,1Z"/>
        <path class="cls-1" d="M7.94,40a.17.17,0,0,1-.13-.07.14.14,0,0,1,0-.15L20.1,19.92a.14.14,0,0,1,.16-.06.15.15,0,0,1,.11.14V31.06a.11.11,0,0,1,0,.08l-5.46,8a.16.16,0,0,1-.11.07L8,40ZM20.08,20.51,8.22,39.68,14.67,39,20.08,31Z"/>
        <path class="cls-1" d="M31.8,20,40.44,1.08a.12.12,0,0,0,0-.1.1.1,0,0,0-.08,0L32.52,0a.08.08,0,0,0-.1,0L20.13,19.94a.13.13,0,0,0,0,.12L32.42,39.91a.11.11,0,0,0,.09.05h0l7.83-.89a.1.1,0,0,0,.08,0,.12.12,0,0,0,0-.1Z"/>
        <path class="cls-1" d="M20.32,19.94,8,.09a.09.09,0,0,0-.11,0L.1.93A.11.11,0,0,0,0,1a.17.17,0,0,0,0,.1L8.64,20,0,38.92A.17.17,0,0,0,0,39a.11.11,0,0,0,.09,0L7.92,40h0A.12.12,0,0,0,8,39.91L20.32,20.06A.13.13,0,0,0,20.32,19.94Z"/>
      </g>
    </g>
  </g>
</svg>
