<svg xmlns="http://www.w3.org/2000/svg" xmlns:xlink="http://www.w3.org/1999/xlink" width="144.68" height="186.97" viewBox="0 0 144.68 186.97">
  <defs>
    <style>
      .cls-1 {
        fill: none;
      }

      .cls-2 {
        isolation: isolate;
      }

      .cls-3 {
        fill: #fdaea9;
      }

      .cls-4 {
        fill: #fc7980;
      }

      .cls-5 {
        fill: #202b40;
      }

      .cls-6 {
        fill: #889dc4;
      }

      .cls-16, .cls-17, .cls-21, .cls-7 {
        fill: #2345ad;
      }

      .cls-8 {
        clip-path: url(#clip-path);
      }

      .cls-9 {
        fill: #1d346d;
      }

      .cls-10 {
        fill: #5276ce;
      }

      .cls-10, .cls-16 {
        opacity: 0.15;
      }

      .cls-10, .cls-16, .cls-17, .cls-21 {
        mix-blend-mode: screen;
      }

      .cls-11, .cls-13, .cls-14 {
        fill: #fff;
      }

      .cls-11, .cls-15 {
        opacity: 0.35;
      }

      .cls-12 {
        fill: #022c94;
      }

      .cls-14 {
        opacity: 0.5;
      }

      .cls-17 {
        opacity: 0.45;
      }

      .cls-18 {
        fill: #afb4d2;
      }

      .cls-19 {
        fill: #d7dbf0;
      }

      .cls-20 {
        fill: #ffd2d1;
      }

      .cls-21 {
        opacity: 0.25;
      }

      .cls-22 {
        fill: #ffebc0;
      }

      .cls-23 {
        fill: #f13800;
      }

      .cls-24 {
        fill: #ff7343;
      }

      .cls-25 {
        fill: #fdb060;
      }

      .cls-26 {
        fill: #fff690;
      }
    </style>
    <clipPath id="clip-path">
      <path class="cls-1" d="M93.27,26.84l-20.67,4a1.72,1.72,0,0,0-1.32,1.26,3.94,3.94,0,0,1-6.43,1.25,1.75,1.75,0,0,0-1.7-.67l-20.67,4a1.59,1.59,0,0,0-1.25,1.85L60,134.88a1.59,1.59,0,0,0,1.85,1.25l50.79-9.9a1.57,1.57,0,0,0,1.25-1.85L95.12,28.09A1.57,1.57,0,0,0,93.27,26.84Z"/>
    </clipPath>
  </defs>
  <g class="cls-2">
    <g id="Capa_2" data-name="Capa 2">
      <g id="Capa_1-2" data-name="Capa 1">
        <g>
          <path class="cls-3" d="M73.42,161.32l.16,20.2-1,.09-5.72.5L39,184.61s6.73-22.89,6.7-25.85-3.16-28-.33-37,10-16.25,10.78-16.66,28.69,15,32.14,19.63S90,150.39,73.42,161.32Z"/>
          <path class="cls-4" d="M72.94,160.06l-.33,21.55-5.72.5c.06-4.29.32-22.91.23-23.34Z"/>
          <polygon class="cls-4" points="62.36 157.67 62.86 170.12 64.64 157.43 62.36 157.67"/>
          <path class="cls-4" d="M88.27,124.71c-3.46-4.59-31.42-20-32.15-19.63s-7.95,7.62-10.77,16.66c-1.46,4.67-1.34,13.6-.87,21.56a14,14,0,0,0,6.81,4.8c2.82.66,4.84,8.22,4.84,8.22s6.71-3.6,9.39-4.39,10,5.19,10,5.19,7.88-3.83,12.2-15.59c.49-1.35.93-2.64,1.33-3.89C90.28,131.7,89.75,126.68,88.27,124.71Z"/>
        </g>
        <g>
          <g>
            <rect class="cls-5" x="48.66" y="27.86" width="57.98" height="108.22" rx="6.6" transform="translate(-14.24 16.36) rotate(-11.02)"/>
            <path class="cls-6" d="M69.05,31.56a1.19,1.19,0,0,1-1,1.39,1.19,1.19,0,0,1-.45-2.34A1.21,1.21,0,0,1,69.05,31.56Z"/>
            <path class="cls-7" d="M93.27,26.84l-20.67,4a1.72,1.72,0,0,0-1.32,1.26,3.94,3.94,0,0,1-6.43,1.25,1.75,1.75,0,0,0-1.7-.67l-20.67,4a1.59,1.59,0,0,0-1.25,1.85L60,134.88a1.59,1.59,0,0,0,1.85,1.25l50.79-9.9a1.57,1.57,0,0,0,1.25-1.85L95.12,28.09A1.57,1.57,0,0,0,93.27,26.84Z"/>
          </g>
          <g class="cls-8">
            <path class="cls-9" d="M97.86,42.13A98.32,98.32,0,0,1,84,47.58c-9.22,2.31-25,2.59-40.18,4.47l2.08,10.67c10.56.23,34.56-1.57,54.56-7Z"/>
            <path class="cls-7" d="M57.76,74.26c-3,.58-6,1.34-9.14,2.23l10.33,53,53.26-13.72-8.52-43.75C90.42,73.28,76.5,70.62,57.76,74.26Z"/>
            <path class="cls-10" d="M113,120.07l-6.36-32.64a7.57,7.57,0,0,0-2-.52c-2.28-.26-6.45,1.16-6.45,1.16s-2.84-4.2-10.37-4.45-10.37,9.1-10.37,9.1a5.53,5.53,0,0,0-2.29-.87c-1.13-.09-4.13,2.72-4.13,2.72s-1.61-3.63-3.81-4-4.66,1.52-4.66,1.52c-.13-1.7-2.86-3.79-11.3-3.47l-.35,0,8.61,44.19,7.43-.54S89.7,126.62,113,120.07Z"/>
          </g>
          <g>
            <rect class="cls-11" x="85.74" y="95.57" width="21.02" height="24.39" transform="matrix(0.98, -0.19, 0.19, 0.98, -18.83, 20.39)"/>
            <g>
              <polygon class="cls-12" points="87.17 100.74 86.59 101.21 86.57 100.46 85.95 100.05 86.65 99.81 86.85 99.09 87.3 99.68 88.04 99.64 87.62 100.26 87.88 100.95 87.17 100.74"/>
              <polygon class="cls-12" points="90 100.19 89.42 100.66 89.4 99.91 88.78 99.5 89.48 99.26 89.68 98.54 90.13 99.13 90.87 99.09 90.45 99.71 90.71 100.4 90 100.19"/>
              <polygon class="cls-12" points="92.83 99.64 92.25 100.1 92.23 99.36 91.61 98.95 92.31 98.7 92.51 97.99 92.96 98.58 93.7 98.54 93.28 99.16 93.54 99.85 92.83 99.64"/>
              <polygon class="cls-12" points="95.66 99.09 95.08 99.55 95.06 98.81 94.44 98.4 95.14 98.15 95.34 97.43 95.79 98.03 96.53 97.99 96.11 98.6 96.38 99.3 95.66 99.09"/>
              <polygon class="cls-13" points="98.49 98.53 97.91 99 97.89 98.26 97.27 97.85 97.97 97.6 98.17 96.88 98.62 97.48 99.37 97.44 98.94 98.05 99.21 98.75 98.49 98.53"/>
            </g>
            <g>
              <rect class="cls-13" x="87.14" y="103.64" width="13.04" height="0.93" transform="translate(-18.18 19.83) rotate(-11.02)"/>
              <rect class="cls-13" x="87.48" y="105.32" width="14.13" height="0.93" transform="translate(-18.48 20.03) rotate(-11.02)"/>
              <rect class="cls-13" x="87.86" y="107.4" width="11.12" height="0.93" transform="translate(-18.9 19.85) rotate(-11.02)"/>
              <rect class="cls-13" x="88.18" y="108.97" width="13.39" height="0.93" transform="translate(-19.17 20.16) rotate(-11.02)"/>
              <rect class="cls-13" x="88.56" y="111.03" width="10.51" height="0.93" transform="matrix(0.98, -0.19, 0.19, 0.98, -19.59, 19.99)"/>
              <rect class="cls-13" x="89.21" y="114.15" width="15.22" height="0.93" transform="translate(-20.13 20.63) rotate(-11.02)"/>
              <rect class="cls-13" x="89.59" y="116.25" width="11.91" height="0.93" transform="translate(-20.55 20.42) rotate(-11.02)"/>
            </g>
          </g>
          <g>
            <path class="cls-13" d="M62.15,105.35a1.79,1.79,0,1,1-2.1-1.42A1.79,1.79,0,0,1,62.15,105.35Z"/>
            <path class="cls-14" d="M63.67,113.12a1.8,1.8,0,1,1-2.11-1.42A1.79,1.79,0,0,1,63.67,113.12Z"/>
            <path class="cls-14" d="M65.18,120.88a1.79,1.79,0,1,1-2.1-1.42A1.8,1.8,0,0,1,65.18,120.88Z"/>
          </g>
          <g class="cls-15">
            <path class="cls-13" d="M71.55,112A11.58,11.58,0,1,1,80.71,98.4,11.6,11.6,0,0,1,71.55,112ZM67.18,89.5a11.32,11.32,0,1,0,13.28,9A11.33,11.33,0,0,0,67.18,89.5Z"/>
            <path class="cls-13" d="M70.77,108a7.49,7.49,0,1,1,5.92-8.78A7.5,7.5,0,0,1,70.77,108ZM68,93.52a7.23,7.23,0,1,0,8.47,5.71A7.22,7.22,0,0,0,68,93.52Z"/>
          </g>
          <g>
            <g>
              <rect class="cls-13" x="65.61" y="75.89" width="12.31" height="1.24" transform="translate(-13.3 15.13) rotate(-11.02)"/>
              <rect class="cls-13" x="78.69" y="74.25" width="3.03" height="1.24" transform="translate(-12.83 16.72) rotate(-11.02)"/>
              <rect class="cls-13" x="82.45" y="73.36" width="4.7" height="1.24" transform="translate(-12.58 17.58) rotate(-11.02)"/>
              <rect class="cls-13" x="68.12" y="78.2" width="5.79" height="1.24" transform="matrix(0.98, -0.19, 0.19, 0.98, -13.76, 15.03)"/>
              <rect class="cls-13" x="74.5" y="76.44" width="11.05" height="1.24" transform="translate(-13.26 16.72) rotate(-11.02)"/>
              <rect class="cls-13" x="67.24" y="79.63" width="14.99" height="1.24" transform="translate(-13.96 15.77) rotate(-11.02)"/>
              <rect class="cls-13" x="82.87" y="77.63" width="4.24" height="1.24" transform="translate(-13.39 17.69) rotate(-11.02)"/>
              <rect class="cls-13" x="70.68" y="82.31" width="2.68" height="1.24" transform="translate(-14.53 15.3) rotate(-11.02)"/>
              <rect class="cls-13" x="74.58" y="80.84" width="10.06" height="1.24" transform="translate(-14.11 16.72) rotate(-11.02)"/>
              <rect class="cls-13" x="69.27" y="70.82" width="12.84" height="2.12" transform="translate(-12.35 15.8) rotate(-11.02)"/>
            </g>
            <g>
              <g>
                <circle class="cls-16" cx="73.38" cy="57.83" r="9.57" transform="translate(-13.44 92.35) rotate(-59.92)"/>
                <circle class="cls-17" cx="73.38" cy="57.83" r="7.69"/>
              </g>
              <g>
                <circle class="cls-18" cx="73.38" cy="57.83" r="5.76" transform="translate(-19.16 45) rotate(-30.35)"/>
                <path class="cls-19" d="M67.64,58.23a5.11,5.11,0,1,0,6.47-6.11,5.65,5.65,0,0,0-1.83.05A5.77,5.77,0,0,0,67.64,58.23Z"/>
                <ellipse class="cls-13" cx="72.28" cy="56.24" rx="3.79" ry="3.47" transform="translate(-19.18 61) rotate(-40.87)"/>
                <path class="cls-18" d="M72.66,59.57s.39-.41.76-.14.26.67-.13.91Z"/>
                <path class="cls-19" d="M73.48,59.62a.53.53,0,0,1-.19.72.53.53,0,0,1-.74-.1.54.54,0,0,1,.19-.73A.53.53,0,0,1,73.48,59.62Z"/>
                <path class="cls-19" d="M75.8,56a.49.49,0,0,0-.15.6.38.38,0,0,0,.53.26Z"/>
                <path class="cls-13" d="M76.48,56.29a.41.41,0,1,1-.78.15.46.46,0,0,1,.29-.57A.47.47,0,0,1,76.48,56.29Z"/>
                <path class="cls-18" d="M75.6,59.92a.27.27,0,0,1-.09.37.27.27,0,0,1-.38,0,.27.27,0,0,1,.09-.37A.27.27,0,0,1,75.6,59.92Z"/>
                <path class="cls-18" d="M71.13,61.85c0,.12-.24.15-.41.07s-.27-.25-.21-.37.24-.14.41-.06S71.19,61.73,71.13,61.85Z"/>
                <path class="cls-19" d="M73.59,62.52a.25.25,0,1,1-.27-.14A.22.22,0,0,1,73.59,62.52Z"/>
                <path class="cls-13" d="M76,53.62a.22.22,0,0,1,0,.3c-.07,0-.2,0-.28-.1s-.09-.24,0-.3A.22.22,0,0,1,76,53.62Z"/>
                <path class="cls-19" d="M74.72,54.43a.24.24,0,1,1-.41.21.27.27,0,0,1,.07-.38C74.49,54.2,74.64,54.28,74.72,54.43Z"/>
              </g>
            </g>
          </g>
        </g>
        <g>
          <path class="cls-3" d="M64.81,137.91c1.88,13.12-7.36,19-12.07,20.42A17.27,17.27,0,0,0,45.29,163s-.1-5.37-1.1-7.07c-.86-1.44-7.11-18.45-8.29-28.8a21.06,21.06,0,0,1-.11-4.63A25.42,25.42,0,0,1,39.3,115c2.54-3.6,4.47-6.13,5.14-9S45,93.08,45,93.08a7.19,7.19,0,0,1,2.16,1c1.74,1.09,4.12,3.35,5.64,7.91,2.61,7.85.19,13.44-1.48,15.25l0,5.12A18.31,18.31,0,0,1,64.81,137.91Z"/>
          <path class="cls-13" d="M58.46,139.58a.83.83,0,1,1-1-.65A.82.82,0,0,1,58.46,139.58Z"/>
          <circle class="cls-13" cx="55.23" cy="143.25" r="0.36"/>
          <path class="cls-4" d="M56.8,156.13a20.12,20.12,0,0,1-7,2.47A10,10,0,0,0,56.8,156.13Z"/>
          <polygon class="cls-4" points="45.22 123.18 50.83 121.84 50.88 122.38 45.22 123.18"/>
          <path class="cls-4" d="M45.44,115a14.27,14.27,0,0,0,5.07,1.89l.1.54A12.56,12.56,0,0,1,45.44,115Z"/>
          <path class="cls-13" d="M47.18,94c-.91-.19-1.61-.26-1.61-.26s.18,4.11.12,8.47A20.77,20.77,0,0,1,42,112.89c-1.35,1.88-3.43,3.7-4.71,7a25.29,25.29,0,0,0-1.39,7.28,21.06,21.06,0,0,1-.11-4.63A25.42,25.42,0,0,1,39.3,115c2.54-3.6,4.47-6.13,5.14-9S45,93.08,45,93.08A7.19,7.19,0,0,1,47.18,94Z"/>
        </g>
        <g>
          <path class="cls-3" d="M144.6,169.17s-20.12,14.06-28.49,17.8c0,0-13.16-6.25-16-7.32s-13.34-3.07-14.82-4.4-14.76-13.51-21-17.55c0,0-1.78-2.89.88-4.82s10.13-1,13.73,2,5.59,3.77,6.64,4,7.4-.43,7-2.38-4.39-10.07-5.5-12.68S65.45,103.46,65.77,102s1.62-3.14,4.34-3.67,8.17,8.72,10.22,12S90.06,127,90.06,127h0c.09-.21,2.23-4.8,8.3-3a10.19,10.19,0,0,1,6.29-4c3.94-.57,5.73.3,5.73.3a10.69,10.69,0,0,1,6.59-2.5c1,0,2.56,1.53,4.45,3.81,5.41,6.5,13.15,19.25,14.69,21.79,2.09,3.44,4.63,17.51,5.2,19.42A48,48,0,0,0,144.6,169.17Z"/>
          <path class="cls-13" d="M121.43,121.51c-1-1-2.24-2.09-2.55-2.36-.57-.5-1.12-1.26-3.68-.9a8.58,8.58,0,0,0-4.58,2.78,13.73,13.73,0,0,0-6-.72c-3.3.37-6,4.21-6,4.21a9.9,9.9,0,0,0-3.88-.53c-2.55,0-4.56,2.83-4.67,3,.09-.21,2.23-4.8,8.3-3a10.19,10.19,0,0,1,6.29-4c3.94-.57,5.73.3,5.73.3a10.69,10.69,0,0,1,6.59-2.5C117.93,117.72,119.54,119.23,121.43,121.51Z"/>
          <path class="cls-20" d="M68.51,106.37s-2.92-5-2.89-5.5a5,5,0,0,1,3.44-3.1c1.85-.23,4.85,4.45,5.35,5.3S70.63,106.16,68.51,106.37Z"/>
          <path class="cls-20" d="M63.69,157.75s-1.49-2.81.54-4.15,6.78.9,7.34,1.33-1.58,4.92-2.63,6.19Z"/>
          <path class="cls-4" d="M87,160.3a27.45,27.45,0,0,0,4.47.41c1.53-.1,2.14-.08,2.14-.08S92,162,87,160.3Z"/>
          <path class="cls-4" d="M93.29,157.38l.81,2.43A2.31,2.31,0,0,0,93.29,157.38Z"/>
          <path class="cls-4" d="M75.27,164.94a10.33,10.33,0,0,1,1.17-3A9.66,9.66,0,0,1,75.27,164.94Z"/>
          <path class="cls-4" d="M76.33,165.88a11.51,11.51,0,0,1,1.87-4.27S77.19,165.22,76.33,165.88Z"/>
          <path class="cls-4" d="M86,175c.12-.42-.56-1.84,1.29-1.33A8.36,8.36,0,0,1,90.71,176Z"/>
          <path class="cls-4" d="M98.18,126.76a5,5,0,0,1,1.57.43,11.22,11.22,0,0,1,1,2.31Z"/>
          <path class="cls-4" d="M109.35,124.58c.4.67,1.53,1.26,1.61.63s.12-1.44.12-1.44Z"/>
          <path class="cls-4" d="M74.26,112.67a9,9,0,0,1,3-1.8C78,110.87,75,112.47,74.26,112.67Z"/>
          <path class="cls-4" d="M79.82,123.93s1.89-1.05,2.81-1.49a4.27,4.27,0,0,1,1.81-.42Z"/>
          <path class="cls-4" d="M79.82,122.51a8.37,8.37,0,0,1,2-1.2C82.08,121.33,80.9,122.17,79.82,122.51Z"/>
          <path class="cls-13" d="M118,136.17a1,1,0,0,1-.75,1.11.94.94,0,0,1-.36-1.85A.94.94,0,0,1,118,136.17Z"/>
          <path class="cls-13" d="M114.33,140.47a.48.48,0,0,1-.39.58.49.49,0,1,1-.19-1A.48.48,0,0,1,114.33,140.47Z"/>
        </g>
        <g>
          <g>
            <g>
              <path class="cls-16" d="M121.49,31.86A19.72,19.72,0,1,1,94.82,23.7a19.74,19.74,0,0,1,26.67,8.16Z"/>
              <path class="cls-21" d="M118,33.69a15.82,15.82,0,1,1-21.39-6.54,15.45,15.45,0,0,1,5.91-1.77A15.81,15.81,0,0,1,118,33.69Z"/>
              <path class="cls-17" d="M116.21,34.67a13.74,13.74,0,1,1-13.45-7.23A13.74,13.74,0,0,1,116.21,34.67Z"/>
            </g>
            <g>
              <path class="cls-22" d="M113.85,34.9a3.48,3.48,0,0,0-.39-1.86c-.42-.76-.8-.74-1.1-1.45a1.83,1.83,0,0,0-1.11-1.11,3,3,0,0,0-2-.06,1.91,1.91,0,0,1-1-.12,9.33,9.33,0,0,0-1.69-1.21c-1.44-.77-2.12-.22-3.73.33-.79.27-1.36.46-2,.7-.27,0-.84-.09-1.19-.16s-1.19-.23-2.72.81a3.8,3.8,0,0,0-1.46,2.8,16.78,16.78,0,0,0-1.13,1.54c-.29,1-1,2.78-1.4,4.47a5.41,5.41,0,0,0-.14,1l-.23.47a6.34,6.34,0,0,0-.49,1c-.17.52.14,1,.39,1.61s.5.62.84.83a.85.85,0,0,1,.22.21A14.58,14.58,0,0,0,94.37,47a9.36,9.36,0,0,0,2.24,2.85,6.94,6.94,0,0,1,.08.84,1.49,1.49,0,0,0,.84,1.41c.52.18,1.83.71,1.83.71h0a1.84,1.84,0,0,0,.25.21,3.52,3.52,0,0,0,1.86.79,9.25,9.25,0,0,0,2.24-.51,8.82,8.82,0,0,0,2-1.14c1.12-.34,1.6-1,2.92-1.81s2.14-1.11,3.06-1.73c.36-.09.79-.19,1.2-.32.91-.29,1,.05,1.5-.64s.7-.78.57-1.32a7,7,0,0,0-.32-1,8.11,8.11,0,0,1-.24-.88c0-.11.08-.23.13-.35.94-2.43.14-1.83.48-4.14s-.36-2-.86-3.58A7.67,7.67,0,0,1,113.85,34.9Zm-.94-2.12c.61,0,.44.8.61,1.32a2,2,0,0,1,0,.77c-.28-.43-.58-.75-1-1.36a2.62,2.62,0,0,0-.41-.51A1.11,1.11,0,0,1,112.91,32.78ZM93,43.58c-.49-.23-.51-.62-.43-1.25a1.54,1.54,0,0,1,.33-.68,6.66,6.66,0,0,0,.24,1.21s.06.34.18.84A2.08,2.08,0,0,1,93,43.58Zm4.73,8.05a.94.94,0,0,1-.51-1.28l.56.53a3.77,3.77,0,0,0,.64.51A.48.48,0,0,1,97.68,51.63Zm.66.51c-.13,0,.11-.24.33-.41l.24.42A2.6,2.6,0,0,1,98.34,52.14Zm5.21.55A3.32,3.32,0,0,1,101,53c-.85-.31-1-.49-.79-1a23.93,23.93,0,0,0,3.4.26h.53A2.53,2.53,0,0,1,103.55,52.69ZM96.39,32.57s0-.09,0-.13a2.78,2.78,0,0,1,1.5-1.82,4,4,0,0,1,1.85-.06l-1.29.53A6.81,6.81,0,0,0,96.39,32.57Zm18,14.19c-.2.48-.37,1-.92,1a2.84,2.84,0,0,1-.55-.1,2.54,2.54,0,0,0,1.09-1.9C114.3,46.08,114.59,46.37,114.44,46.76ZM109.09,31a1.14,1.14,0,0,1,.47-.24c.62-.16.93.1,1.63.25a1.54,1.54,0,0,1,1.07,1.47.25.25,0,0,1-.25.31,11.46,11.46,0,0,0-2.13-1.2A5.2,5.2,0,0,1,109.09,31Z"/>
              <path class="cls-23" d="M113.23,36.62A10.06,10.06,0,1,1,100,31.26,10.06,10.06,0,0,1,113.23,36.62Z"/>
              <circle class="cls-24" cx="102.95" cy="39.85" r="8.32" transform="translate(18.66 111.14) rotate(-61.39)"/>
              <path class="cls-25" d="M106.56,36.81a5.42,5.42,0,1,1-7.1-2.88A5.43,5.43,0,0,1,106.56,36.81Z"/>
              <path class="cls-23" d="M108,38.3a.78.78,0,0,1-.42,1,.79.79,0,1,1-.62-1.46A.79.79,0,0,1,108,38.3Z"/>
              <path class="cls-23" d="M107.2,34.26a.43.43,0,0,1,.08.6.43.43,0,0,1-.6-.1.45.45,0,0,1-.08-.61A.45.45,0,0,1,107.2,34.26Z"/>
              <path class="cls-23" d="M107.86,45.21a.54.54,0,0,1-.58-.05.47.47,0,0,1-.13-.46,1,1,0,0,1,.25-.5,1.1,1.1,0,0,1,.48-.31.48.48,0,0,1,.47.09c.23.21.18.63-.12,1A1,1,0,0,1,107.86,45.21Zm0-1.06a.83.83,0,0,0-.48.59.27.27,0,0,0,.06.25c.12.11.41,0,.61-.2s.27-.52.14-.64a.26.26,0,0,0-.25,0Z"/>
              <path class="cls-25" d="M110.26,41.19c-.06.41-.34.71-.62.67s-.46-.41-.4-.83.34-.71.62-.67S110.32,40.77,110.26,41.19Z"/>
              <path class="cls-23" d="M103,48.58c-.42,0-.74-.27-.73-.55s.37-.5.79-.47.74.27.72.55S103.39,48.6,103,48.58Z"/>
              <path class="cls-24" d="M111.77,36.14c.08.19,0,.38-.09.44s-.29-.06-.37-.24,0-.38.09-.43S111.69,36,111.77,36.14Z"/>
              <path class="cls-24" d="M97.68,47.07c.15.12.21.31.12.42s-.29.09-.44,0-.21-.32-.12-.42S97.52,46.94,97.68,47.07Z"/>
              <path class="cls-25" d="M103.73,32.37c.14.07.21.21.16.29s-.2.1-.33,0-.21-.21-.16-.29S103.6,32.29,103.73,32.37Z"/>
              <path class="cls-25" d="M101,45c.48,0,.87-.25.88-.59s-.37-.62-.85-.63-.87.25-.88.59S100.53,45,101,45Z"/>
              <path class="cls-25" d="M109.71,35.41a.67.67,0,0,1-.77-.3.8.8,0,0,1-.15-.48.53.53,0,0,1,.21-.41.56.56,0,0,1,.46,0,.78.78,0,0,1,.39.31A.8.8,0,0,1,110,35a.51.51,0,0,1-.21.4Zm-.53-1,0,0a.24.24,0,0,0-.11.22.56.56,0,0,0,.1.34c.14.2.38.29.52.19a.24.24,0,0,0,.11-.22.56.56,0,0,0-.1-.34h0a.6.6,0,0,0-.28-.22A.34.34,0,0,0,109.18,34.39Z"/>
              <path class="cls-25" d="M97.14,44.53a.42.42,0,0,1-.49-.19.54.54,0,0,1-.1-.31.34.34,0,0,1,.14-.26.33.33,0,0,1,.29,0,.63.63,0,0,1,.26.2.53.53,0,0,1,.09.31.29.29,0,0,1-.14.26Zm-.34-.65h0a.21.21,0,0,0-.07.15.35.35,0,0,0,.07.21c.09.13.25.19.34.13a.18.18,0,0,0,.07-.15.35.35,0,0,0-.07-.21h0a.31.31,0,0,0-.18-.14A.15.15,0,0,0,96.8,43.88Z"/>
              <path class="cls-24" d="M112.87,42.57c0,.3-.2.54-.42.53s-.4-.25-.4-.55a.51.51,0,0,1,.43-.54A.5.5,0,0,1,112.87,42.57Z"/>
              <path class="cls-24" d="M107.26,48.89a.49.49,0,0,1-.64-.23c-.07-.21.11-.46.4-.55a.5.5,0,0,1,.64.22C107.73,48.55,107.55,48.79,107.26,48.89Z"/>
              <path class="cls-23" d="M105.93,32c0,.21-.37.31-.73.24s-.62-.3-.58-.5.37-.31.73-.24S106,31.77,105.93,32Z"/>
              <path class="cls-24" d="M106.65,31.58c0,.09-.18.13-.36.1s-.31-.13-.3-.22.18-.14.36-.11S106.66,31.49,106.65,31.58Z"/>
              <circle class="cls-13" cx="99.29" cy="37.04" r="0.73"/>
              <path class="cls-13" d="M101.81,38.43a.33.33,0,1,1-.38-.26A.33.33,0,0,1,101.81,38.43Z"/>
            </g>
          </g>
          <g>
            <rect class="cls-13" x="121.56" y="28.4" width="12.39" height="2.38" transform="translate(-3.3 24.97) rotate(-11.02)"/>
            <rect class="cls-13" x="122.54" y="34.24" width="6.74" height="1.26" transform="translate(-4.35 24.72) rotate(-11.02)"/>
            <rect class="cls-13" x="129.87" y="32.14" width="13.65" height="1.26" transform="translate(-3.74 26.74) rotate(-11.02)"/>
            <rect class="cls-13" x="122.97" y="36.17" width="12.64" height="1.26" transform="translate(-4.65 25.4) rotate(-11.02)"/>
            <rect class="cls-13" x="136.59" y="33.96" width="8.04" height="1.26" transform="translate(-4.02 27.52) rotate(-11.02)"/>
            <rect class="cls-13" x="123.42" y="38.32" width="16.12" height="1.26" transform="translate(-5.02 25.86) rotate(-11.02)"/>
            <rect class="cls-13" x="124.01" y="41.83" width="5.34" height="1.26" transform="translate(-5.78 25) rotate(-11.02)"/>
            <rect class="cls-13" x="129.96" y="40.41" width="8.09" height="1.26" transform="translate(-5.37 26.38) rotate(-11.02)"/>
            <rect class="cls-13" x="138.61" y="38.99" width="5.31" height="1.26" transform="translate(-4.97 27.74) rotate(-11.02)"/>
            <rect class="cls-13" x="124.46" y="43.98" width="8.92" height="1.26" transform="translate(-6.15 25.47) rotate(-11.02)"/>
            <rect class="cls-13" x="134.24" y="42.62" width="3.28" height="1.26" transform="translate(-5.76 26.78) rotate(-11.02)"/>
          </g>
        </g>
        <g>
          <g>
            <path class="cls-26" d="M103.93,87.42l-2.6-12.81.18,0,18.32,2.52Zm-2.28-12.51L104.11,87l15-9.7Z"/>
            <path class="cls-26" d="M119.7,77.39l-18.49-2.54.19-.18,11.27-10.92.08.15Zm-17.93-2.72,17.47,2.4-6.64-12.9Z"/>
            <path class="cls-26" d="M101.87,74.69a.39.39,0,0,1-.31.45.38.38,0,0,1-.44-.31.37.37,0,0,1,.3-.44A.38.38,0,0,1,101.87,74.69Z"/>
            <path class="cls-26" d="M113,63.89a.37.37,0,0,1-.3.44.38.38,0,0,1-.45-.3.38.38,0,1,1,.75-.14Z"/>
            <path class="cls-26" d="M119.85,77.15a.39.39,0,1,1-.45-.3A.4.4,0,0,1,119.85,77.15Z"/>
          </g>
          <g>
            <path class="cls-26" d="M74.49,35.32a.38.38,0,0,1-.75.15.38.38,0,0,1,.75-.15Z"/>
            <path class="cls-26" d="M71,25.9a.39.39,0,0,1-.3.45.38.38,0,1,1-.15-.75A.39.39,0,0,1,71,25.9Z"/>
            <path class="cls-26" d="M77.23,15.39a.39.39,0,0,1-.31.45.37.37,0,0,1-.44-.3.38.38,0,0,1,.3-.45A.39.39,0,0,1,77.23,15.39Z"/>
            <path class="cls-26" d="M89.81,17.8a.39.39,0,0,1-.3.45.39.39,0,0,1-.45-.31.38.38,0,0,1,.75-.14Z"/>
            <path class="cls-26" d="M74.07,35.64,70.52,26l0-.05,6.2-10.58.08,0,13.1,2.39ZM70.81,26l3.35,9.16L89.43,17.91,76.88,15.62Z"/>
            <polygon class="cls-26" points="89.73 17.94 89.63 17.71 102.79 11.6 102.81 11.6 113.03 10.61 118.45 0 118.68 0.12 113.19 10.85 102.86 11.85 89.73 17.94"/>
          </g>
          <g>
            <path class="cls-26" d="M31.28,73.5A.39.39,0,0,1,31,74a.38.38,0,1,1-.15-.75A.39.39,0,0,1,31.28,73.5Z"/>
            <circle class="cls-26" cx="44.93" cy="74.97" r="0.38"/>
            <path class="cls-26" d="M39.12,80.51a.38.38,0,1,1-.45-.31A.39.39,0,0,1,39.12,80.51Z"/>
            <path class="cls-26" d="M54.35,82.06a.38.38,0,1,1-.45-.3A.38.38,0,0,1,54.35,82.06Z"/>
            <polygon class="cls-26" points="53.9 82.23 44.94 75.14 38.74 80.72 30.82 73.67 30.99 73.48 38.74 80.38 44.93 74.81 45.01 74.87 54.05 82.03 53.9 82.23"/>
          </g>
        </g>
        <g>
          <g>
            <rect class="cls-13" x="1.77" y="31.89" width="12.39" height="2.38" transform="translate(22.11 64.04) rotate(168.98)"/>
            <rect class="cls-13" x="8.3" y="36.66" width="6.74" height="1.26" transform="translate(-6.91 2.92) rotate(-11.02)"/>
            <rect class="cls-13" x="2.93" y="39.71" width="12.64" height="1.26" transform="translate(-7.54 2.51) rotate(-11.02)"/>
            <rect class="cls-13" x="-0.03" y="42.52" width="16.12" height="1.26" transform="matrix(-0.98, 0.19, -0.19, -0.98, 24.16, 83.98)"/>
            <rect class="cls-13" x="11.13" y="43.98" width="5.34" height="1.26" transform="translate(-8.27 3.46) rotate(-11.02)"/>
            <rect class="cls-13" x="2.43" y="45.41" width="8.09" height="1.26" transform="translate(-8.68 2.09) rotate(-11.02)"/>
            <rect class="cls-13" x="8.07" y="46.81" width="8.92" height="1.26" transform="translate(-8.84 3.27) rotate(-11.02)"/>
          </g>
          <g>
            <g>
              <path class="cls-16" d="M56.8,28.54a22.21,22.21,0,1,1-30-9.18,21.84,21.84,0,0,1,8.31-2.49A22.18,22.18,0,0,1,56.8,28.54Z"/>
              <path class="cls-21" d="M52.92,30.61a17.82,17.82,0,1,1-17.43-9.37A17.81,17.81,0,0,1,52.92,30.61Z"/>
              <path class="cls-17" d="M50.85,31.71a15.47,15.47,0,1,1-20.92-6.4,15.14,15.14,0,0,1,5.78-1.74A15.48,15.48,0,0,1,50.85,31.71Z"/>
            </g>
            <g>
              <path class="cls-23" d="M50,32.15a14.53,14.53,0,1,1-19.65-6,14.25,14.25,0,0,1,5.43-1.63A14.51,14.51,0,0,1,50,32.15Z"/>
              <path class="cls-24" d="M46,32a14.54,14.54,0,0,1-6,19.66,14.39,14.39,0,0,1-5.46,1.63,14.53,14.53,0,0,1-4.12-27.11,14.25,14.25,0,0,1,5.43-1.63A14.48,14.48,0,0,1,46,32Z"/>
              <path class="cls-25" d="M44.91,47.41c-1.91,1-1.64.78-3.14,2.75S38.88,52.09,37.12,53a9.92,9.92,0,0,1-.92.44,14.48,14.48,0,0,0,14.7-9.65l-1.1,1C48,46.48,46.82,46.39,44.91,47.41ZM33.65,41.15c2.15-2.22,4.3-2.58,6.64-3.73a32.33,32.33,0,0,0,7.16-4.59A21,21,0,0,0,49.33,31a14.43,14.43,0,0,0-5.12-4.75c-1,1-2.16,2.05-3.31,3.11-2,1.87-4,1.92-5.7,2.73a9,9,0,0,0-3.72,3.16,32.74,32.74,0,0,1-5.09,5.16,14.4,14.4,0,0,1-3.29,2.14,14.58,14.58,0,0,0,2.41,5.07,14.38,14.38,0,0,0,2.31-1C30.3,45.18,31.5,43.37,33.65,41.15Zm9.83.26a10.07,10.07,0,0,0-4,2.15,10,10,0,0,0-2.41,3s-4.38,2.82-6.47,4a11.09,11.09,0,0,1-1.2.58,15.27,15.27,0,0,0,3.16,1.51,41.72,41.72,0,0,0,6.27-3.93c2-1.75,3.29-3.22,4.58-4.1s3.79-1.91,6.42-3.41a19.69,19.69,0,0,0,1.89-1.21,14.42,14.42,0,0,0-.24-4l-1,1.22S45.87,40.73,43.48,41.41Zm2.71-4.87c-2.39,2-4.93,2.52-6.69,3.27A11.45,11.45,0,0,0,36,42.76s-3.81,4.08-6.52,5.43a15.81,15.81,0,0,1-2.64,1q.44.43.9.84c.33-.09.63-.19.89-.27a18.56,18.56,0,0,0,5.1-3.5c1.74-1.51,3-3.67,4.29-4.83s2.19-.48,3.54-.9a16,16,0,0,0,4.53-2.71c1-.82,3.11-2.42,4.75-3.87-.13-.35-.28-.71-.44-1.06C49.21,33.92,47.56,35.42,46.19,36.54ZM25.63,31.6c1.9-1.4,3.05-1.82,3.84-2.53s1.38-.74,3-1.9a7.41,7.41,0,0,0,1.9-2.46,13.74,13.74,0,0,0-1.85.51,2.17,2.17,0,0,1-.24.29c-1.21,1.23-3.16,2.17-4.34,3.09a24.31,24.31,0,0,1-2.42,1.69,14.93,14.93,0,0,0-1.31,2.12A7.51,7.51,0,0,0,25.63,31.6ZM28.18,36c2.08-1.8,2.54-3.32,4-4.55s2.64-1.12,4.55-2.13a12.66,12.66,0,0,0,5.21-4.13,14.35,14.35,0,0,0-3.73-.74,20,20,0,0,1-1.63,2.2c-3,3.56-2.7,1.73-4.7,3.68a39.29,39.29,0,0,1-5.62,4.55,28,28,0,0,1-3.43,2.15,14.91,14.91,0,0,0-.12,2.32A29.48,29.48,0,0,0,28.18,36Z"/>
              <path class="cls-22" d="M59,21.05c-1.21-1.44-6.66,1-13.65,5.87.27.18.55.38.81.59,4.79-3.37,8.24-5.18,8.88-4.43s-1.66,3.8-5.67,7.92c-2.65,2.7-6.05,5.86-9.87,9.1A140.45,140.45,0,0,1,27.2,49.53c-3.81,2.54-6.48,3.81-7,3.16s1.16-3.14,4.37-6.56c-.07-.11-.13-.22-.19-.33s-.19-.36-.27-.54c-5,5.42-7.68,9.7-6.56,11s5.9-.7,12.17-4.86a128.64,128.64,0,0,0,11.78-9c3.49-3,6.64-5.92,9.3-8.66C56.81,27.58,60.21,22.51,59,21.05Z"/>
            </g>
          </g>
        </g>
      </g>
    </g>
  </g>
</svg>
